<?xml version="1.0" encoding="UTF-8" standalone="no"?>
<!DOCTYPE svg PUBLIC "-//W3C//DTD SVG 1.1//EN"
 "http://www.w3.org/Graphics/SVG/1.1/DTD/svg11.dtd">
<!-- Generated by graphviz version 10.0.1 (0)
 -->
<!-- Pages: 1 -->
<svg width="344pt" height="56pt"
 viewBox="0.00 0.00 343.70 55.70" xmlns="http://www.w3.org/2000/svg" xmlns:xlink="http://www.w3.org/1999/xlink">
<g id="graph0" class="graph" transform="scale(1 1) rotate(0) translate(4 51.7)">
<polygon fill="white" stroke="none" points="-4,4 -4,-51.7 339.7,-51.7 339.7,4 -4,4"/>
<!-- 1 -->
<g id="node1" class="node">
<title>1</title>
<ellipse fill="none" stroke="green" cx="18" cy="-23.85" rx="18" ry="18"/>
<text text-anchor="middle" x="18" y="-19.18" font-family="Times,serif" font-size="14.00">1</text>
</g>
<!-- 13 -->
<g id="node2" class="node">
<title>13</title>
<ellipse fill="none" stroke="green" cx="167.85" cy="-23.85" rx="23.85" ry="23.85"/>
<text text-anchor="middle" x="167.85" y="-19.18" font-family="Times,serif" font-size="14.00">13</text>
</g>
<!-- 1&#45;&gt;13 -->
<g id="edge1" class="edge">
<title>1&#45;&gt;13</title>
<path fill="none" stroke="green" d="M36.25,-23.85C59.72,-23.85 102.24,-23.85 132.38,-23.85"/>
<polygon fill="green" stroke="green" points="132.14,-27.35 142.14,-23.85 132.14,-20.35 132.14,-27.35"/>
<text text-anchor="middle" x="90" y="-27.8" font-family="Times,serif" font-size="14.00">14, &#160;0.013</text>
</g>
<!-- 2 -->
<g id="node3" class="node">
<title>2</title>
<ellipse fill="none" stroke="green" cx="317.7" cy="-23.85" rx="18" ry="18"/>
<text text-anchor="middle" x="317.7" y="-19.18" font-family="Times,serif" font-size="14.00">2</text>
</g>
<!-- 13&#45;&gt;2 -->
<g id="edge2" class="edge">
<title>13&#45;&gt;2</title>
<path fill="none" stroke="green" d="M191.95,-23.85C217.85,-23.85 259.86,-23.85 287.88,-23.85"/>
<polygon fill="green" stroke="green" points="287.79,-27.35 297.79,-23.85 287.79,-20.35 287.79,-27.35"/>
<text text-anchor="middle" x="245.7" y="-27.8" font-family="Times,serif" font-size="14.00">15, &#160;1.827</text>
</g>
</g>
</svg>
