<?xml version="1.0" encoding="UTF-8" standalone="no"?>
<!DOCTYPE svg PUBLIC "-//W3C//DTD SVG 1.1//EN"
 "http://www.w3.org/Graphics/SVG/1.1/DTD/svg11.dtd">
<!-- Generated by graphviz version 10.0.1 (0)
 -->
<!-- Pages: 1 -->
<svg width="751pt" height="225pt"
 viewBox="0.00 0.00 751.45 224.73" xmlns="http://www.w3.org/2000/svg" xmlns:xlink="http://www.w3.org/1999/xlink">
<g id="graph0" class="graph" transform="scale(1 1) rotate(0) translate(4 220.73)">
<polygon fill="white" stroke="none" points="-4,4 -4,-220.73 747.45,-220.73 747.45,4 -4,4"/>
<!-- 1 -->
<g id="node1" class="node">
<title>1</title>
<polygon fill="none" stroke="green" points="27,-194.48 0,-176.48 27,-158.48 54,-176.48 27,-194.48"/>
<text text-anchor="middle" x="27" y="-171.8" font-family="Times,serif" font-size="14.00">1</text>
</g>
<!-- 2 -->
<g id="node2" class="node">
<title>2</title>
<polygon fill="none" stroke="green" points="743.45,-148.48 689.45,-148.48 689.45,-112.48 743.45,-112.48 743.45,-148.48"/>
<text text-anchor="middle" x="716.45" y="-125.8" font-family="Times,serif" font-size="14.00">2</text>
</g>
<!-- 1&#45;&gt;2 -->
<g id="edge1" class="edge">
<title>1&#45;&gt;2</title>
<path fill="none" stroke="red" d="M47.13,-181.58C74.26,-188.36 125.55,-199.48 170,-199.48 170,-199.48 170,-199.48 527.98,-199.48 583.46,-199.48 642.8,-172.54 679.52,-152.32"/>
<polygon fill="red" stroke="red" points="680.95,-155.54 687.94,-147.57 677.51,-149.44 680.95,-155.54"/>
<text text-anchor="middle" x="330.75" y="-203.43" font-family="Times,serif" font-size="14.00">3, &#160;&#45;1.664</text>
</g>
<!-- 7 -->
<g id="node3" class="node">
<title>7</title>
<ellipse fill="none" stroke="green" cx="171" cy="-153.48" rx="18" ry="18"/>
<text text-anchor="middle" x="171" y="-148.8" font-family="Times,serif" font-size="14.00">7</text>
</g>
<!-- 1&#45;&gt;7 -->
<g id="edge2" class="edge">
<title>1&#45;&gt;7</title>
<path fill="none" stroke="green" d="M48.57,-172.46C55.95,-171.06 64.34,-169.52 72,-168.23 95.46,-164.26 122.18,-160.28 141.78,-157.45"/>
<polygon fill="green" stroke="green" points="142.07,-160.94 151.48,-156.06 141.08,-154.01 142.07,-160.94"/>
<text text-anchor="middle" x="103.5" y="-172.43" font-family="Times,serif" font-size="14.00">8, &#160;0.014</text>
</g>
<!-- 7&#45;&gt;2 -->
<g id="edge3" class="edge">
<title>7&#45;&gt;2</title>
<path fill="none" stroke="green" d="M189.32,-153.89C253.44,-155.24 483.38,-158.29 671.45,-138.48 673.51,-138.26 675.61,-138 677.73,-137.71"/>
<polygon fill="green" stroke="green" points="678.19,-141.19 687.53,-136.18 677.11,-134.27 678.19,-141.19"/>
<text text-anchor="middle" x="427.5" y="-158.43" font-family="Times,serif" font-size="14.00">9, &#160;1.032</text>
</g>
<!-- 37 -->
<g id="node4" class="node">
<title>37</title>
<ellipse fill="none" stroke="green" cx="330.75" cy="-101.48" rx="23.85" ry="23.85"/>
<text text-anchor="middle" x="330.75" y="-96.8" font-family="Times,serif" font-size="14.00">37</text>
</g>
<!-- 7&#45;&gt;37 -->
<g id="edge4" class="edge">
<title>7&#45;&gt;37</title>
<path fill="none" stroke="green" d="M183.37,-140.29C189.67,-133.83 198.04,-126.53 207,-122.23 234.75,-108.89 269.62,-103.97 295.1,-102.23"/>
<polygon fill="green" stroke="green" points="295.12,-105.73 304.92,-101.7 294.74,-98.74 295.12,-105.73"/>
<text text-anchor="middle" x="243" y="-126.43" font-family="Times,serif" font-size="14.00">38, &#160;0.507</text>
</g>
<!-- 37&#45;&gt;2 -->
<g id="edge5" class="edge">
<title>37&#45;&gt;2</title>
<path fill="none" stroke="red" d="M354.89,-103.23C418.92,-108.07 598.94,-121.67 677.73,-127.63"/>
<polygon fill="red" stroke="red" points="677.29,-131.1 687.52,-128.37 677.81,-124.12 677.29,-131.1"/>
<text text-anchor="middle" x="526.98" y="-123.43" font-family="Times,serif" font-size="14.00">39, &#160;1.89</text>
</g>
<!-- 2902 -->
<g id="node5" class="node">
<title>2902</title>
<ellipse fill="none" stroke="green" cx="526.98" cy="-36.48" rx="36.48" ry="36.48"/>
<text text-anchor="middle" x="526.98" y="-31.8" font-family="Times,serif" font-size="14.00">2902</text>
</g>
<!-- 37&#45;&gt;2902 -->
<g id="edge6" class="edge">
<title>37&#45;&gt;2902</title>
<path fill="none" stroke="green" d="M352.15,-90.76C361.28,-86.22 372.27,-81.09 382.5,-77.23 414.47,-65.15 451.61,-54.69 480.09,-47.4"/>
<polygon fill="green" stroke="green" points="480.64,-50.87 489.48,-45.03 478.93,-44.08 480.64,-50.87"/>
<text text-anchor="middle" x="427.5" y="-81.43" font-family="Times,serif" font-size="14.00">2903, &#160;0.716</text>
</g>
<!-- 2902&#45;&gt;2 -->
<g id="edge7" class="edge">
<title>2902&#45;&gt;2</title>
<path fill="none" stroke="green" d="M563.46,-40.53C594.1,-45.38 638.5,-55.71 671.45,-77.23 681.7,-83.91 690.76,-93.73 697.96,-103.11"/>
<polygon fill="green" stroke="green" points="694.95,-104.92 703.63,-110.99 700.63,-100.83 694.95,-104.92"/>
<text text-anchor="middle" x="626.45" y="-81.43" font-family="Times,serif" font-size="14.00">2904, &#160;0.929</text>
</g>
</g>
</svg>
