<?xml version="1.0" encoding="UTF-8" standalone="no"?>
<!DOCTYPE svg PUBLIC "-//W3C//DTD SVG 1.1//EN"
 "http://www.w3.org/Graphics/SVG/1.1/DTD/svg11.dtd">
<!-- Generated by graphviz version 10.0.1 (0)
 -->
<!-- Pages: 1 -->
<svg width="1906pt" height="375pt"
 viewBox="0.00 0.00 1906.32 375.04" xmlns="http://www.w3.org/2000/svg" xmlns:xlink="http://www.w3.org/1999/xlink">
<g id="graph0" class="graph" transform="scale(1 1) rotate(0) translate(4 371.04)">
<polygon fill="white" stroke="none" points="-4,4 -4,-371.04 1902.32,-371.04 1902.32,4 -4,4"/>
<!-- 1 -->
<g id="node1" class="node">
<title>1</title>
<polygon fill="none" stroke="green" points="27,-322.79 0,-304.79 27,-286.79 54,-304.79 27,-322.79"/>
<text text-anchor="middle" x="27" y="-300.12" font-family="Times,serif" font-size="14.00">1</text>
</g>
<!-- 2 -->
<g id="node2" class="node">
<title>2</title>
<polygon fill="none" stroke="green" points="1898.32,-299.79 1844.32,-299.79 1844.32,-263.79 1898.32,-263.79 1898.32,-299.79"/>
<text text-anchor="middle" x="1871.32" y="-277.12" font-family="Times,serif" font-size="14.00">2</text>
</g>
<!-- 1&#45;&gt;2 -->
<g id="edge1" class="edge">
<title>1&#45;&gt;2</title>
<path fill="none" stroke="green" d="M44.49,-311.53C76.74,-324.08 150.71,-349.79 215.48,-349.79 215.48,-349.79 215.48,-349.79 1674.32,-349.79 1744.17,-349.79 1762.31,-337.77 1826.32,-309.79 1829.1,-308.57 1831.91,-307.2 1834.69,-305.72"/>
<polygon fill="green" stroke="green" points="1836.3,-308.83 1843.22,-300.81 1832.8,-302.76 1836.3,-308.83"/>
<text text-anchor="middle" x="964.91" y="-353.74" font-family="Times,serif" font-size="14.00">3, &#160;0.015</text>
</g>
<!-- 3807 -->
<g id="node3" class="node">
<title>3807</title>
<ellipse fill="none" stroke="green" cx="216.48" cy="-258.79" rx="36.48" ry="36.48"/>
<text text-anchor="middle" x="216.48" y="-254.12" font-family="Times,serif" font-size="14.00">3807</text>
</g>
<!-- 1&#45;&gt;3807 -->
<g id="edge2" class="edge">
<title>1&#45;&gt;3807</title>
<path fill="none" stroke="green" d="M47.36,-300.04C75.97,-293.02 130.38,-279.67 169.56,-270.06"/>
<polygon fill="green" stroke="green" points="170.33,-273.47 179.21,-267.69 168.66,-266.67 170.33,-273.47"/>
<text text-anchor="middle" x="117" y="-296.74" font-family="Times,serif" font-size="14.00">3808, &#160;0.011</text>
</g>
<!-- 3807&#45;&gt;2 -->
<g id="edge3" class="edge">
<title>3807&#45;&gt;2</title>
<path fill="none" stroke="green" d="M251.08,-271.6C289.84,-285.21 355.79,-304.79 414.43,-304.79 414.43,-304.79 414.43,-304.79 1674.32,-304.79 1729.86,-304.79 1793.65,-295.57 1832.98,-288.8"/>
<polygon fill="green" stroke="green" points="1833.39,-292.28 1842.63,-287.1 1832.17,-285.39 1833.39,-292.28"/>
<text text-anchor="middle" x="1068.41" y="-308.74" font-family="Times,serif" font-size="14.00">3809, &#160;1.15</text>
</g>
<!-- 3826 -->
<g id="node4" class="node">
<title>3826</title>
<ellipse fill="none" stroke="green" cx="1461.34" cy="-213.79" rx="36.48" ry="36.48"/>
<text text-anchor="middle" x="1461.34" y="-209.12" font-family="Times,serif" font-size="14.00">3826</text>
</g>
<!-- 3807&#45;&gt;3826 -->
<g id="edge4" class="edge">
<title>3807&#45;&gt;3826</title>
<path fill="none" stroke="red" d="M253.42,-258.79C292.9,-258.79 358.18,-258.79 414.43,-258.79 414.43,-258.79 414.43,-258.79 1263.38,-258.79 1316.81,-258.79 1376.39,-242.86 1415.88,-229.95"/>
<polygon fill="red" stroke="red" points="1416.91,-233.3 1425.28,-226.81 1414.69,-226.66 1416.91,-233.3"/>
<text text-anchor="middle" x="856.91" y="-262.74" font-family="Times,serif" font-size="14.00">3827, &#160;0.969</text>
</g>
<!-- 4604 -->
<g id="node5" class="node">
<title>4604</title>
<ellipse fill="none" stroke="green" cx="1068.41" cy="-159.79" rx="36.48" ry="36.48"/>
<text text-anchor="middle" x="1068.41" y="-155.12" font-family="Times,serif" font-size="14.00">4604</text>
</g>
<!-- 3807&#45;&gt;4604 -->
<g id="edge5" class="edge">
<title>3807&#45;&gt;4604</title>
<path fill="none" stroke="green" d="M251.08,-245.98C289.84,-232.37 355.79,-212.79 414.43,-212.79 414.43,-212.79 414.43,-212.79 857.91,-212.79 916.63,-212.79 981.86,-192.98 1023.68,-177.58"/>
<polygon fill="green" stroke="green" points="1024.78,-180.91 1032.9,-174.11 1022.31,-174.36 1024.78,-180.91"/>
<text text-anchor="middle" x="631.91" y="-216.74" font-family="Times,serif" font-size="14.00">4605, &#160;1.328</text>
</g>
<!-- 5196 -->
<g id="node6" class="node">
<title>5196</title>
<ellipse fill="none" stroke="green" cx="415.43" cy="-135.79" rx="36.48" ry="36.48"/>
<text text-anchor="middle" x="415.43" y="-131.12" font-family="Times,serif" font-size="14.00">5196</text>
</g>
<!-- 3807&#45;&gt;5196 -->
<g id="edge6" class="edge">
<title>3807&#45;&gt;5196</title>
<path fill="none" stroke="green" d="M233.4,-226.41C242.48,-210.88 255.22,-193.18 270.95,-181.54 299.47,-160.44 338.06,-148.86 368.03,-142.63"/>
<polygon fill="green" stroke="green" points="368.42,-146.12 377.57,-140.78 367.09,-139.25 368.42,-146.12"/>
<text text-anchor="middle" x="315.95" y="-185.74" font-family="Times,serif" font-size="14.00">5197, &#160;0.666</text>
</g>
<!-- 3826&#45;&gt;2 -->
<g id="edge16" class="edge">
<title>3826&#45;&gt;2</title>
<path fill="none" stroke="red" d="M1496.7,-224.11C1503.02,-225.82 1509.59,-227.46 1515.82,-228.79 1630.1,-253.26 1767.5,-270.35 1832.58,-277.72"/>
<polygon fill="red" stroke="red" points="1832.04,-281.18 1842.37,-278.82 1832.82,-274.23 1832.04,-281.18"/>
<text text-anchor="middle" x="1673.32" y="-267.74" font-family="Times,serif" font-size="14.00">3828, &#160;1.119</text>
</g>
<!-- 4782 -->
<g id="node10" class="node">
<title>4782</title>
<ellipse fill="none" stroke="green" cx="1673.32" cy="-187.79" rx="36.48" ry="36.48"/>
<text text-anchor="middle" x="1673.32" y="-183.12" font-family="Times,serif" font-size="14.00">4782</text>
</g>
<!-- 3826&#45;&gt;4782 -->
<g id="edge17" class="edge">
<title>3826&#45;&gt;4782</title>
<path fill="none" stroke="green" d="M1497.96,-209.38C1533.21,-205.02 1587.34,-198.31 1625.93,-193.53"/>
<polygon fill="green" stroke="green" points="1625.88,-197.07 1635.37,-192.36 1625.02,-190.12 1625.88,-197.07"/>
<text text-anchor="middle" x="1563.07" y="-211.74" font-family="Times,serif" font-size="14.00">4783, &#160;&#45;1.771</text>
</g>
<!-- 4604&#45;&gt;3826 -->
<g id="edge12" class="edge">
<title>4604&#45;&gt;3826</title>
<path fill="none" stroke="red" d="M1103.57,-170.18C1111.2,-172.25 1119.29,-174.26 1126.91,-175.79 1227.73,-196.07 1348.04,-206.45 1413.02,-210.94"/>
<polygon fill="red" stroke="red" points="1412.78,-214.43 1422.99,-211.61 1413.25,-207.45 1412.78,-214.43"/>
<text text-anchor="middle" x="1262.38" y="-205.74" font-family="Times,serif" font-size="14.00">4606, &#160;1.0</text>
</g>
<!-- 4610 -->
<g id="node9" class="node">
<title>4610</title>
<ellipse fill="none" stroke="green" cx="1262.38" cy="-141.79" rx="36.48" ry="36.48"/>
<text text-anchor="middle" x="1262.38" y="-137.12" font-family="Times,serif" font-size="14.00">4610</text>
</g>
<!-- 4604&#45;&gt;4610 -->
<g id="edge13" class="edge">
<title>4604&#45;&gt;4610</title>
<path fill="none" stroke="green" d="M1105.07,-156.45C1135.82,-153.56 1180.45,-149.38 1214.16,-146.22"/>
<polygon fill="green" stroke="green" points="1214.45,-149.71 1224.08,-145.29 1213.8,-142.74 1214.45,-149.71"/>
<text text-anchor="middle" x="1167.41" y="-158.74" font-family="Times,serif" font-size="14.00">4611, &#160;0.48</text>
</g>
<!-- 4604&#45;&gt;4782 -->
<g id="edge14" class="edge">
<title>4604&#45;&gt;4782</title>
<path fill="none" stroke="green" d="M1100.97,-142.88C1131.82,-127.39 1180.62,-105.56 1225.91,-96.79 1374.54,-68 1550.47,-133.13 1629.78,-167.83"/>
<polygon fill="green" stroke="green" points="1627.93,-170.84 1638.49,-171.7 1630.77,-164.44 1627.93,-170.84"/>
<text text-anchor="middle" x="1361.86" y="-102.74" font-family="Times,serif" font-size="14.00">4882, &#160;0.43</text>
</g>
<!-- 5196&#45;&gt;4604 -->
<g id="edge7" class="edge">
<title>5196&#45;&gt;4604</title>
<path fill="none" stroke="red" d="M451.76,-140.93C457.8,-141.66 464.03,-142.32 469.91,-142.79 674.4,-159.04 919.34,-160.33 1020.34,-160.08"/>
<polygon fill="red" stroke="red" points="1020.14,-163.58 1030.13,-160.04 1020.12,-156.58 1020.14,-163.58"/>
<text text-anchor="middle" x="744.41" y="-161.74" font-family="Times,serif" font-size="14.00">5198, &#160;1.158</text>
</g>
<!-- 7276 -->
<g id="node7" class="node">
<title>7276</title>
<ellipse fill="none" stroke="green" cx="856.91" cy="-102.79" rx="36.48" ry="36.48"/>
<text text-anchor="middle" x="856.91" y="-98.12" font-family="Times,serif" font-size="14.00">7276</text>
</g>
<!-- 5196&#45;&gt;7276 -->
<g id="edge8" class="edge">
<title>5196&#45;&gt;7276</title>
<path fill="none" stroke="red" d="M452.02,-133.12C530.93,-127.19 720.56,-112.95 809.01,-106.31"/>
<polygon fill="red" stroke="red" points="809.07,-109.82 818.78,-105.58 808.55,-102.84 809.07,-109.82"/>
<text text-anchor="middle" x="631.91" y="-126.74" font-family="Times,serif" font-size="14.00">7277, &#160;0.948</text>
</g>
<!-- 10160 -->
<g id="node8" class="node">
<title>10160</title>
<ellipse fill="none" stroke="green" cx="631.91" cy="-42.79" rx="42.79" ry="42.79"/>
<text text-anchor="middle" x="631.91" y="-38.12" font-family="Times,serif" font-size="14.00">10160</text>
</g>
<!-- 5196&#45;&gt;10160 -->
<g id="edge9" class="edge">
<title>5196&#45;&gt;10160</title>
<path fill="none" stroke="green" d="M442.03,-110.42C450.39,-103.2 460.06,-95.86 469.91,-90.54 503.87,-72.2 545.76,-60.05 578.3,-52.61"/>
<polygon fill="green" stroke="green" points="578.9,-56.06 587.91,-50.49 577.39,-49.22 578.9,-56.06"/>
<text text-anchor="middle" x="519.41" y="-94.74" font-family="Times,serif" font-size="14.00">10161, &#160;0.957</text>
</g>
<!-- 7276&#45;&gt;4604 -->
<g id="edge11" class="edge">
<title>7276&#45;&gt;4604</title>
<path fill="none" stroke="green" d="M893.41,-108.5C924.53,-113.96 970.78,-123.19 1009.91,-135.54 1014.63,-137.03 1019.49,-138.76 1024.3,-140.6"/>
<polygon fill="green" stroke="green" points="1022.67,-143.71 1033.26,-144.17 1025.27,-137.21 1022.67,-143.71"/>
<text text-anchor="middle" x="964.91" y="-139.74" font-family="Times,serif" font-size="14.00">7278, &#160;0.834</text>
</g>
<!-- 10160&#45;&gt;7276 -->
<g id="edge10" class="edge">
<title>10160&#45;&gt;7276</title>
<path fill="none" stroke="green" d="M673.55,-53.73C712.17,-64.12 770.14,-79.71 810.31,-90.52"/>
<polygon fill="green" stroke="green" points="809.37,-93.89 819.94,-93.11 811.19,-87.13 809.37,-93.89"/>
<text text-anchor="middle" x="744.41" y="-89.74" font-family="Times,serif" font-size="14.00">10162, &#160;1.125</text>
</g>
<!-- 4610&#45;&gt;3826 -->
<g id="edge15" class="edge">
<title>4610&#45;&gt;3826</title>
<path fill="none" stroke="green" d="M1298.43,-149.13C1328.01,-155.94 1371.13,-167.32 1406.86,-182.54 1411.26,-184.41 1415.74,-186.58 1420.14,-188.88"/>
<polygon fill="green" stroke="green" points="1418.43,-191.93 1428.88,-193.68 1421.8,-185.79 1418.43,-191.93"/>
<text text-anchor="middle" x="1361.86" y="-186.74" font-family="Times,serif" font-size="14.00">4612, &#160;1.546</text>
</g>
<!-- 4782&#45;&gt;2 -->
<g id="edge18" class="edge">
<title>4782&#45;&gt;2</title>
<path fill="none" stroke="green" d="M1709.99,-191.13C1742.48,-195.54 1790.69,-205.65 1826.32,-228.54 1836.61,-235.15 1845.68,-244.95 1852.88,-254.34"/>
<polygon fill="green" stroke="green" points="1849.87,-256.15 1858.54,-262.24 1855.56,-252.07 1849.87,-256.15"/>
<text text-anchor="middle" x="1781.32" y="-232.74" font-family="Times,serif" font-size="14.00">4784, &#160;0.651</text>
</g>
</g>
</svg>
