<?xml version="1.0" encoding="UTF-8" standalone="no"?>
<!DOCTYPE svg PUBLIC "-//W3C//DTD SVG 1.1//EN"
 "http://www.w3.org/Graphics/SVG/1.1/DTD/svg11.dtd">
<!-- Generated by graphviz version 10.0.1 (0)
 -->
<!-- Pages: 1 -->
<svg width="2372pt" height="1325pt"
 viewBox="0.00 0.00 2372.41 1325.25" xmlns="http://www.w3.org/2000/svg" xmlns:xlink="http://www.w3.org/1999/xlink">
<g id="graph0" class="graph" transform="scale(1 1) rotate(0) translate(4 1321.25)">
<polygon fill="white" stroke="none" points="-4,4 -4,-1321.25 2368.41,-1321.25 2368.41,4 -4,4"/>
<!-- 1 -->
<g id="node1" class="node">
<title>1</title>
<polygon fill="none" stroke="green" points="27,-903 0,-885 27,-867 54,-885 27,-903"/>
<text text-anchor="middle" x="27" y="-880.33" font-family="Times,serif" font-size="14.00">1</text>
</g>
<!-- 2 -->
<g id="node2" class="node">
<title>2</title>
<polygon fill="none" stroke="green" points="2364.41,-355 2310.41,-355 2310.41,-319 2364.41,-319 2364.41,-355"/>
<text text-anchor="middle" x="2337.41" y="-332.32" font-family="Times,serif" font-size="14.00">2</text>
</g>
<!-- 1&#45;&gt;2 -->
<g id="edge1" class="edge">
<title>1&#45;&gt;2</title>
<path fill="none" stroke="red" d="M28.61,-902.2C30.95,-960.09 40.81,-1146.99 72,-1197 115.19,-1266.24 142.4,-1300 224,-1300 224,-1300 224,-1300 2158.41,-1300 2265.03,-1300 2258.35,-1202.04 2292.41,-1101 2339.48,-961.33 2338.01,-489.85 2336.78,-366.65"/>
<polygon fill="red" stroke="red" points="2340.28,-366.7 2336.67,-356.73 2333.28,-366.77 2340.28,-366.7"/>
<text text-anchor="middle" x="1197.95" y="-1303.95" font-family="Times,serif" font-size="14.00">3, &#160;1.0</text>
</g>
<!-- 13 -->
<g id="node3" class="node">
<title>13</title>
<ellipse fill="none" stroke="green" cx="2157.41" cy="-371" rx="23.85" ry="23.85"/>
<text text-anchor="middle" x="2157.41" y="-366.32" font-family="Times,serif" font-size="14.00">13</text>
</g>
<!-- 1&#45;&gt;13 -->
<g id="edge2" class="edge">
<title>1&#45;&gt;13</title>
<path fill="none" stroke="red" d="M27.38,-903.17C26.75,-945.06 29.81,-1050.44 72,-1124 116.37,-1201.36 134.82,-1255 224,-1255 224,-1255 224,-1255 1937.91,-1255 2115.85,-1255 2149.8,-571.42 2155.4,-406.49"/>
<polygon fill="red" stroke="red" points="2158.9,-406.72 2155.72,-396.62 2151.9,-406.5 2158.9,-406.72"/>
<text text-anchor="middle" x="1087.7" y="-1258.95" font-family="Times,serif" font-size="14.00">14, &#160;0.016</text>
</g>
<!-- 360 -->
<g id="node4" class="node">
<title>360</title>
<ellipse fill="none" stroke="green" cx="1720.91" cy="-481" rx="30.16" ry="30.16"/>
<text text-anchor="middle" x="1720.91" y="-476.32" font-family="Times,serif" font-size="14.00">360</text>
</g>
<!-- 1&#45;&gt;360 -->
<g id="edge3" class="edge">
<title>1&#45;&gt;360</title>
<path fill="none" stroke="red" d="M28.14,-902.6C29.25,-936.97 35.91,-1014.08 72,-1065 118.62,-1130.77 143.38,-1164 224,-1164 224,-1164 224,-1164 978.45,-1164 1193.94,-1164 1280.65,-1184.32 1449.95,-1051 1575.7,-951.98 1592.89,-903.25 1657.91,-757 1692.92,-678.23 1709.07,-577.74 1715.76,-522.33"/>
<polygon fill="red" stroke="red" points="1719.2,-523.06 1716.87,-512.72 1712.24,-522.25 1719.2,-523.06"/>
<text text-anchor="middle" x="867.2" y="-1167.95" font-family="Times,serif" font-size="14.00">361, &#160;1.0</text>
</g>
<!-- 380 -->
<g id="node5" class="node">
<title>380</title>
<ellipse fill="none" stroke="green" cx="225" cy="-436" rx="30.16" ry="30.16"/>
<text text-anchor="middle" x="225" y="-431.32" font-family="Times,serif" font-size="14.00">380</text>
</g>
<!-- 1&#45;&gt;380 -->
<g id="edge4" class="edge">
<title>1&#45;&gt;380</title>
<path fill="none" stroke="green" d="M28.2,-867.35C29.29,-825.01 35.69,-715.12 72,-632.75 101.74,-565.29 159.46,-500.26 194.58,-464.45"/>
<polygon fill="green" stroke="green" points="196.94,-467.05 201.5,-457.49 191.97,-462.12 196.94,-467.05"/>
<text text-anchor="middle" x="117" y="-636.95" font-family="Times,serif" font-size="14.00">381, &#160;0.009</text>
</g>
<!-- 627 -->
<g id="node6" class="node">
<title>627</title>
<ellipse fill="none" stroke="green" cx="1936.91" cy="-296" rx="30.16" ry="30.16"/>
<text text-anchor="middle" x="1936.91" y="-291.32" font-family="Times,serif" font-size="14.00">627</text>
</g>
<!-- 1&#45;&gt;627 -->
<g id="edge5" class="edge">
<title>1&#45;&gt;627</title>
<path fill="none" stroke="red" d="M28.37,-867.35C31.28,-749.04 55.28,-76 224,-76 224,-76 224,-76 1721.91,-76 1789.75,-76 1821.38,-47.07 1873.91,-90 1899.44,-110.86 1919.24,-200.92 1929.08,-254.82"/>
<polygon fill="red" stroke="red" points="1925.61,-255.33 1930.81,-264.56 1932.5,-254.1 1925.61,-255.33"/>
<text text-anchor="middle" x="977.45" y="-79.95" font-family="Times,serif" font-size="14.00">677, &#160;0.878</text>
</g>
<!-- 2421 -->
<g id="node7" class="node">
<title>2421</title>
<ellipse fill="none" stroke="green" cx="445.5" cy="-651" rx="36.48" ry="36.48"/>
<text text-anchor="middle" x="445.5" y="-646.33" font-family="Times,serif" font-size="14.00">2421</text>
</g>
<!-- 1&#45;&gt;2421 -->
<g id="edge6" class="edge">
<title>1&#45;&gt;2421</title>
<path fill="none" stroke="red" d="M31.07,-869.54C36.25,-846.64 48.52,-803.27 72,-774 108.29,-728.76 126.38,-722.85 180,-700.75 252.44,-670.89 343.48,-658.8 397.66,-654.02"/>
<polygon fill="red" stroke="red" points="397.78,-657.52 407.46,-653.2 397.2,-650.54 397.78,-657.52"/>
<text text-anchor="middle" x="225" y="-704.95" font-family="Times,serif" font-size="14.00">2640, &#160;1.028</text>
</g>
<!-- 3629 -->
<g id="node8" class="node">
<title>3629</title>
<ellipse fill="none" stroke="green" cx="1504.43" cy="-815" rx="36.48" ry="36.48"/>
<text text-anchor="middle" x="1504.43" y="-810.33" font-family="Times,serif" font-size="14.00">3629</text>
</g>
<!-- 1&#45;&gt;3629 -->
<g id="edge7" class="edge">
<title>1&#45;&gt;3629</title>
<path fill="none" stroke="green" d="M47.03,-879.79C81.86,-870.72 158.32,-853 224,-853 224,-853 224,-853 1302.45,-853 1356.71,-853 1417.78,-839.47 1458.22,-828.55"/>
<polygon fill="green" stroke="green" points="1459.14,-831.93 1467.85,-825.89 1457.28,-825.18 1459.14,-831.93"/>
<text text-anchor="middle" x="754.7" y="-856.95" font-family="Times,serif" font-size="14.00">3938, &#160;1.079</text>
</g>
<!-- 5595 -->
<g id="node9" class="node">
<title>5595</title>
<ellipse fill="none" stroke="green" cx="445.5" cy="-917" rx="36.48" ry="36.48"/>
<text text-anchor="middle" x="445.5" y="-912.33" font-family="Times,serif" font-size="14.00">5595</text>
</g>
<!-- 1&#45;&gt;5595 -->
<g id="edge8" class="edge">
<title>1&#45;&gt;5595</title>
<path fill="none" stroke="green" d="M51.89,-886.84C118.72,-891.97 308.51,-906.55 397.44,-913.38"/>
<polygon fill="green" stroke="green" points="397.04,-916.86 407.27,-914.14 397.57,-909.88 397.04,-916.86"/>
<text text-anchor="middle" x="225" y="-907.95" font-family="Times,serif" font-size="14.00">5596, &#160;1.069</text>
</g>
<!-- 8574 -->
<g id="node10" class="node">
<title>8574</title>
<ellipse fill="none" stroke="green" cx="225" cy="-763" rx="36.48" ry="36.48"/>
<text text-anchor="middle" x="225" y="-758.33" font-family="Times,serif" font-size="14.00">8574</text>
</g>
<!-- 1&#45;&gt;8574 -->
<g id="edge9" class="edge">
<title>1&#45;&gt;8574</title>
<path fill="none" stroke="green" d="M34.41,-871.36C41.7,-857.18 54.85,-835.22 72,-821.75 103.24,-797.2 145.95,-781.91 178.14,-773.1"/>
<polygon fill="green" stroke="green" points="178.8,-776.55 187.59,-770.63 177.03,-769.77 178.8,-776.55"/>
<text text-anchor="middle" x="117" y="-825.95" font-family="Times,serif" font-size="14.00">8575, &#160;0.931</text>
</g>
<!-- 7998 -->
<g id="node11" class="node">
<title>7998</title>
<ellipse fill="none" stroke="green" cx="867.2" cy="-993" rx="36.48" ry="36.48"/>
<text text-anchor="middle" x="867.2" y="-988.33" font-family="Times,serif" font-size="14.00">7998</text>
</g>
<!-- 1&#45;&gt;7998 -->
<g id="edge10" class="edge">
<title>1&#45;&gt;7998</title>
<path fill="none" stroke="green" d="M32.36,-899.99C48.41,-951.64 109.27,-1119 224,-1119 224,-1119 224,-1119 653.98,-1119 726.18,-1119 795.29,-1064.4 834.09,-1027.09"/>
<polygon fill="green" stroke="green" points="836.14,-1029.98 840.82,-1020.47 831.23,-1024.99 836.14,-1029.98"/>
<text text-anchor="middle" x="445.5" y="-1122.95" font-family="Times,serif" font-size="14.00">9173, &#160;1.082</text>
</g>
<!-- 13&#45;&gt;2 -->
<g id="edge60" class="edge">
<title>13&#45;&gt;2</title>
<path fill="none" stroke="green" d="M2181.31,-366.62C2211.14,-360.93 2263.65,-350.9 2299.22,-344.1"/>
<polygon fill="green" stroke="green" points="2299.47,-347.62 2308.63,-342.31 2298.15,-340.74 2299.47,-347.62"/>
<text text-anchor="middle" x="2254.16" y="-364.95" font-family="Times,serif" font-size="14.00">15, &#160;&#45;1.024</text>
</g>
<!-- 360&#45;&gt;2 -->
<g id="edge47" class="edge">
<title>360&#45;&gt;2</title>
<path fill="none" stroke="red" d="M1751.52,-482.64C1840.07,-486.2 2108.16,-487.09 2292.41,-382 2300.87,-377.18 2308.77,-370.26 2315.48,-363.28"/>
<polygon fill="red" stroke="red" points="2317.65,-366.1 2321.75,-356.32 2312.46,-361.41 2317.65,-366.1"/>
<text text-anchor="middle" x="2049.41" y="-475.95" font-family="Times,serif" font-size="14.00">366, &#160;&#45;0.941</text>
</g>
<!-- 360&#45;&gt;13 -->
<g id="edge46" class="edge">
<title>360&#45;&gt;13</title>
<path fill="none" stroke="red" d="M1750.42,-473.78C1827.6,-454.24 2040.38,-400.37 2123,-379.46"/>
<polygon fill="red" stroke="red" points="2123.69,-382.89 2132.52,-377.05 2121.97,-376.11 2123.69,-382.89"/>
<text text-anchor="middle" x="1936.91" y="-440.95" font-family="Times,serif" font-size="14.00">362, &#160;0.898</text>
</g>
<!-- 360&#45;&gt;627 -->
<g id="edge48" class="edge">
<title>360&#45;&gt;627</title>
<path fill="none" stroke="green" d="M1738.86,-456.29C1750.43,-440.46 1766.73,-420.1 1783.91,-404.75 1819.35,-373.08 1835.49,-374.98 1873.91,-347 1884.26,-339.46 1895.17,-330.77 1904.9,-322.71"/>
<polygon fill="green" stroke="green" points="1906.87,-325.63 1912.29,-316.52 1902.38,-320.26 1906.87,-325.63"/>
<text text-anchor="middle" x="1828.91" y="-408.95" font-family="Times,serif" font-size="14.00">628, &#160;1.697</text>
</g>
<!-- 380&#45;&gt;2 -->
<g id="edge12" class="edge">
<title>380&#45;&gt;2</title>
<path fill="none" stroke="green" d="M231.53,-465.83C244.11,-533.42 274.8,-696.56 288,-751 330.42,-925.9 326.36,-976.01 400.5,-1140 415.48,-1173.14 408.13,-1209 444.5,-1209 444.5,-1209 444.5,-1209 2158.41,-1209 2334.42,-1209 2338.13,-518.35 2336.81,-366.35"/>
<polygon fill="green" stroke="green" points="2340.31,-366.69 2336.71,-356.73 2333.31,-366.76 2340.31,-366.69"/>
<text text-anchor="middle" x="1301.45" y="-1212.95" font-family="Times,serif" font-size="14.00">393, &#160;1.567</text>
</g>
<!-- 380&#45;&gt;13 -->
<g id="edge13" class="edge">
<title>380&#45;&gt;13</title>
<path fill="none" stroke="green" d="M252.49,-422.69C292.86,-403.67 372.67,-371 444.5,-371 444.5,-371 444.5,-371 1937.91,-371 2002.92,-371 2078.82,-371 2121.88,-371"/>
<polygon fill="green" stroke="green" points="2121.61,-374.5 2131.61,-371 2121.61,-367.5 2121.61,-374.5"/>
<text text-anchor="middle" x="1197.95" y="-374.95" font-family="Times,serif" font-size="14.00">383, &#160;&#45;1.744</text>
</g>
<!-- 380&#45;&gt;360 -->
<g id="edge11" class="edge">
<title>380&#45;&gt;360</title>
<path fill="none" stroke="red" d="M254.84,-430.14C296.52,-422.2 376.08,-409 444.5,-409 444.5,-409 444.5,-409 1505.43,-409 1575.27,-409 1592.87,-421.55 1657.91,-447 1666.85,-450.5 1676.11,-455.03 1684.67,-459.64"/>
<polygon fill="red" stroke="red" points="1682.92,-462.68 1693.36,-464.5 1686.34,-456.57 1682.92,-462.68"/>
<text text-anchor="middle" x="977.45" y="-412.95" font-family="Times,serif" font-size="14.00">382, &#160;0.047</text>
</g>
<!-- 380&#45;&gt;627 -->
<g id="edge14" class="edge">
<title>380&#45;&gt;627</title>
<path fill="none" stroke="red" d="M240.07,-409.52C250.84,-391.88 267.35,-369.68 288,-357 348.43,-319.91 373.59,-326 444.5,-326 444.5,-326 444.5,-326 978.45,-326 1376.56,-326 1476.75,-330.47 1873.91,-303 1880.85,-302.52 1888.2,-301.84 1895.33,-301.09"/>
<polygon fill="red" stroke="red" points="1895.57,-304.59 1905.12,-300 1894.79,-297.63 1895.57,-304.59"/>
<text text-anchor="middle" x="1087.7" y="-330.95" font-family="Times,serif" font-size="14.00">636, &#160;1.0</text>
</g>
<!-- 380&#45;&gt;2421 -->
<g id="edge16" class="edge">
<title>380&#45;&gt;2421</title>
<path fill="none" stroke="green" d="M238.3,-463.26C249.23,-485.54 266.75,-516.99 288,-540 321.74,-576.52 369.34,-608.19 403.16,-628.25"/>
<polygon fill="green" stroke="green" points="401.04,-631.07 411.45,-633.08 404.57,-625.02 401.04,-631.07"/>
<text text-anchor="middle" x="335.25" y="-618.95" font-family="Times,serif" font-size="14.00">2422, &#160;&#45;1.893</text>
</g>
<!-- 1555 -->
<g id="node12" class="node">
<title>1555</title>
<ellipse fill="none" stroke="green" cx="1301.45" cy="-250" rx="36.48" ry="36.48"/>
<text text-anchor="middle" x="1301.45" y="-245.32" font-family="Times,serif" font-size="14.00">1555</text>
</g>
<!-- 380&#45;&gt;1555 -->
<g id="edge15" class="edge">
<title>380&#45;&gt;1555</title>
<path fill="none" stroke="red" d="M232.8,-406.39C240.97,-377.75 257.54,-335.37 288,-312 344.33,-268.79 373.51,-280 444.5,-280 444.5,-280 444.5,-280 1088.7,-280 1146.18,-280 1211.58,-269.03 1254.3,-260.36"/>
<polygon fill="red" stroke="red" points="1254.89,-263.81 1263.97,-258.35 1253.47,-256.95 1254.89,-263.81"/>
<text text-anchor="middle" x="754.7" y="-283.95" font-family="Times,serif" font-size="14.00">1556, &#160;&#45;1.569</text>
</g>
<!-- 3837 -->
<g id="node13" class="node">
<title>3837</title>
<ellipse fill="none" stroke="red" cx="652.98" cy="-473" rx="36.48" ry="36.48"/>
<text text-anchor="middle" x="652.98" y="-468.32" font-family="Times,serif" font-size="14.00">3837</text>
</g>
<!-- 380&#45;&gt;3837 -->
<g id="edge17" class="edge">
<title>380&#45;&gt;3837</title>
<path fill="none" stroke="red" d="M255.28,-438.54C327.87,-444.85 516.62,-461.24 605.02,-468.92"/>
<polygon fill="red" stroke="red" points="604.53,-472.39 614.79,-469.77 605.13,-465.42 604.53,-472.39"/>
<text text-anchor="middle" x="445.5" y="-462.95" font-family="Times,serif" font-size="14.00">3838, &#160;1.0</text>
</g>
<!-- 5447 -->
<g id="node14" class="node">
<title>5447</title>
<ellipse fill="none" stroke="green" cx="1504.43" cy="-511" rx="36.48" ry="36.48"/>
<text text-anchor="middle" x="1504.43" y="-506.32" font-family="Times,serif" font-size="14.00">5447</text>
</g>
<!-- 380&#45;&gt;5447 -->
<g id="edge18" class="edge">
<title>380&#45;&gt;5447</title>
<path fill="none" stroke="green" d="M253.08,-447.79C263.8,-452.11 276.33,-456.74 288,-460 322.57,-469.67 548.75,-512.09 616.5,-518 936.65,-545.95 1324.27,-523.67 1456.58,-514.49"/>
<polygon fill="green" stroke="green" points="1456.61,-518 1466.34,-513.8 1456.12,-511.01 1456.61,-518"/>
<text text-anchor="middle" x="867.2" y="-535.95" font-family="Times,serif" font-size="14.00">5448, &#160;&#45;1.649</text>
</g>
<!-- 7706 -->
<g id="node15" class="node">
<title>7706</title>
<ellipse fill="none" stroke="green" cx="553.5" cy="-229" rx="36.48" ry="36.48"/>
<text text-anchor="middle" x="553.5" y="-224.32" font-family="Times,serif" font-size="14.00">7706</text>
</g>
<!-- 380&#45;&gt;7706 -->
<g id="edge19" class="edge">
<title>380&#45;&gt;7706</title>
<path fill="none" stroke="red" d="M226.34,-405.61C228.62,-362.99 239.68,-286.47 288,-248.75 350.65,-199.84 449.06,-207.91 506.53,-218.35"/>
<polygon fill="red" stroke="red" points="505.83,-221.78 516.31,-220.24 507.16,-214.91 505.83,-221.78"/>
<text text-anchor="middle" x="335.25" y="-252.95" font-family="Times,serif" font-size="14.00">7707, &#160;1.0</text>
</g>
<!-- 627&#45;&gt;2 -->
<g id="edge59" class="edge">
<title>627&#45;&gt;2</title>
<path fill="none" stroke="green" d="M1967.17,-298.58C2015.32,-302.86 2114.27,-311.86 2197.91,-320.75 2232.14,-324.39 2271.07,-329 2298.92,-332.38"/>
<polygon fill="green" stroke="green" points="2298.28,-335.82 2308.63,-333.56 2299.13,-328.88 2298.28,-335.82"/>
<text text-anchor="middle" x="2157.41" y="-324.95" font-family="Times,serif" font-size="14.00">667, &#160;0.962</text>
</g>
<!-- 627&#45;&gt;13 -->
<g id="edge58" class="edge">
<title>627&#45;&gt;13</title>
<path fill="none" stroke="green" d="M1966.3,-303.81C1976.85,-306.7 1988.92,-310.01 1999.91,-313 2043.89,-324.97 2056.6,-322.81 2098.91,-339.75 2108.23,-343.48 2117.97,-348.37 2126.73,-353.16"/>
<polygon fill="green" stroke="green" points="2124.73,-356.05 2135.16,-357.92 2128.18,-349.95 2124.73,-356.05"/>
<text text-anchor="middle" x="2049.41" y="-343.95" font-family="Times,serif" font-size="14.00">629, &#160;1.491</text>
</g>
<!-- 2421&#45;&gt;360 -->
<g id="edge23" class="edge">
<title>2421&#45;&gt;360</title>
<path fill="none" stroke="green" d="M480.61,-640C514.65,-629.49 568.63,-614.09 616.5,-606 802.83,-574.52 851.78,-584.27 1040.45,-573.75 1262.67,-561.36 1320.88,-589.53 1540.91,-556 1594.2,-547.88 1609.06,-546.8 1657.91,-524 1668.13,-519.23 1678.49,-512.81 1687.73,-506.38"/>
<polygon fill="green" stroke="green" points="1689.63,-509.33 1695.69,-500.63 1685.53,-503.65 1689.63,-509.33"/>
<text text-anchor="middle" x="1087.7" y="-577.95" font-family="Times,serif" font-size="14.00">2423, &#160;1.024</text>
</g>
<!-- 2421&#45;&gt;3629 -->
<g id="edge24" class="edge">
<title>2421&#45;&gt;3629</title>
<path fill="none" stroke="red" d="M465.66,-681.85C497.83,-729.35 567.54,-815 651.98,-815 651.98,-815 651.98,-815 1302.45,-815 1355.01,-815 1415.3,-815 1456.03,-815"/>
<polygon fill="red" stroke="red" points="1455.98,-818.5 1465.98,-815 1455.98,-811.5 1455.98,-818.5"/>
<text text-anchor="middle" x="977.45" y="-818.95" font-family="Times,serif" font-size="14.00">3630, &#160;1.068</text>
</g>
<!-- 2421&#45;&gt;3837 -->
<g id="edge25" class="edge">
<title>2421&#45;&gt;3837</title>
<path fill="none" stroke="green" d="M463.64,-618.9C474.73,-600.15 490.43,-576.88 508.5,-559.75 538.26,-531.53 578.72,-508.1 609.09,-492.73"/>
<polygon fill="green" stroke="green" points="610.61,-495.88 618.02,-488.31 607.5,-489.61 610.61,-495.88"/>
<text text-anchor="middle" x="553.5" y="-563.95" font-family="Times,serif" font-size="14.00">4075, &#160;0.423</text>
</g>
<!-- 5069 -->
<g id="node17" class="node">
<title>5069</title>
<ellipse fill="none" stroke="red" cx="652.98" cy="-651" rx="36.48" ry="36.48"/>
<text text-anchor="middle" x="652.98" y="-646.33" font-family="Times,serif" font-size="14.00">5069</text>
</g>
<!-- 2421&#45;&gt;5069 -->
<g id="edge26" class="edge">
<title>2421&#45;&gt;5069</title>
<path fill="none" stroke="red" d="M482.29,-651C516.37,-651 567.84,-651 605.16,-651"/>
<polygon fill="red" stroke="red" points="604.74,-654.5 614.74,-651 604.74,-647.5 604.74,-654.5"/>
<text text-anchor="middle" x="553.5" y="-654.95" font-family="Times,serif" font-size="14.00">5070, &#160;1.091</text>
</g>
<!-- 3629&#45;&gt;360 -->
<g id="edge44" class="edge">
<title>3629&#45;&gt;360</title>
<path fill="none" stroke="green" d="M1526.35,-785.48C1556.4,-742.75 1613.1,-660.9 1657.91,-589 1672.65,-565.35 1688.26,-538.13 1700.14,-516.94"/>
<polygon fill="green" stroke="green" points="1703.09,-518.82 1704.91,-508.38 1696.98,-515.41 1703.09,-518.82"/>
<text text-anchor="middle" x="1608.41" y="-739.95" font-family="Times,serif" font-size="14.00">3631, &#160;1.348</text>
</g>
<!-- 5595&#45;&gt;3629 -->
<g id="edge21" class="edge">
<title>5595&#45;&gt;3629</title>
<path fill="none" stroke="red" d="M481.6,-909.83C522.37,-902.13 591.75,-891 651.98,-891 651.98,-891 651.98,-891 1302.45,-891 1368.87,-891 1390.63,-896.86 1449.95,-867 1458.01,-862.95 1465.63,-857.25 1472.47,-851.11"/>
<polygon fill="red" stroke="red" points="1474.83,-853.7 1479.59,-844.23 1469.97,-848.66 1474.83,-853.7"/>
<text text-anchor="middle" x="977.45" y="-894.95" font-family="Times,serif" font-size="14.00">5597, &#160;1.13</text>
</g>
<!-- 7381 -->
<g id="node16" class="node">
<title>7381</title>
<ellipse fill="none" stroke="green" cx="652.98" cy="-993" rx="36.48" ry="36.48"/>
<text text-anchor="middle" x="652.98" y="-988.33" font-family="Times,serif" font-size="14.00">7381</text>
</g>
<!-- 5595&#45;&gt;7381 -->
<g id="edge22" class="edge">
<title>5595&#45;&gt;7381</title>
<path fill="none" stroke="green" d="M479.97,-929.38C514.79,-942.26 569.49,-962.49 607.83,-976.67"/>
<polygon fill="green" stroke="green" points="606.17,-979.79 616.76,-979.97 608.59,-973.22 606.17,-979.79"/>
<text text-anchor="middle" x="553.5" y="-976.95" font-family="Times,serif" font-size="14.00">7382, &#160;&#45;0.2</text>
</g>
<!-- 8574&#45;&gt;2421 -->
<g id="edge20" class="edge">
<title>8574&#45;&gt;2421</title>
<path fill="none" stroke="green" d="M257.77,-746.71C295.96,-727.14 360.17,-694.22 402.45,-672.56"/>
<polygon fill="green" stroke="green" points="404.04,-675.67 411.34,-668 400.85,-669.44 404.04,-675.67"/>
<text text-anchor="middle" x="335.25" y="-733.95" font-family="Times,serif" font-size="14.00">8576, &#160;0.837</text>
</g>
<!-- 7998&#45;&gt;3629 -->
<g id="edge39" class="edge">
<title>7998&#45;&gt;3629</title>
<path fill="none" stroke="red" d="M903.53,-986.81C912.92,-985.2 923.07,-983.5 932.45,-982 989.86,-972.82 1401.69,-937.4 1449.95,-905 1466.2,-894.09 1478.24,-876.45 1486.74,-859.65"/>
<polygon fill="red" stroke="red" points="1489.84,-861.28 1490.93,-850.74 1483.5,-858.3 1489.84,-861.28"/>
<text text-anchor="middle" x="1197.95" y="-960.95" font-family="Times,serif" font-size="14.00">8000, &#160;0.983</text>
</g>
<!-- 8056 -->
<g id="node21" class="node">
<title>8056</title>
<ellipse fill="none" stroke="green" cx="1301.45" cy="-993" rx="36.48" ry="36.48"/>
<text text-anchor="middle" x="1301.45" y="-988.33" font-family="Times,serif" font-size="14.00">8056</text>
</g>
<!-- 7998&#45;&gt;8056 -->
<g id="edge40" class="edge">
<title>7998&#45;&gt;8056</title>
<path fill="none" stroke="red" d="M903.81,-990.8C938.63,-988.76 993.16,-985.88 1040.45,-984.75 1082.44,-983.75 1092.97,-983.7 1134.95,-984.75 1174.96,-985.75 1220.35,-988.1 1253.47,-990.03"/>
<polygon fill="red" stroke="red" points="1252.94,-993.51 1263.13,-990.61 1253.35,-986.52 1252.94,-993.51"/>
<text text-anchor="middle" x="1087.7" y="-988.95" font-family="Times,serif" font-size="14.00">8057, &#160;&#45;1.668</text>
</g>
<!-- 9032 -->
<g id="node22" class="node">
<title>9032</title>
<ellipse fill="none" stroke="green" cx="1087.7" cy="-1047" rx="36.48" ry="36.48"/>
<text text-anchor="middle" x="1087.7" y="-1042.33" font-family="Times,serif" font-size="14.00">9032</text>
</g>
<!-- 7998&#45;&gt;9032 -->
<g id="edge41" class="edge">
<title>7998&#45;&gt;9032</title>
<path fill="none" stroke="green" d="M902.83,-1001.56C940.11,-1010.77 999.62,-1025.48 1040.79,-1035.65"/>
<polygon fill="green" stroke="green" points="1039.87,-1039.03 1050.41,-1038.03 1041.55,-1032.23 1039.87,-1039.03"/>
<text text-anchor="middle" x="977.45" y="-1035.95" font-family="Times,serif" font-size="14.00">9033, &#160;1.0</text>
</g>
<!-- 1555&#45;&gt;2 -->
<g id="edge50" class="edge">
<title>1555&#45;&gt;2</title>
<path fill="none" stroke="red" d="M1327.08,-223.61C1336.86,-213.78 1348.5,-202.88 1359.95,-194 1537.91,-56.09 1602.76,0 1827.91,0 1827.91,0 1827.91,0 2158.41,0 2297.01,0 2327.97,-225.63 2334.64,-307.65"/>
<polygon fill="red" stroke="red" points="2331.13,-307.66 2335.36,-317.37 2338.11,-307.14 2331.13,-307.66"/>
<text text-anchor="middle" x="1828.91" y="-4.95" font-family="Times,serif" font-size="14.00">1671, &#160;0.717</text>
</g>
<!-- 1555&#45;&gt;627 -->
<g id="edge49" class="edge">
<title>1555&#45;&gt;627</title>
<path fill="none" stroke="red" d="M1338.33,-252.6C1448.14,-260.58 1779.3,-284.63 1895.27,-293.05"/>
<polygon fill="red" stroke="red" points="1894.7,-296.52 1904.93,-293.75 1895.21,-289.53 1894.7,-296.52"/>
<text text-anchor="middle" x="1608.41" y="-279.95" font-family="Times,serif" font-size="14.00">1557, &#160;1.113</text>
</g>
<!-- 5268 -->
<g id="node23" class="node">
<title>5268</title>
<ellipse fill="none" stroke="green" cx="1504.43" cy="-178" rx="36.48" ry="36.48"/>
<text text-anchor="middle" x="1504.43" y="-173.32" font-family="Times,serif" font-size="14.00">5268</text>
</g>
<!-- 1555&#45;&gt;5268 -->
<g id="edge51" class="edge">
<title>1555&#45;&gt;5268</title>
<path fill="none" stroke="red" d="M1336.09,-237.95C1369.86,-225.85 1422.05,-207.15 1459.17,-193.86"/>
<polygon fill="red" stroke="red" points="1460.02,-197.27 1468.26,-190.6 1457.66,-190.68 1460.02,-197.27"/>
<text text-anchor="middle" x="1404.95" y="-232.95" font-family="Times,serif" font-size="14.00">5269, &#160;0.975</text>
</g>
<!-- 3837&#45;&gt;360 -->
<g id="edge27" class="edge">
<title>3837&#45;&gt;360</title>
<path fill="none" stroke="green" d="M689.11,-466.03C731.07,-458.33 803.47,-447 866.2,-447 866.2,-447 866.2,-447 1505.43,-447 1567.07,-447 1637.47,-460.87 1680.29,-470.89"/>
<polygon fill="green" stroke="green" points="1679.33,-474.26 1689.87,-473.19 1680.96,-467.45 1679.33,-474.26"/>
<text text-anchor="middle" x="1197.95" y="-450.95" font-family="Times,serif" font-size="14.00">3839, &#160;0.423</text>
</g>
<!-- 5447&#45;&gt;360 -->
<g id="edge45" class="edge">
<title>5447&#45;&gt;360</title>
<path fill="none" stroke="green" d="M1540.85,-506.05C1578.97,-500.71 1639.49,-492.25 1679.45,-486.66"/>
<polygon fill="green" stroke="green" points="1679.73,-490.15 1689.15,-485.3 1678.76,-483.22 1679.73,-490.15"/>
<text text-anchor="middle" x="1608.41" y="-506.95" font-family="Times,serif" font-size="14.00">5449, &#160;1.205</text>
</g>
<!-- 7706&#45;&gt;1555 -->
<g id="edge30" class="edge">
<title>7706&#45;&gt;1555</title>
<path fill="none" stroke="green" d="M590.12,-229.86C629.98,-230.75 696.46,-232 753.7,-232 753.7,-232 753.7,-232 1088.7,-232 1145.65,-232 1210.9,-238.54 1253.74,-243.74"/>
<polygon fill="green" stroke="green" points="1253.08,-247.18 1263.44,-244.94 1253.94,-240.24 1253.08,-247.18"/>
<text text-anchor="middle" x="867.2" y="-235.95" font-family="Times,serif" font-size="14.00">7708, &#160;0.961</text>
</g>
<!-- 7381&#45;&gt;3629 -->
<g id="edge31" class="edge">
<title>7381&#45;&gt;3629</title>
<path fill="none" stroke="red" d="M686.93,-1007.52C764.42,-1039.97 964.56,-1113.86 1134.95,-1092 1278.9,-1073.53 1348.11,-1109.39 1449.95,-1006 1487.36,-968.02 1499.08,-906.13 1502.5,-863.14"/>
<polygon fill="red" stroke="red" points="1505.99,-863.54 1503.15,-853.33 1499,-863.08 1505.99,-863.54"/>
<text text-anchor="middle" x="1087.7" y="-1099.95" font-family="Times,serif" font-size="14.00">7383, &#160;1.0</text>
</g>
<!-- 7381&#45;&gt;7998 -->
<g id="edge32" class="edge">
<title>7381&#45;&gt;7998</title>
<path fill="none" stroke="green" d="M689.5,-993C725.08,-993 780.04,-993 819.21,-993"/>
<polygon fill="green" stroke="green" points="819.05,-996.5 829.05,-993 819.05,-989.5 819.05,-996.5"/>
<text text-anchor="middle" x="754.7" y="-996.95" font-family="Times,serif" font-size="14.00">7999, &#160;1.114</text>
</g>
<!-- 5069&#45;&gt;3629 -->
<g id="edge28" class="edge">
<title>5069&#45;&gt;3629</title>
<path fill="none" stroke="red" d="M689.33,-644.76C827.93,-621.15 1332.37,-543.37 1449.95,-640 1487.15,-670.57 1499.05,-726.27 1502.56,-766.63"/>
<polygon fill="red" stroke="red" points="1499.07,-766.86 1503.27,-776.59 1506.05,-766.37 1499.07,-766.86"/>
<text text-anchor="middle" x="1087.7" y="-603.95" font-family="Times,serif" font-size="14.00">5071, &#160;1.0</text>
</g>
<!-- 6081 -->
<g id="node18" class="node">
<title>6081</title>
<ellipse fill="none" stroke="green" cx="867.2" cy="-674" rx="36.48" ry="36.48"/>
<text text-anchor="middle" x="867.2" y="-669.33" font-family="Times,serif" font-size="14.00">6081</text>
</g>
<!-- 5069&#45;&gt;6081 -->
<g id="edge29" class="edge">
<title>5069&#45;&gt;6081</title>
<path fill="none" stroke="green" d="M689.5,-654.85C725.08,-658.71 780.04,-664.66 819.21,-668.91"/>
<polygon fill="green" stroke="green" points="818.74,-672.38 829.06,-669.97 819.5,-665.42 818.74,-672.38"/>
<text text-anchor="middle" x="754.7" y="-670.95" font-family="Times,serif" font-size="14.00">6082, &#160;0.414</text>
</g>
<!-- 6081&#45;&gt;3629 -->
<g id="edge33" class="edge">
<title>6081&#45;&gt;3629</title>
<path fill="none" stroke="green" d="M903.07,-666.8C956.55,-656.17 1062.17,-636.76 1152.95,-629.75 1192.84,-626.67 1203.38,-623.93 1242.95,-629.75 1338,-643.73 1378.13,-628.19 1449.95,-692 1472.17,-711.74 1485.52,-742.36 1493.33,-768.11"/>
<polygon fill="green" stroke="green" points="1489.96,-769.04 1496.04,-777.72 1496.7,-767.14 1489.96,-769.04"/>
<text text-anchor="middle" x="1197.95" y="-633.95" font-family="Times,serif" font-size="14.00">6083, &#160;0.932</text>
</g>
<!-- 7713 -->
<g id="node19" class="node">
<title>7713</title>
<ellipse fill="none" stroke="green" cx="1087.7" cy="-719" rx="36.48" ry="36.48"/>
<text text-anchor="middle" x="1087.7" y="-714.33" font-family="Times,serif" font-size="14.00">7713</text>
</g>
<!-- 6081&#45;&gt;7713 -->
<g id="edge34" class="edge">
<title>6081&#45;&gt;7713</title>
<path fill="none" stroke="green" d="M903.31,-681.23C940.58,-688.91 999.65,-701.07 1040.64,-709.51"/>
<polygon fill="green" stroke="green" points="1039.7,-712.89 1050.2,-711.48 1041.11,-706.04 1039.7,-712.89"/>
<text text-anchor="middle" x="977.45" y="-709.95" font-family="Times,serif" font-size="14.00">7714, &#160;0.864</text>
</g>
<!-- 7713&#45;&gt;3629 -->
<g id="edge35" class="edge">
<title>7713&#45;&gt;3629</title>
<path fill="none" stroke="red" d="M1123.97,-712.47C1170.35,-703.93 1247.57,-689.92 1260.95,-688.75 1296.82,-685.62 1307.37,-678.74 1341.95,-688.75 1395.14,-704.15 1443.33,-747.47 1472.94,-779.08"/>
<polygon fill="red" stroke="red" points="1470.07,-781.12 1479.4,-786.13 1475.23,-776.39 1470.07,-781.12"/>
<text text-anchor="middle" x="1301.45" y="-692.95" font-family="Times,serif" font-size="14.00">7715, &#160;1.0</text>
</g>
<!-- 7713&#45;&gt;1555 -->
<g id="edge36" class="edge">
<title>7713&#45;&gt;1555</title>
<path fill="none" stroke="green" d="M1116.44,-696.12C1127.29,-688.09 1140.18,-679.62 1152.95,-673.75 1190.45,-656.53 1215.35,-681.67 1242.95,-651 1288.97,-599.88 1298.23,-392.79 1300.05,-297.91"/>
<polygon fill="green" stroke="green" points="1303.54,-298.21 1300.21,-288.15 1296.54,-298.09 1303.54,-298.21"/>
<text text-anchor="middle" x="1197.95" y="-677.95" font-family="Times,serif" font-size="14.00">8043, &#160;1.0</text>
</g>
<!-- 9371 -->
<g id="node20" class="node">
<title>9371</title>
<ellipse fill="none" stroke="green" cx="1301.45" cy="-751" rx="36.48" ry="36.48"/>
<text text-anchor="middle" x="1301.45" y="-746.33" font-family="Times,serif" font-size="14.00">9371</text>
</g>
<!-- 7713&#45;&gt;9371 -->
<g id="edge37" class="edge">
<title>7713&#45;&gt;9371</title>
<path fill="none" stroke="green" d="M1124.15,-724.36C1159.65,-729.72 1214.48,-738.01 1253.56,-743.91"/>
<polygon fill="green" stroke="green" points="1252.99,-747.37 1263.4,-745.4 1254.03,-740.45 1252.99,-747.37"/>
<text text-anchor="middle" x="1197.95" y="-745.95" font-family="Times,serif" font-size="14.00">9372, &#160;1.0</text>
</g>
<!-- 9371&#45;&gt;3629 -->
<g id="edge38" class="edge">
<title>9371&#45;&gt;3629</title>
<path fill="none" stroke="green" d="M1337.93,-755.71C1368.39,-760.5 1413.08,-769.29 1449.95,-783.75 1454.4,-785.49 1458.92,-787.57 1463.34,-789.82"/>
<polygon fill="green" stroke="green" points="1461.64,-792.88 1472.1,-794.57 1464.98,-786.73 1461.64,-792.88"/>
<text text-anchor="middle" x="1404.95" y="-787.95" font-family="Times,serif" font-size="14.00">9373, &#160;1.0</text>
</g>
<!-- 8056&#45;&gt;3629 -->
<g id="edge43" class="edge">
<title>8056&#45;&gt;3629</title>
<path fill="none" stroke="red" d="M1337.96,-989.3C1370.78,-984.13 1419.02,-971.87 1449.95,-943 1472.86,-921.62 1486.29,-888.92 1493.97,-861.93"/>
<polygon fill="red" stroke="red" points="1497.26,-863.16 1496.43,-852.6 1490.49,-861.37 1497.26,-863.16"/>
<text text-anchor="middle" x="1404.95" y="-988.95" font-family="Times,serif" font-size="14.00">8058, &#160;1.055</text>
</g>
<!-- 9032&#45;&gt;8056 -->
<g id="edge42" class="edge">
<title>9032&#45;&gt;8056</title>
<path fill="none" stroke="green" d="M1123.2,-1038.2C1159.01,-1029.07 1215.2,-1014.74 1254.7,-1004.67"/>
<polygon fill="green" stroke="green" points="1255.33,-1008.12 1264.16,-1002.26 1253.6,-1001.34 1255.33,-1008.12"/>
<text text-anchor="middle" x="1197.95" y="-1033.95" font-family="Times,serif" font-size="14.00">9034, &#160;1.0</text>
</g>
<!-- 5268&#45;&gt;2 -->
<g id="edge53" class="edge">
<title>5268&#45;&gt;2</title>
<path fill="none" stroke="red" d="M1530.02,-151.82C1538.55,-143.92 1548.58,-135.81 1558.91,-130 1683.73,-59.77 1734.99,-27.16 1873.91,-62 2078.54,-113.32 2127.73,-154.13 2292.41,-286 2300.9,-292.8 2309.03,-301.39 2315.93,-309.57"/>
<polygon fill="red" stroke="red" points="2313.21,-311.77 2322.22,-317.34 2318.65,-307.36 2313.21,-311.77"/>
<text text-anchor="middle" x="1936.91" y="-96.95" font-family="Times,serif" font-size="14.00">5598, &#160;0.333</text>
</g>
<!-- 5268&#45;&gt;627 -->
<g id="edge52" class="edge">
<title>5268&#45;&gt;627</title>
<path fill="none" stroke="red" d="M1538.58,-191.74C1545.26,-194.31 1552.27,-196.85 1558.91,-199 1591.29,-209.48 1806.1,-263.52 1896.22,-286.08"/>
<polygon fill="red" stroke="red" points="1895.31,-289.46 1905.86,-288.49 1897.01,-282.67 1895.31,-289.46"/>
<text text-anchor="middle" x="1720.91" y="-256.95" font-family="Times,serif" font-size="14.00">5270, &#160;0.831</text>
</g>
<!-- 8355 -->
<g id="node24" class="node">
<title>8355</title>
<ellipse fill="none" stroke="green" cx="1720.91" cy="-178" rx="36.48" ry="36.48"/>
<text text-anchor="middle" x="1720.91" y="-173.32" font-family="Times,serif" font-size="14.00">8355</text>
</g>
<!-- 5268&#45;&gt;8355 -->
<g id="edge54" class="edge">
<title>5268&#45;&gt;8355</title>
<path fill="none" stroke="green" d="M1541.33,-178C1577.39,-178 1633.16,-178 1672.77,-178"/>
<polygon fill="green" stroke="green" points="1672.74,-181.5 1682.74,-178 1672.74,-174.5 1672.74,-181.5"/>
<text text-anchor="middle" x="1608.41" y="-181.95" font-family="Times,serif" font-size="14.00">8356, &#160;0.989</text>
</g>
<!-- 10046 -->
<g id="node25" class="node">
<title>10046</title>
<ellipse fill="none" stroke="green" cx="1828.91" cy="-139" rx="42.79" ry="42.79"/>
<text text-anchor="middle" x="1828.91" y="-134.32" font-family="Times,serif" font-size="14.00">10046</text>
</g>
<!-- 5268&#45;&gt;10046 -->
<g id="edge55" class="edge">
<title>5268&#45;&gt;10046</title>
<path fill="none" stroke="green" d="M1538.48,-163.81C1545.17,-161.24 1552.21,-158.74 1558.91,-156.75 1647.66,-130.34 1673.41,-128.53 1765.91,-133 1768.74,-133.14 1771.65,-133.31 1774.58,-133.51"/>
<polygon fill="green" stroke="green" points="1774.18,-136.99 1784.42,-134.27 1774.72,-130.01 1774.18,-136.99"/>
<text text-anchor="middle" x="1608.41" y="-160.95" font-family="Times,serif" font-size="14.00">10047, &#160;1.066</text>
</g>
<!-- 8355&#45;&gt;627 -->
<g id="edge57" class="edge">
<title>8355&#45;&gt;627</title>
<path fill="none" stroke="green" d="M1756.97,-184.76C1795.59,-192.66 1854.75,-206.24 1873.91,-218.75 1890.21,-229.39 1904.22,-245.72 1914.77,-260.64"/>
<polygon fill="green" stroke="green" points="1911.86,-262.57 1920.35,-268.9 1917.66,-258.66 1911.86,-262.57"/>
<text text-anchor="middle" x="1828.91" y="-222.95" font-family="Times,serif" font-size="14.00">8357, &#160;1.0</text>
</g>
<!-- 10046&#45;&gt;2 -->
<g id="edge56" class="edge">
<title>10046&#45;&gt;2</title>
<path fill="none" stroke="green" d="M1869.29,-154.06C1949.21,-184.7 2136.16,-256.64 2292.41,-319 2294.71,-319.92 2297.08,-320.87 2299.47,-321.84"/>
<polygon fill="green" stroke="green" points="2297.93,-324.99 2308.51,-325.51 2300.56,-318.5 2297.93,-324.99"/>
<text text-anchor="middle" x="2049.41" y="-245.95" font-family="Times,serif" font-size="14.00">10048, &#160;1.066</text>
</g>
</g>
</svg>
