<?xml version="1.0" encoding="UTF-8" standalone="no"?>
<!DOCTYPE svg PUBLIC "-//W3C//DTD SVG 1.1//EN"
 "http://www.w3.org/Graphics/SVG/1.1/DTD/svg11.dtd">
<!-- Generated by graphviz version 10.0.1 (0)
 -->
<!-- Pages: 1 -->
<svg width="409pt" height="104pt"
 viewBox="0.00 0.00 408.50 104.10" xmlns="http://www.w3.org/2000/svg" xmlns:xlink="http://www.w3.org/1999/xlink">
<g id="graph0" class="graph" transform="scale(1 1) rotate(0) translate(4 100.1)">
<polygon fill="white" stroke="none" points="-4,4 -4,-100.1 404.5,-100.1 404.5,4 -4,4"/>
<!-- 1 -->
<g id="node1" class="node">
<title>1</title>
<polygon fill="none" stroke="green" points="27,-71.85 0,-53.85 27,-35.85 54,-53.85 27,-71.85"/>
<text text-anchor="middle" x="27" y="-49.18" font-family="Times,serif" font-size="14.00">1</text>
</g>
<!-- 2 -->
<g id="node2" class="node">
<title>2</title>
<polygon fill="none" stroke="green" points="400.5,-71.85 346.5,-71.85 346.5,-35.85 400.5,-35.85 400.5,-71.85"/>
<text text-anchor="middle" x="373.5" y="-49.18" font-family="Times,serif" font-size="14.00">2</text>
</g>
<!-- 1&#45;&gt;2 -->
<g id="edge1" class="edge">
<title>1&#45;&gt;2</title>
<path fill="none" stroke="red" d="M45.3,-60.21C53.3,-62.83 63.01,-65.55 72,-66.85 184.83,-83.17 215.67,-83.17 328.5,-66.85 330.69,-66.53 332.92,-66.13 335.16,-65.67"/>
<polygon fill="red" stroke="red" points="335.91,-69.09 344.78,-63.3 334.23,-62.29 335.91,-69.09"/>
<text text-anchor="middle" x="200.25" y="-82.8" font-family="Times,serif" font-size="14.00">3, &#160;&#45;1.664</text>
</g>
<!-- 13 -->
<g id="node3" class="node">
<title>13</title>
<ellipse fill="none" stroke="green" cx="200.25" cy="-23.85" rx="23.85" ry="23.85"/>
<text text-anchor="middle" x="200.25" y="-19.18" font-family="Times,serif" font-size="14.00">13</text>
</g>
<!-- 1&#45;&gt;13 -->
<g id="edge2" class="edge">
<title>1&#45;&gt;13</title>
<path fill="none" stroke="green" d="M49,-50.17C78.05,-45.08 130.82,-35.84 165.45,-29.77"/>
<polygon fill="green" stroke="green" points="165.71,-33.28 174.95,-28.11 164.5,-26.39 165.71,-33.28"/>
<text text-anchor="middle" x="110.25" y="-49.8" font-family="Times,serif" font-size="14.00">14, &#160;&#45;0.009</text>
</g>
<!-- 13&#45;&gt;2 -->
<g id="edge3" class="edge">
<title>13&#45;&gt;2</title>
<path fill="none" stroke="green" d="M223.99,-27.83C252.23,-32.78 300.81,-41.29 334.69,-47.23"/>
<polygon fill="green" stroke="green" points="334.06,-50.67 344.52,-48.95 335.27,-43.77 334.06,-50.67"/>
<text text-anchor="middle" x="290.25" y="-49.8" font-family="Times,serif" font-size="14.00">15, &#160;&#45;1.983</text>
</g>
</g>
</svg>
