<?xml version="1.0" encoding="UTF-8" standalone="no"?>
<!DOCTYPE svg PUBLIC "-//W3C//DTD SVG 1.1//EN"
 "http://www.w3.org/Graphics/SVG/1.1/DTD/svg11.dtd">
<!-- Generated by graphviz version 10.0.1 (0)
 -->
<!-- Pages: 1 -->
<svg width="517pt" height="260pt"
 viewBox="0.00 0.00 516.50 259.85" xmlns="http://www.w3.org/2000/svg" xmlns:xlink="http://www.w3.org/1999/xlink">
<g id="graph0" class="graph" transform="scale(1 1) rotate(0) translate(4 255.85)">
<polygon fill="white" stroke="none" points="-4,4 -4,-255.85 512.5,-255.85 512.5,4 -4,4"/>
<!-- 2 -->
<g id="node1" class="node">
<title>2</title>
<ellipse fill="none" stroke="black" cx="18" cy="-116.85" rx="18" ry="18"/>
<text text-anchor="middle" x="18" y="-112.18" font-family="Times,serif" font-size="14.00">2</text>
</g>
<!-- 5 -->
<g id="node2" class="node">
<title>5</title>
<ellipse fill="none" stroke="black" cx="490.5" cy="-83.85" rx="18" ry="18"/>
<text text-anchor="middle" x="490.5" y="-79.18" font-family="Times,serif" font-size="14.00">5</text>
</g>
<!-- 2&#45;&gt;5 -->
<g id="edge1" class="edge">
<title>2&#45;&gt;5</title>
<path fill="none" stroke="red" d="M36.35,-116.6C55.94,-116.3 88.76,-115.72 117,-114.85 225.04,-111.53 252.09,-111.07 360,-104.85 402.05,-102.43 413.47,-107.34 454.5,-97.85 457.35,-97.19 460.26,-96.34 463.14,-95.38"/>
<polygon fill="red" stroke="red" points="464.28,-98.69 472.39,-91.86 461.8,-92.14 464.28,-98.69"/>
<text text-anchor="middle" x="227.25" y="-116.8" font-family="Times,serif" font-size="14.00">7, &#160;0.755</text>
</g>
<!-- 8 -->
<g id="node3" class="node">
<title>8</title>
<ellipse fill="none" stroke="black" cx="153" cy="-82.85" rx="18" ry="18"/>
<text text-anchor="middle" x="153" y="-78.18" font-family="Times,serif" font-size="14.00">8</text>
</g>
<!-- 2&#45;&gt;8 -->
<g id="edge2" class="edge">
<title>2&#45;&gt;8</title>
<path fill="none" stroke="green" d="M33.45,-107.39C39.57,-103.8 46.91,-100 54,-97.6 76.54,-89.98 103.33,-86.29 123.19,-84.5"/>
<polygon fill="green" stroke="green" points="123.36,-88 133.06,-83.74 122.82,-81.02 123.36,-88"/>
<text text-anchor="middle" x="85.5" y="-101.8" font-family="Times,serif" font-size="14.00">9, &#160;8.744</text>
</g>
<!-- 8&#45;&gt;5 -->
<g id="edge4" class="edge">
<title>8&#45;&gt;5</title>
<path fill="none" stroke="red" d="M171.1,-82.9C225.15,-83.06 392.77,-83.56 460.58,-83.76"/>
<polygon fill="red" stroke="red" points="460.51,-87.26 470.52,-83.79 460.53,-80.26 460.51,-87.26"/>
<text text-anchor="middle" x="321.75" y="-87.8" font-family="Times,serif" font-size="14.00">10, &#160;&#45;2.856</text>
</g>
<!-- 42 -->
<g id="node7" class="node">
<title>42</title>
<ellipse fill="none" stroke="black" cx="321.75" cy="-23.85" rx="23.85" ry="23.85"/>
<text text-anchor="middle" x="321.75" y="-19.18" font-family="Times,serif" font-size="14.00">42</text>
</g>
<!-- 8&#45;&gt;42 -->
<g id="edge5" class="edge">
<title>8&#45;&gt;42</title>
<path fill="none" stroke="green" d="M165.84,-69.96C172.15,-63.83 180.38,-56.91 189,-52.6 219.82,-37.18 258.77,-29.99 286.3,-26.66"/>
<polygon fill="green" stroke="green" points="286.64,-30.14 296.2,-25.59 285.88,-23.19 286.64,-30.14"/>
<text text-anchor="middle" x="227.25" y="-56.8" font-family="Times,serif" font-size="14.00">43, &#160;9.708</text>
</g>
<!-- 3 -->
<g id="node4" class="node">
<title>3</title>
<ellipse fill="none" stroke="black" cx="18" cy="-179.85" rx="18" ry="18"/>
<text text-anchor="middle" x="18" y="-175.18" font-family="Times,serif" font-size="14.00">3</text>
</g>
<!-- 6 -->
<g id="node5" class="node">
<title>6</title>
<ellipse fill="none" stroke="black" cx="490.5" cy="-179.85" rx="18" ry="18"/>
<text text-anchor="middle" x="490.5" y="-175.18" font-family="Times,serif" font-size="14.00">6</text>
</g>
<!-- 3&#45;&gt;6 -->
<g id="edge3" class="edge">
<title>3&#45;&gt;6</title>
<path fill="none" stroke="green" d="M36.3,-179.85C106.69,-179.85 371.98,-179.85 460.53,-179.85"/>
<polygon fill="green" stroke="green" points="460.53,-183.35 470.53,-179.85 460.53,-176.35 460.53,-183.35"/>
<text text-anchor="middle" x="227.25" y="-183.8" font-family="Times,serif" font-size="14.00">17, &#160;&#45;3.268</text>
</g>
<!-- 1 -->
<g id="node6" class="node">
<title>1</title>
<ellipse fill="none" stroke="black" cx="18" cy="-233.85" rx="18" ry="18"/>
<text text-anchor="middle" x="18" y="-229.18" font-family="Times,serif" font-size="14.00">1</text>
</g>
<!-- 42&#45;&gt;5 -->
<g id="edge6" class="edge">
<title>42&#45;&gt;5</title>
<path fill="none" stroke="green" d="M345.85,-25.32C373.13,-27.85 419.26,-34.62 454.5,-52.6 459.81,-55.31 464.94,-59.02 469.56,-62.94"/>
<polygon fill="green" stroke="green" points="466.91,-65.26 476.62,-69.49 471.67,-60.13 466.91,-65.26"/>
<text text-anchor="middle" x="416.25" y="-56.8" font-family="Times,serif" font-size="14.00">44, &#160;&#45;2.856</text>
</g>
<!-- 4 -->
<g id="node8" class="node">
<title>4</title>
<ellipse fill="none" stroke="black" cx="490.5" cy="-233.85" rx="18" ry="18"/>
<text text-anchor="middle" x="490.5" y="-229.18" font-family="Times,serif" font-size="14.00">4</text>
</g>
</g>
</svg>
