<?xml version="1.0" encoding="UTF-8" standalone="no"?>
<!DOCTYPE svg PUBLIC "-//W3C//DTD SVG 1.1//EN"
 "http://www.w3.org/Graphics/SVG/1.1/DTD/svg11.dtd">
<!-- Generated by graphviz version 10.0.1 (0)
 -->
<!-- Pages: 1 -->
<svg width="359pt" height="108pt"
 viewBox="0.00 0.00 359.00 108.10" xmlns="http://www.w3.org/2000/svg" xmlns:xlink="http://www.w3.org/1999/xlink">
<g id="graph0" class="graph" transform="scale(1 1) rotate(0) translate(4 104.1)">
<polygon fill="white" stroke="none" points="-4,4 -4,-104.1 355,-104.1 355,4 -4,4"/>
<!-- 1 -->
<g id="node1" class="node">
<title>1</title>
<ellipse fill="none" stroke="green" cx="18" cy="-53.85" rx="18" ry="18"/>
<text text-anchor="middle" x="18" y="-49.18" font-family="Times,serif" font-size="14.00">1</text>
</g>
<!-- 2 -->
<g id="node2" class="node">
<title>2</title>
<ellipse fill="none" stroke="green" cx="333" cy="-53.85" rx="18" ry="18"/>
<text text-anchor="middle" x="333" y="-49.18" font-family="Times,serif" font-size="14.00">2</text>
</g>
<!-- 1&#45;&gt;2 -->
<g id="edge1" class="edge">
<title>1&#45;&gt;2</title>
<path fill="none" stroke="green" d="M34.64,-61.58C40.56,-64.11 47.45,-66.59 54,-67.85 160.05,-88.27 190.95,-88.27 297,-67.85 299.87,-67.3 302.8,-66.51 305.69,-65.59"/>
<polygon fill="green" stroke="green" points="306.81,-68.91 314.94,-62.12 304.35,-62.36 306.81,-68.91"/>
<text text-anchor="middle" x="175.5" y="-86.8" font-family="Times,serif" font-size="14.00">3, &#160;0.012</text>
</g>
<!-- 10 -->
<g id="node3" class="node">
<title>10</title>
<ellipse fill="none" stroke="green" cx="175.5" cy="-23.85" rx="23.85" ry="23.85"/>
<text text-anchor="middle" x="175.5" y="-19.18" font-family="Times,serif" font-size="14.00">10</text>
</g>
<!-- 1&#45;&gt;10 -->
<g id="edge2" class="edge">
<title>1&#45;&gt;10</title>
<path fill="none" stroke="green" d="M35.94,-50.58C60.96,-45.75 108.34,-36.61 140.66,-30.38"/>
<polygon fill="green" stroke="green" points="141.18,-33.84 150.33,-28.51 139.85,-26.97 141.18,-33.84"/>
<text text-anchor="middle" x="90" y="-50.8" font-family="Times,serif" font-size="14.00">11, &#160;0.035</text>
</g>
<!-- 10&#45;&gt;2 -->
<g id="edge3" class="edge">
<title>10&#45;&gt;2</title>
<path fill="none" stroke="green" d="M199.44,-28.28C227.34,-33.66 274.38,-42.73 304.27,-48.5"/>
<polygon fill="green" stroke="green" points="303.22,-51.86 313.7,-50.32 304.55,-44.99 303.22,-51.86"/>
<text text-anchor="middle" x="261" y="-50.8" font-family="Times,serif" font-size="14.00">12, &#160;0.274</text>
</g>
</g>
</svg>
