<?xml version="1.0" encoding="UTF-8" standalone="no"?>
<!DOCTYPE svg PUBLIC "-//W3C//DTD SVG 1.1//EN"
 "http://www.w3.org/Graphics/SVG/1.1/DTD/svg11.dtd">
<!-- Generated by graphviz version 10.0.1 (0)
 -->
<!-- Pages: 1 -->
<svg width="387pt" height="81pt"
 viewBox="0.00 0.00 386.95 80.95" xmlns="http://www.w3.org/2000/svg" xmlns:xlink="http://www.w3.org/1999/xlink">
<g id="graph0" class="graph" transform="scale(1 1) rotate(0) translate(4 76.95)">
<polygon fill="white" stroke="none" points="-4,4 -4,-76.95 382.95,-76.95 382.95,4 -4,4"/>
<!-- 1 -->
<g id="node1" class="node">
<title>1</title>
<ellipse fill="none" stroke="green" cx="18" cy="-36.48" rx="18" ry="18"/>
<text text-anchor="middle" x="18" y="-31.8" font-family="Times,serif" font-size="14.00">1</text>
</g>
<!-- 1313 -->
<g id="node2" class="node">
<title>1313</title>
<ellipse fill="none" stroke="green" cx="180.48" cy="-36.48" rx="36.48" ry="36.48"/>
<text text-anchor="middle" x="180.48" y="-31.8" font-family="Times,serif" font-size="14.00">1313</text>
</g>
<!-- 1&#45;&gt;1313 -->
<g id="edge1" class="edge">
<title>1&#45;&gt;1313</title>
<path fill="none" stroke="green" d="M36.48,-36.48C59.27,-36.48 100.02,-36.48 132.2,-36.48"/>
<polygon fill="green" stroke="green" points="132.11,-39.98 142.11,-36.48 132.11,-32.98 132.11,-39.98"/>
<text text-anchor="middle" x="90" y="-40.43" font-family="Times,serif" font-size="14.00">1314, &#160;1.0</text>
</g>
<!-- 2 -->
<g id="node3" class="node">
<title>2</title>
<ellipse fill="none" stroke="green" cx="360.95" cy="-36.48" rx="18" ry="18"/>
<text text-anchor="middle" x="360.95" y="-31.8" font-family="Times,serif" font-size="14.00">2</text>
</g>
<!-- 1313&#45;&gt;2 -->
<g id="edge2" class="edge">
<title>1313&#45;&gt;2</title>
<path fill="none" stroke="green" d="M217.17,-36.48C250.75,-36.48 300.4,-36.48 331.43,-36.48"/>
<polygon fill="green" stroke="green" points="331.2,-39.98 341.2,-36.48 331.2,-32.98 331.2,-39.98"/>
<text text-anchor="middle" x="279.95" y="-40.43" font-family="Times,serif" font-size="14.00">1315, &#160;0.003</text>
</g>
</g>
</svg>
