<?xml version="1.0" encoding="UTF-8" standalone="no"?>
<!DOCTYPE svg PUBLIC "-//W3C//DTD SVG 1.1//EN"
 "http://www.w3.org/Graphics/SVG/1.1/DTD/svg11.dtd">
<!-- Generated by graphviz version 10.0.1 (0)
 -->
<!-- Pages: 1 -->
<svg width="2241pt" height="1398pt"
 viewBox="0.00 0.00 2240.95 1398.04" xmlns="http://www.w3.org/2000/svg" xmlns:xlink="http://www.w3.org/1999/xlink">
<g id="graph0" class="graph" transform="scale(1 1) rotate(0) translate(4 1394.04)">
<polygon fill="white" stroke="none" points="-4,4 -4,-1394.04 2236.95,-1394.04 2236.95,4 -4,4"/>
<!-- 1 -->
<g id="node1" class="node">
<title>1</title>
<ellipse fill="none" stroke="green" cx="18" cy="-995.79" rx="18" ry="18"/>
<text text-anchor="middle" x="18" y="-991.12" font-family="Times,serif" font-size="14.00">1</text>
</g>
<!-- 6 -->
<g id="node2" class="node">
<title>6</title>
<ellipse fill="none" stroke="green" cx="2214.95" cy="-1274.79" rx="18" ry="18"/>
<text text-anchor="middle" x="2214.95" y="-1270.12" font-family="Times,serif" font-size="14.00">6</text>
</g>
<!-- 1&#45;&gt;6 -->
<g id="edge1" class="edge">
<title>1&#45;&gt;6</title>
<path fill="none" stroke="green" d="M18.91,-1014.23C19.57,-1089.92 32.73,-1372.79 192.5,-1372.79 192.5,-1372.79 192.5,-1372.79 2040.45,-1372.79 2102.8,-1372.79 2163.34,-1324.23 2193.73,-1295.47"/>
<polygon fill="green" stroke="green" points="2196.01,-1298.14 2200.73,-1288.66 2191.13,-1293.12 2196.01,-1298.14"/>
<text text-anchor="middle" x="1143" y="-1376.74" font-family="Times,serif" font-size="14.00">8, &#160;1.936</text>
</g>
<!-- 105 -->
<g id="node3" class="node">
<title>105</title>
<ellipse fill="none" stroke="green" cx="405" cy="-513.79" rx="30.16" ry="30.16"/>
<text text-anchor="middle" x="405" y="-509.12" font-family="Times,serif" font-size="14.00">105</text>
</g>
<!-- 1&#45;&gt;105 -->
<g id="edge2" class="edge">
<title>1&#45;&gt;105</title>
<path fill="none" stroke="red" d="M19.93,-977.5C22.68,-929.24 31.96,-799.73 54,-763.79 129.91,-640.02 292.41,-560.04 366.18,-528.74"/>
<polygon fill="red" stroke="red" points="367.12,-532.14 375,-525.05 364.43,-525.68 367.12,-532.14"/>
<text text-anchor="middle" x="193.5" y="-657.74" font-family="Times,serif" font-size="14.00">178, &#160;0.291</text>
</g>
<!-- 200 -->
<g id="node4" class="node">
<title>200</title>
<ellipse fill="none" stroke="green" cx="193.5" cy="-995.79" rx="30.16" ry="30.16"/>
<text text-anchor="middle" x="193.5" y="-991.12" font-family="Times,serif" font-size="14.00">200</text>
</g>
<!-- 1&#45;&gt;200 -->
<g id="edge3" class="edge">
<title>1&#45;&gt;200</title>
<path fill="none" stroke="green" d="M36.27,-995.79C62.95,-995.79 114.95,-995.79 151.61,-995.79"/>
<polygon fill="green" stroke="green" points="151.4,-999.29 161.4,-995.79 151.4,-992.29 151.4,-999.29"/>
<text text-anchor="middle" x="94.5" y="-999.74" font-family="Times,serif" font-size="14.00">201, &#160;1.0</text>
</g>
<!-- 4 -->
<g id="node5" class="node">
<title>4</title>
<ellipse fill="none" stroke="green" cx="2214.95" cy="-226.79" rx="18" ry="18"/>
<text text-anchor="middle" x="2214.95" y="-222.12" font-family="Times,serif" font-size="14.00">4</text>
</g>
<!-- 1&#45;&gt;4 -->
<g id="edge4" class="edge">
<title>1&#45;&gt;4</title>
<path fill="none" stroke="red" d="M19.48,-977.36C21.09,-927 27.84,-783.07 54,-666.79 83.24,-536.79 62.29,-481.4 153,-383.79 274.92,-252.6 755.9,-188.79 935,-188.79 935,-188.79 935,-188.79 2040.45,-188.79 2093.41,-188.79 2153.41,-205.89 2187.16,-217.15"/>
<polygon fill="red" stroke="red" points="2185.92,-220.43 2196.51,-220.36 2188.19,-213.81 2185.92,-220.43"/>
<text text-anchor="middle" x="1143" y="-192.74" font-family="Times,serif" font-size="14.00">9, &#160;0.071</text>
</g>
<!-- 241 -->
<g id="node6" class="node">
<title>241</title>
<ellipse fill="none" stroke="green" cx="2039.45" cy="-732.79" rx="30.16" ry="30.16"/>
<text text-anchor="middle" x="2039.45" y="-728.12" font-family="Times,serif" font-size="14.00">241</text>
</g>
<!-- 1&#45;&gt;241 -->
<g id="edge5" class="edge">
<title>1&#45;&gt;241</title>
<path fill="none" stroke="red" d="M20.85,-1013.74C28.49,-1077.57 63.59,-1289.79 192.5,-1289.79 192.5,-1289.79 192.5,-1289.79 509.5,-1289.79 745.5,-1289.79 802.5,-1243.79 1038.5,-1243.79 1038.5,-1243.79 1038.5,-1243.79 1851.45,-1243.79 1933.32,-1243.79 1946.23,-1186.93 1980.95,-1112.79 1998.57,-1075.18 1992.8,-967.86 1998.95,-926.79 2006.95,-873.38 2020.01,-812.45 2028.91,-773.36"/>
<polygon fill="red" stroke="red" points="2032.3,-774.21 2031.13,-763.68 2025.48,-772.64 2032.3,-774.21"/>
<text text-anchor="middle" x="1039.5" y="-1247.74" font-family="Times,serif" font-size="14.00">242, &#160;1.0</text>
</g>
<!-- 543 -->
<g id="node7" class="node">
<title>543</title>
<ellipse fill="none" stroke="green" cx="1850.45" cy="-1128.79" rx="30.16" ry="30.16"/>
<text text-anchor="middle" x="1850.45" y="-1124.12" font-family="Times,serif" font-size="14.00">543</text>
</g>
<!-- 1&#45;&gt;543 -->
<g id="edge6" class="edge">
<title>1&#45;&gt;543</title>
<path fill="none" stroke="green" d="M33.79,-1005.14C39.95,-1008.91 47.24,-1013.2 54,-1016.79 184.08,-1085.79 217.76,-1105.71 360,-1143.79 696.53,-1233.9 793.62,-1197.79 1142,-1197.79 1142,-1197.79 1142,-1197.79 1657.95,-1197.79 1715.29,-1197.79 1776.87,-1170.08 1814.28,-1149.78"/>
<polygon fill="green" stroke="green" points="1815.81,-1152.93 1822.85,-1145.01 1812.41,-1146.81 1815.81,-1152.93"/>
<text text-anchor="middle" x="936" y="-1206.74" font-family="Times,serif" font-size="14.00">544, &#160;1.0</text>
</g>
<!-- 8524 -->
<g id="node8" class="node">
<title>8524</title>
<ellipse fill="none" stroke="green" cx="612" cy="-802.79" rx="36.48" ry="36.48"/>
<text text-anchor="middle" x="612" y="-798.12" font-family="Times,serif" font-size="14.00">8524</text>
</g>
<!-- 1&#45;&gt;8524 -->
<g id="edge7" class="edge">
<title>1&#45;&gt;8524</title>
<path fill="none" stroke="green" d="M28.53,-980.83C56.53,-938.45 143.46,-817.86 252,-774.54 280.27,-763.26 473.22,-785.48 563.99,-796.77"/>
<polygon fill="green" stroke="green" points="563.45,-800.23 573.81,-798 564.32,-793.28 563.45,-800.23"/>
<text text-anchor="middle" x="297" y="-777.74" font-family="Times,serif" font-size="14.00">8530, &#160;0.204</text>
</g>
<!-- 105&#45;&gt;4 -->
<g id="edge28" class="edge">
<title>105&#45;&gt;4</title>
<path fill="none" stroke="green" d="M407.32,-483.25C410.82,-441.94 423.37,-368.83 468,-328.79 547.07,-257.86 828.78,-226.79 935,-226.79 935,-226.79 935,-226.79 2040.45,-226.79 2091.43,-226.79 2150.82,-226.79 2185.23,-226.79"/>
<polygon fill="green" stroke="green" points="2185.2,-230.29 2195.2,-226.79 2185.2,-223.29 2185.2,-230.29"/>
<text text-anchor="middle" x="1368" y="-230.74" font-family="Times,serif" font-size="14.00">163, &#160;0.043</text>
</g>
<!-- 105&#45;&gt;241 -->
<g id="edge29" class="edge">
<title>105&#45;&gt;241</title>
<path fill="none" stroke="red" d="M415.43,-542.21C425.06,-567.27 442.27,-603.22 468,-625.79 503.55,-656.98 521.05,-653.62 567,-664.79 912.73,-748.8 1011.21,-693.79 1367,-693.79 1367,-693.79 1367,-693.79 1851.45,-693.79 1903.6,-693.79 1962.23,-708.5 1999.71,-719.85"/>
<polygon fill="red" stroke="red" points="1998.6,-723.17 2009.19,-722.8 2000.68,-716.49 1998.6,-723.17"/>
<text text-anchor="middle" x="1255.5" y="-700.74" font-family="Times,serif" font-size="14.00">289, &#160;0.404</text>
</g>
<!-- 105&#45;&gt;8524 -->
<g id="edge36" class="edge">
<title>105&#45;&gt;8524</title>
<path fill="none" stroke="green" d="M405.29,-544.37C405.88,-593.17 414.37,-688.66 468,-742.79 494.32,-769.36 514.67,-750.72 549,-765.54 556.53,-768.79 564.25,-772.81 571.58,-776.99"/>
<polygon fill="green" stroke="green" points="569.58,-779.87 579.97,-781.96 573.15,-773.85 569.58,-779.87"/>
<text text-anchor="middle" x="508.5" y="-768.74" font-family="Times,serif" font-size="14.00">8525, &#160;1.0</text>
</g>
<!-- 5 -->
<g id="node12" class="node">
<title>5</title>
<ellipse fill="none" stroke="green" cx="2214.95" cy="-965.79" rx="18" ry="18"/>
<text text-anchor="middle" x="2214.95" y="-961.12" font-family="Times,serif" font-size="14.00">5</text>
</g>
<!-- 105&#45;&gt;5 -->
<g id="edge27" class="edge">
<title>105&#45;&gt;5</title>
<path fill="none" stroke="green" d="M411.42,-543.76C418.78,-576.01 434.99,-626.73 468,-656.79 554.77,-735.81 601.64,-738.79 719,-738.79 719,-738.79 719,-738.79 1144,-738.79 1216.16,-738.79 1251.83,-766.58 1305,-717.79 1332.57,-692.49 1310.65,-670.87 1323,-635.54 1370.68,-499.13 1321.98,-343.79 1466.48,-343.79 1466.48,-343.79 1466.48,-343.79 1756.95,-343.79 1857.4,-343.79 1901.88,-311.85 1980.95,-373.79 2167.74,-520.1 2205.11,-837.7 2212.31,-936.11"/>
<polygon fill="green" stroke="green" points="2208.81,-936.25 2212.97,-945.99 2215.79,-935.78 2208.81,-936.25"/>
<text text-anchor="middle" x="1368" y="-638.74" font-family="Times,serif" font-size="14.00">107, &#160;0.603</text>
</g>
<!-- 1550 -->
<g id="node14" class="node">
<title>1550</title>
<ellipse fill="none" stroke="green" cx="1255.5" cy="-525.79" rx="36.48" ry="36.48"/>
<text text-anchor="middle" x="1255.5" y="-521.12" font-family="Times,serif" font-size="14.00">1550</text>
</g>
<!-- 105&#45;&gt;1550 -->
<g id="edge31" class="edge">
<title>105&#45;&gt;1550</title>
<path fill="none" stroke="red" d="M423.16,-538.01C434.7,-553.2 450.88,-572.53 468,-586.79 507.01,-619.29 517.95,-630.68 567,-643.79 806.75,-707.88 1103.21,-593.75 1211.95,-545.66"/>
<polygon fill="red" stroke="red" points="1213.1,-548.98 1220.8,-541.7 1210.24,-542.59 1213.1,-548.98"/>
<text text-anchor="middle" x="828" y="-663.74" font-family="Times,serif" font-size="14.00">1551, &#160;1.0</text>
</g>
<!-- 1446 -->
<g id="node15" class="node">
<title>1446</title>
<ellipse fill="none" stroke="green" cx="1467.48" cy="-932.79" rx="36.48" ry="36.48"/>
<text text-anchor="middle" x="1467.48" y="-928.12" font-family="Times,serif" font-size="14.00">1446</text>
</g>
<!-- 105&#45;&gt;1446 -->
<g id="edge30" class="edge">
<title>105&#45;&gt;1446</title>
<path fill="none" stroke="red" d="M417.6,-486.35C428.45,-462.66 446.22,-428.31 468,-402.79 504.36,-360.18 514.07,-343.14 567,-324.79 632.45,-302.1 1124.59,-351.9 1188,-379.79 1331.92,-443.09 1355.45,-506.47 1413,-652.79 1443.67,-730.78 1457.16,-828.1 1462.79,-885.06"/>
<polygon fill="red" stroke="red" points="1459.27,-885.1 1463.7,-894.73 1466.24,-884.45 1459.27,-885.1"/>
<text text-anchor="middle" x="936" y="-348.74" font-family="Times,serif" font-size="14.00">1479, &#160;0.117</text>
</g>
<!-- 1556 -->
<g id="node16" class="node">
<title>1556</title>
<ellipse fill="none" stroke="green" cx="1255.5" cy="-802.79" rx="36.48" ry="36.48"/>
<text text-anchor="middle" x="1255.5" y="-798.12" font-family="Times,serif" font-size="14.00">1556</text>
</g>
<!-- 105&#45;&gt;1556 -->
<g id="edge32" class="edge">
<title>105&#45;&gt;1556</title>
<path fill="none" stroke="green" d="M416.54,-485.81C426.33,-464.05 443.17,-435.23 468,-420.79 526.85,-386.57 1024.82,-410.91 1080,-450.79 1185.37,-526.95 1146.6,-599.14 1206,-714.79 1213.9,-730.17 1222.95,-746.84 1231.08,-761.48"/>
<polygon fill="green" stroke="green" points="1227.87,-762.91 1235.8,-769.94 1233.99,-759.5 1227.87,-762.91"/>
<text text-anchor="middle" x="828" y="-417.74" font-family="Times,serif" font-size="14.00">1557, &#160;1.0</text>
</g>
<!-- 2386 -->
<g id="node17" class="node">
<title>2386</title>
<ellipse fill="none" stroke="green" cx="1039.5" cy="-802.79" rx="36.48" ry="36.48"/>
<text text-anchor="middle" x="1039.5" y="-798.12" font-family="Times,serif" font-size="14.00">2386</text>
</g>
<!-- 105&#45;&gt;2386 -->
<g id="edge34" class="edge">
<title>105&#45;&gt;2386</title>
<path fill="none" stroke="red" d="M434.3,-504.78C512.57,-481.74 735.23,-429.07 873,-526.79 954.04,-584.27 1002.35,-695.06 1024.3,-757.37"/>
<polygon fill="red" stroke="red" points="1020.91,-758.3 1027.47,-766.62 1027.53,-756.03 1020.91,-758.3"/>
<text text-anchor="middle" x="720" y="-483.74" font-family="Times,serif" font-size="14.00">2517, &#160;0.022</text>
</g>
<!-- 1683 -->
<g id="node21" class="node">
<title>1683</title>
<ellipse fill="none" stroke="green" cx="1039.5" cy="-495.79" rx="36.48" ry="36.48"/>
<text text-anchor="middle" x="1039.5" y="-491.12" font-family="Times,serif" font-size="14.00">1683</text>
</g>
<!-- 105&#45;&gt;1683 -->
<g id="edge33" class="edge">
<title>105&#45;&gt;1683</title>
<path fill="none" stroke="red" d="M423.86,-489.64C434.98,-476.59 450.48,-461.59 468,-453.79 588.73,-400.04 634.69,-417.56 765,-439.54 773.35,-440.95 774.82,-443.58 783,-445.79 855.01,-465.23 940.35,-480.39 991.91,-488.7"/>
<polygon fill="red" stroke="red" points="991.09,-492.11 1001.51,-490.23 992.19,-485.2 991.09,-492.11"/>
<text text-anchor="middle" x="720" y="-442.74" font-family="Times,serif" font-size="14.00">1684, &#160;1.0</text>
</g>
<!-- 4255 -->
<g id="node22" class="node">
<title>4255</title>
<ellipse fill="none" stroke="green" cx="828" cy="-571.79" rx="36.48" ry="36.48"/>
<text text-anchor="middle" x="828" y="-567.12" font-family="Times,serif" font-size="14.00">4255</text>
</g>
<!-- 105&#45;&gt;4255 -->
<g id="edge35" class="edge">
<title>105&#45;&gt;4255</title>
<path fill="none" stroke="red" d="M435.59,-512.47C482.77,-510.9 577.78,-509.88 657,-522.54 700.67,-529.52 748.97,-544.22 782.89,-555.75"/>
<polygon fill="red" stroke="red" points="781.35,-558.92 791.94,-558.87 783.63,-552.3 781.35,-558.92"/>
<text text-anchor="middle" x="612" y="-525.74" font-family="Times,serif" font-size="14.00">4256, &#160;1.0</text>
</g>
<!-- 10806 -->
<g id="node23" class="node">
<title>10806</title>
<ellipse fill="none" stroke="green" cx="612" cy="-591.79" rx="42.79" ry="42.79"/>
<text text-anchor="middle" x="612" y="-587.12" font-family="Times,serif" font-size="14.00">10806</text>
</g>
<!-- 105&#45;&gt;10806 -->
<g id="edge37" class="edge">
<title>105&#45;&gt;10806</title>
<path fill="none" stroke="green" d="M433.65,-524.31C466.18,-536.69 520.84,-557.49 560.9,-572.73"/>
<polygon fill="green" stroke="green" points="559.52,-575.95 570.11,-576.23 562.01,-569.4 559.52,-575.95"/>
<text text-anchor="middle" x="508.5" y="-569.74" font-family="Times,serif" font-size="14.00">10807, &#160;1.0</text>
</g>
<!-- 200&#45;&gt;105 -->
<g id="edge16" class="edge">
<title>200&#45;&gt;105</title>
<path fill="none" stroke="green" d="M195.71,-965.4C198.97,-925.85 210.67,-857.23 252,-818.54 282.12,-790.35 313.28,-825.42 342,-795.79 374.82,-761.94 392.88,-625.56 400.16,-555.62"/>
<polygon fill="green" stroke="green" points="403.64,-555.99 401.16,-545.69 396.67,-555.28 403.64,-555.99"/>
<text text-anchor="middle" x="297" y="-821.74" font-family="Times,serif" font-size="14.00">202, &#160;0.291</text>
</g>
<!-- 200&#45;&gt;4 -->
<g id="edge17" class="edge">
<title>200&#45;&gt;4</title>
<path fill="none" stroke="red" d="M222.93,-1004.06C232.12,-1006.37 242.42,-1008.58 252,-1009.79 486.15,-1039.45 546.98,-1015.23 783,-1016.79 1029.64,-1018.42 1666,-1051.93 1890.95,-950.79 2168.6,-825.96 2207.59,-376.42 2213.06,-256.41"/>
<polygon fill="red" stroke="red" points="2216.56,-256.58 2213.46,-246.45 2209.56,-256.3 2216.56,-256.58"/>
<text text-anchor="middle" x="1255.5" y="-1026.74" font-family="Times,serif" font-size="14.00">217, &#160;0.011</text>
</g>
<!-- 200&#45;&gt;543 -->
<g id="edge18" class="edge">
<title>200&#45;&gt;543</title>
<path fill="none" stroke="red" d="M208.14,-1022.61C218.21,-1040.09 233.37,-1062.26 252,-1076.79 292.62,-1108.46 310.45,-1104.74 360,-1118.79 694.7,-1213.67 794.12,-1152.79 1142,-1152.79 1142,-1152.79 1142,-1152.79 1657.95,-1152.79 1710.49,-1152.79 1770.5,-1143.79 1809.13,-1136.81"/>
<polygon fill="red" stroke="red" points="1809.71,-1140.26 1818.91,-1135 1808.44,-1133.38 1809.71,-1140.26"/>
<text text-anchor="middle" x="1039.5" y="-1159.74" font-family="Times,serif" font-size="14.00">557, &#160;0.211</text>
</g>
<!-- 200&#45;&gt;8524 -->
<g id="edge25" class="edge">
<title>200&#45;&gt;8524</title>
<path fill="none" stroke="green" d="M199.25,-965.67C205.71,-935.18 220.33,-889.02 252,-863.79 264.16,-854.1 469.77,-823.26 564.22,-809.51"/>
<polygon fill="green" stroke="green" points="564.55,-813 573.94,-808.1 563.54,-806.08 564.55,-813"/>
<text text-anchor="middle" x="405" y="-843.74" font-family="Times,serif" font-size="14.00">8849, &#160;0.041</text>
</g>
<!-- 200&#45;&gt;5 -->
<g id="edge19" class="edge">
<title>200&#45;&gt;5</title>
<path fill="none" stroke="red" d="M199.5,-1025.67C206.25,-1057.33 221.18,-1106.92 252,-1137.79 410.32,-1296.37 494.92,-1327.79 719,-1327.79 719,-1327.79 719,-1327.79 2040.45,-1327.79 2110.88,-1327.79 2139.61,-1309.2 2178.95,-1250.79 2206.75,-1209.52 2212.48,-1059.3 2213.65,-995.15"/>
<polygon fill="red" stroke="red" points="2217.15,-995.44 2213.81,-985.39 2210.15,-995.33 2217.15,-995.44"/>
<text text-anchor="middle" x="1255.5" y="-1331.74" font-family="Times,serif" font-size="14.00">221, &#160;0.01</text>
</g>
<!-- 200&#45;&gt;1446 -->
<g id="edge20" class="edge">
<title>200&#45;&gt;1446</title>
<path fill="none" stroke="red" d="M224.07,-995.79C303.91,-995.79 530.51,-995.79 719,-995.79 719,-995.79 719,-995.79 1040.5,-995.79 1206.96,-995.79 1252.27,-1000.08 1413,-956.79 1416.59,-955.82 1420.24,-954.65 1423.86,-953.34"/>
<polygon fill="red" stroke="red" points="1425.15,-956.59 1433.16,-949.65 1422.57,-950.08 1425.15,-956.59"/>
<text text-anchor="middle" x="828" y="-999.74" font-family="Times,serif" font-size="14.00">1447, &#160;1.0</text>
</g>
<!-- 200&#45;&gt;1556 -->
<g id="edge21" class="edge">
<title>200&#45;&gt;1556</title>
<path fill="none" stroke="red" d="M214.51,-973.58C224.73,-963.71 237.94,-952.95 252,-946.79 340.57,-908 371.99,-932.29 468,-920.79 739.98,-888.2 809.96,-893.78 1080,-847.79 1128.47,-839.53 1140.51,-836.54 1188,-823.79 1195.07,-821.89 1202.5,-819.72 1209.74,-817.51"/>
<polygon fill="red" stroke="red" points="1210.55,-820.93 1219.05,-814.61 1208.46,-814.24 1210.55,-820.93"/>
<text text-anchor="middle" x="720" y="-901.74" font-family="Times,serif" font-size="14.00">1715, &#160;0.065</text>
</g>
<!-- 200&#45;&gt;2386 -->
<g id="edge22" class="edge">
<title>200&#45;&gt;2386</title>
<path fill="none" stroke="green" d="M203.57,-966.96C212.25,-944.48 227.67,-914.52 252,-898.79 286.23,-876.67 940.87,-823.9 981,-816.79 984.86,-816.11 988.85,-815.31 992.84,-814.46"/>
<polygon fill="green" stroke="green" points="993.53,-817.9 1002.51,-812.28 991.99,-811.07 993.53,-817.9"/>
<text text-anchor="middle" x="612" y="-859.74" font-family="Times,serif" font-size="14.00">2387, &#160;1.0</text>
</g>
<!-- 2600 -->
<g id="node18" class="node">
<title>2600</title>
<ellipse fill="none" stroke="green" cx="508.5" cy="-957.79" rx="36.48" ry="36.48"/>
<text text-anchor="middle" x="508.5" y="-953.12" font-family="Times,serif" font-size="14.00">2600</text>
</g>
<!-- 200&#45;&gt;2600 -->
<g id="edge23" class="edge">
<title>200&#45;&gt;2600</title>
<path fill="none" stroke="green" d="M219.17,-979.06C228.96,-973.33 240.59,-967.6 252,-964.54 322.92,-945.51 408.92,-948.26 460.86,-952.59"/>
<polygon fill="green" stroke="green" points="460.26,-956.05 470.53,-953.45 460.89,-949.08 460.26,-956.05"/>
<text text-anchor="middle" x="297" y="-967.74" font-family="Times,serif" font-size="14.00">2601, &#160;1.0</text>
</g>
<!-- 2501 -->
<g id="node19" class="node">
<title>2501</title>
<ellipse fill="none" stroke="green" cx="2039.45" cy="-1088.79" rx="36.48" ry="36.48"/>
<text text-anchor="middle" x="2039.45" y="-1084.12" font-family="Times,serif" font-size="14.00">2501</text>
</g>
<!-- 200&#45;&gt;2501 -->
<g id="edge24" class="edge">
<title>200&#45;&gt;2501</title>
<path fill="none" stroke="green" d="M202.33,-1024.83C210.65,-1050.36 226.22,-1086.78 252,-1108.79 290.37,-1141.56 311.5,-1129.87 360,-1143.79 794.2,-1268.44 915.26,-1281.79 1367,-1281.79 1367,-1281.79 1367,-1281.79 1851.45,-1281.79 1909.99,-1281.79 1936.68,-1296.08 1980.95,-1257.79 2016.05,-1227.44 2029.76,-1174.78 2035.1,-1136.29"/>
<polygon fill="green" stroke="green" points="2038.51,-1137.2 2036.26,-1126.85 2031.57,-1136.34 2038.51,-1137.2"/>
<text text-anchor="middle" x="1143" y="-1283.74" font-family="Times,serif" font-size="14.00">2554, &#160;0.001</text>
</g>
<!-- 11802 -->
<g id="node20" class="node">
<title>11802</title>
<ellipse fill="none" stroke="green" cx="612" cy="-1104.79" rx="42.79" ry="42.79"/>
<text text-anchor="middle" x="612" y="-1100.12" font-family="Times,serif" font-size="14.00">11802</text>
</g>
<!-- 200&#45;&gt;11802 -->
<g id="edge26" class="edge">
<title>200&#45;&gt;11802</title>
<path fill="none" stroke="green" d="M213.86,-1018.59C224.11,-1029.15 237.55,-1040.88 252,-1047.79 352.5,-1095.89 485.13,-1104.75 557.77,-1105.62"/>
<polygon fill="green" stroke="green" points="557.37,-1109.12 567.39,-1105.69 557.41,-1102.12 557.37,-1109.12"/>
<text text-anchor="middle" x="405" y="-1101.74" font-family="Times,serif" font-size="14.00">11803, &#160;1.0</text>
</g>
<!-- 241&#45;&gt;6 -->
<g id="edge56" class="edge">
<title>241&#45;&gt;6</title>
<path fill="none" stroke="green" d="M2049.01,-761.89C2058.09,-793.93 2072.18,-847.09 2079.95,-893.79 2094.68,-982.26 2068.81,-1009.96 2097.95,-1094.79 2119.61,-1157.83 2167.83,-1220.87 2194.79,-1252.98"/>
<polygon fill="green" stroke="green" points="2191.97,-1255.06 2201.12,-1260.4 2197.29,-1250.52 2191.97,-1255.06"/>
<text text-anchor="middle" x="2138.45" y="-1233.74" font-family="Times,serif" font-size="14.00">270, &#160;0.57</text>
</g>
<!-- 241&#45;&gt;4 -->
<g id="edge55" class="edge">
<title>241&#45;&gt;4</title>
<path fill="none" stroke="green" d="M2045.75,-702.84C2054.32,-656.6 2072.86,-565.33 2097.95,-490.54 2128.08,-400.75 2177.09,-299.52 2200.58,-252.87"/>
<polygon fill="green" stroke="green" points="2203.63,-254.6 2205.03,-244.09 2197.38,-251.43 2203.63,-254.6"/>
<text text-anchor="middle" x="2138.45" y="-493.74" font-family="Times,serif" font-size="14.00">243, &#160;0.071</text>
</g>
<!-- 543&#45;&gt;241 -->
<g id="edge52" class="edge">
<title>543&#45;&gt;241</title>
<path fill="none" stroke="green" d="M1864.31,-1101.57C1897.04,-1032.25 1983.59,-848.97 2020.91,-769.93"/>
<polygon fill="green" stroke="green" points="2023.88,-771.84 2024.99,-761.31 2017.55,-768.85 2023.88,-771.84"/>
<text text-anchor="middle" x="1944.95" y="-1003.74" font-family="Times,serif" font-size="14.00">545, &#160;1.0</text>
</g>
<!-- 8524&#45;&gt;2386 -->
<g id="edge38" class="edge">
<title>8524&#45;&gt;2386</title>
<path fill="none" stroke="green" d="M648.91,-802.79C725.55,-802.79 905.12,-802.79 991.05,-802.79"/>
<polygon fill="green" stroke="green" points="991.02,-806.29 1001.02,-802.79 991.02,-799.29 991.02,-806.29"/>
<text text-anchor="middle" x="828" y="-806.74" font-family="Times,serif" font-size="14.00">8526, &#160;0.022</text>
</g>
<!-- 2 -->
<g id="node9" class="node">
<title>2</title>
<ellipse fill="none" stroke="green" cx="18" cy="-76.79" rx="18" ry="18"/>
<text text-anchor="middle" x="18" y="-72.12" font-family="Times,serif" font-size="14.00">2</text>
</g>
<!-- 2&#45;&gt;241 -->
<g id="edge8" class="edge">
<title>2&#45;&gt;241</title>
<path fill="none" stroke="red" d="M35.61,-82.08C41.39,-83.77 47.94,-85.53 54,-86.79 180.41,-113.04 214.86,-102.32 342,-124.79 680.94,-184.69 760.69,-224.28 1098,-292.79 1237.51,-321.12 1279.94,-300.2 1413,-350.79 1660,-444.7 1917.87,-637.65 2006.42,-707.14"/>
<polygon fill="red" stroke="red" points="2004.21,-709.85 2014.23,-713.3 2008.54,-704.36 2004.21,-709.85"/>
<text text-anchor="middle" x="1039.5" y="-293.74" font-family="Times,serif" font-size="14.00">263, &#160;0.06</text>
</g>
<!-- 10788 -->
<g id="node10" class="node">
<title>10788</title>
<ellipse fill="none" stroke="green" cx="297" cy="-42.79" rx="42.79" ry="42.79"/>
<text text-anchor="middle" x="297" y="-38.12" font-family="Times,serif" font-size="14.00">10788</text>
</g>
<!-- 2&#45;&gt;10788 -->
<g id="edge9" class="edge">
<title>2&#45;&gt;10788</title>
<path fill="none" stroke="green" d="M36.03,-72.93C41.72,-71.73 48.12,-70.47 54,-69.54 118.55,-59.31 193.39,-51.68 242.56,-47.24"/>
<polygon fill="green" stroke="green" points="242.71,-50.74 252.36,-46.37 242.09,-43.77 242.71,-50.74"/>
<text text-anchor="middle" x="94.5" y="-73.74" font-family="Times,serif" font-size="14.00">10789, &#160;1.0</text>
</g>
<!-- 10788&#45;&gt;241 -->
<g id="edge50" class="edge">
<title>10788&#45;&gt;241</title>
<path fill="none" stroke="green" d="M339.69,-48.78C389.82,-56.4 476.27,-70.88 549,-89.79 753.17,-142.89 793.55,-192.88 999,-240.79 1179.82,-282.96 1229.86,-266.24 1413,-296.79 1550.2,-319.68 1583.34,-331.65 1719.95,-357.79 1777.88,-368.87 1939.42,-363.93 1980.95,-405.79 1982.22,-407.06 2016.28,-604.07 2031.37,-691.65"/>
<polygon fill="green" stroke="green" points="2027.88,-692 2033.03,-701.26 2034.78,-690.81 2027.88,-692"/>
<text text-anchor="middle" x="1143" y="-275.74" font-family="Times,serif" font-size="14.00">10790, &#160;0.06</text>
</g>
<!-- 3 -->
<g id="node11" class="node">
<title>3</title>
<ellipse fill="none" stroke="green" cx="18" cy="-214.79" rx="18" ry="18"/>
<text text-anchor="middle" x="18" y="-210.12" font-family="Times,serif" font-size="14.00">3</text>
</g>
<!-- 3&#45;&gt;105 -->
<g id="edge12" class="edge">
<title>3&#45;&gt;105</title>
<path fill="none" stroke="red" d="M26.53,-230.93C32.9,-243.75 42.78,-261.78 54,-275.79 128.56,-368.83 150.33,-394.5 252,-456.79 287.58,-478.59 332.84,-494.24 364.69,-503.56"/>
<polygon fill="red" stroke="red" points="363.32,-506.81 373.9,-506.18 365.24,-500.08 363.32,-506.81"/>
<text text-anchor="middle" x="193.5" y="-448.74" font-family="Times,serif" font-size="14.00">106, &#160;1.0</text>
</g>
<!-- 3&#45;&gt;4 -->
<g id="edge11" class="edge">
<title>3&#45;&gt;4</title>
<path fill="none" stroke="green" d="M25.41,-198.08C31,-186.01 40.37,-170.53 54,-162.79 153.28,-106.41 452.98,-140.61 567,-134.79 802.96,-122.74 861.81,-115.72 1098,-109.54 1167.53,-107.72 1184.94,-108.79 1254.5,-108.79 1254.5,-108.79 1254.5,-108.79 2040.45,-108.79 2103.08,-108.79 2130.91,-94.61 2178.95,-134.79 2197.47,-150.28 2206.21,-176.69 2210.33,-197.25"/>
<polygon fill="green" stroke="green" points="2206.87,-197.79 2212,-207.06 2213.77,-196.62 2206.87,-197.79"/>
<text text-anchor="middle" x="1143" y="-113.74" font-family="Times,serif" font-size="14.00">28, &#160;0.244</text>
</g>
<!-- 3&#45;&gt;5 -->
<g id="edge10" class="edge">
<title>3&#45;&gt;5</title>
<path fill="none" stroke="red" d="M36.26,-211.95C114.71,-199.32 445.57,-148.79 719,-148.79 719,-148.79 719,-148.79 2040.45,-148.79 2130.87,-148.79 2143.69,-214.54 2178.95,-297.79 2204.05,-357.04 2211.93,-814.41 2213.59,-936.12"/>
<polygon fill="red" stroke="red" points="2210.09,-935.97 2213.72,-945.93 2217.08,-935.88 2210.09,-935.97"/>
<text text-anchor="middle" x="1143" y="-152.74" font-family="Times,serif" font-size="14.00">10, &#160;0.603</text>
</g>
<!-- 511 -->
<g id="node13" class="node">
<title>511</title>
<ellipse fill="none" stroke="green" cx="193.5" cy="-272.79" rx="30.16" ry="30.16"/>
<text text-anchor="middle" x="193.5" y="-268.12" font-family="Times,serif" font-size="14.00">511</text>
</g>
<!-- 3&#45;&gt;511 -->
<g id="edge13" class="edge">
<title>3&#45;&gt;511</title>
<path fill="none" stroke="green" d="M34.94,-221.45C40.88,-223.86 47.72,-226.54 54,-228.79 87.19,-240.68 125.42,-252.7 153.29,-261.17"/>
<polygon fill="green" stroke="green" points="152.15,-264.48 162.73,-264.02 154.17,-257.78 152.15,-264.48"/>
<text text-anchor="middle" x="94.5" y="-258.74" font-family="Times,serif" font-size="14.00">512, &#160;1.0</text>
</g>
<!-- 3&#45;&gt;1550 -->
<g id="edge14" class="edge">
<title>3&#45;&gt;1550</title>
<path fill="none" stroke="red" d="M36.37,-215.54C73.06,-217.28 161.07,-222.39 234,-233.79 329.21,-248.68 990.27,-389.64 1080,-424.79 1129.45,-444.16 1181.59,-476.05 1215.85,-498.82"/>
<polygon fill="red" stroke="red" points="1213.51,-501.46 1223.77,-504.13 1217.42,-495.65 1213.51,-501.46"/>
<text text-anchor="middle" x="612" y="-324.74" font-family="Times,serif" font-size="14.00">1633, &#160;0.033</text>
</g>
<!-- 511&#45;&gt;105 -->
<g id="edge15" class="edge">
<title>511&#45;&gt;105</title>
<path fill="none" stroke="green" d="M213.83,-295.03C251.31,-338.14 333.92,-433.18 376.87,-482.58"/>
<polygon fill="green" stroke="green" points="374.21,-484.86 383.42,-490.11 379.5,-480.27 374.21,-484.86"/>
<text text-anchor="middle" x="297" y="-439.74" font-family="Times,serif" font-size="14.00">513, &#160;1.0</text>
</g>
<!-- 1550&#45;&gt;1446 -->
<g id="edge45" class="edge">
<title>1550&#45;&gt;1446</title>
<path fill="none" stroke="green" d="M1273.15,-558.07C1310.83,-631.09 1402.59,-808.95 1444.7,-890.58"/>
<polygon fill="green" stroke="green" points="1441.43,-891.88 1449.13,-899.17 1447.65,-888.67 1441.43,-891.88"/>
<text text-anchor="middle" x="1368" y="-826.74" font-family="Times,serif" font-size="14.00">1552, &#160;0.117</text>
</g>
<!-- 1446&#45;&gt;5 -->
<g id="edge46" class="edge">
<title>1446&#45;&gt;5</title>
<path fill="none" stroke="red" d="M1497.25,-954.6C1532.62,-979.19 1595.44,-1015.79 1655.95,-1015.79 1655.95,-1015.79 1655.95,-1015.79 2040.45,-1015.79 2094.81,-1015.79 2155.13,-992.85 2188.4,-978.05"/>
<polygon fill="red" stroke="red" points="2189.58,-981.36 2197.22,-974.01 2186.67,-974.99 2189.58,-981.36"/>
<text text-anchor="middle" x="1850.45" y="-1019.74" font-family="Times,serif" font-size="14.00">1448, &#160;0.01</text>
</g>
<!-- 2365 -->
<g id="node24" class="node">
<title>2365</title>
<ellipse fill="none" stroke="green" cx="1850.45" cy="-905.79" rx="36.48" ry="36.48"/>
<text text-anchor="middle" x="1850.45" y="-901.12" font-family="Times,serif" font-size="14.00">2365</text>
</g>
<!-- 1446&#45;&gt;2365 -->
<g id="edge47" class="edge">
<title>1446&#45;&gt;2365</title>
<path fill="none" stroke="red" d="M1503.93,-930.94C1563.49,-927.74 1687.37,-920.64 1791.95,-911.79 1795.39,-911.5 1798.95,-911.18 1802.52,-910.84"/>
<polygon fill="red" stroke="red" points="1802.78,-914.33 1812.39,-909.87 1802.09,-907.37 1802.78,-914.33"/>
<text text-anchor="middle" x="1656.95" y="-927.74" font-family="Times,serif" font-size="14.00">2366, &#160;1.0</text>
</g>
<!-- 2577 -->
<g id="node25" class="node">
<title>2577</title>
<ellipse fill="none" stroke="green" cx="1656.95" cy="-860.79" rx="36.48" ry="36.48"/>
<text text-anchor="middle" x="1656.95" y="-856.12" font-family="Times,serif" font-size="14.00">2577</text>
</g>
<!-- 1446&#45;&gt;2577 -->
<g id="edge48" class="edge">
<title>1446&#45;&gt;2577</title>
<path fill="none" stroke="green" d="M1498.66,-913.51C1506.1,-909.22 1514.17,-904.94 1521.95,-901.54 1550.42,-889.1 1583.84,-878.93 1610.19,-871.86"/>
<polygon fill="green" stroke="green" points="1610.76,-875.33 1619.55,-869.4 1608.99,-868.56 1610.76,-875.33"/>
<text text-anchor="middle" x="1557.95" y="-904.74" font-family="Times,serif" font-size="14.00">2578, &#160;1.0</text>
</g>
<!-- 1556&#45;&gt;241 -->
<g id="edge49" class="edge">
<title>1556&#45;&gt;241</title>
<path fill="none" stroke="green" d="M1291.19,-794.48C1332.64,-785.3 1404.2,-771.79 1466.48,-771.79 1466.48,-771.79 1466.48,-771.79 1851.45,-771.79 1903.6,-771.79 1962.23,-757.08 1999.71,-745.73"/>
<polygon fill="green" stroke="green" points="2000.68,-749.09 2009.19,-742.78 1998.6,-742.41 2000.68,-749.09"/>
<text text-anchor="middle" x="1656.95" y="-775.74" font-family="Times,serif" font-size="14.00">1558, &#160;0.404</text>
</g>
<!-- 2386&#45;&gt;1556 -->
<g id="edge43" class="edge">
<title>2386&#45;&gt;1556</title>
<path fill="none" stroke="green" d="M1076.32,-802.79C1112.2,-802.79 1167.61,-802.79 1207.11,-802.79"/>
<polygon fill="green" stroke="green" points="1207.05,-806.29 1217.05,-802.79 1207.05,-799.29 1207.05,-806.29"/>
<text text-anchor="middle" x="1143" y="-806.74" font-family="Times,serif" font-size="14.00">2388, &#160;0.065</text>
</g>
<!-- 2600&#45;&gt;1446 -->
<g id="edge44" class="edge">
<title>2600&#45;&gt;1446</title>
<path fill="none" stroke="green" d="M545.36,-956.66C618.58,-954.46 790.56,-949.79 935,-949.79 935,-949.79 935,-949.79 1256.5,-949.79 1312.66,-949.79 1377,-943.67 1419.5,-938.78"/>
<polygon fill="green" stroke="green" points="1419.86,-942.26 1429.38,-937.61 1419.04,-935.31 1419.86,-942.26"/>
<text text-anchor="middle" x="936" y="-953.74" font-family="Times,serif" font-size="14.00">2602, &#160;1.0</text>
</g>
<!-- 2501&#45;&gt;5 -->
<g id="edge57" class="edge">
<title>2501&#45;&gt;5</title>
<path fill="none" stroke="green" d="M2075.29,-1080.87C2105.65,-1072.48 2149.33,-1056.65 2178.95,-1029.79 2189.91,-1019.86 2198.15,-1005.67 2203.88,-993.17"/>
<polygon fill="green" stroke="green" points="2207.02,-994.74 2207.68,-984.17 2200.57,-992.02 2207.02,-994.74"/>
<text text-anchor="middle" x="2138.45" y="-1077.74" font-family="Times,serif" font-size="14.00">2503, &#160;0.01</text>
</g>
<!-- 11802&#45;&gt;543 -->
<g id="edge40" class="edge">
<title>11802&#45;&gt;543</title>
<path fill="none" stroke="green" d="M655.23,-1105.1C698.39,-1105.4 767.37,-1105.79 827,-1105.79 827,-1105.79 827,-1105.79 1657.95,-1105.79 1710.45,-1105.79 1770.47,-1114.42 1809.11,-1121.1"/>
<polygon fill="green" stroke="green" points="1808.44,-1124.54 1818.89,-1122.84 1809.66,-1117.65 1808.44,-1124.54"/>
<text text-anchor="middle" x="1255.5" y="-1109.74" font-family="Times,serif" font-size="14.00">11804, &#160;0.211</text>
</g>
<!-- 1683&#45;&gt;1550 -->
<g id="edge42" class="edge">
<title>1683&#45;&gt;1550</title>
<path fill="none" stroke="green" d="M1075.84,-500.74C1111.93,-505.8 1168.14,-513.68 1207.86,-519.25"/>
<polygon fill="green" stroke="green" points="1207.22,-522.7 1217.61,-520.62 1208.19,-515.76 1207.22,-522.7"/>
<text text-anchor="middle" x="1143" y="-519.74" font-family="Times,serif" font-size="14.00">1685, &#160;1.0</text>
</g>
<!-- 4255&#45;&gt;1683 -->
<g id="edge41" class="edge">
<title>4255&#45;&gt;1683</title>
<path fill="none" stroke="green" d="M862.66,-559.58C898.4,-546.62 955.03,-526.07 994.33,-511.81"/>
<polygon fill="green" stroke="green" points="995.29,-515.19 1003.5,-508.49 992.91,-508.61 995.29,-515.19"/>
<text text-anchor="middle" x="936" y="-550.74" font-family="Times,serif" font-size="14.00">4257, &#160;1.0</text>
</g>
<!-- 10806&#45;&gt;4255 -->
<g id="edge39" class="edge">
<title>10806&#45;&gt;4255</title>
<path fill="none" stroke="green" d="M655.02,-587.86C691.1,-584.49 743.02,-579.64 780.37,-576.15"/>
<polygon fill="green" stroke="green" points="780.32,-579.67 789.95,-575.25 779.67,-572.7 780.32,-579.67"/>
<text text-anchor="middle" x="720" y="-589.74" font-family="Times,serif" font-size="14.00">10808, &#160;1.0</text>
</g>
<!-- 2365&#45;&gt;5 -->
<g id="edge53" class="edge">
<title>2365&#45;&gt;5</title>
<path fill="none" stroke="red" d="M1886.87,-911.65C1958.82,-923.56 2120.77,-950.37 2185.97,-961.16"/>
<polygon fill="red" stroke="red" points="2185.05,-964.55 2195.49,-962.73 2186.19,-957.65 2185.05,-964.55"/>
<text text-anchor="middle" x="2039.45" y="-945.74" font-family="Times,serif" font-size="14.00">2367, &#160;0.01</text>
</g>
<!-- 2365&#45;&gt;2501 -->
<g id="edge54" class="edge">
<title>2365&#45;&gt;2501</title>
<path fill="none" stroke="green" d="M1867.71,-938.24C1875.47,-954.61 1884.46,-974.95 1890.95,-993.79 1901.84,-1025.38 1884.47,-1044.05 1908.95,-1066.79 1930.81,-1087.1 1964.14,-1092.39 1991.52,-1092.72"/>
<polygon fill="green" stroke="green" points="1991.36,-1096.22 2001.32,-1092.6 1991.28,-1089.22 1991.36,-1096.22"/>
<text text-anchor="middle" x="1944.95" y="-1095.74" font-family="Times,serif" font-size="14.00">2502, &#160;1.0</text>
</g>
<!-- 2577&#45;&gt;2365 -->
<g id="edge51" class="edge">
<title>2577&#45;&gt;2365</title>
<path fill="none" stroke="green" d="M1692.63,-868.94C1723.72,-876.24 1769.54,-887.01 1803.63,-895.02"/>
<polygon fill="green" stroke="green" points="1802.7,-898.4 1813.24,-897.28 1804.3,-891.58 1802.7,-898.4"/>
<text text-anchor="middle" x="1755.95" y="-894.74" font-family="Times,serif" font-size="14.00">2579, &#160;1.0</text>
</g>
</g>
</svg>
