<?xml version="1.0" encoding="UTF-8" standalone="no"?>
<!DOCTYPE svg PUBLIC "-//W3C//DTD SVG 1.1//EN"
 "http://www.w3.org/Graphics/SVG/1.1/DTD/svg11.dtd">
<!-- Generated by graphviz version 10.0.1 (0)
 -->
<!-- Pages: 1 -->
<svg width="188pt" height="342pt"
 viewBox="0.00 0.00 188.00 342.02" xmlns="http://www.w3.org/2000/svg" xmlns:xlink="http://www.w3.org/1999/xlink">
<g id="graph0" class="graph" transform="scale(1 1) rotate(0) translate(4 338.02)">
<polygon fill="white" stroke="none" points="-4,4 -4,-338.02 184,-338.02 184,4 -4,4"/>
<!-- 1 -->
<g id="node1" class="node">
<title>1</title>
<ellipse fill="none" stroke="green" cx="18" cy="-137.77" rx="18" ry="18"/>
<text text-anchor="middle" x="18" y="-133.1" font-family="Times,serif" font-size="14.00">1</text>
</g>
<!-- 5 -->
<g id="node2" class="node">
<title>5</title>
<ellipse fill="none" stroke="green" cx="162" cy="-250.77" rx="18" ry="18"/>
<text text-anchor="middle" x="162" y="-246.1" font-family="Times,serif" font-size="14.00">5</text>
</g>
<!-- 1&#45;&gt;5 -->
<g id="edge1" class="edge">
<title>1&#45;&gt;5</title>
<path fill="none" stroke="green" d="M20.82,-155.75C23.92,-176.54 32.18,-210.28 54,-228.77 65.66,-238.66 105.04,-244.81 132.62,-248.02"/>
<polygon fill="green" stroke="green" points="132.14,-251.49 142.46,-249.09 132.89,-244.53 132.14,-251.49"/>
<text text-anchor="middle" x="90" y="-250.72" font-family="Times,serif" font-size="14.00">8, &#160;0.117</text>
</g>
<!-- 4 -->
<g id="node3" class="node">
<title>4</title>
<ellipse fill="none" stroke="green" cx="162" cy="-50.77" rx="18" ry="18"/>
<text text-anchor="middle" x="162" y="-46.1" font-family="Times,serif" font-size="14.00">4</text>
</g>
<!-- 1&#45;&gt;4 -->
<g id="edge2" class="edge">
<title>1&#45;&gt;4</title>
<path fill="none" stroke="green" d="M29.01,-122.91C31.44,-119.04 33.93,-114.82 36,-110.77 45.69,-91.88 37.3,-79.63 54,-66.52 76.14,-49.15 109.03,-46.72 132.5,-47.69"/>
<polygon fill="green" stroke="green" points="132.08,-51.17 142.29,-48.35 132.55,-44.19 132.08,-51.17"/>
<text text-anchor="middle" x="90" y="-70.72" font-family="Times,serif" font-size="14.00">11, &#160;0.456</text>
</g>
<!-- 6 -->
<g id="node4" class="node">
<title>6</title>
<ellipse fill="none" stroke="green" cx="162" cy="-130.77" rx="18" ry="18"/>
<text text-anchor="middle" x="162" y="-126.1" font-family="Times,serif" font-size="14.00">6</text>
</g>
<!-- 1&#45;&gt;6 -->
<g id="edge3" class="edge">
<title>1&#45;&gt;6</title>
<path fill="none" stroke="green" d="M36.01,-134.14C41.7,-133.08 48.1,-132.07 54,-131.52 80.41,-129.09 110.64,-129.14 132.22,-129.66"/>
<polygon fill="green" stroke="green" points="131.92,-133.15 142.02,-129.95 132.13,-126.15 131.92,-133.15"/>
<text text-anchor="middle" x="90" y="-134.72" font-family="Times,serif" font-size="14.00">13, &#160;0.358</text>
</g>
<!-- 2 -->
<g id="node5" class="node">
<title>2</title>
<ellipse fill="none" stroke="green" cx="18" cy="-290.77" rx="18" ry="18"/>
<text text-anchor="middle" x="18" y="-286.1" font-family="Times,serif" font-size="14.00">2</text>
</g>
<!-- 2&#45;&gt;5 -->
<g id="edge4" class="edge">
<title>2&#45;&gt;5</title>
<path fill="none" stroke="green" d="M33.72,-300.32C39.75,-303.69 46.96,-307.07 54,-308.77 85.1,-316.3 98.13,-324.51 126,-308.77 137.56,-302.25 145.74,-290.19 151.26,-278.76"/>
<polygon fill="green" stroke="green" points="154.47,-280.15 155.17,-269.58 148.03,-277.41 154.47,-280.15"/>
<text text-anchor="middle" x="90" y="-320.72" font-family="Times,serif" font-size="14.00">10, &#160;0.394</text>
</g>
<!-- 2&#45;&gt;4 -->
<g id="edge6" class="edge">
<title>2&#45;&gt;4</title>
<path fill="none" stroke="green" d="M18.84,-272.49C19.64,-245.63 25.22,-195.68 54,-167.52 77.64,-144.4 101.61,-171.1 126,-148.77 128.74,-146.27 142.39,-106.59 151.81,-78.5"/>
<polygon fill="green" stroke="green" points="155.09,-79.7 154.94,-69.11 148.46,-77.49 155.09,-79.7"/>
<text text-anchor="middle" x="90" y="-170.72" font-family="Times,serif" font-size="14.00">15, &#160;0.802</text>
</g>
<!-- 2&#45;&gt;6 -->
<g id="edge5" class="edge">
<title>2&#45;&gt;6</title>
<path fill="none" stroke="green" d="M36.2,-289.26C63.1,-286.55 113.34,-279.96 126,-267.77 133.83,-260.23 147.59,-197.51 155.32,-159.6"/>
<polygon fill="green" stroke="green" points="158.67,-160.7 157.21,-150.2 151.8,-159.31 158.67,-160.7"/>
<text text-anchor="middle" x="90" y="-290.72" font-family="Times,serif" font-size="14.00">14, &#160;0.807</text>
</g>
<!-- 3 -->
<g id="node6" class="node">
<title>3</title>
<ellipse fill="none" stroke="green" cx="18" cy="-83.77" rx="18" ry="18"/>
<text text-anchor="middle" x="18" y="-79.1" font-family="Times,serif" font-size="14.00">3</text>
</g>
<!-- 3&#45;&gt;5 -->
<g id="edge8" class="edge">
<title>3&#45;&gt;5</title>
<path fill="none" stroke="green" d="M29.29,-98.14C31.77,-102.09 34.21,-106.48 36,-110.77 49.67,-143.62 29.2,-163.27 54,-188.77 77.05,-212.48 98.21,-189.61 126,-207.52 133.48,-212.35 140.11,-219.3 145.53,-226.22"/>
<polygon fill="green" stroke="green" points="142.59,-228.13 151.26,-234.22 148.28,-224.05 142.59,-228.13"/>
<text text-anchor="middle" x="90" y="-210.72" font-family="Times,serif" font-size="14.00">9, &#160;0.484</text>
</g>
<!-- 3&#45;&gt;4 -->
<g id="edge9" class="edge">
<title>3&#45;&gt;4</title>
<path fill="none" stroke="green" d="M22.1,-65.91C26.16,-48.63 35.1,-23.37 54,-11.52 81.11,5.47 96.8,1.56 126,-11.52 133.39,-14.84 139.86,-20.56 145.16,-26.64"/>
<polygon fill="green" stroke="green" points="142.24,-28.58 151.13,-34.34 147.77,-24.29 142.24,-28.58"/>
<text text-anchor="middle" x="90" y="-15.72" font-family="Times,serif" font-size="14.00">12, &#160;0.617</text>
</g>
<!-- 3&#45;&gt;6 -->
<g id="edge7" class="edge">
<title>3&#45;&gt;6</title>
<path fill="none" stroke="green" d="M36.27,-85.63C57.94,-88.39 95.89,-94.71 126,-107.52 129.99,-109.22 134.02,-111.39 137.85,-113.71"/>
<polygon fill="green" stroke="green" points="135.84,-116.58 146.11,-119.18 139.71,-110.74 135.84,-116.58"/>
<text text-anchor="middle" x="90" y="-110.72" font-family="Times,serif" font-size="14.00">7, &#160;0.797</text>
</g>
</g>
</svg>
