<?xml version="1.0" encoding="UTF-8" standalone="no"?>
<!DOCTYPE svg PUBLIC "-//W3C//DTD SVG 1.1//EN"
 "http://www.w3.org/Graphics/SVG/1.1/DTD/svg11.dtd">
<!-- Generated by graphviz version 10.0.1 (0)
 -->
<!-- Pages: 1 -->
<svg width="1563pt" height="689pt"
 viewBox="0.00 0.00 1563.36 689.25" xmlns="http://www.w3.org/2000/svg" xmlns:xlink="http://www.w3.org/1999/xlink">
<g id="graph0" class="graph" transform="scale(1 1) rotate(0) translate(4 685.25)">
<polygon fill="white" stroke="none" points="-4,4 -4,-685.25 1559.36,-685.25 1559.36,4 -4,4"/>
<!-- 1 -->
<g id="node1" class="node">
<title>1</title>
<ellipse fill="none" stroke="green" cx="437.93" cy="-519" rx="18" ry="18"/>
<text text-anchor="middle" x="437.93" y="-514.33" font-family="Times,serif" font-size="14.00">1</text>
</g>
<!-- 1085 -->
<g id="node2" class="node">
<title>1085</title>
<ellipse fill="none" stroke="black" cx="645.41" cy="-400" rx="36.48" ry="36.48"/>
<text text-anchor="middle" x="645.41" y="-395.32" font-family="Times,serif" font-size="14.00">1085</text>
</g>
<!-- 1&#45;&gt;1085 -->
<g id="edge1" class="edge">
<title>1&#45;&gt;1085</title>
<path fill="none" stroke="green" d="M449.22,-504.46C463.1,-485.02 486.74,-452.54 492.41,-448.75 526.8,-425.77 543.15,-438.04 582.41,-425 588.55,-422.96 594.95,-420.63 601.21,-418.22"/>
<polygon fill="green" stroke="green" points="602.13,-421.62 610.14,-414.7 599.56,-415.11 602.13,-421.62"/>
<text text-anchor="middle" x="537.41" y="-451.95" font-family="Times,serif" font-size="14.00">1086, &#160;1.0</text>
</g>
<!-- 148 -->
<g id="node3" class="node">
<title>148</title>
<ellipse fill="none" stroke="green" cx="865.91" cy="-219" rx="30.16" ry="30.16"/>
<text text-anchor="middle" x="865.91" y="-214.32" font-family="Times,serif" font-size="14.00">148</text>
</g>
<!-- 1&#45;&gt;148 -->
<g id="edge2" class="edge">
<title>1&#45;&gt;148</title>
<path fill="none" stroke="green" d="M456.11,-521.48C484.38,-524.7 541.66,-527.51 582.41,-505 593.85,-498.68 590,-489.66 600.41,-481.75 634.81,-455.61 656.02,-471.16 690.41,-445 760.2,-391.89 816.87,-304.25 845.22,-255.17"/>
<polygon fill="green" stroke="green" points="848.18,-257.05 850.08,-246.63 842.09,-253.59 848.18,-257.05"/>
<text text-anchor="middle" x="645.41" y="-484.95" font-family="Times,serif" font-size="14.00">188, &#160;0.948</text>
</g>
<!-- 4615 -->
<g id="node4" class="node">
<title>4615</title>
<ellipse fill="none" stroke="green" cx="1518.88" cy="-474" rx="36.48" ry="36.48"/>
<text text-anchor="middle" x="1518.88" y="-469.32" font-family="Times,serif" font-size="14.00">4615</text>
</g>
<!-- 1&#45;&gt;4615 -->
<g id="edge3" class="edge">
<title>1&#45;&gt;4615</title>
<path fill="none" stroke="green" d="M453.98,-527.28C481.93,-542.25 544.1,-573.67 600.41,-589 667.06,-607.14 685.58,-608 754.66,-608 754.66,-608 754.66,-608 1305.66,-608 1379.49,-608 1448.57,-549.29 1486.83,-509.59"/>
<polygon fill="green" stroke="green" points="1489.17,-512.22 1493.48,-502.54 1484.07,-507.42 1489.17,-512.22"/>
<text text-anchor="middle" x="976.16" y="-611.95" font-family="Times,serif" font-size="14.00">4949, &#160;0.564</text>
</g>
<!-- 148&#45;&gt;4615 -->
<g id="edge23" class="edge">
<title>148&#45;&gt;4615</title>
<path fill="none" stroke="green" d="M896.48,-217.15C1011.05,-210.28 1421.42,-188.49 1464.41,-226 1493.99,-251.82 1508.31,-361.97 1514.27,-426.46"/>
<polygon fill="green" stroke="green" points="1510.75,-426.39 1515.12,-436.05 1517.73,-425.78 1510.75,-426.39"/>
<text text-anchor="middle" x="1194.41" y="-209.95" font-family="Times,serif" font-size="14.00">5498, &#160;0.357</text>
</g>
<!-- 5994 -->
<g id="node14" class="node">
<title>5994</title>
<ellipse fill="none" stroke="green" cx="1086.41" cy="-277" rx="36.48" ry="36.48"/>
<text text-anchor="middle" x="1086.41" y="-272.32" font-family="Times,serif" font-size="14.00">5994</text>
</g>
<!-- 148&#45;&gt;5994 -->
<g id="edge24" class="edge">
<title>148&#45;&gt;5994</title>
<path fill="none" stroke="green" d="M896.38,-221.4C928.32,-224.61 980.47,-231.61 1023.41,-245.75 1030.25,-248 1037.27,-250.9 1044.01,-254.03"/>
<polygon fill="green" stroke="green" points="1042.44,-257.16 1052.97,-258.4 1045.52,-250.87 1042.44,-257.16"/>
<text text-anchor="middle" x="976.16" y="-249.95" font-family="Times,serif" font-size="14.00">5995, &#160;1.0</text>
</g>
<!-- 2 -->
<g id="node5" class="node">
<title>2</title>
<ellipse fill="none" stroke="green" cx="437.93" cy="-443" rx="18" ry="18"/>
<text text-anchor="middle" x="437.93" y="-438.32" font-family="Times,serif" font-size="14.00">2</text>
</g>
<!-- 2&#45;&gt;1085 -->
<g id="edge4" class="edge">
<title>2&#45;&gt;1085</title>
<path fill="none" stroke="green" d="M451.95,-431.53C462.17,-423.27 477.19,-412.74 492.41,-407.75 526.36,-396.62 566.85,-395.08 597.51,-396.11"/>
<polygon fill="green" stroke="green" points="597.08,-399.6 607.23,-396.55 597.39,-392.6 597.08,-399.6"/>
<text text-anchor="middle" x="537.41" y="-410.95" font-family="Times,serif" font-size="14.00">1114, &#160;0.219</text>
</g>
<!-- 5778 -->
<g id="node6" class="node">
<title>5778</title>
<ellipse fill="none" stroke="green" cx="645.41" cy="-544" rx="36.48" ry="36.48"/>
<text text-anchor="middle" x="645.41" y="-539.33" font-family="Times,serif" font-size="14.00">5778</text>
</g>
<!-- 2&#45;&gt;5778 -->
<g id="edge5" class="edge">
<title>2&#45;&gt;5778</title>
<path fill="none" stroke="green" d="M454.71,-450.76C485.92,-466.1 556.47,-500.77 602.18,-523.24"/>
<polygon fill="green" stroke="green" points="600.5,-526.32 611.02,-527.59 603.59,-520.04 600.5,-526.32"/>
<text text-anchor="middle" x="537.41" y="-514.95" font-family="Times,serif" font-size="14.00">5779, &#160;1.0</text>
</g>
<!-- 102 -->
<g id="node13" class="node">
<title>102</title>
<ellipse fill="none" stroke="green" cx="1304.66" cy="-292" rx="30.16" ry="30.16"/>
<text text-anchor="middle" x="1304.66" y="-287.32" font-family="Times,serif" font-size="14.00">102</text>
</g>
<!-- 5778&#45;&gt;102 -->
<g id="edge22" class="edge">
<title>5778&#45;&gt;102</title>
<path fill="none" stroke="green" d="M679.9,-531.16C791.15,-488.5 1147.94,-351.7 1265.61,-306.59"/>
<polygon fill="green" stroke="green" points="1266.74,-309.9 1274.82,-303.06 1264.23,-303.37 1266.74,-309.9"/>
<text text-anchor="middle" x="976.16" y="-438.95" font-family="Times,serif" font-size="14.00">5780, &#160;&#45;1.651</text>
</g>
<!-- 2452 -->
<g id="node7" class="node">
<title>2452</title>
<ellipse fill="none" stroke="green" cx="36.48" cy="-309" rx="36.48" ry="36.48"/>
<text text-anchor="middle" x="36.48" y="-304.32" font-family="Times,serif" font-size="14.00">2452</text>
</g>
<!-- 2452&#45;&gt;1085 -->
<g id="edge9" class="edge">
<title>2452&#45;&gt;1085</title>
<path fill="none" stroke="green" d="M72.15,-318.71C78.38,-320.28 84.84,-321.78 90.95,-323 307.2,-366.11 364.09,-360.05 582.41,-391 587.39,-391.71 592.59,-392.45 597.78,-393.2"/>
<polygon fill="green" stroke="green" points="597.11,-396.64 607.51,-394.6 598.11,-389.71 597.11,-396.64"/>
<text text-anchor="middle" x="336.2" y="-369.95" font-family="Times,serif" font-size="14.00">2492, &#160;&#45;1.505</text>
</g>
<!-- 2356 -->
<g id="node8" class="node">
<title>2356</title>
<ellipse fill="none" stroke="green" cx="437.93" cy="-244" rx="36.48" ry="36.48"/>
<text text-anchor="middle" x="437.93" y="-239.32" font-family="Times,serif" font-size="14.00">2356</text>
</g>
<!-- 2452&#45;&gt;2356 -->
<g id="edge6" class="edge">
<title>2452&#45;&gt;2356</title>
<path fill="none" stroke="green" d="M72.2,-299.55C78.43,-297.96 84.87,-296.38 90.95,-295 196.53,-271.09 322.87,-255.75 389.84,-248.64"/>
<polygon fill="green" stroke="green" points="390.15,-252.12 399.73,-247.6 389.42,-245.16 390.15,-252.12"/>
<text text-anchor="middle" x="225.95" y="-279.95" font-family="Times,serif" font-size="14.00">2454, &#160;1.818</text>
</g>
<!-- 3 -->
<g id="node9" class="node">
<title>3</title>
<ellipse fill="none" stroke="green" cx="1304.66" cy="-78" rx="18" ry="18"/>
<text text-anchor="middle" x="1304.66" y="-73.33" font-family="Times,serif" font-size="14.00">3</text>
</g>
<!-- 2452&#45;&gt;3 -->
<g id="edge7" class="edge">
<title>2452&#45;&gt;3</title>
<path fill="none" stroke="green" d="M42.21,-272.65C55.08,-190.96 98.67,0 224.95,0 224.95,0 224.95,0 1087.41,0 1160.87,0 1240.48,-40.32 1279.42,-62.98"/>
<polygon fill="green" stroke="green" points="1277.17,-65.71 1287.56,-67.82 1280.75,-59.7 1277.17,-65.71"/>
<text text-anchor="middle" x="645.41" y="-3.95" font-family="Times,serif" font-size="14.00">2464, &#160;0.909</text>
</g>
<!-- 5664 -->
<g id="node10" class="node">
<title>5664</title>
<ellipse fill="none" stroke="green" cx="645.41" cy="-309" rx="36.48" ry="36.48"/>
<text text-anchor="middle" x="645.41" y="-304.32" font-family="Times,serif" font-size="14.00">5664</text>
</g>
<!-- 2452&#45;&gt;5664 -->
<g id="edge8" class="edge">
<title>2452&#45;&gt;5664</title>
<path fill="none" stroke="green" d="M73.18,-309C177.22,-309 480.16,-309 597.35,-309"/>
<polygon fill="green" stroke="green" points="597.24,-312.5 607.24,-309 597.24,-305.5 597.24,-312.5"/>
<text text-anchor="middle" x="336.2" y="-312.95" font-family="Times,serif" font-size="14.00">5665, &#160;1.0</text>
</g>
<!-- 6297 -->
<g id="node11" class="node">
<title>6297</title>
<ellipse fill="none" stroke="green" cx="225.95" cy="-600" rx="36.48" ry="36.48"/>
<text text-anchor="middle" x="225.95" y="-595.33" font-family="Times,serif" font-size="14.00">6297</text>
</g>
<!-- 2452&#45;&gt;6297 -->
<g id="edge10" class="edge">
<title>2452&#45;&gt;6297</title>
<path fill="none" stroke="green" d="M57.19,-339.59C91.29,-392.53 161.3,-501.2 199.21,-560.04"/>
<polygon fill="green" stroke="green" points="196.05,-561.6 204.41,-568.11 201.93,-557.81 196.05,-561.6"/>
<text text-anchor="middle" x="126.95" y="-500.95" font-family="Times,serif" font-size="14.00">6298, &#160;1.0</text>
</g>
<!-- 2356&#45;&gt;1085 -->
<g id="edge14" class="edge">
<title>2356&#45;&gt;1085</title>
<path fill="none" stroke="green" d="M462.66,-271.39C471.43,-280.54 481.82,-290.35 492.41,-298 528.61,-324.17 545.63,-317.4 582.41,-342.75 592.37,-349.62 602.36,-358.01 611.32,-366.24"/>
<polygon fill="green" stroke="green" points="608.79,-368.66 618.46,-372.97 613.59,-363.57 608.79,-368.66"/>
<text text-anchor="middle" x="537.41" y="-345.95" font-family="Times,serif" font-size="14.00">2366, &#160;0.827</text>
</g>
<!-- 2356&#45;&gt;148 -->
<g id="edge13" class="edge">
<title>2356&#45;&gt;148</title>
<path fill="none" stroke="green" d="M473.61,-234.35C479.84,-232.78 486.3,-231.26 492.41,-230 627.76,-202.18 664.84,-208.29 802.91,-214 809.83,-214.29 817.19,-214.74 824.31,-215.27"/>
<polygon fill="green" stroke="green" points="823.85,-218.74 834.1,-216.04 824.4,-211.76 823.85,-218.74"/>
<text text-anchor="middle" x="645.41" y="-216.95" font-family="Times,serif" font-size="14.00">2358, &#160;0.156</text>
</g>
<!-- 2356&#45;&gt;3 -->
<g id="edge16" class="edge">
<title>2356&#45;&gt;3</title>
<path fill="none" stroke="green" d="M454.32,-210.86C483.04,-154.49 550.53,-46 644.41,-46 644.41,-46 644.41,-46 1087.41,-46 1155.63,-46 1234.67,-61.78 1275.69,-71.18"/>
<polygon fill="green" stroke="green" points="1274.68,-74.53 1285.21,-73.41 1276.27,-67.72 1274.68,-74.53"/>
<text text-anchor="middle" x="865.91" y="-49.95" font-family="Times,serif" font-size="14.00">2365, &#160;0.955</text>
</g>
<!-- 2356&#45;&gt;5664 -->
<g id="edge17" class="edge">
<title>2356&#45;&gt;5664</title>
<path fill="none" stroke="green" d="M473.89,-251.23C509.68,-258.81 562.75,-270.6 582.41,-277.75 589.17,-280.21 596.15,-283.22 602.89,-286.4"/>
<polygon fill="green" stroke="green" points="601.31,-289.52 611.83,-290.8 604.4,-283.24 601.31,-289.52"/>
<text text-anchor="middle" x="537.41" y="-280.95" font-family="Times,serif" font-size="14.00">5855, &#160;0.819</text>
</g>
<!-- 2356&#45;&gt;102 -->
<g id="edge15" class="edge">
<title>2356&#45;&gt;102</title>
<path fill="none" stroke="green" d="M468.09,-223.06C475.7,-218.44 484.1,-214.02 492.41,-211 631.06,-160.49 673.73,-173.5 820.91,-162.75 914.05,-155.95 1159.12,-153.31 1239.41,-201 1260.13,-213.31 1275.9,-235.19 1286.63,-254.42"/>
<polygon fill="green" stroke="green" points="1283.46,-255.9 1291.22,-263.11 1289.65,-252.64 1283.46,-255.9"/>
<text text-anchor="middle" x="865.91" y="-166.95" font-family="Times,serif" font-size="14.00">2381, &#160;0.862</text>
</g>
<!-- 2356&#45;&gt;5994 -->
<g id="edge18" class="edge">
<title>2356&#45;&gt;5994</title>
<path fill="none" stroke="green" d="M474.61,-245.82C584.1,-251.41 915.36,-268.32 1038.58,-274.61"/>
<polygon fill="green" stroke="green" points="1038.16,-278.09 1048.33,-275.11 1038.52,-271.1 1038.16,-278.09"/>
<text text-anchor="middle" x="755.66" y="-266.95" font-family="Times,serif" font-size="14.00">6058, &#160;0.077</text>
</g>
<!-- 5664&#45;&gt;148 -->
<g id="edge20" class="edge">
<title>5664&#45;&gt;148</title>
<path fill="none" stroke="green" d="M664.94,-278.1C675.67,-263.04 690.59,-246.19 708.41,-236.75 744.39,-217.68 791.48,-214.79 824.57,-215.71"/>
<polygon fill="green" stroke="green" points="824,-219.19 834.14,-216.11 824.29,-212.2 824,-219.19"/>
<text text-anchor="middle" x="755.66" y="-240.95" font-family="Times,serif" font-size="14.00">5666, &#160;&#45;0.733</text>
</g>
<!-- 5664&#45;&gt;4615 -->
<g id="edge21" class="edge">
<title>5664&#45;&gt;4615</title>
<path fill="none" stroke="green" d="M671.95,-334.35C724.16,-385.67 840.26,-497 864.91,-497 864.91,-497 864.91,-497 1305.66,-497 1363.03,-497 1428.62,-488.59 1471.51,-481.94"/>
<polygon fill="green" stroke="green" points="1471.89,-485.42 1481.22,-480.4 1470.79,-478.51 1471.89,-485.42"/>
<text text-anchor="middle" x="1086.41" y="-500.95" font-family="Times,serif" font-size="14.00">5820, &#160;0.682</text>
</g>
<!-- 6297&#45;&gt;4615 -->
<g id="edge12" class="edge">
<title>6297&#45;&gt;4615</title>
<path fill="none" stroke="green" d="M259.12,-616.32C299.55,-635.28 371.57,-664 436.93,-664 436.93,-664 436.93,-664 1305.66,-664 1386.11,-664 1408.16,-634.53 1464.41,-577 1480.45,-560.59 1492.81,-538.39 1501.58,-518.8"/>
<polygon fill="green" stroke="green" points="1504.78,-520.21 1505.49,-509.64 1498.35,-517.46 1504.78,-520.21"/>
<text text-anchor="middle" x="865.91" y="-667.95" font-family="Times,serif" font-size="14.00">6313, &#160;0.093</text>
</g>
<!-- 6125 -->
<g id="node12" class="node">
<title>6125</title>
<ellipse fill="none" stroke="green" cx="437.93" cy="-600" rx="36.48" ry="36.48"/>
<text text-anchor="middle" x="437.93" y="-595.33" font-family="Times,serif" font-size="14.00">6125</text>
</g>
<!-- 6297&#45;&gt;6125 -->
<g id="edge11" class="edge">
<title>6297&#45;&gt;6125</title>
<path fill="none" stroke="green" d="M262.57,-600C297.57,-600 351.17,-600 389.7,-600"/>
<polygon fill="green" stroke="green" points="389.62,-603.5 399.62,-600 389.62,-596.5 389.62,-603.5"/>
<text text-anchor="middle" x="336.2" y="-603.95" font-family="Times,serif" font-size="14.00">6299, &#160;1.0</text>
</g>
<!-- 6125&#45;&gt;5778 -->
<g id="edge19" class="edge">
<title>6125&#45;&gt;5778</title>
<path fill="none" stroke="green" d="M473.32,-590.63C507.85,-581.22 561.21,-566.67 599.15,-556.33"/>
<polygon fill="green" stroke="green" points="599.72,-559.81 608.44,-553.8 597.87,-553.05 599.72,-559.81"/>
<text text-anchor="middle" x="537.41" y="-587.95" font-family="Times,serif" font-size="14.00">6127, &#160;0.327</text>
</g>
<!-- 102&#45;&gt;4615 -->
<g id="edge28" class="edge">
<title>102&#45;&gt;4615</title>
<path fill="none" stroke="green" d="M1329.41,-310.04C1361,-334.31 1418.23,-379.23 1464.41,-420.75 1471.12,-426.79 1478.09,-433.43 1484.7,-439.92"/>
<polygon fill="green" stroke="green" points="1482.2,-442.36 1491.76,-446.93 1487.13,-437.4 1482.2,-442.36"/>
<text text-anchor="middle" x="1417.16" y="-423.95" font-family="Times,serif" font-size="14.00">4616, &#160;&#45;1.126</text>
</g>
<!-- 5784 -->
<g id="node15" class="node">
<title>5784</title>
<ellipse fill="none" stroke="black" cx="1518.88" cy="-204" rx="36.48" ry="36.48"/>
<text text-anchor="middle" x="1518.88" y="-199.32" font-family="Times,serif" font-size="14.00">5784</text>
</g>
<!-- 102&#45;&gt;5784 -->
<g id="edge29" class="edge">
<title>102&#45;&gt;5784</title>
<path fill="none" stroke="green" d="M1332.97,-280.68C1368.7,-265.86 1431.76,-239.71 1474.18,-222.12"/>
<polygon fill="green" stroke="green" points="1475.46,-225.38 1483.35,-218.32 1472.78,-218.92 1475.46,-225.38"/>
<text text-anchor="middle" x="1417.16" y="-267.95" font-family="Times,serif" font-size="14.00">5861, &#160;1.419</text>
</g>
<!-- 5994&#45;&gt;4615 -->
<g id="edge26" class="edge">
<title>5994&#45;&gt;4615</title>
<path fill="none" stroke="green" d="M1116.93,-297.56C1166.85,-331.44 1272.07,-399.11 1369.91,-438 1402.77,-451.06 1441.68,-460.3 1471.36,-466.15"/>
<polygon fill="green" stroke="green" points="1470.69,-469.58 1481.16,-468.01 1471.99,-462.71 1470.69,-469.58"/>
<text text-anchor="middle" x="1304.66" y="-431.95" font-family="Times,serif" font-size="14.00">6161, &#160;&#45;1.241</text>
</g>
<!-- 5994&#45;&gt;3 -->
<g id="edge27" class="edge">
<title>5994&#45;&gt;3</title>
<path fill="none" stroke="green" d="M1121.87,-267.34C1165.48,-254.97 1235.44,-234.58 1239.41,-230 1272.99,-191.23 1231.93,-160.52 1257.41,-116 1262.68,-106.79 1271.1,-98.89 1279.31,-92.71"/>
<polygon fill="green" stroke="green" points="1281.17,-95.68 1287.43,-87.13 1277.2,-89.92 1281.17,-95.68"/>
<text text-anchor="middle" x="1194.41" y="-262.95" font-family="Times,serif" font-size="14.00">6275, &#160;0.593</text>
</g>
<!-- 5994&#45;&gt;102 -->
<g id="edge25" class="edge">
<title>5994&#45;&gt;102</title>
<path fill="none" stroke="green" d="M1123.12,-279.48C1161.55,-282.14 1222.57,-286.38 1262.87,-289.17"/>
<polygon fill="green" stroke="green" points="1262.43,-292.65 1272.65,-289.85 1262.91,-285.67 1262.43,-292.65"/>
<text text-anchor="middle" x="1194.41" y="-290.95" font-family="Times,serif" font-size="14.00">5996, &#160;1.706</text>
</g>
<!-- 4046 -->
<g id="node16" class="node">
<title>4046</title>
<ellipse fill="none" stroke="green" cx="1086.41" cy="-110" rx="36.48" ry="36.48"/>
<text text-anchor="middle" x="1086.41" y="-105.33" font-family="Times,serif" font-size="14.00">4046</text>
</g>
<!-- 4046&#45;&gt;3 -->
<g id="edge30" class="edge">
<title>4046&#45;&gt;3</title>
<path fill="none" stroke="green" d="M1122.63,-104.79C1165.17,-98.49 1235.87,-88.03 1275.15,-82.22"/>
<polygon fill="green" stroke="green" points="1275.61,-85.69 1284.99,-80.76 1274.59,-78.76 1275.61,-85.69"/>
<text text-anchor="middle" x="1194.41" y="-104.95" font-family="Times,serif" font-size="14.00">4189, &#160;0.429</text>
</g>
<!-- 4046&#45;&gt;5784 -->
<g id="edge31" class="edge">
<title>4046&#45;&gt;5784</title>
<path fill="none" stroke="green" d="M1122.27,-117.61C1199.56,-134.49 1385.31,-175.05 1471.95,-193.97"/>
<polygon fill="green" stroke="green" points="1471,-197.34 1481.52,-196.06 1472.5,-190.51 1471,-197.34"/>
<text text-anchor="middle" x="1304.66" y="-170.95" font-family="Times,serif" font-size="14.00">5785, &#160;1.0</text>
</g>
</g>
</svg>
