<?xml version="1.0" encoding="UTF-8" standalone="no"?>
<!DOCTYPE svg PUBLIC "-//W3C//DTD SVG 1.1//EN"
 "http://www.w3.org/Graphics/SVG/1.1/DTD/svg11.dtd">
<!-- Generated by graphviz version 10.0.1 (0)
 -->
<!-- Pages: 1 -->
<svg width="746pt" height="254pt"
 viewBox="0.00 0.00 746.00 254.25" xmlns="http://www.w3.org/2000/svg" xmlns:xlink="http://www.w3.org/1999/xlink">
<g id="graph0" class="graph" transform="scale(1 1) rotate(0) translate(4 250.25)">
<polygon fill="white" stroke="none" points="-4,4 -4,-250.25 742,-250.25 742,4 -4,4"/>
<!-- 1 -->
<g id="node1" class="node">
<title>1</title>
<ellipse fill="none" stroke="black" cx="27" cy="-183" rx="27" ry="18"/>
<text text-anchor="middle" x="27" y="-178.32" font-family="Times,serif" font-size="14.00">1</text>
</g>
<!-- 4 -->
<g id="node2" class="node">
<title>4</title>
<ellipse fill="none" stroke="black" cx="711" cy="-184" rx="27" ry="18"/>
<text text-anchor="middle" x="711" y="-179.32" font-family="Times,serif" font-size="14.00">4</text>
</g>
<!-- 1&#45;&gt;4 -->
<g id="edge1" class="edge">
<title>1&#45;&gt;4</title>
<path fill="none" stroke="red" d="M48.65,-193.99C55.89,-197.53 64.17,-201.25 72,-204 118.08,-220.17 130.16,-229 179,-229 179,-229 179,-229 541,-229 589.69,-229 643.7,-211.34 677.26,-198.15"/>
<polygon fill="red" stroke="red" points="678.45,-201.44 686.41,-194.44 675.83,-194.95 678.45,-201.44"/>
<text text-anchor="middle" x="357.75" y="-232.95" font-family="Times,serif" font-size="14.00">9, &#160;&#45;5.827</text>
</g>
<!-- 16 -->
<g id="node3" class="node">
<title>16</title>
<ellipse fill="none" stroke="black" cx="357.75" cy="-130" rx="27" ry="18"/>
<text text-anchor="middle" x="357.75" y="-125.33" font-family="Times,serif" font-size="14.00">16</text>
</g>
<!-- 1&#45;&gt;16 -->
<g id="edge2" class="edge">
<title>1&#45;&gt;16</title>
<path fill="none" stroke="red" d="M49.18,-172.52C71.97,-161.83 109.59,-145.83 144,-138.75 204.4,-126.33 276.42,-126.38 319.27,-127.92"/>
<polygon fill="red" stroke="red" points="318.9,-131.41 329.04,-128.33 319.19,-124.42 318.9,-131.41"/>
<text text-anchor="middle" x="180" y="-141.95" font-family="Times,serif" font-size="14.00">17, &#160;9.519</text>
</g>
<!-- 57 -->
<g id="node4" class="node">
<title>57</title>
<ellipse fill="none" stroke="black" cx="180" cy="-183" rx="27" ry="18"/>
<text text-anchor="middle" x="180" y="-178.32" font-family="Times,serif" font-size="14.00">57</text>
</g>
<!-- 1&#45;&gt;57 -->
<g id="edge3" class="edge">
<title>1&#45;&gt;57</title>
<path fill="none" stroke="green" d="M54.3,-183C78.37,-183 114.25,-183 141.36,-183"/>
<polygon fill="green" stroke="green" points="141.23,-186.5 151.23,-183 141.23,-179.5 141.23,-186.5"/>
<text text-anchor="middle" x="99" y="-186.95" font-family="Times,serif" font-size="14.00">58, &#160;1.0</text>
</g>
<!-- 16&#45;&gt;4 -->
<g id="edge7" class="edge">
<title>16&#45;&gt;4</title>
<path fill="none" stroke="red" d="M380.02,-140.38C388.93,-144.31 399.52,-148.44 409.5,-151 502.06,-174.72 614.94,-181.39 672.43,-183.27"/>
<polygon fill="red" stroke="red" points="672.22,-186.76 682.32,-183.56 672.43,-179.77 672.22,-186.76"/>
<text text-anchor="middle" x="540" y="-180.95" font-family="Times,serif" font-size="14.00">18, &#160;3.919</text>
</g>
<!-- 35 -->
<g id="node8" class="node">
<title>35</title>
<ellipse fill="none" stroke="black" cx="540" cy="-130" rx="27" ry="18"/>
<text text-anchor="middle" x="540" y="-125.33" font-family="Times,serif" font-size="14.00">35</text>
</g>
<!-- 16&#45;&gt;35 -->
<g id="edge8" class="edge">
<title>16&#45;&gt;35</title>
<path fill="none" stroke="green" d="M384.96,-130C415.66,-130 466.76,-130 501.61,-130"/>
<polygon fill="green" stroke="green" points="501.24,-133.5 511.24,-130 501.24,-126.5 501.24,-133.5"/>
<text text-anchor="middle" x="447.75" y="-133.95" font-family="Times,serif" font-size="14.00">36, &#160;&#45;8.955</text>
</g>
<!-- 6 -->
<g id="node9" class="node">
<title>6</title>
<ellipse fill="none" stroke="black" cx="711" cy="-61" rx="27" ry="18"/>
<text text-anchor="middle" x="711" y="-56.33" font-family="Times,serif" font-size="14.00">6</text>
</g>
<!-- 16&#45;&gt;6 -->
<g id="edge9" class="edge">
<title>16&#45;&gt;6</title>
<path fill="none" stroke="green" d="M382.07,-121.5C410.49,-111.47 460.15,-94.99 504,-85.75 562.07,-73.52 630.71,-66.78 672.26,-63.53"/>
<polygon fill="green" stroke="green" points="672.53,-67.02 682.23,-62.78 672,-60.04 672.53,-67.02"/>
<text text-anchor="middle" x="540" y="-88.95" font-family="Times,serif" font-size="14.00">48, &#160;0.046</text>
</g>
<!-- 57&#45;&gt;16 -->
<g id="edge6" class="edge">
<title>57&#45;&gt;16</title>
<path fill="none" stroke="green" d="M205.07,-175.74C235.22,-166.65 287.12,-151 321.69,-140.57"/>
<polygon fill="green" stroke="green" points="322.68,-143.93 331.24,-137.69 320.66,-137.23 322.68,-143.93"/>
<text text-anchor="middle" x="270" y="-168.95" font-family="Times,serif" font-size="14.00">59, &#160;9.519</text>
</g>
<!-- 2 -->
<g id="node5" class="node">
<title>2</title>
<ellipse fill="none" stroke="black" cx="27" cy="-77" rx="27" ry="18"/>
<text text-anchor="middle" x="27" y="-72.33" font-family="Times,serif" font-size="14.00">2</text>
</g>
<!-- 2&#45;&gt;16 -->
<g id="edge4" class="edge">
<title>2&#45;&gt;16</title>
<path fill="none" stroke="green" d="M53.52,-81.11C111.3,-90.43 252.32,-113.16 319.71,-124.03"/>
<polygon fill="green" stroke="green" points="319.09,-127.47 329.52,-125.61 320.21,-120.56 319.09,-127.47"/>
<text text-anchor="middle" x="180" y="-110.95" font-family="Times,serif" font-size="14.00">20, &#160;4.386</text>
</g>
<!-- 3 -->
<g id="node6" class="node">
<title>3</title>
<ellipse fill="none" stroke="black" cx="27" cy="-18" rx="27" ry="18"/>
<text text-anchor="middle" x="27" y="-13.32" font-family="Times,serif" font-size="14.00">3</text>
</g>
<!-- 5 -->
<g id="node7" class="node">
<title>5</title>
<ellipse fill="none" stroke="black" cx="711" cy="-115" rx="27" ry="18"/>
<text text-anchor="middle" x="711" y="-110.33" font-family="Times,serif" font-size="14.00">5</text>
</g>
<!-- 3&#45;&gt;5 -->
<g id="edge5" class="edge">
<title>3&#45;&gt;5</title>
<path fill="none" stroke="green" d="M54.46,-18C84.61,-18 135.35,-18 179,-18 179,-18 179,-18 541,-18 600.12,-18 657.27,-63.2 687.6,-91.89"/>
<polygon fill="green" stroke="green" points="685.08,-94.32 694.69,-98.79 689.96,-89.31 685.08,-94.32"/>
<text text-anchor="middle" x="357.75" y="-21.95" font-family="Times,serif" font-size="14.00">8, &#160;&#45;4.092</text>
</g>
<!-- 35&#45;&gt;4 -->
<g id="edge10" class="edge">
<title>35&#45;&gt;4</title>
<path fill="none" stroke="green" d="M567.32,-131.46C593.29,-133.65 633.68,-139.13 666,-152.75 672.42,-155.45 678.82,-159.22 684.67,-163.21"/>
<polygon fill="green" stroke="green" points="682.54,-165.99 692.68,-169.08 686.68,-160.34 682.54,-165.99"/>
<text text-anchor="middle" x="630" y="-155.95" font-family="Times,serif" font-size="14.00">37, &#160;7.235</text>
</g>
<!-- 35&#45;&gt;5 -->
<g id="edge11" class="edge">
<title>35&#45;&gt;5</title>
<path fill="none" stroke="green" d="M563.83,-120.83C573.04,-117.59 583.87,-114.36 594,-112.75 620.09,-108.61 649.89,-109.3 672.75,-110.96"/>
<polygon fill="green" stroke="green" points="672.26,-114.43 682.51,-111.77 672.84,-107.46 672.26,-114.43"/>
<text text-anchor="middle" x="630" y="-115.95" font-family="Times,serif" font-size="14.00">39, &#160;3.403</text>
</g>
</g>
</svg>
