<?xml version="1.0" encoding="UTF-8" standalone="no"?>
<!DOCTYPE svg PUBLIC "-//W3C//DTD SVG 1.1//EN"
 "http://www.w3.org/Graphics/SVG/1.1/DTD/svg11.dtd">
<!-- Generated by graphviz version 10.0.1 (0)
 -->
<!-- Pages: 1 -->
<svg width="382pt" height="217pt"
 viewBox="0.00 0.00 381.50 217.00" xmlns="http://www.w3.org/2000/svg" xmlns:xlink="http://www.w3.org/1999/xlink">
<g id="graph0" class="graph" transform="scale(1 1) rotate(0) translate(4 213)">
<polygon fill="white" stroke="none" points="-4,4 -4,-213 377.5,-213 377.5,4 -4,4"/>
<!-- 1 -->
<g id="node1" class="node">
<title>1</title>
<ellipse fill="none" stroke="black" cx="18" cy="-124" rx="18" ry="18"/>
<text text-anchor="middle" x="18" y="-119.33" font-family="Times,serif" font-size="14.00">1</text>
</g>
<!-- 6 -->
<g id="node2" class="node">
<title>6</title>
<ellipse fill="none" stroke="black" cx="355.5" cy="-57" rx="18" ry="18"/>
<text text-anchor="middle" x="355.5" y="-52.33" font-family="Times,serif" font-size="14.00">6</text>
</g>
<!-- 1&#45;&gt;6 -->
<g id="edge1" class="edge">
<title>1&#45;&gt;6</title>
<path fill="none" stroke="green" d="M36.1,-120.59C90.39,-109.74 259.25,-76.02 326.47,-62.6"/>
<polygon fill="green" stroke="green" points="326.83,-66.09 335.95,-60.7 325.46,-59.23 326.83,-66.09"/>
<text text-anchor="middle" x="186.75" y="-100.95" font-family="Times,serif" font-size="14.00">16, &#160;7.584</text>
</g>
<!-- 4 -->
<g id="node3" class="node">
<title>4</title>
<ellipse fill="none" stroke="black" cx="355.5" cy="-137" rx="18" ry="18"/>
<text text-anchor="middle" x="355.5" y="-132.32" font-family="Times,serif" font-size="14.00">4</text>
</g>
<!-- 1&#45;&gt;4 -->
<g id="edge2" class="edge">
<title>1&#45;&gt;4</title>
<path fill="none" stroke="red" d="M36.1,-124.66C90.15,-126.76 257.77,-133.25 325.58,-135.88"/>
<polygon fill="red" stroke="red" points="325.39,-139.37 335.52,-136.26 325.66,-132.38 325.39,-139.37"/>
<text text-anchor="middle" x="186.75" y="-134.95" font-family="Times,serif" font-size="14.00">11, &#160;&#45;6.929</text>
</g>
<!-- 26 -->
<g id="node4" class="node">
<title>26</title>
<ellipse fill="none" stroke="black" cx="186.75" cy="-183" rx="23.85" ry="23.85"/>
<text text-anchor="middle" x="186.75" y="-178.32" font-family="Times,serif" font-size="14.00">26</text>
</g>
<!-- 1&#45;&gt;26 -->
<g id="edge3" class="edge">
<title>1&#45;&gt;26</title>
<path fill="none" stroke="green" d="M34.96,-130.59C40.91,-132.99 47.74,-135.68 54,-138 87.52,-150.42 126.27,-163.5 153.03,-172.34"/>
<polygon fill="green" stroke="green" points="151.68,-175.59 162.28,-175.39 153.87,-168.94 151.68,-175.59"/>
<text text-anchor="middle" x="92.25" y="-167.95" font-family="Times,serif" font-size="14.00">27, &#160;&#45;8.872</text>
</g>
<!-- 26&#45;&gt;4 -->
<g id="edge5" class="edge">
<title>26&#45;&gt;4</title>
<path fill="none" stroke="green" d="M210.24,-176.8C240.48,-168.45 294.23,-153.63 326.89,-144.62"/>
<polygon fill="green" stroke="green" points="327.72,-148.02 336.43,-141.98 325.86,-141.27 327.72,-148.02"/>
<text text-anchor="middle" x="281.25" y="-169.95" font-family="Times,serif" font-size="14.00">28, &#160;&#45;6.929</text>
</g>
<!-- 3 -->
<g id="node5" class="node">
<title>3</title>
<ellipse fill="none" stroke="black" cx="18" cy="-18" rx="18" ry="18"/>
<text text-anchor="middle" x="18" y="-13.32" font-family="Times,serif" font-size="14.00">3</text>
</g>
<!-- 3&#45;&gt;6 -->
<g id="edge4" class="edge">
<title>3&#45;&gt;6</title>
<path fill="none" stroke="green" d="M36.44,-18.42C72.02,-19.45 155.51,-22.69 225,-31.75 260.45,-36.37 300.82,-44.74 326.92,-50.58"/>
<polygon fill="green" stroke="green" points="325.84,-53.92 336.37,-52.72 327.39,-47.09 325.84,-53.92"/>
<text text-anchor="middle" x="186.75" y="-35.95" font-family="Times,serif" font-size="14.00">17, &#160;0.126</text>
</g>
<!-- 2 -->
<g id="node6" class="node">
<title>2</title>
<ellipse fill="none" stroke="black" cx="18" cy="-178" rx="18" ry="18"/>
<text text-anchor="middle" x="18" y="-173.32" font-family="Times,serif" font-size="14.00">2</text>
</g>
<!-- 5 -->
<g id="node7" class="node">
<title>5</title>
<ellipse fill="none" stroke="black" cx="355.5" cy="-191" rx="18" ry="18"/>
<text text-anchor="middle" x="355.5" y="-186.32" font-family="Times,serif" font-size="14.00">5</text>
</g>
</g>
</svg>
