<?xml version="1.0" encoding="UTF-8" standalone="no"?>
<!DOCTYPE svg PUBLIC "-//W3C//DTD SVG 1.1//EN"
 "http://www.w3.org/Graphics/SVG/1.1/DTD/svg11.dtd">
<!-- Generated by graphviz version 10.0.1 (0)
 -->
<!-- Pages: 1 -->
<svg width="382pt" height="222pt"
 viewBox="0.00 0.00 381.50 222.25" xmlns="http://www.w3.org/2000/svg" xmlns:xlink="http://www.w3.org/1999/xlink">
<g id="graph0" class="graph" transform="scale(1 1) rotate(0) translate(4 218.25)">
<polygon fill="white" stroke="none" points="-4,4 -4,-218.25 377.5,-218.25 377.5,4 -4,4"/>
<!-- 1 -->
<g id="node1" class="node">
<title>1</title>
<ellipse fill="none" stroke="black" cx="18" cy="-81" rx="18" ry="18"/>
<text text-anchor="middle" x="18" y="-76.33" font-family="Times,serif" font-size="14.00">1</text>
</g>
<!-- 4 -->
<g id="node2" class="node">
<title>4</title>
<ellipse fill="none" stroke="black" cx="355.5" cy="-81" rx="18" ry="18"/>
<text text-anchor="middle" x="355.5" y="-76.33" font-family="Times,serif" font-size="14.00">4</text>
</g>
<!-- 1&#45;&gt;4 -->
<g id="edge1" class="edge">
<title>1&#45;&gt;4</title>
<path fill="none" stroke="red" d="M36.1,-81C90.15,-81 257.77,-81 325.58,-81"/>
<polygon fill="red" stroke="red" points="325.52,-84.5 335.52,-81 325.52,-77.5 325.52,-84.5"/>
<text text-anchor="middle" x="186.75" y="-84.95" font-family="Times,serif" font-size="14.00">11, &#160;0.158</text>
</g>
<!-- 13 -->
<g id="node3" class="node">
<title>13</title>
<ellipse fill="none" stroke="black" cx="186.75" cy="-24" rx="23.85" ry="23.85"/>
<text text-anchor="middle" x="186.75" y="-19.32" font-family="Times,serif" font-size="14.00">13</text>
</g>
<!-- 1&#45;&gt;13 -->
<g id="edge2" class="edge">
<title>1&#45;&gt;13</title>
<path fill="none" stroke="green" d="M33.09,-70.64C39.26,-66.48 46.74,-61.92 54,-58.75 71.45,-51.12 119.07,-39.34 152,-31.65"/>
<polygon fill="green" stroke="green" points="152.54,-35.12 161.49,-29.46 150.96,-28.3 152.54,-35.12"/>
<text text-anchor="middle" x="92.25" y="-62.95" font-family="Times,serif" font-size="14.00">14, &#160;3.975</text>
</g>
<!-- 13&#45;&gt;4 -->
<g id="edge6" class="edge">
<title>13&#45;&gt;4</title>
<path fill="none" stroke="green" d="M210.53,-29.12C242.78,-36.51 299.99,-50.22 319.5,-58.75 323.24,-60.39 327.04,-62.39 330.7,-64.52"/>
<polygon fill="green" stroke="green" points="328.81,-67.46 339.13,-69.83 332.54,-61.54 328.81,-67.46"/>
<text text-anchor="middle" x="281.25" y="-62.95" font-family="Times,serif" font-size="14.00">15, &#160;8.502</text>
</g>
<!-- 6 -->
<g id="node8" class="node">
<title>6</title>
<ellipse fill="none" stroke="black" cx="355.5" cy="-18" rx="18" ry="18"/>
<text text-anchor="middle" x="355.5" y="-13.32" font-family="Times,serif" font-size="14.00">6</text>
</g>
<!-- 13&#45;&gt;6 -->
<g id="edge7" class="edge">
<title>13&#45;&gt;6</title>
<path fill="none" stroke="green" d="M210.84,-21.35C220.73,-20.33 232.41,-19.29 243,-18.75 271.06,-17.33 303.14,-17.27 325.66,-17.5"/>
<polygon fill="green" stroke="green" points="325.55,-21 335.59,-17.62 325.64,-14 325.55,-21"/>
<text text-anchor="middle" x="281.25" y="-22.95" font-family="Times,serif" font-size="14.00">35, &#160;0.686</text>
</g>
<!-- 2 -->
<g id="node4" class="node">
<title>2</title>
<ellipse fill="none" stroke="black" cx="18" cy="-18" rx="18" ry="18"/>
<text text-anchor="middle" x="18" y="-13.32" font-family="Times,serif" font-size="14.00">2</text>
</g>
<!-- 2&#45;&gt;13 -->
<g id="edge3" class="edge">
<title>2&#45;&gt;13</title>
<path fill="none" stroke="green" d="M36.4,-17.64C58.34,-17.3 97.25,-17.06 130.5,-18.75 137.28,-19.09 144.52,-19.65 151.44,-20.27"/>
<polygon fill="green" stroke="green" points="150.87,-23.73 161.16,-21.2 151.54,-16.76 150.87,-23.73"/>
<text text-anchor="middle" x="92.25" y="-22.95" font-family="Times,serif" font-size="14.00">19, &#160;&#45;3.283</text>
</g>
<!-- 3 -->
<g id="node5" class="node">
<title>3</title>
<ellipse fill="none" stroke="black" cx="18" cy="-193" rx="18" ry="18"/>
<text text-anchor="middle" x="18" y="-188.32" font-family="Times,serif" font-size="14.00">3</text>
</g>
<!-- 5 -->
<g id="node6" class="node">
<title>5</title>
<ellipse fill="none" stroke="black" cx="355.5" cy="-193" rx="18" ry="18"/>
<text text-anchor="middle" x="355.5" y="-188.32" font-family="Times,serif" font-size="14.00">5</text>
</g>
<!-- 3&#45;&gt;5 -->
<g id="edge4" class="edge">
<title>3&#45;&gt;5</title>
<path fill="none" stroke="red" d="M36.44,-194.19C42.04,-194.52 48.28,-194.84 54,-195 171.95,-198.37 201.55,-198.37 319.5,-195 321.56,-194.94 323.68,-194.86 325.81,-194.77"/>
<polygon fill="red" stroke="red" points="325.74,-198.28 335.55,-194.27 325.38,-191.29 325.74,-198.28"/>
<text text-anchor="middle" x="186.75" y="-200.95" font-family="Times,serif" font-size="14.00">12, &#160;&#45;9.369</text>
</g>
<!-- 20 -->
<g id="node7" class="node">
<title>20</title>
<ellipse fill="none" stroke="black" cx="186.75" cy="-149" rx="23.85" ry="23.85"/>
<text text-anchor="middle" x="186.75" y="-144.32" font-family="Times,serif" font-size="14.00">20</text>
</g>
<!-- 3&#45;&gt;20 -->
<g id="edge5" class="edge">
<title>3&#45;&gt;20</title>
<path fill="none" stroke="green" d="M34.78,-185.34C40.7,-182.67 47.57,-179.83 54,-177.75 86.6,-167.2 124.98,-159.32 151.88,-154.5"/>
<polygon fill="green" stroke="green" points="152.27,-157.99 161.52,-152.82 151.07,-151.09 152.27,-157.99"/>
<text text-anchor="middle" x="92.25" y="-180.95" font-family="Times,serif" font-size="14.00">21, &#160;&#45;2.518</text>
</g>
<!-- 20&#45;&gt;5 -->
<g id="edge8" class="edge">
<title>20&#45;&gt;5</title>
<path fill="none" stroke="green" d="M210.49,-152.56C237.03,-157.05 282.08,-165.64 319.5,-177.75 322.41,-178.69 325.42,-179.79 328.38,-180.96"/>
<polygon fill="green" stroke="green" points="326.76,-184.07 337.33,-184.75 329.49,-177.63 326.76,-184.07"/>
<text text-anchor="middle" x="281.25" y="-180.95" font-family="Times,serif" font-size="14.00">22, &#160;&#45;3.317</text>
</g>
</g>
</svg>
