<?xml version="1.0" encoding="UTF-8" standalone="no"?>
<!DOCTYPE svg PUBLIC "-//W3C//DTD SVG 1.1//EN"
 "http://www.w3.org/Graphics/SVG/1.1/DTD/svg11.dtd">
<!-- Generated by graphviz version 10.0.1 (0)
 -->
<!-- Pages: 1 -->
<svg width="715pt" height="218pt"
 viewBox="0.00 0.00 714.50 217.85" xmlns="http://www.w3.org/2000/svg" xmlns:xlink="http://www.w3.org/1999/xlink">
<g id="graph0" class="graph" transform="scale(1 1) rotate(0) translate(4 213.85)">
<polygon fill="white" stroke="none" points="-4,4 -4,-213.85 710.5,-213.85 710.5,4 -4,4"/>
<!-- 3 -->
<g id="node1" class="node">
<title>3</title>
<ellipse fill="none" stroke="black" cx="18" cy="-83.85" rx="18" ry="18"/>
<text text-anchor="middle" x="18" y="-79.18" font-family="Times,serif" font-size="14.00">3</text>
</g>
<!-- 5 -->
<g id="node2" class="node">
<title>5</title>
<ellipse fill="none" stroke="black" cx="688.5" cy="-83.85" rx="18" ry="18"/>
<text text-anchor="middle" x="688.5" y="-79.18" font-family="Times,serif" font-size="14.00">5</text>
</g>
<!-- 3&#45;&gt;5 -->
<g id="edge1" class="edge">
<title>3&#45;&gt;5</title>
<path fill="none" stroke="red" d="M34.49,-91.08C63.21,-103.8 126.95,-128.85 183.5,-128.85 183.5,-128.85 183.5,-128.85 527.5,-128.85 576.33,-128.85 630.51,-109.19 661.64,-95.86"/>
<polygon fill="red" stroke="red" points="662.89,-99.13 670.63,-91.89 660.06,-92.73 662.89,-99.13"/>
<text text-anchor="middle" x="364.5" y="-132.8" font-family="Times,serif" font-size="14.00">12, &#160;1.482</text>
</g>
<!-- 29 -->
<g id="node3" class="node">
<title>29</title>
<ellipse fill="none" stroke="black" cx="364.5" cy="-52.85" rx="23.85" ry="23.85"/>
<text text-anchor="middle" x="364.5" y="-48.18" font-family="Times,serif" font-size="14.00">29</text>
</g>
<!-- 3&#45;&gt;29 -->
<g id="edge2" class="edge">
<title>3&#45;&gt;29</title>
<path fill="none" stroke="red" d="M36.18,-83.67C81.36,-83 207.11,-79.83 310.5,-64.85 316.8,-63.94 323.47,-62.67 329.86,-61.3"/>
<polygon fill="red" stroke="red" points="330.5,-64.75 339.47,-59.12 328.95,-57.92 330.5,-64.75"/>
<text text-anchor="middle" x="184.5" y="-82.8" font-family="Times,serif" font-size="14.00">30, &#160;5.123</text>
</g>
<!-- 32 -->
<g id="node4" class="node">
<title>32</title>
<ellipse fill="none" stroke="black" cx="184.5" cy="-23.85" rx="23.85" ry="23.85"/>
<text text-anchor="middle" x="184.5" y="-19.18" font-family="Times,serif" font-size="14.00">32</text>
</g>
<!-- 3&#45;&gt;32 -->
<g id="edge3" class="edge">
<title>3&#45;&gt;32</title>
<path fill="none" stroke="green" d="M30.77,-70.54C37.07,-64.2 45.3,-57.06 54,-52.6 83.99,-37.23 122.01,-30.03 149.08,-26.69"/>
<polygon fill="green" stroke="green" points="149.26,-30.2 158.81,-25.62 148.49,-23.24 149.26,-30.2"/>
<text text-anchor="middle" x="92.25" y="-56.8" font-family="Times,serif" font-size="14.00">33, &#160;&#45;0.736</text>
</g>
<!-- 29&#45;&gt;5 -->
<g id="edge5" class="edge">
<title>29&#45;&gt;5</title>
<path fill="none" stroke="red" d="M388.08,-58.21C397.45,-60.26 408.45,-62.44 418.5,-63.85 505.5,-76.06 609.45,-81.12 658.78,-82.94"/>
<polygon fill="red" stroke="red" points="658.48,-86.44 668.59,-83.29 658.72,-79.44 658.48,-86.44"/>
<text text-anchor="middle" x="526.5" y="-80.8" font-family="Times,serif" font-size="14.00">31, &#160;5.446</text>
</g>
<!-- 36 -->
<g id="node7" class="node">
<title>36</title>
<ellipse fill="none" stroke="black" cx="526.5" cy="-23.85" rx="23.85" ry="23.85"/>
<text text-anchor="middle" x="526.5" y="-19.18" font-family="Times,serif" font-size="14.00">36</text>
</g>
<!-- 29&#45;&gt;36 -->
<g id="edge6" class="edge">
<title>29&#45;&gt;36</title>
<path fill="none" stroke="green" d="M388.42,-48.7C415.39,-43.81 460.42,-35.65 491.47,-30.02"/>
<polygon fill="green" stroke="green" points="491.91,-33.49 501.13,-28.27 490.67,-26.61 491.91,-33.49"/>
<text text-anchor="middle" x="445.5" y="-46.8" font-family="Times,serif" font-size="14.00">37, &#160;1.0</text>
</g>
<!-- 32&#45;&gt;29 -->
<g id="edge4" class="edge">
<title>32&#45;&gt;29</title>
<path fill="none" stroke="green" d="M208.41,-27.58C239.11,-32.59 293.87,-41.51 329.42,-47.3"/>
<polygon fill="green" stroke="green" points="328.76,-50.74 339.19,-48.89 329.88,-43.83 328.76,-50.74"/>
<text text-anchor="middle" x="274.5" y="-47.8" font-family="Times,serif" font-size="14.00">34, &#160;5.123</text>
</g>
<!-- 1 -->
<g id="node5" class="node">
<title>1</title>
<ellipse fill="none" stroke="black" cx="18" cy="-137.85" rx="18" ry="18"/>
<text text-anchor="middle" x="18" y="-133.18" font-family="Times,serif" font-size="14.00">1</text>
</g>
<!-- 2 -->
<g id="node6" class="node">
<title>2</title>
<ellipse fill="none" stroke="black" cx="18" cy="-191.85" rx="18" ry="18"/>
<text text-anchor="middle" x="18" y="-187.18" font-family="Times,serif" font-size="14.00">2</text>
</g>
<!-- 36&#45;&gt;5 -->
<g id="edge7" class="edge">
<title>36&#45;&gt;5</title>
<path fill="none" stroke="green" d="M550.34,-25.66C576.34,-28.48 619.47,-35.51 652.5,-52.6 657.79,-55.34 662.91,-59.06 667.54,-62.98"/>
<polygon fill="green" stroke="green" points="664.89,-65.3 674.6,-69.54 669.65,-60.17 664.89,-65.3"/>
<text text-anchor="middle" x="616.5" y="-56.8" font-family="Times,serif" font-size="14.00">38, &#160;5.446</text>
</g>
<!-- 4 -->
<g id="node8" class="node">
<title>4</title>
<ellipse fill="none" stroke="black" cx="688.5" cy="-137.85" rx="18" ry="18"/>
<text text-anchor="middle" x="688.5" y="-133.18" font-family="Times,serif" font-size="14.00">4</text>
</g>
<!-- 6 -->
<g id="node9" class="node">
<title>6</title>
<ellipse fill="none" stroke="black" cx="688.5" cy="-191.85" rx="18" ry="18"/>
<text text-anchor="middle" x="688.5" y="-187.18" font-family="Times,serif" font-size="14.00">6</text>
</g>
</g>
</svg>
