<?xml version="1.0" encoding="UTF-8" standalone="no"?>
<!DOCTYPE svg PUBLIC "-//W3C//DTD SVG 1.1//EN"
 "http://www.w3.org/Graphics/SVG/1.1/DTD/svg11.dtd">
<!-- Generated by graphviz version 10.0.1 (0)
 -->
<!-- Pages: 1 -->
<svg width="400pt" height="179pt"
 viewBox="0.00 0.00 399.50 179.00" xmlns="http://www.w3.org/2000/svg" xmlns:xlink="http://www.w3.org/1999/xlink">
<g id="graph0" class="graph" transform="scale(1 1) rotate(0) translate(4 175)">
<polygon fill="white" stroke="none" points="-4,4 -4,-175 395.5,-175 395.5,4 -4,4"/>
<!-- 2 -->
<g id="node1" class="node">
<title>2</title>
<ellipse fill="none" stroke="black" cx="27" cy="-45" rx="27" ry="18"/>
<text text-anchor="middle" x="27" y="-40.33" font-family="Times,serif" font-size="14.00">2</text>
</g>
<!-- 4 -->
<g id="node2" class="node">
<title>4</title>
<ellipse fill="none" stroke="black" cx="364.5" cy="-45" rx="27" ry="18"/>
<text text-anchor="middle" x="364.5" y="-40.33" font-family="Times,serif" font-size="14.00">4</text>
</g>
<!-- 2&#45;&gt;4 -->
<g id="edge1" class="edge">
<title>2&#45;&gt;4</title>
<path fill="none" stroke="red" d="M51.47,-53.29C58.03,-55.23 65.22,-57.02 72,-58 180.87,-73.75 210.63,-73.75 319.5,-58 322.68,-57.54 325.95,-56.9 329.2,-56.16"/>
<polygon fill="red" stroke="red" points="329.8,-59.62 338.57,-53.67 328,-52.85 329.8,-59.62"/>
<text text-anchor="middle" x="193.5" y="-72.95" font-family="Times,serif" font-size="14.00">7, &#160;0.001</text>
</g>
<!-- 26 -->
<g id="node3" class="node">
<title>26</title>
<ellipse fill="none" stroke="black" cx="193.5" cy="-18" rx="27" ry="18"/>
<text text-anchor="middle" x="193.5" y="-13.32" font-family="Times,serif" font-size="14.00">26</text>
</g>
<!-- 2&#45;&gt;26 -->
<g id="edge2" class="edge">
<title>2&#45;&gt;26</title>
<path fill="none" stroke="green" d="M53.7,-40.78C81.11,-36.28 124.74,-29.12 155.76,-24.03"/>
<polygon fill="green" stroke="green" points="156.18,-27.51 165.48,-22.43 155.05,-20.6 156.18,-27.51"/>
<text text-anchor="middle" x="108" y="-40.95" font-family="Times,serif" font-size="14.00">27, &#160;2.991</text>
</g>
<!-- 26&#45;&gt;4 -->
<g id="edge3" class="edge">
<title>26&#45;&gt;4</title>
<path fill="none" stroke="green" d="M220.17,-22.1C248.54,-26.63 294.48,-33.97 326.68,-39.12"/>
<polygon fill="green" stroke="green" points="325.95,-42.54 336.37,-40.67 327.05,-35.63 325.95,-42.54"/>
<text text-anchor="middle" x="281.25" y="-40.95" font-family="Times,serif" font-size="14.00">28, &#160;&#45;1.676</text>
</g>
<!-- 1 -->
<g id="node4" class="node">
<title>1</title>
<ellipse fill="none" stroke="black" cx="27" cy="-99" rx="27" ry="18"/>
<text text-anchor="middle" x="27" y="-94.33" font-family="Times,serif" font-size="14.00">1</text>
</g>
<!-- 3 -->
<g id="node5" class="node">
<title>3</title>
<ellipse fill="none" stroke="black" cx="27" cy="-153" rx="27" ry="18"/>
<text text-anchor="middle" x="27" y="-148.32" font-family="Times,serif" font-size="14.00">3</text>
</g>
<!-- 5 -->
<g id="node6" class="node">
<title>5</title>
<ellipse fill="none" stroke="black" cx="364.5" cy="-99" rx="27" ry="18"/>
<text text-anchor="middle" x="364.5" y="-94.33" font-family="Times,serif" font-size="14.00">5</text>
</g>
<!-- 6 -->
<g id="node7" class="node">
<title>6</title>
<ellipse fill="none" stroke="black" cx="364.5" cy="-153" rx="27" ry="18"/>
<text text-anchor="middle" x="364.5" y="-148.32" font-family="Times,serif" font-size="14.00">6</text>
</g>
</g>
</svg>
