<?xml version="1.0" encoding="UTF-8" standalone="no"?>
<!DOCTYPE svg PUBLIC "-//W3C//DTD SVG 1.1//EN"
 "http://www.w3.org/Graphics/SVG/1.1/DTD/svg11.dtd">
<!-- Generated by graphviz version 10.0.1 (0)
 -->
<!-- Pages: 1 -->
<svg width="1149pt" height="501pt"
 viewBox="0.00 0.00 1149.28 500.73" xmlns="http://www.w3.org/2000/svg" xmlns:xlink="http://www.w3.org/1999/xlink">
<g id="graph0" class="graph" transform="scale(1 1) rotate(0) translate(4 496.73)">
<polygon fill="white" stroke="none" points="-4,4 -4,-496.73 1145.28,-496.73 1145.28,4 -4,4"/>
<!-- 1 -->
<g id="node1" class="node">
<title>1</title>
<ellipse fill="none" stroke="green" cx="18" cy="-293.48" rx="18" ry="18"/>
<text text-anchor="middle" x="18" y="-288.8" font-family="Times,serif" font-size="14.00">1</text>
</g>
<!-- 4 -->
<g id="node2" class="node">
<title>4</title>
<ellipse fill="none" stroke="green" cx="1123.28" cy="-437.48" rx="18" ry="18"/>
<text text-anchor="middle" x="1123.28" y="-432.8" font-family="Times,serif" font-size="14.00">4</text>
</g>
<!-- 1&#45;&gt;4 -->
<g id="edge1" class="edge">
<title>1&#45;&gt;4</title>
<path fill="none" stroke="red" d="M29.06,-308.06C59.39,-351.25 150.68,-475.48 197.48,-475.48 197.48,-475.48 197.48,-475.48 935.28,-475.48 1003.36,-475.48 1022.46,-477.3 1087.28,-456.48 1090.66,-455.39 1094.09,-453.98 1097.42,-452.41"/>
<polygon fill="red" stroke="red" points="1098.95,-455.56 1106.16,-447.8 1095.68,-449.37 1098.95,-455.56"/>
<text text-anchor="middle" x="560.78" y="-479.43" font-family="Times,serif" font-size="14.00">11, &#160;0.9</text>
</g>
<!-- 12 -->
<g id="node3" class="node">
<title>12</title>
<ellipse fill="none" stroke="green" cx="560.78" cy="-316.48" rx="23.85" ry="23.85"/>
<text text-anchor="middle" x="560.78" y="-311.8" font-family="Times,serif" font-size="14.00">12</text>
</g>
<!-- 1&#45;&gt;12 -->
<g id="edge2" class="edge">
<title>1&#45;&gt;12</title>
<path fill="none" stroke="red" d="M36.38,-294.22C112.98,-297.47 421.27,-310.59 525.3,-315.01"/>
<polygon fill="red" stroke="red" points="525.02,-318.5 535.16,-315.43 525.32,-311.51 525.02,-318.5"/>
<text text-anchor="middle" x="288.95" y="-310.43" font-family="Times,serif" font-size="14.00">13, &#160;1.083</text>
</g>
<!-- 193 -->
<g id="node4" class="node">
<title>193</title>
<ellipse fill="none" stroke="green" cx="373.12" cy="-199.48" rx="30.16" ry="30.16"/>
<text text-anchor="middle" x="373.12" y="-194.8" font-family="Times,serif" font-size="14.00">193</text>
</g>
<!-- 1&#45;&gt;193 -->
<g id="edge3" class="edge">
<title>1&#45;&gt;193</title>
<path fill="none" stroke="red" d="M36.28,-290.68C83.47,-282.75 218.12,-258.24 324.95,-220.48 328.23,-219.32 331.59,-218.03 334.94,-216.68"/>
<polygon fill="red" stroke="red" points="336.24,-219.93 344.09,-212.81 333.51,-213.48 336.24,-219.93"/>
<text text-anchor="middle" x="198.48" y="-269.43" font-family="Times,serif" font-size="14.00">194, &#160;1.0</text>
</g>
<!-- 2121 -->
<g id="node5" class="node">
<title>2121</title>
<ellipse fill="none" stroke="green" cx="198.48" cy="-199.48" rx="36.48" ry="36.48"/>
<text text-anchor="middle" x="198.48" y="-194.8" font-family="Times,serif" font-size="14.00">2121</text>
</g>
<!-- 1&#45;&gt;2121 -->
<g id="edge4" class="edge">
<title>1&#45;&gt;2121</title>
<path fill="none" stroke="green" d="M25.98,-276.98C31.82,-265.1 41.25,-249.59 54,-240.23 82.23,-219.51 120.67,-209.31 150.66,-204.3"/>
<polygon fill="green" stroke="green" points="150.84,-207.81 160.2,-202.85 149.79,-200.89 150.84,-207.81"/>
<text text-anchor="middle" x="99" y="-244.43" font-family="Times,serif" font-size="14.00">2122, &#160;1.002</text>
</g>
<!-- 12&#45;&gt;4 -->
<g id="edge10" class="edge">
<title>12&#45;&gt;4</title>
<path fill="none" stroke="red" d="M575.8,-335.36C586.57,-348.91 602.41,-366.92 619.28,-379.48 651.33,-403.33 661.54,-408.71 700.28,-418.48 844.52,-454.82 1025.09,-445.5 1093.89,-440.06"/>
<polygon fill="red" stroke="red" points="1093.86,-443.58 1103.53,-439.26 1093.28,-436.6 1093.86,-443.58"/>
<text text-anchor="middle" x="835.28" y="-446.43" font-family="Times,serif" font-size="14.00">14, &#160;0.9</text>
</g>
<!-- 6 -->
<g id="node8" class="node">
<title>6</title>
<ellipse fill="none" stroke="green" cx="1123.28" cy="-153.48" rx="18" ry="18"/>
<text text-anchor="middle" x="1123.28" y="-148.8" font-family="Times,serif" font-size="14.00">6</text>
</g>
<!-- 12&#45;&gt;6 -->
<g id="edge11" class="edge">
<title>12&#45;&gt;6</title>
<path fill="none" stroke="red" d="M579.48,-301.05C590.4,-292.11 605,-281.14 619.28,-273.48 694.13,-233.31 716.84,-229.7 799.28,-209.23 924.81,-178.06 962.36,-201.01 1087.28,-167.48 1090.1,-166.72 1093,-165.8 1095.87,-164.8"/>
<polygon fill="red" stroke="red" points="1097.03,-168.1 1105.11,-161.25 1094.52,-161.57 1097.03,-168.1"/>
<text text-anchor="middle" x="835.28" y="-213.43" font-family="Times,serif" font-size="14.00">44, &#160;0.168</text>
</g>
<!-- 355 -->
<g id="node10" class="node">
<title>355</title>
<ellipse fill="none" stroke="green" cx="835.28" cy="-265.48" rx="30.16" ry="30.16"/>
<text text-anchor="middle" x="835.28" y="-260.8" font-family="Times,serif" font-size="14.00">355</text>
</g>
<!-- 12&#45;&gt;355 -->
<g id="edge13" class="edge">
<title>12&#45;&gt;355</title>
<path fill="none" stroke="green" d="M582.22,-305.25C592.94,-299.85 606.49,-293.79 619.28,-290.23 678.47,-273.76 749.76,-268.23 793.54,-266.38"/>
<polygon fill="green" stroke="green" points="793.49,-269.89 803.35,-266.02 793.23,-262.89 793.49,-269.89"/>
<text text-anchor="middle" x="650.78" y="-294.43" font-family="Times,serif" font-size="14.00">356, &#160;1.0</text>
</g>
<!-- 5 -->
<g id="node11" class="node">
<title>5</title>
<ellipse fill="none" stroke="green" cx="1123.28" cy="-312.48" rx="18" ry="18"/>
<text text-anchor="middle" x="1123.28" y="-307.8" font-family="Times,serif" font-size="14.00">5</text>
</g>
<!-- 12&#45;&gt;5 -->
<g id="edge12" class="edge">
<title>12&#45;&gt;5</title>
<path fill="none" stroke="red" d="M585.09,-316.53C658.77,-316.67 893.21,-316.8 1087.28,-313.48 1089.33,-313.44 1091.46,-313.4 1093.59,-313.35"/>
<polygon fill="red" stroke="red" points="1093.42,-316.86 1103.32,-313.09 1093.23,-309.86 1093.42,-316.86"/>
<text text-anchor="middle" x="835.28" y="-320.43" font-family="Times,serif" font-size="14.00">43, &#160;0.064</text>
</g>
<!-- 906 -->
<g id="node12" class="node">
<title>906</title>
<ellipse fill="none" stroke="green" cx="740.78" cy="-379.48" rx="30.16" ry="30.16"/>
<text text-anchor="middle" x="740.78" y="-374.8" font-family="Times,serif" font-size="14.00">906</text>
</g>
<!-- 12&#45;&gt;906 -->
<g id="edge14" class="edge">
<title>12&#45;&gt;906</title>
<path fill="none" stroke="green" d="M583.61,-324.2C612.89,-334.56 665.35,-353.13 701.33,-365.87"/>
<polygon fill="green" stroke="green" points="699.9,-369.07 710.49,-369.11 702.23,-362.47 699.9,-369.07"/>
<text text-anchor="middle" x="650.78" y="-362.43" font-family="Times,serif" font-size="14.00">907, &#160;1.0</text>
</g>
<!-- 193&#45;&gt;12 -->
<g id="edge6" class="edge">
<title>193&#45;&gt;12</title>
<path fill="none" stroke="green" d="M399.16,-215.26C433.27,-236.75 494.22,-275.16 530.44,-297.98"/>
<polygon fill="green" stroke="green" points="528.35,-300.8 538.67,-303.17 532.08,-294.88 528.35,-300.8"/>
<text text-anchor="middle" x="461.78" y="-283.43" font-family="Times,serif" font-size="14.00">195, &#160;1.083</text>
</g>
<!-- 193&#45;&gt;6 -->
<g id="edge7" class="edge">
<title>193&#45;&gt;6</title>
<path fill="none" stroke="red" d="M401.58,-188.22C437.37,-174.61 502.17,-153.48 559.78,-153.48 559.78,-153.48 559.78,-153.48 935.28,-153.48 991.43,-153.48 1057.06,-153.48 1093.74,-153.48"/>
<polygon fill="red" stroke="red" points="1093.49,-156.98 1103.49,-153.48 1093.49,-149.98 1093.49,-156.98"/>
<text text-anchor="middle" x="740.78" y="-157.43" font-family="Times,serif" font-size="14.00">249, &#160;0.085</text>
</g>
<!-- 2112 -->
<g id="node9" class="node">
<title>2112</title>
<ellipse fill="none" stroke="green" cx="740.78" cy="-81.48" rx="36.48" ry="36.48"/>
<text text-anchor="middle" x="740.78" y="-76.8" font-family="Times,serif" font-size="14.00">2112</text>
</g>
<!-- 193&#45;&gt;2112 -->
<g id="edge8" class="edge">
<title>193&#45;&gt;2112</title>
<path fill="none" stroke="green" d="M388.58,-173.31C396.64,-161.15 407.78,-147.62 421.28,-139.48 506.88,-87.89 627.24,-79.98 692.76,-79.97"/>
<polygon fill="green" stroke="green" points="692.42,-83.46 702.44,-80.03 692.46,-76.47 692.42,-83.46"/>
<text text-anchor="middle" x="560.78" y="-104.43" font-family="Times,serif" font-size="14.00">2113, &#160;1.0</text>
</g>
<!-- 193&#45;&gt;355 -->
<g id="edge9" class="edge">
<title>193&#45;&gt;355</title>
<path fill="none" stroke="red" d="M403.25,-203.66C482.56,-215.03 702.44,-246.57 793.74,-259.66"/>
<polygon fill="red" stroke="red" points="793.08,-263.1 803.48,-261.06 794.08,-256.17 793.08,-263.1"/>
<text text-anchor="middle" x="560.78" y="-236.43" font-family="Times,serif" font-size="14.00">410, &#160;0.002</text>
</g>
<!-- 2121&#45;&gt;193 -->
<g id="edge5" class="edge">
<title>2121&#45;&gt;193</title>
<path fill="none" stroke="green" d="M235.25,-199.48C263.2,-199.48 302.07,-199.48 331.25,-199.48"/>
<polygon fill="green" stroke="green" points="331.19,-202.98 341.19,-199.48 331.19,-195.98 331.19,-202.98"/>
<text text-anchor="middle" x="288.95" y="-203.43" font-family="Times,serif" font-size="14.00">2123, &#160;1.0</text>
</g>
<!-- 2 -->
<g id="node6" class="node">
<title>2</title>
<ellipse fill="none" stroke="green" cx="18" cy="-347.48" rx="18" ry="18"/>
<text text-anchor="middle" x="18" y="-342.8" font-family="Times,serif" font-size="14.00">2</text>
</g>
<!-- 3 -->
<g id="node7" class="node">
<title>3</title>
<ellipse fill="none" stroke="green" cx="18" cy="-401.48" rx="18" ry="18"/>
<text text-anchor="middle" x="18" y="-396.8" font-family="Times,serif" font-size="14.00">3</text>
</g>
<!-- 2112&#45;&gt;6 -->
<g id="edge16" class="edge">
<title>2112&#45;&gt;6</title>
<path fill="none" stroke="red" d="M777.16,-86.43C853,-97.22 1029.08,-123.16 1087.28,-139.48 1090.09,-140.27 1092.99,-141.2 1095.85,-142.22"/>
<polygon fill="red" stroke="red" points="1094.5,-145.45 1105.09,-145.78 1097.02,-138.92 1094.5,-145.45"/>
<text text-anchor="middle" x="934.28" y="-121.43" font-family="Times,serif" font-size="14.00">2114, &#160;0.085</text>
</g>
<!-- 2118 -->
<g id="node13" class="node">
<title>2118</title>
<ellipse fill="none" stroke="green" cx="934.28" cy="-36.48" rx="36.48" ry="36.48"/>
<text text-anchor="middle" x="934.28" y="-31.8" font-family="Times,serif" font-size="14.00">2118</text>
</g>
<!-- 2112&#45;&gt;2118 -->
<g id="edge17" class="edge">
<title>2112&#45;&gt;2118</title>
<path fill="none" stroke="green" d="M776.46,-73.33C807.54,-66.02 853.37,-55.26 887.46,-47.24"/>
<polygon fill="green" stroke="green" points="888.13,-50.68 897.06,-44.99 886.53,-43.87 888.13,-50.68"/>
<text text-anchor="middle" x="835.28" y="-71.43" font-family="Times,serif" font-size="14.00">2119, &#160;1.0</text>
</g>
<!-- 355&#45;&gt;6 -->
<g id="edge19" class="edge">
<title>355&#45;&gt;6</title>
<path fill="none" stroke="green" d="M865.26,-259.14C929.32,-245.06 1078.05,-211.88 1087.28,-205.48 1096.61,-199.01 1104.14,-189.18 1109.8,-179.81"/>
<polygon fill="green" stroke="green" points="1112.71,-181.76 1114.47,-171.31 1106.58,-178.39 1112.71,-181.76"/>
<text text-anchor="middle" x="934.28" y="-257.43" font-family="Times,serif" font-size="14.00">383, &#160;0.004</text>
</g>
<!-- 355&#45;&gt;5 -->
<g id="edge18" class="edge">
<title>355&#45;&gt;5</title>
<path fill="none" stroke="green" d="M865.54,-270.29C920.74,-279.36 1039.54,-298.88 1093.98,-307.83"/>
<polygon fill="green" stroke="green" points="1093.25,-311.25 1103.68,-309.42 1094.38,-304.35 1093.25,-311.25"/>
<text text-anchor="middle" x="934.28" y="-293.43" font-family="Times,serif" font-size="14.00">357, &#160;0.063</text>
</g>
<!-- 906&#45;&gt;4 -->
<g id="edge15" class="edge">
<title>906&#45;&gt;4</title>
<path fill="none" stroke="green" d="M771,-380.4C831.21,-382.9 973.04,-391.93 1087.28,-423.48 1090.1,-424.25 1092.99,-425.19 1095.86,-426.19"/>
<polygon fill="green" stroke="green" points="1094.51,-429.42 1105.1,-429.76 1097.03,-422.89 1094.51,-429.42"/>
<text text-anchor="middle" x="934.28" y="-403.43" font-family="Times,serif" font-size="14.00">908, &#160;0.9</text>
</g>
<!-- 2118&#45;&gt;6 -->
<g id="edge20" class="edge">
<title>2118&#45;&gt;6</title>
<path fill="none" stroke="green" d="M971.19,-37.63C1004.76,-40.5 1054.51,-49.55 1087.28,-77.23 1101.61,-89.33 1110.38,-108.54 1115.56,-124.65"/>
<polygon fill="green" stroke="green" points="1112.18,-125.59 1118.3,-134.24 1118.91,-123.66 1112.18,-125.59"/>
<text text-anchor="middle" x="1042.28" y="-81.43" font-family="Times,serif" font-size="14.00">2120, &#160;0.085</text>
</g>
</g>
</svg>
