<?xml version="1.0" encoding="UTF-8" standalone="no"?>
<!DOCTYPE svg PUBLIC "-//W3C//DTD SVG 1.1//EN"
 "http://www.w3.org/Graphics/SVG/1.1/DTD/svg11.dtd">
<!-- Generated by graphviz version 10.0.1 (0)
 -->
<!-- Pages: 1 -->
<svg width="1586pt" height="432pt"
 viewBox="0.00 0.00 1585.86 432.25" xmlns="http://www.w3.org/2000/svg" xmlns:xlink="http://www.w3.org/1999/xlink">
<g id="graph0" class="graph" transform="scale(1 1) rotate(0) translate(4 428.25)">
<polygon fill="white" stroke="none" points="-4,4 -4,-428.25 1581.86,-428.25 1581.86,4 -4,4"/>
<!-- 1 -->
<g id="node1" class="node">
<title>1</title>
<ellipse fill="none" stroke="green" cx="18" cy="-92" rx="18" ry="18"/>
<text text-anchor="middle" x="18" y="-87.33" font-family="Times,serif" font-size="14.00">1</text>
</g>
<!-- 321 -->
<g id="node2" class="node">
<title>321</title>
<ellipse fill="none" stroke="green" cx="960.41" cy="-58" rx="30.16" ry="30.16"/>
<text text-anchor="middle" x="960.41" y="-53.33" font-family="Times,serif" font-size="14.00">321</text>
</g>
<!-- 1&#45;&gt;321 -->
<g id="edge1" class="edge">
<title>1&#45;&gt;321</title>
<path fill="none" stroke="green" d="M31.97,-80.25C58.4,-57.58 121.27,-10 183.5,-10 183.5,-10 183.5,-10 667.95,-10 759.16,-10 864.31,-33.17 920.01,-47.31"/>
<polygon fill="green" stroke="green" points="919.09,-50.69 929.65,-49.8 920.85,-43.91 919.09,-50.69"/>
<text text-anchor="middle" x="472.5" y="-13.95" font-family="Times,serif" font-size="14.00">436, &#160;0.001</text>
</g>
<!-- 117 -->
<g id="node3" class="node">
<title>117</title>
<ellipse fill="none" stroke="green" cx="373.5" cy="-196" rx="30.16" ry="30.16"/>
<text text-anchor="middle" x="373.5" y="-191.32" font-family="Times,serif" font-size="14.00">117</text>
</g>
<!-- 1&#45;&gt;117 -->
<g id="edge2" class="edge">
<title>1&#45;&gt;117</title>
<path fill="none" stroke="green" d="M34.88,-98.84C40.82,-101.26 47.66,-103.91 54,-106 128.61,-130.58 149.43,-129.28 225,-150.75 262.01,-161.27 303.93,-174.23 333.59,-183.58"/>
<polygon fill="green" stroke="green" points="332.29,-186.84 342.88,-186.52 334.4,-180.16 332.29,-186.84"/>
<text text-anchor="middle" x="184.5" y="-154.95" font-family="Times,serif" font-size="14.00">178, &#160;0.015</text>
</g>
<!-- 3811 -->
<g id="node4" class="node">
<title>3811</title>
<ellipse fill="none" stroke="green" cx="766.43" cy="-203" rx="36.48" ry="36.48"/>
<text text-anchor="middle" x="766.43" y="-198.32" font-family="Times,serif" font-size="14.00">3811</text>
</g>
<!-- 1&#45;&gt;3811 -->
<g id="edge3" class="edge">
<title>1&#45;&gt;3811</title>
<path fill="none" stroke="green" d="M36.37,-92.96C107.34,-97.11 382.05,-115.13 603.95,-157 644.05,-164.57 688.59,-177.61 720.71,-187.88"/>
<polygon fill="green" stroke="green" points="719.5,-191.17 730.09,-190.92 721.65,-184.51 719.5,-191.17"/>
<text text-anchor="middle" x="373.5" y="-131.95" font-family="Times,serif" font-size="14.00">3812, &#160;1.0</text>
</g>
<!-- 4215 -->
<g id="node17" class="node">
<title>4215</title>
<ellipse fill="none" stroke="green" cx="1171.91" cy="-66" rx="36.48" ry="36.48"/>
<text text-anchor="middle" x="1171.91" y="-61.33" font-family="Times,serif" font-size="14.00">4215</text>
</g>
<!-- 321&#45;&gt;4215 -->
<g id="edge23" class="edge">
<title>321&#45;&gt;4215</title>
<path fill="none" stroke="green" d="M990.98,-59.13C1025.55,-60.45 1083.2,-62.65 1123.91,-64.21"/>
<polygon fill="green" stroke="green" points="1123.54,-67.69 1133.66,-64.58 1123.8,-60.7 1123.54,-67.69"/>
<text text-anchor="middle" x="1063.91" y="-67.95" font-family="Times,serif" font-size="14.00">4216, &#160;1.0</text>
</g>
<!-- 5 -->
<g id="node11" class="node">
<title>5</title>
<ellipse fill="none" stroke="green" cx="1559.86" cy="-389" rx="18" ry="18"/>
<text text-anchor="middle" x="1559.86" y="-384.32" font-family="Times,serif" font-size="14.00">5</text>
</g>
<!-- 117&#45;&gt;5 -->
<g id="edge9" class="edge">
<title>117&#45;&gt;5</title>
<path fill="none" stroke="green" d="M394.93,-217.21C423.18,-245.49 476.83,-295.49 531,-326 627.05,-380.1 655.2,-407 765.43,-407 765.43,-407 765.43,-407 1380.38,-407 1433.59,-407 1495.28,-398.98 1530.42,-393.65"/>
<polygon fill="green" stroke="green" points="1530.85,-397.12 1540.2,-392.13 1529.78,-390.21 1530.85,-397.12"/>
<text text-anchor="middle" x="960.41" y="-410.95" font-family="Times,serif" font-size="14.00">119, &#160;0.645</text>
</g>
<!-- 426 -->
<g id="node12" class="node">
<title>426</title>
<ellipse fill="none" stroke="green" cx="567.48" cy="-196" rx="30.16" ry="30.16"/>
<text text-anchor="middle" x="567.48" y="-191.32" font-family="Times,serif" font-size="14.00">426</text>
</g>
<!-- 117&#45;&gt;426 -->
<g id="edge10" class="edge">
<title>117&#45;&gt;426</title>
<path fill="none" stroke="green" d="M404.08,-196C436.63,-196 489.17,-196 525.64,-196"/>
<polygon fill="green" stroke="green" points="525.35,-199.5 535.35,-196 525.35,-192.5 525.35,-199.5"/>
<text text-anchor="middle" x="472.5" y="-199.95" font-family="Times,serif" font-size="14.00">427, &#160;1.0</text>
</g>
<!-- 2401 -->
<g id="node13" class="node">
<title>2401</title>
<ellipse fill="none" stroke="green" cx="1063.91" cy="-178" rx="36.48" ry="36.48"/>
<text text-anchor="middle" x="1063.91" y="-173.32" font-family="Times,serif" font-size="14.00">2401</text>
</g>
<!-- 117&#45;&gt;2401 -->
<g id="edge11" class="edge">
<title>117&#45;&gt;2401</title>
<path fill="none" stroke="green" d="M402.67,-186.77C433.7,-177.11 485.28,-162.61 531,-157 709.35,-135.11 923.62,-158.59 1016.36,-171.14"/>
<polygon fill="green" stroke="green" points="1015.7,-174.58 1026.08,-172.48 1016.65,-167.65 1015.7,-174.58"/>
<text text-anchor="middle" x="666.95" y="-153.95" font-family="Times,serif" font-size="14.00">2413, &#160;0.664</text>
</g>
<!-- 6 -->
<g id="node16" class="node">
<title>6</title>
<ellipse fill="none" stroke="green" cx="1559.86" cy="-285" rx="18" ry="18"/>
<text text-anchor="middle" x="1559.86" y="-280.32" font-family="Times,serif" font-size="14.00">6</text>
</g>
<!-- 3811&#45;&gt;6 -->
<g id="edge19" class="edge">
<title>3811&#45;&gt;6</title>
<path fill="none" stroke="green" d="M802.97,-206.68C936.88,-220.56 1409.45,-269.52 1530.47,-282.06"/>
<polygon fill="green" stroke="green" points="1529.85,-285.51 1540.16,-283.06 1530.57,-278.55 1529.85,-285.51"/>
<text text-anchor="middle" x="1171.91" y="-252.95" font-family="Times,serif" font-size="14.00">3813, &#160;0.15</text>
</g>
<!-- 3811&#45;&gt;4215 -->
<g id="edge20" class="edge">
<title>3811&#45;&gt;4215</title>
<path fill="none" stroke="green" d="M801.48,-191.44C874.15,-166.76 1044.43,-108.94 1125.92,-81.28"/>
<polygon fill="green" stroke="green" points="1127.03,-84.6 1135.37,-78.07 1124.78,-77.97 1127.03,-84.6"/>
<text text-anchor="middle" x="960.41" y="-154.95" font-family="Times,serif" font-size="14.00">4261, &#160;0.0</text>
</g>
<!-- 2 -->
<g id="node5" class="node">
<title>2</title>
<ellipse fill="none" stroke="green" cx="18" cy="-383" rx="18" ry="18"/>
<text text-anchor="middle" x="18" y="-378.32" font-family="Times,serif" font-size="14.00">2</text>
</g>
<!-- 182 -->
<g id="node6" class="node">
<title>182</title>
<ellipse fill="none" stroke="green" cx="766.43" cy="-288" rx="30.16" ry="30.16"/>
<text text-anchor="middle" x="766.43" y="-283.32" font-family="Times,serif" font-size="14.00">182</text>
</g>
<!-- 2&#45;&gt;182 -->
<g id="edge4" class="edge">
<title>2&#45;&gt;182</title>
<path fill="none" stroke="green" d="M36.29,-383C66.26,-383 129.81,-383 183.5,-383 183.5,-383 183.5,-383 473.5,-383 569.94,-383 675.89,-335.54 729.73,-307.71"/>
<polygon fill="green" stroke="green" points="731.22,-310.88 738.44,-303.13 727.96,-304.69 731.22,-310.88"/>
<text text-anchor="middle" x="373.5" y="-386.95" font-family="Times,serif" font-size="14.00">205, &#160;0.111</text>
</g>
<!-- 182&#45;&gt;2401 -->
<g id="edge18" class="edge">
<title>182&#45;&gt;2401</title>
<path fill="none" stroke="green" d="M791,-269.78C800,-263.44 810.59,-256.68 820.91,-251.75 885.98,-220.65 967.14,-199.11 1016.98,-187.65"/>
<polygon fill="green" stroke="green" points="1017.57,-191.11 1026.56,-185.49 1016.03,-184.28 1017.57,-191.11"/>
<text text-anchor="middle" x="861.41" y="-254.95" font-family="Times,serif" font-size="14.00">2402, &#160;1.0</text>
</g>
<!-- 347 -->
<g id="node14" class="node">
<title>347</title>
<ellipse fill="none" stroke="green" cx="960.41" cy="-341" rx="30.16" ry="30.16"/>
<text text-anchor="middle" x="960.41" y="-336.32" font-family="Times,serif" font-size="14.00">347</text>
</g>
<!-- 182&#45;&gt;347 -->
<g id="edge16" class="edge">
<title>182&#45;&gt;347</title>
<path fill="none" stroke="green" d="M795.76,-295.82C828.65,-304.9 883.11,-319.94 920.09,-330.15"/>
<polygon fill="green" stroke="green" points="918.93,-333.46 929.51,-332.74 920.8,-326.71 918.93,-333.46"/>
<text text-anchor="middle" x="861.41" y="-326.95" font-family="Times,serif" font-size="14.00">348, &#160;1.0</text>
</g>
<!-- 2263 -->
<g id="node15" class="node">
<title>2263</title>
<ellipse fill="none" stroke="green" cx="1379.38" cy="-119" rx="36.48" ry="36.48"/>
<text text-anchor="middle" x="1379.38" y="-114.33" font-family="Times,serif" font-size="14.00">2263</text>
</g>
<!-- 182&#45;&gt;2263 -->
<g id="edge17" class="edge">
<title>182&#45;&gt;2263</title>
<path fill="none" stroke="green" d="M797.03,-289.47C869.94,-292.29 1063.45,-294.77 1216.91,-252 1268.6,-237.59 1284.55,-233.37 1324.91,-198 1336.82,-187.56 1347.29,-173.9 1355.74,-160.88"/>
<polygon fill="green" stroke="green" points="1358.71,-162.74 1361,-152.39 1352.76,-159.05 1358.71,-162.74"/>
<text text-anchor="middle" x="1063.91" y="-287.95" font-family="Times,serif" font-size="14.00">2300, &#160;0.026</text>
</g>
<!-- 3 -->
<g id="node7" class="node">
<title>3</title>
<ellipse fill="none" stroke="green" cx="18" cy="-297" rx="18" ry="18"/>
<text text-anchor="middle" x="18" y="-292.32" font-family="Times,serif" font-size="14.00">3</text>
</g>
<!-- 31 -->
<g id="node8" class="node">
<title>31</title>
<ellipse fill="none" stroke="green" cx="184.5" cy="-201" rx="23.85" ry="23.85"/>
<text text-anchor="middle" x="184.5" y="-196.32" font-family="Times,serif" font-size="14.00">31</text>
</g>
<!-- 3&#45;&gt;31 -->
<g id="edge5" class="edge">
<title>3&#45;&gt;31</title>
<path fill="none" stroke="green" d="M34.18,-288.14C61.26,-272.34 118.33,-239.03 153.55,-218.48"/>
<polygon fill="green" stroke="green" points="155.11,-221.62 161.98,-213.56 151.58,-215.58 155.11,-221.62"/>
<text text-anchor="middle" x="90" y="-279.95" font-family="Times,serif" font-size="14.00">32, &#160;0.965</text>
</g>
<!-- 2284 -->
<g id="node9" class="node">
<title>2284</title>
<ellipse fill="none" stroke="green" cx="567.48" cy="-281" rx="36.48" ry="36.48"/>
<text text-anchor="middle" x="567.48" y="-276.32" font-family="Times,serif" font-size="14.00">2284</text>
</g>
<!-- 3&#45;&gt;2284 -->
<g id="edge6" class="edge">
<title>3&#45;&gt;2284</title>
<path fill="none" stroke="green" d="M36.42,-297.19C57.6,-297.39 94.43,-297.57 126,-297 269.48,-294.4 439.11,-287.02 519.59,-283.26"/>
<polygon fill="green" stroke="green" points="519.47,-286.77 529.29,-282.81 519.14,-279.78 519.47,-286.77"/>
<text text-anchor="middle" x="279" y="-296.95" font-family="Times,serif" font-size="14.00">2285, &#160;1.0</text>
</g>
<!-- 31&#45;&gt;117 -->
<g id="edge7" class="edge">
<title>31&#45;&gt;117</title>
<path fill="none" stroke="green" d="M208.81,-200.38C239.59,-199.55 294.31,-198.09 331.95,-197.08"/>
<polygon fill="green" stroke="green" points="331.63,-200.59 341.53,-196.83 331.44,-193.6 331.63,-200.59"/>
<text text-anchor="middle" x="279" y="-202.95" font-family="Times,serif" font-size="14.00">118, &#160;1.0</text>
</g>
<!-- 4 -->
<g id="node10" class="node">
<title>4</title>
<ellipse fill="none" stroke="green" cx="1559.86" cy="-119" rx="18" ry="18"/>
<text text-anchor="middle" x="1559.86" y="-114.33" font-family="Times,serif" font-size="14.00">4</text>
</g>
<!-- 31&#45;&gt;4 -->
<g id="edge8" class="edge">
<title>31&#45;&gt;4</title>
<path fill="none" stroke="green" d="M204,-187.34C230.95,-168.13 283.24,-133.43 333,-115 598.43,-16.69 676.35,0 959.41,0 959.41,0 959.41,0 1380.38,0 1449.1,0 1511.48,-61.82 1540.96,-96.34"/>
<polygon fill="green" stroke="green" points="1538,-98.26 1547.09,-103.72 1543.39,-93.79 1538,-98.26"/>
<text text-anchor="middle" x="861.41" y="-6.95" font-family="Times,serif" font-size="14.00">121, &#160;0.009</text>
</g>
<!-- 2284&#45;&gt;3811 -->
<g id="edge13" class="edge">
<title>2284&#45;&gt;3811</title>
<path fill="none" stroke="green" d="M591.09,-252.64C595.47,-246.88 599.94,-240.81 603.95,-235 612.63,-222.44 608.7,-213.32 621.95,-205.75 651.17,-189.05 689.5,-189.21 719.19,-193.08"/>
<polygon fill="green" stroke="green" points="718.61,-196.54 729.02,-194.57 719.65,-189.61 718.61,-196.54"/>
<text text-anchor="middle" x="666.95" y="-208.95" font-family="Times,serif" font-size="14.00">3917, &#160;0.004</text>
</g>
<!-- 2284&#45;&gt;182 -->
<g id="edge12" class="edge">
<title>2284&#45;&gt;182</title>
<path fill="none" stroke="green" d="M604.14,-282.27C638.01,-283.47 688.87,-285.28 724.4,-286.54"/>
<polygon fill="green" stroke="green" points="724.18,-290.04 734.3,-286.89 724.43,-283.04 724.18,-290.04"/>
<text text-anchor="middle" x="666.95" y="-288.95" font-family="Times,serif" font-size="14.00">2286, &#160;1.0</text>
</g>
<!-- 426&#45;&gt;321 -->
<g id="edge14" class="edge">
<title>426&#45;&gt;321</title>
<path fill="none" stroke="green" d="M596.28,-186.19C664.92,-161.96 842.54,-99.26 921.08,-71.53"/>
<polygon fill="green" stroke="green" points="921.79,-74.99 930.06,-68.36 919.46,-68.39 921.79,-74.99"/>
<text text-anchor="middle" x="766.43" y="-142.95" font-family="Times,serif" font-size="14.00">428, &#160;1.0</text>
</g>
<!-- 426&#45;&gt;182 -->
<g id="edge15" class="edge">
<title>426&#45;&gt;182</title>
<path fill="none" stroke="green" d="M594.7,-209.64C603.33,-214.02 613,-218.82 621.95,-223 661.41,-241.43 672.39,-243.54 711.95,-261.75 717.47,-264.29 723.28,-267.05 728.94,-269.79"/>
<polygon fill="green" stroke="green" points="727.02,-272.74 737.54,-273.99 730.09,-266.45 727.02,-272.74"/>
<text text-anchor="middle" x="666.95" y="-264.95" font-family="Times,serif" font-size="14.00">440, &#160;0.005</text>
</g>
<!-- 2401&#45;&gt;4 -->
<g id="edge21" class="edge">
<title>2401&#45;&gt;4</title>
<path fill="none" stroke="green" d="M1100.7,-178.68C1164.39,-179.41 1301.42,-178.88 1415.86,-164 1464.62,-157.66 1478.19,-158.22 1523.86,-140 1527.42,-138.58 1531.03,-136.83 1534.52,-134.94"/>
<polygon fill="green" stroke="green" points="1536.28,-137.96 1543.12,-129.87 1532.73,-131.93 1536.28,-137.96"/>
<text text-anchor="middle" x="1279.91" y="-180.95" font-family="Times,serif" font-size="14.00">2403, &#160;0.102</text>
</g>
<!-- 2401&#45;&gt;2263 -->
<g id="edge22" class="edge">
<title>2401&#45;&gt;2263</title>
<path fill="none" stroke="green" d="M1097.14,-162.4C1106.55,-158.39 1116.98,-154.44 1126.91,-151.75 1164.43,-141.57 1269.88,-129.85 1331.66,-123.56"/>
<polygon fill="green" stroke="green" points="1331.93,-127.05 1341.53,-122.56 1331.23,-120.08 1331.93,-127.05"/>
<text text-anchor="middle" x="1171.91" y="-155.95" font-family="Times,serif" font-size="14.00">2429, &#160;0.002</text>
</g>
<!-- 3531 -->
<g id="node18" class="node">
<title>3531</title>
<ellipse fill="none" stroke="green" cx="1171.91" cy="-341" rx="36.48" ry="36.48"/>
<text text-anchor="middle" x="1171.91" y="-336.32" font-family="Times,serif" font-size="14.00">3531</text>
</g>
<!-- 347&#45;&gt;3531 -->
<g id="edge24" class="edge">
<title>347&#45;&gt;3531</title>
<path fill="none" stroke="green" d="M990.98,-341C1025.55,-341 1083.2,-341 1123.91,-341"/>
<polygon fill="green" stroke="green" points="1123.66,-344.5 1133.66,-341 1123.66,-337.5 1123.66,-344.5"/>
<text text-anchor="middle" x="1063.91" y="-344.95" font-family="Times,serif" font-size="14.00">3532, &#160;1.0</text>
</g>
<!-- 2263&#45;&gt;4 -->
<g id="edge27" class="edge">
<title>2263&#45;&gt;4</title>
<path fill="none" stroke="green" d="M1416.07,-119C1449.66,-119 1499.31,-119 1530.34,-119"/>
<polygon fill="green" stroke="green" points="1530.11,-122.5 1540.11,-119 1530.11,-115.5 1530.11,-122.5"/>
<text text-anchor="middle" x="1478.86" y="-122.95" font-family="Times,serif" font-size="14.00">2265, &#160;0.209</text>
</g>
<!-- 4215&#45;&gt;2263 -->
<g id="edge25" class="edge">
<title>4215&#45;&gt;2263</title>
<path fill="none" stroke="green" d="M1207.76,-74.99C1242.26,-83.89 1295.23,-97.55 1332.99,-107.29"/>
<polygon fill="green" stroke="green" points="1331.68,-110.57 1342.24,-109.68 1333.43,-103.79 1331.68,-110.57"/>
<text text-anchor="middle" x="1279.91" y="-108.95" font-family="Times,serif" font-size="14.00">4217, &#160;1.0</text>
</g>
<!-- 3213 -->
<g id="node19" class="node">
<title>3213</title>
<ellipse fill="none" stroke="green" cx="1379.38" cy="-341" rx="36.48" ry="36.48"/>
<text text-anchor="middle" x="1379.38" y="-336.32" font-family="Times,serif" font-size="14.00">3213</text>
</g>
<!-- 3531&#45;&gt;3213 -->
<g id="edge26" class="edge">
<title>3531&#45;&gt;3213</title>
<path fill="none" stroke="green" d="M1208.7,-341C1242.77,-341 1294.25,-341 1331.57,-341"/>
<polygon fill="green" stroke="green" points="1331.15,-344.5 1341.15,-341 1331.15,-337.5 1331.15,-344.5"/>
<text text-anchor="middle" x="1279.91" y="-344.95" font-family="Times,serif" font-size="14.00">3533, &#160;1.0</text>
</g>
<!-- 3213&#45;&gt;5 -->
<g id="edge29" class="edge">
<title>3213&#45;&gt;5</title>
<path fill="none" stroke="green" d="M1415.51,-348.23C1444.76,-354.55 1487.38,-364.47 1523.86,-375.75 1526.48,-376.56 1529.19,-377.46 1531.88,-378.4"/>
<polygon fill="green" stroke="green" points="1530.61,-381.67 1541.21,-381.85 1533.04,-375.1 1530.61,-381.67"/>
<text text-anchor="middle" x="1478.86" y="-378.95" font-family="Times,serif" font-size="14.00">3222, &#160;0.002</text>
</g>
<!-- 3213&#45;&gt;6 -->
<g id="edge28" class="edge">
<title>3213&#45;&gt;6</title>
<path fill="none" stroke="green" d="M1414.38,-330.34C1448.42,-319.65 1500.17,-303.42 1531.61,-293.55"/>
<polygon fill="green" stroke="green" points="1532.27,-297.01 1540.76,-290.68 1530.17,-290.33 1532.27,-297.01"/>
<text text-anchor="middle" x="1478.86" y="-325.95" font-family="Times,serif" font-size="14.00">3215, &#160;0.894</text>
</g>
</g>
</svg>
