<?xml version="1.0" encoding="UTF-8" standalone="no"?>
<!DOCTYPE svg PUBLIC "-//W3C//DTD SVG 1.1//EN"
 "http://www.w3.org/Graphics/SVG/1.1/DTD/svg11.dtd">
<!-- Generated by graphviz version 10.0.1 (0)
 -->
<!-- Pages: 1 -->
<svg width="409pt" height="171pt"
 viewBox="0.00 0.00 408.50 171.00" xmlns="http://www.w3.org/2000/svg" xmlns:xlink="http://www.w3.org/1999/xlink">
<g id="graph0" class="graph" transform="scale(1 1) rotate(0) translate(4 167)">
<polygon fill="white" stroke="none" points="-4,4 -4,-167 404.5,-167 404.5,4 -4,4"/>
<!-- 1 -->
<g id="node1" class="node">
<title>1</title>
<ellipse fill="none" stroke="black" cx="27" cy="-81" rx="27" ry="18"/>
<text text-anchor="middle" x="27" y="-76.33" font-family="Times,serif" font-size="14.00">1</text>
</g>
<!-- 10 -->
<g id="node2" class="node">
<title>10</title>
<ellipse fill="none" stroke="black" cx="200.25" cy="-36" rx="27" ry="18"/>
<text text-anchor="middle" x="200.25" y="-31.32" font-family="Times,serif" font-size="14.00">10</text>
</g>
<!-- 1&#45;&gt;10 -->
<g id="edge1" class="edge">
<title>1&#45;&gt;10</title>
<path fill="none" stroke="green" d="M48.06,-69.31C55.39,-65.45 63.88,-61.46 72,-58.75 101.53,-48.88 136.43,-43.03 162.21,-39.73"/>
<polygon fill="green" stroke="green" points="162.34,-43.24 171.85,-38.58 161.51,-36.29 162.34,-43.24"/>
<text text-anchor="middle" x="110.25" y="-61.95" font-family="Times,serif" font-size="14.00">14, &#160;&#45;4.489</text>
</g>
<!-- 4 -->
<g id="node3" class="node">
<title>4</title>
<ellipse fill="none" stroke="black" cx="373.5" cy="-90" rx="27" ry="18"/>
<text text-anchor="middle" x="373.5" y="-85.33" font-family="Times,serif" font-size="14.00">4</text>
</g>
<!-- 1&#45;&gt;4 -->
<g id="edge2" class="edge">
<title>1&#45;&gt;4</title>
<path fill="none" stroke="green" d="M54.46,-81.69C115.23,-83.28 264.92,-87.19 335.08,-89.02"/>
<polygon fill="green" stroke="green" points="334.82,-92.52 344.91,-89.28 335,-85.52 334.82,-92.52"/>
<text text-anchor="middle" x="200.25" y="-89.95" font-family="Times,serif" font-size="14.00">9, &#160;&#45;8.547</text>
</g>
<!-- 10&#45;&gt;4 -->
<g id="edge6" class="edge">
<title>10&#45;&gt;4</title>
<path fill="none" stroke="green" d="M227.54,-37.34C253.96,-39.44 295.39,-44.86 328.5,-58.75 334.92,-61.44 341.32,-65.21 347.17,-69.19"/>
<polygon fill="green" stroke="green" points="345.05,-71.98 355.19,-75.06 349.19,-66.33 345.05,-71.98"/>
<text text-anchor="middle" x="290.25" y="-61.95" font-family="Times,serif" font-size="14.00">12, &#160;&#45;7.456</text>
</g>
<!-- 6 -->
<g id="node6" class="node">
<title>6</title>
<ellipse fill="none" stroke="black" cx="373.5" cy="-18" rx="27" ry="18"/>
<text text-anchor="middle" x="373.5" y="-13.32" font-family="Times,serif" font-size="14.00">6</text>
</g>
<!-- 10&#45;&gt;6 -->
<g id="edge7" class="edge">
<title>10&#45;&gt;6</title>
<path fill="none" stroke="green" d="M223.84,-26.59C232.49,-23.45 242.55,-20.34 252,-18.75 279.53,-14.11 311.1,-14.1 335.02,-15.16"/>
<polygon fill="green" stroke="green" points="334.75,-18.65 344.92,-15.69 335.13,-11.66 334.75,-18.65"/>
<text text-anchor="middle" x="290.25" y="-21.95" font-family="Times,serif" font-size="14.00">15, &#160;&#45;8.66</text>
</g>
<!-- 2 -->
<g id="node4" class="node">
<title>2</title>
<ellipse fill="none" stroke="black" cx="27" cy="-145" rx="27" ry="18"/>
<text text-anchor="middle" x="27" y="-140.32" font-family="Times,serif" font-size="14.00">2</text>
</g>
<!-- 2&#45;&gt;10 -->
<g id="edge4" class="edge">
<title>2&#45;&gt;10</title>
<path fill="none" stroke="green" d="M49.66,-134.79C74.39,-122.77 115.67,-101.56 148.5,-79 157.73,-72.66 167.24,-64.96 175.51,-57.83"/>
<polygon fill="green" stroke="green" points="177.59,-60.66 182.77,-51.42 172.96,-55.41 177.59,-60.66"/>
<text text-anchor="middle" x="110.25" y="-126.95" font-family="Times,serif" font-size="14.00">11, &#160;&#45;9.888</text>
</g>
<!-- 2&#45;&gt;4 -->
<g id="edge3" class="edge">
<title>2&#45;&gt;4</title>
<path fill="none" stroke="red" d="M54.44,-145.53C78.93,-145.68 116.31,-145.07 148.5,-141 229.8,-130.71 248.74,-119.83 328.5,-101 331.25,-100.35 334.09,-99.67 336.95,-98.97"/>
<polygon fill="red" stroke="red" points="337.52,-102.44 346.39,-96.64 335.84,-95.64 337.52,-102.44"/>
<text text-anchor="middle" x="200.25" y="-141.95" font-family="Times,serif" font-size="14.00">7, &#160;&#45;4.675</text>
</g>
<!-- 3 -->
<g id="node5" class="node">
<title>3</title>
<ellipse fill="none" stroke="black" cx="27" cy="-18" rx="27" ry="18"/>
<text text-anchor="middle" x="27" y="-13.32" font-family="Times,serif" font-size="14.00">3</text>
</g>
<!-- 3&#45;&gt;10 -->
<g id="edge5" class="edge">
<title>3&#45;&gt;10</title>
<path fill="none" stroke="green" d="M54.06,-15.77C78.61,-14.23 116.32,-13.33 148.5,-18.75 154.26,-19.72 160.25,-21.25 166,-23.01"/>
<polygon fill="green" stroke="green" points="164.63,-26.24 175.23,-26.11 166.86,-19.61 164.63,-26.24"/>
<text text-anchor="middle" x="110.25" y="-21.95" font-family="Times,serif" font-size="14.00">52, &#160;9.418</text>
</g>
<!-- 5 -->
<g id="node7" class="node">
<title>5</title>
<ellipse fill="none" stroke="black" cx="373.5" cy="-144" rx="27" ry="18"/>
<text text-anchor="middle" x="373.5" y="-139.32" font-family="Times,serif" font-size="14.00">5</text>
</g>
</g>
</svg>
