<?xml version="1.0" encoding="UTF-8" standalone="no"?>
<!DOCTYPE svg PUBLIC "-//W3C//DTD SVG 1.1//EN"
 "http://www.w3.org/Graphics/SVG/1.1/DTD/svg11.dtd">
<!-- Generated by graphviz version 10.0.1 (0)
 -->
<!-- Pages: 1 -->
<svg width="796pt" height="240pt"
 viewBox="0.00 0.00 796.40 239.85" xmlns="http://www.w3.org/2000/svg" xmlns:xlink="http://www.w3.org/1999/xlink">
<g id="graph0" class="graph" transform="scale(1 1) rotate(0) translate(4 235.85)">
<polygon fill="white" stroke="none" points="-4,4 -4,-235.85 792.4,-235.85 792.4,4 -4,4"/>
<!-- 1 -->
<g id="node1" class="node">
<title>1</title>
<ellipse fill="none" stroke="green" cx="18" cy="-105.85" rx="18" ry="18"/>
<text text-anchor="middle" x="18" y="-101.18" font-family="Times,serif" font-size="14.00">1</text>
</g>
<!-- 4 -->
<g id="node2" class="node">
<title>4</title>
<ellipse fill="none" stroke="green" cx="770.4" cy="-121.85" rx="18" ry="18"/>
<text text-anchor="middle" x="770.4" y="-117.18" font-family="Times,serif" font-size="14.00">4</text>
</g>
<!-- 1&#45;&gt;4 -->
<g id="edge1" class="edge">
<title>1&#45;&gt;4</title>
<path fill="none" stroke="red" d="M32.42,-116.76C55.43,-134.3 104.5,-166.85 152,-166.85 152,-166.85 152,-166.85 613.9,-166.85 661.21,-166.85 713.53,-147.39 743.82,-134.07"/>
<polygon fill="red" stroke="red" points="744.9,-137.43 752.56,-130.11 742.01,-131.05 744.9,-137.43"/>
<text text-anchor="middle" x="389.7" y="-170.8" font-family="Times,serif" font-size="14.00">7, &#160;0.57</text>
</g>
<!-- 13 -->
<g id="node3" class="node">
<title>13</title>
<ellipse fill="none" stroke="green" cx="467.55" cy="-100.85" rx="23.85" ry="23.85"/>
<text text-anchor="middle" x="467.55" y="-96.18" font-family="Times,serif" font-size="14.00">13</text>
</g>
<!-- 1&#45;&gt;13 -->
<g id="edge2" class="edge">
<title>1&#45;&gt;13</title>
<path fill="none" stroke="red" d="M36,-109.85C41.69,-111.03 48.09,-112.18 54,-112.85 85.81,-116.45 93.99,-114.41 126,-114.85 259.19,-116.7 294.31,-136.74 425.7,-114.85 428.55,-114.38 431.46,-113.73 434.36,-112.97"/>
<polygon fill="red" stroke="red" points="435.29,-116.34 443.82,-110.07 433.24,-109.65 435.29,-116.34"/>
<text text-anchor="middle" x="234" y="-126.8" font-family="Times,serif" font-size="14.00">14, &#160;1.0</text>
</g>
<!-- 19 -->
<g id="node4" class="node">
<title>19</title>
<ellipse fill="none" stroke="green" cx="311.85" cy="-76.85" rx="23.85" ry="23.85"/>
<text text-anchor="middle" x="311.85" y="-72.18" font-family="Times,serif" font-size="14.00">19</text>
</g>
<!-- 1&#45;&gt;19 -->
<g id="edge3" class="edge">
<title>1&#45;&gt;19</title>
<path fill="none" stroke="red" d="M36.38,-104.12C83.42,-99.45 213.85,-86.49 276.46,-80.27"/>
<polygon fill="red" stroke="red" points="276.56,-83.77 286.17,-79.3 275.87,-76.81 276.56,-83.77"/>
<text text-anchor="middle" x="153" y="-98.8" font-family="Times,serif" font-size="14.00">20, &#160;1.0</text>
</g>
<!-- 25 -->
<g id="node5" class="node">
<title>25</title>
<ellipse fill="none" stroke="green" cx="153" cy="-23.85" rx="23.85" ry="23.85"/>
<text text-anchor="middle" x="153" y="-19.18" font-family="Times,serif" font-size="14.00">25</text>
</g>
<!-- 1&#45;&gt;25 -->
<g id="edge4" class="edge">
<title>1&#45;&gt;25</title>
<path fill="none" stroke="green" d="M26.01,-89.39C31.85,-77.53 41.29,-62.01 54,-52.6 72.58,-38.84 97.66,-31.64 117.8,-27.88"/>
<polygon fill="green" stroke="green" points="118.2,-31.37 127.5,-26.29 117.07,-24.46 118.2,-31.37"/>
<text text-anchor="middle" x="81" y="-56.8" font-family="Times,serif" font-size="14.00">26, &#160;1.0</text>
</g>
<!-- 13&#45;&gt;4 -->
<g id="edge7" class="edge">
<title>13&#45;&gt;4</title>
<path fill="none" stroke="red" d="M491.39,-105.24C497.24,-106.24 503.54,-107.19 509.4,-107.85 593.08,-117.24 692.65,-120.38 740.68,-121.39"/>
<polygon fill="red" stroke="red" points="740.42,-124.89 750.49,-121.58 740.56,-117.89 740.42,-124.89"/>
<text text-anchor="middle" x="612.9" y="-121.8" font-family="Times,serif" font-size="14.00">15, &#160;0.57</text>
</g>
<!-- 16 -->
<g id="node8" class="node">
<title>16</title>
<ellipse fill="none" stroke="green" cx="612.9" cy="-61.85" rx="23.85" ry="23.85"/>
<text text-anchor="middle" x="612.9" y="-57.18" font-family="Times,serif" font-size="14.00">16</text>
</g>
<!-- 13&#45;&gt;16 -->
<g id="edge8" class="edge">
<title>13&#45;&gt;16</title>
<path fill="none" stroke="green" d="M490.95,-94.76C514.51,-88.35 551.85,-78.19 578.81,-70.85"/>
<polygon fill="green" stroke="green" points="579.47,-74.3 588.2,-68.3 577.63,-67.55 579.47,-74.3"/>
<text text-anchor="middle" x="536.4" y="-92.8" font-family="Times,serif" font-size="14.00">17, &#160;1.0</text>
</g>
<!-- 19&#45;&gt;13 -->
<g id="edge6" class="edge">
<title>19&#45;&gt;13</title>
<path fill="none" stroke="green" d="M335.86,-80.44C361.51,-84.45 403.25,-90.97 432.65,-95.56"/>
<polygon fill="green" stroke="green" points="431.72,-98.95 442.14,-97.04 432.8,-92.04 431.72,-98.95"/>
<text text-anchor="middle" x="389.7" y="-97.8" font-family="Times,serif" font-size="14.00">21, &#160;1.552</text>
</g>
<!-- 25&#45;&gt;19 -->
<g id="edge5" class="edge">
<title>25&#45;&gt;19</title>
<path fill="none" stroke="green" d="M176.86,-27.47C200.71,-31.72 238.9,-39.84 270,-52.6 273.89,-54.2 277.85,-56.12 281.7,-58.18"/>
<polygon fill="green" stroke="green" points="279.78,-61.11 290.2,-63.04 283.26,-55.03 279.78,-61.11"/>
<text text-anchor="middle" x="234" y="-56.8" font-family="Times,serif" font-size="14.00">27, &#160;7.602</text>
</g>
<!-- 2 -->
<g id="node6" class="node">
<title>2</title>
<ellipse fill="none" stroke="green" cx="18" cy="-159.85" rx="18" ry="18"/>
<text text-anchor="middle" x="18" y="-155.18" font-family="Times,serif" font-size="14.00">2</text>
</g>
<!-- 3 -->
<g id="node7" class="node">
<title>3</title>
<ellipse fill="none" stroke="green" cx="18" cy="-213.85" rx="18" ry="18"/>
<text text-anchor="middle" x="18" y="-209.18" font-family="Times,serif" font-size="14.00">3</text>
</g>
<!-- 16&#45;&gt;4 -->
<g id="edge9" class="edge">
<title>16&#45;&gt;4</title>
<path fill="none" stroke="green" d="M636.68,-65.9C666.67,-71.47 717.58,-81.81 734.4,-90.6 739.68,-93.36 744.8,-97.09 749.42,-101.02"/>
<polygon fill="green" stroke="green" points="746.77,-103.34 756.49,-107.57 751.53,-98.2 746.77,-103.34"/>
<text text-anchor="middle" x="698.4" y="-93.8" font-family="Times,serif" font-size="14.00">18, &#160;0.57</text>
</g>
<!-- 5 -->
<g id="node9" class="node">
<title>5</title>
<ellipse fill="none" stroke="green" cx="770.4" cy="-49.85" rx="18" ry="18"/>
<text text-anchor="middle" x="770.4" y="-45.18" font-family="Times,serif" font-size="14.00">5</text>
</g>
<!-- 16&#45;&gt;5 -->
<g id="edge10" class="edge">
<title>16&#45;&gt;5</title>
<path fill="none" stroke="green" d="M636.42,-55.54C644.54,-53.55 653.82,-51.61 662.4,-50.6 688.9,-47.47 719.34,-47.62 740.96,-48.35"/>
<polygon fill="green" stroke="green" points="740.63,-51.84 750.77,-48.75 740.92,-44.84 740.63,-51.84"/>
<text text-anchor="middle" x="698.4" y="-54.8" font-family="Times,serif" font-size="14.00">28, &#160;0.874</text>
</g>
<!-- 6 -->
<g id="node10" class="node">
<title>6</title>
<ellipse fill="none" stroke="green" cx="770.4" cy="-175.85" rx="18" ry="18"/>
<text text-anchor="middle" x="770.4" y="-171.18" font-family="Times,serif" font-size="14.00">6</text>
</g>
</g>
</svg>
