<?xml version="1.0" encoding="UTF-8" standalone="no"?>
<!DOCTYPE svg PUBLIC "-//W3C//DTD SVG 1.1//EN"
 "http://www.w3.org/Graphics/SVG/1.1/DTD/svg11.dtd">
<!-- Generated by graphviz version 10.0.1 (0)
 -->
<!-- Pages: 1 -->
<svg width="642pt" height="158pt"
 viewBox="0.00 0.00 641.60 157.85" xmlns="http://www.w3.org/2000/svg" xmlns:xlink="http://www.w3.org/1999/xlink">
<g id="graph0" class="graph" transform="scale(1 1) rotate(0) translate(4 153.85)">
<polygon fill="white" stroke="none" points="-4,4 -4,-153.85 637.6,-153.85 637.6,4 -4,4"/>
<!-- 3 -->
<g id="node1" class="node">
<title>3</title>
<ellipse fill="none" stroke="black" cx="18" cy="-23.85" rx="18" ry="18"/>
<text text-anchor="middle" x="18" y="-19.18" font-family="Times,serif" font-size="14.00">3</text>
</g>
<!-- 32 -->
<g id="node2" class="node">
<title>32</title>
<ellipse fill="none" stroke="black" cx="172.35" cy="-23.85" rx="23.85" ry="23.85"/>
<text text-anchor="middle" x="172.35" y="-19.18" font-family="Times,serif" font-size="14.00">32</text>
</g>
<!-- 3&#45;&gt;32 -->
<g id="edge1" class="edge">
<title>3&#45;&gt;32</title>
<path fill="none" stroke="green" d="M36.48,-23.85C60.87,-23.85 105.65,-23.85 136.89,-23.85"/>
<polygon fill="green" stroke="green" points="136.62,-27.35 146.62,-23.85 136.62,-20.35 136.62,-27.35"/>
<text text-anchor="middle" x="92.25" y="-27.8" font-family="Times,serif" font-size="14.00">33, &#160;&#45;0.736</text>
</g>
<!-- 29 -->
<g id="node5" class="node">
<title>29</title>
<ellipse fill="none" stroke="black" cx="328.05" cy="-23.85" rx="23.85" ry="23.85"/>
<text text-anchor="middle" x="328.05" y="-19.18" font-family="Times,serif" font-size="14.00">29</text>
</g>
<!-- 32&#45;&gt;29 -->
<g id="edge2" class="edge">
<title>32&#45;&gt;29</title>
<path fill="none" stroke="green" d="M196.69,-23.85C222.23,-23.85 263.42,-23.85 292.66,-23.85"/>
<polygon fill="green" stroke="green" points="292.48,-27.35 302.48,-23.85 292.48,-20.35 292.48,-27.35"/>
<text text-anchor="middle" x="250.2" y="-27.8" font-family="Times,serif" font-size="14.00">34, &#160;5.123</text>
</g>
<!-- 1 -->
<g id="node3" class="node">
<title>1</title>
<ellipse fill="none" stroke="black" cx="18" cy="-77.85" rx="18" ry="18"/>
<text text-anchor="middle" x="18" y="-73.18" font-family="Times,serif" font-size="14.00">1</text>
</g>
<!-- 2 -->
<g id="node4" class="node">
<title>2</title>
<ellipse fill="none" stroke="black" cx="18" cy="-131.85" rx="18" ry="18"/>
<text text-anchor="middle" x="18" y="-127.18" font-family="Times,serif" font-size="14.00">2</text>
</g>
<!-- 36 -->
<g id="node6" class="node">
<title>36</title>
<ellipse fill="none" stroke="black" cx="465.75" cy="-23.85" rx="23.85" ry="23.85"/>
<text text-anchor="middle" x="465.75" y="-19.18" font-family="Times,serif" font-size="14.00">36</text>
</g>
<!-- 29&#45;&gt;36 -->
<g id="edge3" class="edge">
<title>29&#45;&gt;36</title>
<path fill="none" stroke="green" d="M352.38,-23.85C373.87,-23.85 406.03,-23.85 430.44,-23.85"/>
<polygon fill="green" stroke="green" points="430.21,-27.35 440.21,-23.85 430.21,-20.35 430.21,-27.35"/>
<text text-anchor="middle" x="396.9" y="-27.8" font-family="Times,serif" font-size="14.00">37, &#160;1.0</text>
</g>
<!-- 5 -->
<g id="node7" class="node">
<title>5</title>
<ellipse fill="none" stroke="black" cx="615.6" cy="-23.85" rx="18" ry="18"/>
<text text-anchor="middle" x="615.6" y="-19.18" font-family="Times,serif" font-size="14.00">5</text>
</g>
<!-- 36&#45;&gt;5 -->
<g id="edge4" class="edge">
<title>36&#45;&gt;5</title>
<path fill="none" stroke="green" d="M489.85,-23.85C515.75,-23.85 557.76,-23.85 585.78,-23.85"/>
<polygon fill="green" stroke="green" points="585.69,-27.35 595.69,-23.85 585.69,-20.35 585.69,-27.35"/>
<text text-anchor="middle" x="543.6" y="-27.8" font-family="Times,serif" font-size="14.00">38, &#160;5.446</text>
</g>
<!-- 4 -->
<g id="node8" class="node">
<title>4</title>
<ellipse fill="none" stroke="black" cx="615.6" cy="-77.85" rx="18" ry="18"/>
<text text-anchor="middle" x="615.6" y="-73.18" font-family="Times,serif" font-size="14.00">4</text>
</g>
<!-- 6 -->
<g id="node9" class="node">
<title>6</title>
<ellipse fill="none" stroke="black" cx="615.6" cy="-131.85" rx="18" ry="18"/>
<text text-anchor="middle" x="615.6" y="-127.18" font-family="Times,serif" font-size="14.00">6</text>
</g>
</g>
</svg>
