<?xml version="1.0" encoding="UTF-8" standalone="no"?>
<!DOCTYPE svg PUBLIC "-//W3C//DTD SVG 1.1//EN"
 "http://www.w3.org/Graphics/SVG/1.1/DTD/svg11.dtd">
<!-- Generated by graphviz version 10.0.1 (0)
 -->
<!-- Pages: 1 -->
<svg width="1652pt" height="616pt"
 viewBox="0.00 0.00 1652.36 616.25" xmlns="http://www.w3.org/2000/svg" xmlns:xlink="http://www.w3.org/1999/xlink">
<g id="graph0" class="graph" transform="scale(1 1) rotate(0) translate(4 612.25)">
<polygon fill="white" stroke="none" points="-4,4 -4,-612.25 1648.36,-612.25 1648.36,4 -4,4"/>
<!-- 1 -->
<g id="node1" class="node">
<title>1</title>
<ellipse fill="none" stroke="green" cx="18" cy="-283" rx="18" ry="18"/>
<text text-anchor="middle" x="18" y="-278.32" font-family="Times,serif" font-size="14.00">1</text>
</g>
<!-- 197 -->
<g id="node2" class="node">
<title>197</title>
<ellipse fill="none" stroke="green" cx="550.83" cy="-146" rx="30.16" ry="30.16"/>
<text text-anchor="middle" x="550.83" y="-141.32" font-family="Times,serif" font-size="14.00">197</text>
</g>
<!-- 1&#45;&gt;197 -->
<g id="edge1" class="edge">
<title>1&#45;&gt;197</title>
<path fill="none" stroke="green" d="M29.35,-269.01C49.73,-242.59 97.93,-185.64 153,-159 271.98,-101.45 435.35,-122.82 509.86,-137.17"/>
<polygon fill="green" stroke="green" points="509.06,-140.58 519.55,-139.1 510.43,-133.71 509.06,-140.58"/>
<text text-anchor="middle" x="274.5" y="-135.95" font-family="Times,serif" font-size="14.00">241, &#160;0.08</text>
</g>
<!-- 433 -->
<g id="node3" class="node">
<title>433</title>
<ellipse fill="none" stroke="green" cx="363.16" cy="-287" rx="30.16" ry="30.16"/>
<text text-anchor="middle" x="363.16" y="-282.32" font-family="Times,serif" font-size="14.00">433</text>
</g>
<!-- 1&#45;&gt;433 -->
<g id="edge2" class="edge">
<title>1&#45;&gt;433</title>
<path fill="none" stroke="green" d="M36.49,-283.2C89,-283.82 246.26,-285.65 321.37,-286.52"/>
<polygon fill="green" stroke="green" points="321.13,-290.02 331.17,-286.64 321.21,-283.02 321.13,-290.02"/>
<text text-anchor="middle" x="184.5" y="-288.95" font-family="Times,serif" font-size="14.00">434, &#160;1.0</text>
</g>
<!-- 439 -->
<g id="node4" class="node">
<title>439</title>
<ellipse fill="none" stroke="green" cx="184.5" cy="-412" rx="30.16" ry="30.16"/>
<text text-anchor="middle" x="184.5" y="-407.32" font-family="Times,serif" font-size="14.00">439</text>
</g>
<!-- 1&#45;&gt;439 -->
<g id="edge3" class="edge">
<title>1&#45;&gt;439</title>
<path fill="none" stroke="green" d="M32.74,-293.78C58.65,-314.1 115.36,-358.56 151.36,-386.8"/>
<polygon fill="green" stroke="green" points="148.82,-389.25 158.85,-392.67 153.14,-383.74 148.82,-389.25"/>
<text text-anchor="middle" x="94.5" y="-376.95" font-family="Times,serif" font-size="14.00">440, &#160;1.0</text>
</g>
<!-- 694 -->
<g id="node7" class="node">
<title>694</title>
<ellipse fill="none" stroke="green" cx="933.33" cy="-326" rx="30.16" ry="30.16"/>
<text text-anchor="middle" x="933.33" y="-321.32" font-family="Times,serif" font-size="14.00">694</text>
</g>
<!-- 197&#45;&gt;694 -->
<g id="edge23" class="edge">
<title>197&#45;&gt;694</title>
<path fill="none" stroke="green" d="M581.28,-149.33C628.42,-155.57 722.73,-171.9 793.83,-208.75 836.99,-231.12 878.43,-269.12 904.55,-295.78"/>
<polygon fill="green" stroke="green" points="901.97,-298.14 911.43,-302.91 907.01,-293.29 901.97,-298.14"/>
<text text-anchor="middle" x="753.33" y="-211.95" font-family="Times,serif" font-size="14.00">735, &#160;0.042</text>
</g>
<!-- 509 -->
<g id="node12" class="node">
<title>509</title>
<ellipse fill="none" stroke="green" cx="753.33" cy="-265" rx="30.16" ry="30.16"/>
<text text-anchor="middle" x="753.33" y="-260.32" font-family="Times,serif" font-size="14.00">509</text>
</g>
<!-- 197&#45;&gt;509 -->
<g id="edge22" class="edge">
<title>197&#45;&gt;509</title>
<path fill="none" stroke="green" d="M577.65,-160.45C587.38,-165.52 598.67,-170.94 609.33,-175 646.08,-188.98 661.55,-176.81 694.83,-197.75 708.19,-206.16 720.09,-218.66 729.55,-230.61"/>
<polygon fill="green" stroke="green" points="726.57,-232.47 735.39,-238.35 732.17,-228.26 726.57,-232.47"/>
<text text-anchor="middle" x="652.08" y="-200.95" font-family="Times,serif" font-size="14.00">510, &#160;6.923</text>
</g>
<!-- 117 -->
<g id="node13" class="node">
<title>117</title>
<ellipse fill="none" stroke="green" cx="843.33" cy="-69" rx="30.16" ry="30.16"/>
<text text-anchor="middle" x="843.33" y="-64.33" font-family="Times,serif" font-size="14.00">117</text>
</g>
<!-- 197&#45;&gt;117 -->
<g id="edge21" class="edge">
<title>197&#45;&gt;117</title>
<path fill="none" stroke="green" d="M580.48,-138.41C632.79,-124.54 743.83,-95.11 803.11,-79.4"/>
<polygon fill="green" stroke="green" points="803.66,-82.87 812.43,-76.92 801.87,-76.1 803.66,-82.87"/>
<text text-anchor="middle" x="652.08" y="-134.95" font-family="Times,serif" font-size="14.00">199, &#160;1.0</text>
</g>
<!-- 433&#45;&gt;197 -->
<g id="edge14" class="edge">
<title>433&#45;&gt;197</title>
<path fill="none" stroke="green" d="M382.59,-263.39C390.82,-253.63 400.98,-242.56 411.33,-233.75 443.41,-206.43 484.71,-181.36 513.83,-165.08"/>
<polygon fill="green" stroke="green" points="515.2,-168.32 522.26,-160.43 511.81,-162.19 515.2,-168.32"/>
<text text-anchor="middle" x="451.83" y="-236.95" font-family="Times,serif" font-size="14.00">435, &#160;0.08</text>
</g>
<!-- 433&#45;&gt;694 -->
<g id="edge17" class="edge">
<title>433&#45;&gt;694</title>
<path fill="none" stroke="green" d="M393,-293.12C399.03,-294.23 405.37,-295.26 411.33,-296 589.27,-318.01 803.45,-323.92 891.5,-325.47"/>
<polygon fill="green" stroke="green" points="891.26,-328.96 901.32,-325.63 891.37,-321.96 891.26,-328.96"/>
<text text-anchor="middle" x="652.08" y="-321.95" font-family="Times,serif" font-size="14.00">758, &#160;0.129</text>
</g>
<!-- 409 -->
<g id="node11" class="node">
<title>409</title>
<ellipse fill="none" stroke="green" cx="1126.83" cy="-356" rx="30.16" ry="30.16"/>
<text text-anchor="middle" x="1126.83" y="-351.32" font-family="Times,serif" font-size="14.00">409</text>
</g>
<!-- 433&#45;&gt;409 -->
<g id="edge15" class="edge">
<title>433&#45;&gt;409</title>
<path fill="none" stroke="green" d="M372.44,-315.95C379.52,-335.15 391.74,-359.1 411.33,-372 462.99,-406.03 487.96,-386 549.83,-386 549.83,-386 549.83,-386 934.33,-386 998.38,-386 1014.35,-379.71 1077.33,-368 1080.16,-367.47 1083.08,-366.88 1086.01,-366.25"/>
<polygon fill="green" stroke="green" points="1086.79,-369.66 1095.75,-364.01 1085.22,-362.84 1086.79,-369.66"/>
<text text-anchor="middle" x="753.33" y="-389.95" font-family="Times,serif" font-size="14.00">442, &#160;2.738</text>
</g>
<!-- 433&#45;&gt;509 -->
<g id="edge16" class="edge">
<title>433&#45;&gt;509</title>
<path fill="none" stroke="green" d="M393.66,-285.33C462.32,-281.44 632.95,-271.77 711.53,-267.31"/>
<polygon fill="green" stroke="green" points="711.58,-270.82 721.37,-266.75 711.19,-263.83 711.58,-270.82"/>
<text text-anchor="middle" x="550.83" y="-281.95" font-family="Times,serif" font-size="14.00">522, &#160;5.884</text>
</g>
<!-- 439&#45;&gt;433 -->
<g id="edge13" class="edge">
<title>439&#45;&gt;433</title>
<path fill="none" stroke="green" d="M193.14,-382.71C200.24,-361.3 212.96,-333.22 234,-316.75 241.04,-311.24 287.4,-301.34 322.36,-294.49"/>
<polygon fill="green" stroke="green" points="322.61,-298 331.76,-292.66 321.27,-291.13 322.61,-298"/>
<text text-anchor="middle" x="274.5" y="-319.95" font-family="Times,serif" font-size="14.00">513, &#160;0.418</text>
</g>
<!-- 439&#45;&gt;694 -->
<g id="edge11" class="edge">
<title>439&#45;&gt;694</title>
<path fill="none" stroke="green" d="M214.73,-416.98C303.74,-431.03 578.47,-466.3 793.83,-407 833.53,-396.07 873.57,-370.75 900.31,-351.3"/>
<polygon fill="green" stroke="green" points="902.39,-354.12 908.32,-345.35 898.21,-348.5 902.39,-354.12"/>
<text text-anchor="middle" x="550.83" y="-443.95" font-family="Times,serif" font-size="14.00">713, &#160;0.361</text>
</g>
<!-- 6 -->
<g id="node10" class="node">
<title>6</title>
<ellipse fill="none" stroke="green" cx="1626.36" cy="-102" rx="18" ry="18"/>
<text text-anchor="middle" x="1626.36" y="-97.33" font-family="Times,serif" font-size="14.00">6</text>
</g>
<!-- 439&#45;&gt;6 -->
<g id="edge8" class="edge">
<title>439&#45;&gt;6</title>
<path fill="none" stroke="green" d="M202.03,-436.8C210.48,-447.92 221.6,-460.43 234,-469 283.77,-503.43 301.64,-515 362.16,-515 362.16,-515 362.16,-515 653.08,-515 822.23,-515 864.43,-523 1033.58,-523 1033.58,-523 1033.58,-523 1477.5,-523 1662.02,-523 1529.55,-295.84 1608.36,-129 1608.79,-128.08 1609.25,-127.15 1609.73,-126.22"/>
<polygon fill="green" stroke="green" points="1612.62,-128.21 1614.58,-117.8 1606.56,-124.72 1612.62,-128.21"/>
<text text-anchor="middle" x="933.33" y="-525.95" font-family="Times,serif" font-size="14.00">441, &#160;0.394</text>
</g>
<!-- 439&#45;&gt;409 -->
<g id="edge9" class="edge">
<title>439&#45;&gt;409</title>
<path fill="none" stroke="green" d="M210.76,-427.73C244.12,-446.97 305.3,-477 362.16,-477 362.16,-477 362.16,-477 934.33,-477 1001.68,-477 1064.63,-422.84 1098.92,-386.99"/>
<polygon fill="green" stroke="green" points="1101.3,-389.56 1105.56,-379.87 1096.18,-384.79 1101.3,-389.56"/>
<text text-anchor="middle" x="652.08" y="-480.95" font-family="Times,serif" font-size="14.00">512, &#160;0.906</text>
</g>
<!-- 439&#45;&gt;509 -->
<g id="edge10" class="edge">
<title>439&#45;&gt;509</title>
<path fill="none" stroke="green" d="M214,-404.61C307.46,-380.37 604.87,-303.24 712.75,-275.26"/>
<polygon fill="green" stroke="green" points="713.51,-278.68 722.31,-272.79 711.75,-271.91 713.51,-278.68"/>
<text text-anchor="middle" x="451.83" y="-355.95" font-family="Times,serif" font-size="14.00">551, &#160;0.798</text>
</g>
<!-- 439&#45;&gt;117 -->
<g id="edge12" class="edge">
<title>439&#45;&gt;117</title>
<path fill="none" stroke="green" d="M195.39,-383.77C204.39,-359.08 218.6,-322.49 234,-292 263.59,-233.41 350.43,-80.26 411.33,-55.75 546.52,-1.33 725.34,-37.34 803.25,-57.71"/>
<polygon fill="green" stroke="green" points="801.97,-61 812.54,-60.2 803.78,-54.23 801.97,-61"/>
<text text-anchor="middle" x="451.83" y="-59.95" font-family="Times,serif" font-size="14.00">521, &#160;0.491</text>
</g>
<!-- 2 -->
<g id="node5" class="node">
<title>2</title>
<ellipse fill="none" stroke="green" cx="18" cy="-553" rx="18" ry="18"/>
<text text-anchor="middle" x="18" y="-548.33" font-family="Times,serif" font-size="14.00">2</text>
</g>
<!-- 2&#45;&gt;439 -->
<g id="edge5" class="edge">
<title>2&#45;&gt;439</title>
<path fill="none" stroke="green" d="M31.89,-541.34C38.47,-535.43 46.62,-528.17 54,-521.75 87.22,-492.85 125.76,-460.31 152.11,-438.22"/>
<polygon fill="green" stroke="green" points="154.31,-440.94 159.73,-431.83 149.82,-435.57 154.31,-440.94"/>
<text text-anchor="middle" x="94.5" y="-524.95" font-family="Times,serif" font-size="14.00">549, &#160;0.022</text>
</g>
<!-- 332 -->
<g id="node6" class="node">
<title>332</title>
<ellipse fill="none" stroke="green" cx="1305.49" cy="-356" rx="30.16" ry="30.16"/>
<text text-anchor="middle" x="1305.49" y="-351.32" font-family="Times,serif" font-size="14.00">332</text>
</g>
<!-- 2&#45;&gt;332 -->
<g id="edge4" class="edge">
<title>2&#45;&gt;332</title>
<path fill="none" stroke="green" d="M34.8,-560.09C40.73,-562.54 47.59,-565.14 54,-567 110.23,-583.28 124.96,-591 183.5,-591 183.5,-591 183.5,-591 653.08,-591 797.16,-591 837.58,-590.86 973.83,-544 1091.01,-503.7 1214.06,-421.47 1271.42,-380.43"/>
<polygon fill="green" stroke="green" points="1273.41,-383.31 1279.47,-374.63 1269.31,-377.64 1273.41,-383.31"/>
<text text-anchor="middle" x="652.08" y="-594.95" font-family="Times,serif" font-size="14.00">333, &#160;&#45;5.736</text>
</g>
<!-- 2&#45;&gt;694 -->
<g id="edge6" class="edge">
<title>2&#45;&gt;694</title>
<path fill="none" stroke="green" d="M36.29,-553C66.26,-553 129.81,-553 183.5,-553 183.5,-553 183.5,-553 653.08,-553 772.87,-553 869.87,-425.66 911.02,-361.73"/>
<polygon fill="green" stroke="green" points="913.95,-363.64 916.33,-353.32 908.03,-359.9 913.95,-363.64"/>
<text text-anchor="middle" x="451.83" y="-556.95" font-family="Times,serif" font-size="14.00">856, &#160;0.994</text>
</g>
<!-- 25 -->
<g id="node14" class="node">
<title>25</title>
<ellipse fill="none" stroke="green" cx="1476.5" cy="-102" rx="23.85" ry="23.85"/>
<text text-anchor="middle" x="1476.5" y="-97.33" font-family="Times,serif" font-size="14.00">25</text>
</g>
<!-- 332&#45;&gt;25 -->
<g id="edge27" class="edge">
<title>332&#45;&gt;25</title>
<path fill="none" stroke="green" d="M1323,-331.18C1354.46,-283.9 1422.83,-181.16 1456.29,-130.88"/>
<polygon fill="green" stroke="green" points="1459.03,-133.08 1461.65,-122.82 1453.2,-129.2 1459.03,-133.08"/>
<text text-anchor="middle" x="1394.15" y="-283.95" font-family="Times,serif" font-size="14.00">334, &#160;0.319</text>
</g>
<!-- 694&#45;&gt;409 -->
<g id="edge25" class="edge">
<title>694&#45;&gt;409</title>
<path fill="none" stroke="green" d="M963.41,-330.56C995.98,-335.66 1048.99,-343.96 1085.54,-349.69"/>
<polygon fill="green" stroke="green" points="1084.87,-353.13 1095.29,-351.22 1085.95,-346.21 1084.87,-353.13"/>
<text text-anchor="middle" x="1034.58" y="-350.95" font-family="Times,serif" font-size="14.00">696, &#160;&#45;7.254</text>
</g>
<!-- 3 -->
<g id="node8" class="node">
<title>3</title>
<ellipse fill="none" stroke="green" cx="18" cy="-158" rx="18" ry="18"/>
<text text-anchor="middle" x="18" y="-153.32" font-family="Times,serif" font-size="14.00">3</text>
</g>
<!-- 261 -->
<g id="node9" class="node">
<title>261</title>
<ellipse fill="none" stroke="green" cx="363.16" cy="-170" rx="30.16" ry="30.16"/>
<text text-anchor="middle" x="363.16" y="-165.32" font-family="Times,serif" font-size="14.00">261</text>
</g>
<!-- 3&#45;&gt;261 -->
<g id="edge7" class="edge">
<title>3&#45;&gt;261</title>
<path fill="none" stroke="green" d="M36.49,-158.61C89,-160.45 246.26,-165.95 321.37,-168.57"/>
<polygon fill="green" stroke="green" points="321.06,-172.06 331.17,-168.92 321.3,-165.07 321.06,-172.06"/>
<text text-anchor="middle" x="184.5" y="-168.95" font-family="Times,serif" font-size="14.00">262, &#160;1.0</text>
</g>
<!-- 261&#45;&gt;197 -->
<g id="edge18" class="edge">
<title>261&#45;&gt;197</title>
<path fill="none" stroke="green" d="M389.25,-154.33C396.15,-150.81 403.81,-147.57 411.33,-145.75 443.53,-137.96 481.2,-138.63 509.12,-140.91"/>
<polygon fill="green" stroke="green" points="508.65,-144.38 518.93,-141.82 509.3,-137.41 508.65,-144.38"/>
<text text-anchor="middle" x="451.83" y="-149.95" font-family="Times,serif" font-size="14.00">263, &#160;1.0</text>
</g>
<!-- 261&#45;&gt;409 -->
<g id="edge19" class="edge">
<title>261&#45;&gt;409</title>
<path fill="none" stroke="green" d="M387.16,-151.04C394.55,-145.62 402.98,-140.08 411.33,-136 525.15,-80.34 571.66,-76.27 694.83,-106 861.07,-146.13 1027.59,-273.38 1094.82,-329.25"/>
<polygon fill="green" stroke="green" points="1092.56,-331.93 1102.47,-335.67 1097.06,-326.57 1092.56,-331.93"/>
<text text-anchor="middle" x="753.33" y="-142.95" font-family="Times,serif" font-size="14.00">410, &#160;1.0</text>
</g>
<!-- 261&#45;&gt;509 -->
<g id="edge20" class="edge">
<title>261&#45;&gt;509</title>
<path fill="none" stroke="green" d="M386.98,-188.92C394.36,-194.2 402.84,-199.46 411.33,-203 513.8,-245.74 645.7,-259.08 711.38,-263.2"/>
<polygon fill="green" stroke="green" points="711.15,-266.69 721.34,-263.77 711.56,-259.7 711.15,-266.69"/>
<text text-anchor="middle" x="550.83" y="-252.95" font-family="Times,serif" font-size="14.00">537, &#160;0.546</text>
</g>
<!-- 409&#45;&gt;332 -->
<g id="edge26" class="edge">
<title>409&#45;&gt;332</title>
<path fill="none" stroke="green" d="M1157.4,-356C1186.53,-356 1231.27,-356 1263.76,-356"/>
<polygon fill="green" stroke="green" points="1263.61,-359.5 1273.61,-356 1263.61,-352.5 1263.61,-359.5"/>
<text text-anchor="middle" x="1216.83" y="-359.95" font-family="Times,serif" font-size="14.00">411, &#160;0.007</text>
</g>
<!-- 509&#45;&gt;694 -->
<g id="edge24" class="edge">
<title>509&#45;&gt;694</title>
<path fill="none" stroke="green" d="M783.25,-269.57C808.09,-274.05 844.58,-281.93 874.83,-293.75 882.36,-296.7 890.12,-300.47 897.4,-304.4"/>
<polygon fill="green" stroke="green" points="895.56,-307.38 905.99,-309.23 898.99,-301.28 895.56,-307.38"/>
<text text-anchor="middle" x="843.33" y="-296.95" font-family="Times,serif" font-size="14.00">695, &#160;1.0</text>
</g>
<!-- 117&#45;&gt;6 -->
<g id="edge29" class="edge">
<title>117&#45;&gt;6</title>
<path fill="none" stroke="green" d="M873.41,-64.25C910.49,-58.63 976.62,-50 1033.58,-50 1033.58,-50 1033.58,-50 1477.5,-50 1522.86,-50 1571.84,-72.05 1600.49,-87.43"/>
<polygon fill="green" stroke="green" points="1598.66,-90.42 1609.11,-92.21 1602.06,-84.3 1598.66,-90.42"/>
<text text-anchor="middle" x="1216.83" y="-53.95" font-family="Times,serif" font-size="14.00">173, &#160;0.017</text>
</g>
<!-- 117&#45;&gt;25 -->
<g id="edge28" class="edge">
<title>117&#45;&gt;25</title>
<path fill="none" stroke="green" d="M873,-75.67C909.92,-83.67 976.16,-96 1033.58,-96 1033.58,-96 1033.58,-96 1306.49,-96 1353.11,-96 1406.92,-98.31 1441.06,-100.06"/>
<polygon fill="green" stroke="green" points="1440.59,-103.54 1450.76,-100.57 1440.96,-96.55 1440.59,-103.54"/>
<text text-anchor="middle" x="1126.83" y="-99.95" font-family="Times,serif" font-size="14.00">119, &#160;1.0</text>
</g>
<!-- 25&#45;&gt;6 -->
<g id="edge30" class="edge">
<title>25&#45;&gt;6</title>
<path fill="none" stroke="green" d="M1500.61,-102C1526.5,-102 1568.52,-102 1596.54,-102"/>
<polygon fill="green" stroke="green" points="1596.45,-105.5 1606.45,-102 1596.45,-98.5 1596.45,-105.5"/>
<text text-anchor="middle" x="1554.36" y="-105.95" font-family="Times,serif" font-size="14.00">27, &#160;0.682</text>
</g>
<!-- 5 -->
<g id="node15" class="node">
<title>5</title>
<ellipse fill="none" stroke="green" cx="1626.36" cy="-18" rx="18" ry="18"/>
<text text-anchor="middle" x="1626.36" y="-13.32" font-family="Times,serif" font-size="14.00">5</text>
</g>
<!-- 25&#45;&gt;5 -->
<g id="edge31" class="edge">
<title>25&#45;&gt;5</title>
<path fill="none" stroke="green" d="M1497.75,-90.5C1524.52,-75.29 1571.65,-48.51 1600.53,-32.1"/>
<polygon fill="green" stroke="green" points="1602,-35.3 1608.96,-27.31 1598.54,-29.21 1602,-35.3"/>
<text text-anchor="middle" x="1554.36" y="-81.95" font-family="Times,serif" font-size="14.00">96, &#160;0.644</text>
</g>
<!-- 4 -->
<g id="node16" class="node">
<title>4</title>
<ellipse fill="none" stroke="green" cx="1626.36" cy="-156" rx="18" ry="18"/>
<text text-anchor="middle" x="1626.36" y="-151.32" font-family="Times,serif" font-size="14.00">4</text>
</g>
</g>
</svg>
