<?xml version="1.0" encoding="UTF-8" standalone="no"?>
<!DOCTYPE svg PUBLIC "-//W3C//DTD SVG 1.1//EN"
 "http://www.w3.org/Graphics/SVG/1.1/DTD/svg11.dtd">
<!-- Generated by graphviz version 10.0.1 (0)
 -->
<!-- Pages: 1 -->
<svg width="1066pt" height="404pt"
 viewBox="0.00 0.00 1065.50 404.25" xmlns="http://www.w3.org/2000/svg" xmlns:xlink="http://www.w3.org/1999/xlink">
<g id="graph0" class="graph" transform="scale(1 1) rotate(0) translate(4 400.25)">
<polygon fill="white" stroke="none" points="-4,4 -4,-400.25 1061.5,-400.25 1061.5,4 -4,4"/>
<!-- 1 -->
<g id="node1" class="node">
<title>1</title>
<ellipse fill="none" stroke="green" cx="18" cy="-247" rx="18" ry="18"/>
<text text-anchor="middle" x="18" y="-242.32" font-family="Times,serif" font-size="14.00">1</text>
</g>
<!-- 2 -->
<g id="node2" class="node">
<title>2</title>
<ellipse fill="none" stroke="green" cx="1039.5" cy="-197" rx="18" ry="18"/>
<text text-anchor="middle" x="1039.5" y="-192.32" font-family="Times,serif" font-size="14.00">2</text>
</g>
<!-- 1&#45;&gt;2 -->
<g id="edge1" class="edge">
<title>1&#45;&gt;2</title>
<path fill="none" stroke="green" d="M24.45,-264.22C29.87,-278.89 39.49,-299.65 54,-313 108.88,-363.49 133.68,-379 208.25,-379 208.25,-379 208.25,-379 847,-379 926.37,-379 951.83,-353.24 1003.5,-293 1019.82,-273.98 1028.78,-246.71 1033.54,-226.1"/>
<polygon fill="green" stroke="green" points="1036.97,-226.83 1035.58,-216.32 1030.11,-225.4 1036.97,-226.83"/>
<text text-anchor="middle" x="526.5" y="-382.95" font-family="Times,serif" font-size="14.00">3, &#160;0.004</text>
</g>
<!-- 34 -->
<g id="node3" class="node">
<title>34</title>
<ellipse fill="none" stroke="green" cx="846" cy="-282" rx="23.85" ry="23.85"/>
<text text-anchor="middle" x="846" y="-277.32" font-family="Times,serif" font-size="14.00">34</text>
</g>
<!-- 1&#45;&gt;34 -->
<g id="edge2" class="edge">
<title>1&#45;&gt;34</title>
<path fill="none" stroke="red" d="M32.27,-258.02C61.85,-281.43 136.29,-334 208.25,-334 208.25,-334 208.25,-334 628.75,-334 695.6,-334 770.93,-310.22 812.7,-294.82"/>
<polygon fill="red" stroke="red" points="813.77,-298.16 821.9,-291.35 811.3,-291.61 813.77,-298.16"/>
<text text-anchor="middle" x="425.25" y="-337.95" font-family="Times,serif" font-size="14.00">35, &#160;&#45;0.735</text>
</g>
<!-- 178 -->
<g id="node4" class="node">
<title>178</title>
<ellipse fill="none" stroke="green" cx="425.25" cy="-185" rx="30.16" ry="30.16"/>
<text text-anchor="middle" x="425.25" y="-180.32" font-family="Times,serif" font-size="14.00">178</text>
</g>
<!-- 1&#45;&gt;178 -->
<g id="edge3" class="edge">
<title>1&#45;&gt;178</title>
<path fill="none" stroke="green" d="M36.03,-244.42C85.87,-236.87 235.71,-214.15 360,-195 367.72,-193.81 375.96,-192.53 383.88,-191.3"/>
<polygon fill="green" stroke="green" points="384.31,-194.78 393.65,-189.78 383.23,-187.86 384.31,-194.78"/>
<text text-anchor="middle" x="209.25" y="-227.95" font-family="Times,serif" font-size="14.00">179, &#160;&#45;0.895</text>
</g>
<!-- 1196 -->
<g id="node5" class="node">
<title>1196</title>
<ellipse fill="none" stroke="green" cx="209.25" cy="-153" rx="36.48" ry="36.48"/>
<text text-anchor="middle" x="209.25" y="-148.32" font-family="Times,serif" font-size="14.00">1196</text>
</g>
<!-- 1&#45;&gt;1196 -->
<g id="edge4" class="edge">
<title>1&#45;&gt;1196</title>
<path fill="none" stroke="green" d="M25.93,-230.44C31.74,-218.52 41.16,-202.99 54,-193.75 85.47,-171.1 128.65,-161.04 161.32,-156.57"/>
<polygon fill="green" stroke="green" points="161.4,-160.08 170.9,-155.39 160.55,-153.14 161.4,-160.08"/>
<text text-anchor="middle" x="101.25" y="-196.95" font-family="Times,serif" font-size="14.00">1197, &#160;&#45;0.638</text>
</g>
<!-- 1999 -->
<g id="node6" class="node">
<title>1999</title>
<ellipse fill="none" stroke="green" cx="627.75" cy="-270" rx="36.48" ry="36.48"/>
<text text-anchor="middle" x="627.75" y="-265.32" font-family="Times,serif" font-size="14.00">1999</text>
</g>
<!-- 1&#45;&gt;1999 -->
<g id="edge5" class="edge">
<title>1&#45;&gt;1999</title>
<path fill="none" stroke="green" d="M36.21,-247.65C116.3,-250.68 453.95,-263.46 579.49,-268.21"/>
<polygon fill="green" stroke="green" points="579.32,-271.71 589.44,-268.59 579.58,-264.71 579.32,-271.71"/>
<text text-anchor="middle" x="315" y="-262.95" font-family="Times,serif" font-size="14.00">2010, &#160;1.293</text>
</g>
<!-- 3428 -->
<g id="node7" class="node">
<title>3428</title>
<ellipse fill="none" stroke="green" cx="846" cy="-110" rx="36.48" ry="36.48"/>
<text text-anchor="middle" x="846" y="-105.33" font-family="Times,serif" font-size="14.00">3428</text>
</g>
<!-- 1&#45;&gt;3428 -->
<g id="edge6" class="edge">
<title>1&#45;&gt;3428</title>
<path fill="none" stroke="green" d="M23.17,-229.63C37.82,-173.41 92.37,0 208.25,0 208.25,0 208.25,0 628.75,0 698.65,0 768.8,-46.22 809.5,-78.74"/>
<polygon fill="green" stroke="green" points="807.08,-81.29 817.04,-84.9 811.51,-75.87 807.08,-81.29"/>
<text text-anchor="middle" x="425.25" y="-3.95" font-family="Times,serif" font-size="14.00">3431, &#160;&#45;1.627</text>
</g>
<!-- 34&#45;&gt;2 -->
<g id="edge15" class="edge">
<title>34&#45;&gt;2</title>
<path fill="none" stroke="green" d="M870.17,-279.49C902.29,-275.14 961.14,-263.91 1003.5,-237 1010.3,-232.68 1016.54,-226.65 1021.8,-220.58"/>
<polygon fill="green" stroke="green" points="1024.32,-223.04 1027.82,-213.04 1018.85,-218.67 1024.32,-223.04"/>
<text text-anchor="middle" x="956.25" y="-275.95" font-family="Times,serif" font-size="14.00">36, &#160;&#45;1.752</text>
</g>
<!-- 178&#45;&gt;2 -->
<g id="edge10" class="edge">
<title>178&#45;&gt;2</title>
<path fill="none" stroke="red" d="M455.66,-182.78C466.59,-182.06 479.11,-181.35 490.5,-181 522.48,-180.01 530.5,-180.46 562.5,-181 732.44,-183.86 936.37,-192.44 1010.13,-195.71"/>
<polygon fill="red" stroke="red" points="1009.56,-199.19 1019.7,-196.14 1009.87,-192.2 1009.56,-199.19"/>
<text text-anchor="middle" x="738" y="-189.95" font-family="Times,serif" font-size="14.00">181, &#160;&#45;1.143</text>
</g>
<!-- 178&#45;&gt;34 -->
<g id="edge9" class="edge">
<title>178&#45;&gt;34</title>
<path fill="none" stroke="red" d="M455.87,-184.67C503.02,-184.83 597.72,-187.89 675,-207.75 726.09,-220.88 781.39,-247.6 814.6,-265.14"/>
<polygon fill="red" stroke="red" points="812.77,-268.14 823.24,-269.78 816.08,-261.97 812.77,-268.14"/>
<text text-anchor="middle" x="627.75" y="-210.95" font-family="Times,serif" font-size="14.00">180, &#160;&#45;0.735</text>
</g>
<!-- 178&#45;&gt;1999 -->
<g id="edge11" class="edge">
<title>178&#45;&gt;1999</title>
<path fill="none" stroke="green" d="M453.34,-196.68C464.77,-201.53 478.24,-207.15 490.5,-212 522.24,-224.56 531.11,-225.32 562.5,-238.75 569.63,-241.8 577.1,-245.22 584.33,-248.65"/>
<polygon fill="green" stroke="green" points="582.79,-251.79 593.31,-252.99 585.83,-245.49 582.79,-251.79"/>
<text text-anchor="middle" x="526.5" y="-241.95" font-family="Times,serif" font-size="14.00">2000, &#160;1.0</text>
</g>
<!-- 178&#45;&gt;3428 -->
<g id="edge12" class="edge">
<title>178&#45;&gt;3428</title>
<path fill="none" stroke="green" d="M448.22,-165.14C459.97,-155.54 475.17,-144.67 490.5,-138 593.19,-93.31 728.35,-97.9 798.4,-104.36"/>
<polygon fill="green" stroke="green" points="797.67,-107.81 807.97,-105.3 798.36,-100.84 797.67,-107.81"/>
<text text-anchor="middle" x="627.75" y="-113.95" font-family="Times,serif" font-size="14.00">3429, &#160;1.08</text>
</g>
<!-- 1196&#45;&gt;2 -->
<g id="edge7" class="edge">
<title>1196&#45;&gt;2</title>
<path fill="none" stroke="green" d="M237.15,-129.25C275.73,-97.73 350.31,-46 424.25,-46 424.25,-46 424.25,-46 847,-46 921.81,-46 950.66,-55.03 1003.5,-108 1019.62,-124.16 1028.52,-148.63 1033.31,-167.82"/>
<polygon fill="green" stroke="green" points="1029.87,-168.49 1035.45,-177.49 1036.7,-166.97 1029.87,-168.49"/>
<text text-anchor="middle" x="627.75" y="-49.95" font-family="Times,serif" font-size="14.00">1198, &#160;&#45;0.425</text>
</g>
<!-- 1196&#45;&gt;178 -->
<g id="edge8" class="edge">
<title>1196&#45;&gt;178</title>
<path fill="none" stroke="green" d="M245.59,-158.28C283.62,-163.97 344.01,-173 383.89,-178.96"/>
<polygon fill="green" stroke="green" points="383.15,-182.39 393.56,-180.41 384.19,-175.47 383.15,-182.39"/>
<text text-anchor="middle" x="315" y="-177.95" font-family="Times,serif" font-size="14.00">1203, &#160;0.768</text>
</g>
<!-- 1999&#45;&gt;2 -->
<g id="edge14" class="edge">
<title>1999&#45;&gt;2</title>
<path fill="none" stroke="green" d="M663.57,-261.48C698.25,-253.18 753.1,-240.56 801,-231.75 875.92,-217.97 964.95,-206.15 1009.74,-200.52"/>
<polygon fill="green" stroke="green" points="1010.15,-203.99 1019.64,-199.28 1009.29,-197.05 1010.15,-203.99"/>
<text text-anchor="middle" x="846" y="-234.95" font-family="Times,serif" font-size="14.00">2009, &#160;0.247</text>
</g>
<!-- 1999&#45;&gt;34 -->
<g id="edge13" class="edge">
<title>1999&#45;&gt;34</title>
<path fill="none" stroke="green" d="M664.46,-271.98C704.99,-274.23 770.64,-277.87 810.61,-280.09"/>
<polygon fill="green" stroke="green" points="810.21,-283.57 820.38,-280.63 810.59,-276.59 810.21,-283.57"/>
<text text-anchor="middle" x="738" y="-281.95" font-family="Times,serif" font-size="14.00">2001, &#160;0.708</text>
</g>
<!-- 3428&#45;&gt;2 -->
<g id="edge16" class="edge">
<title>3428&#45;&gt;2</title>
<path fill="none" stroke="green" d="M882.67,-109.82C916.53,-111.3 967.47,-117.99 1003.5,-142.75 1013.37,-149.53 1021.1,-160.11 1026.76,-170.13"/>
<polygon fill="green" stroke="green" points="1023.54,-171.53 1031.21,-178.84 1029.77,-168.34 1023.54,-171.53"/>
<text text-anchor="middle" x="956.25" y="-145.95" font-family="Times,serif" font-size="14.00">3430, &#160;&#45;1.143</text>
</g>
</g>
</svg>
