<?xml version="1.0" encoding="UTF-8" standalone="no"?>
<!DOCTYPE svg PUBLIC "-//W3C//DTD SVG 1.1//EN"
 "http://www.w3.org/Graphics/SVG/1.1/DTD/svg11.dtd">
<!-- Generated by graphviz version 10.0.1 (0)
 -->
<!-- Pages: 1 -->
<svg width="488pt" height="158pt"
 viewBox="0.00 0.00 487.70 157.85" xmlns="http://www.w3.org/2000/svg" xmlns:xlink="http://www.w3.org/1999/xlink">
<g id="graph0" class="graph" transform="scale(1 1) rotate(0) translate(4 153.85)">
<polygon fill="white" stroke="none" points="-4,4 -4,-153.85 483.7,-153.85 483.7,4 -4,4"/>
<!-- 2 -->
<g id="node1" class="node">
<title>2</title>
<ellipse fill="none" stroke="black" cx="18" cy="-23.85" rx="18" ry="18"/>
<text text-anchor="middle" x="18" y="-19.18" font-family="Times,serif" font-size="14.00">2</text>
</g>
<!-- 8 -->
<g id="node2" class="node">
<title>8</title>
<ellipse fill="none" stroke="black" cx="153" cy="-23.85" rx="18" ry="18"/>
<text text-anchor="middle" x="153" y="-19.18" font-family="Times,serif" font-size="14.00">8</text>
</g>
<!-- 2&#45;&gt;8 -->
<g id="edge1" class="edge">
<title>2&#45;&gt;8</title>
<path fill="none" stroke="green" d="M36.39,-23.85C58.49,-23.85 96.95,-23.85 123.4,-23.85"/>
<polygon fill="green" stroke="green" points="123.09,-27.35 133.09,-23.85 123.09,-20.35 123.09,-27.35"/>
<text text-anchor="middle" x="85.5" y="-27.8" font-family="Times,serif" font-size="14.00">9, &#160;8.744</text>
</g>
<!-- 42 -->
<g id="node6" class="node">
<title>42</title>
<ellipse fill="none" stroke="black" cx="307.35" cy="-23.85" rx="23.85" ry="23.85"/>
<text text-anchor="middle" x="307.35" y="-19.18" font-family="Times,serif" font-size="14.00">42</text>
</g>
<!-- 8&#45;&gt;42 -->
<g id="edge3" class="edge">
<title>8&#45;&gt;42</title>
<path fill="none" stroke="green" d="M171.48,-23.85C195.87,-23.85 240.65,-23.85 271.89,-23.85"/>
<polygon fill="green" stroke="green" points="271.62,-27.35 281.62,-23.85 271.62,-20.35 271.62,-27.35"/>
<text text-anchor="middle" x="227.25" y="-27.8" font-family="Times,serif" font-size="14.00">43, &#160;9.708</text>
</g>
<!-- 3 -->
<g id="node3" class="node">
<title>3</title>
<ellipse fill="none" stroke="black" cx="18" cy="-77.85" rx="18" ry="18"/>
<text text-anchor="middle" x="18" y="-73.18" font-family="Times,serif" font-size="14.00">3</text>
</g>
<!-- 6 -->
<g id="node4" class="node">
<title>6</title>
<ellipse fill="none" stroke="black" cx="461.7" cy="-77.85" rx="18" ry="18"/>
<text text-anchor="middle" x="461.7" y="-73.18" font-family="Times,serif" font-size="14.00">6</text>
</g>
<!-- 3&#45;&gt;6 -->
<g id="edge2" class="edge">
<title>3&#45;&gt;6</title>
<path fill="none" stroke="green" d="M36.32,-77.85C103.59,-77.85 348.05,-77.85 432.09,-77.85"/>
<polygon fill="green" stroke="green" points="431.99,-81.35 441.99,-77.85 431.99,-74.35 431.99,-81.35"/>
<text text-anchor="middle" x="227.25" y="-81.8" font-family="Times,serif" font-size="14.00">17, &#160;&#45;3.268</text>
</g>
<!-- 1 -->
<g id="node5" class="node">
<title>1</title>
<ellipse fill="none" stroke="black" cx="18" cy="-131.85" rx="18" ry="18"/>
<text text-anchor="middle" x="18" y="-127.18" font-family="Times,serif" font-size="14.00">1</text>
</g>
<!-- 5 -->
<g id="node7" class="node">
<title>5</title>
<ellipse fill="none" stroke="black" cx="461.7" cy="-23.85" rx="18" ry="18"/>
<text text-anchor="middle" x="461.7" y="-19.18" font-family="Times,serif" font-size="14.00">5</text>
</g>
<!-- 42&#45;&gt;5 -->
<g id="edge4" class="edge">
<title>42&#45;&gt;5</title>
<path fill="none" stroke="green" d="M331.49,-23.85C358.44,-23.85 402.97,-23.85 432.07,-23.85"/>
<polygon fill="green" stroke="green" points="431.99,-27.35 441.99,-23.85 431.99,-20.35 431.99,-27.35"/>
<text text-anchor="middle" x="387.45" y="-27.8" font-family="Times,serif" font-size="14.00">44, &#160;&#45;2.856</text>
</g>
<!-- 4 -->
<g id="node8" class="node">
<title>4</title>
<ellipse fill="none" stroke="black" cx="461.7" cy="-131.85" rx="18" ry="18"/>
<text text-anchor="middle" x="461.7" y="-127.18" font-family="Times,serif" font-size="14.00">4</text>
</g>
</g>
</svg>
