<?xml version="1.0" encoding="UTF-8" standalone="no"?>
<!DOCTYPE svg PUBLIC "-//W3C//DTD SVG 1.1//EN"
 "http://www.w3.org/Graphics/SVG/1.1/DTD/svg11.dtd">
<!-- Generated by graphviz version 10.0.1 (0)
 -->
<!-- Pages: 1 -->
<svg width="515pt" height="243pt"
 viewBox="0.00 0.00 514.70 243.25" xmlns="http://www.w3.org/2000/svg" xmlns:xlink="http://www.w3.org/1999/xlink">
<g id="graph0" class="graph" transform="scale(1 1) rotate(0) translate(4 239.25)">
<polygon fill="white" stroke="none" points="-4,4 -4,-239.25 510.7,-239.25 510.7,4 -4,4"/>
<!-- 3 -->
<g id="node1" class="node">
<title>3</title>
<ellipse fill="none" stroke="black" cx="18" cy="-104" rx="18" ry="18"/>
<text text-anchor="middle" x="18" y="-99.33" font-family="Times,serif" font-size="14.00">3</text>
</g>
<!-- 6 -->
<g id="node2" class="node">
<title>6</title>
<ellipse fill="none" stroke="black" cx="488.7" cy="-82" rx="18" ry="18"/>
<text text-anchor="middle" x="488.7" y="-77.33" font-family="Times,serif" font-size="14.00">6</text>
</g>
<!-- 3&#45;&gt;6 -->
<g id="edge1" class="edge">
<title>3&#45;&gt;6</title>
<path fill="none" stroke="red" d="M36.05,-101.87C80.89,-96.37 205.91,-81.83 310.5,-77 331.68,-76.02 337,-76.59 358.2,-77 392.96,-77.67 432.94,-79.35 459.18,-80.58"/>
<polygon fill="red" stroke="red" points="458.86,-84.07 469.02,-81.05 459.2,-77.08 458.86,-84.07"/>
<text text-anchor="middle" x="254.25" y="-87.95" font-family="Times,serif" font-size="14.00">17, &#160;8.014</text>
</g>
<!-- 4 -->
<g id="node3" class="node">
<title>4</title>
<ellipse fill="none" stroke="black" cx="488.7" cy="-215" rx="18" ry="18"/>
<text text-anchor="middle" x="488.7" y="-210.32" font-family="Times,serif" font-size="14.00">4</text>
</g>
<!-- 3&#45;&gt;4 -->
<g id="edge2" class="edge">
<title>3&#45;&gt;4</title>
<path fill="none" stroke="green" d="M28.59,-119.1C31.02,-122.97 33.62,-127.13 36,-131 44.14,-144.25 42.53,-150.5 54,-161 80.24,-185.03 91.55,-187.11 126,-196 246.73,-227.15 397.43,-221.44 459.24,-217.29"/>
<polygon fill="green" stroke="green" points="459.15,-220.8 468.88,-216.6 458.65,-213.82 459.15,-220.8"/>
<text text-anchor="middle" x="254.25" y="-221.95" font-family="Times,serif" font-size="14.00">18, &#160;&#45;5.054</text>
</g>
<!-- 23 -->
<g id="node4" class="node">
<title>23</title>
<ellipse fill="none" stroke="black" cx="334.35" cy="-110" rx="23.85" ry="23.85"/>
<text text-anchor="middle" x="334.35" y="-105.33" font-family="Times,serif" font-size="14.00">23</text>
</g>
<!-- 3&#45;&gt;23 -->
<g id="edge3" class="edge">
<title>3&#45;&gt;23</title>
<path fill="none" stroke="red" d="M36.35,-104.33C86.5,-105.29 232.3,-108.07 299.15,-109.35"/>
<polygon fill="red" stroke="red" points="298.72,-112.84 308.78,-109.53 298.85,-105.84 298.72,-112.84"/>
<text text-anchor="middle" x="162" y="-110.95" font-family="Times,serif" font-size="14.00">24, &#160;3.383</text>
</g>
<!-- 39 -->
<g id="node5" class="node">
<title>39</title>
<ellipse fill="none" stroke="black" cx="162" cy="-163" rx="23.85" ry="23.85"/>
<text text-anchor="middle" x="162" y="-158.32" font-family="Times,serif" font-size="14.00">39</text>
</g>
<!-- 3&#45;&gt;39 -->
<g id="edge4" class="edge">
<title>3&#45;&gt;39</title>
<path fill="none" stroke="green" d="M35.01,-110.65C57.78,-120.11 99.99,-137.65 129.24,-149.8"/>
<polygon fill="green" stroke="green" points="127.77,-152.98 138.35,-153.59 130.46,-146.52 127.77,-152.98"/>
<text text-anchor="middle" x="81" y="-143.95" font-family="Times,serif" font-size="14.00">40, &#160;1.0</text>
</g>
<!-- 5 -->
<g id="node6" class="node">
<title>5</title>
<ellipse fill="none" stroke="black" cx="488.7" cy="-18" rx="18" ry="18"/>
<text text-anchor="middle" x="488.7" y="-13.32" font-family="Times,serif" font-size="14.00">5</text>
</g>
<!-- 3&#45;&gt;5 -->
<g id="edge5" class="edge">
<title>3&#45;&gt;5</title>
<path fill="none" stroke="green" d="M34.82,-96.98C40.75,-94.53 47.61,-91.92 54,-90 202.62,-45.41 388.7,-26.24 459.02,-20.23"/>
<polygon fill="green" stroke="green" points="459.21,-23.72 468.89,-19.41 458.64,-16.75 459.21,-23.72"/>
<text text-anchor="middle" x="254.25" y="-56.95" font-family="Times,serif" font-size="14.00">12, &#160;0.658</text>
</g>
<!-- 23&#45;&gt;6 -->
<g id="edge7" class="edge">
<title>23&#45;&gt;6</title>
<path fill="none" stroke="green" d="M358.16,-105.81C385.3,-100.82 430.6,-92.49 459.8,-87.13"/>
<polygon fill="green" stroke="green" points="460.18,-90.62 469.38,-85.37 458.91,-83.73 460.18,-90.62"/>
<text text-anchor="middle" x="414.45" y="-106.95" font-family="Times,serif" font-size="14.00">25, &#160;&#45;4.923</text>
</g>
<!-- 39&#45;&gt;23 -->
<g id="edge6" class="edge">
<title>39&#45;&gt;23</title>
<path fill="none" stroke="green" d="M185.27,-156.07C214.6,-146.95 266.42,-130.82 300.32,-120.28"/>
<polygon fill="green" stroke="green" points="301.12,-123.69 309.63,-117.38 299.04,-117.01 301.12,-123.69"/>
<text text-anchor="middle" x="254.25" y="-148.95" font-family="Times,serif" font-size="14.00">41, &#160;3.383</text>
</g>
<!-- 1 -->
<g id="node7" class="node">
<title>1</title>
<ellipse fill="none" stroke="black" cx="18" cy="-158" rx="18" ry="18"/>
<text text-anchor="middle" x="18" y="-153.32" font-family="Times,serif" font-size="14.00">1</text>
</g>
<!-- 2 -->
<g id="node8" class="node">
<title>2</title>
<ellipse fill="none" stroke="black" cx="18" cy="-212" rx="18" ry="18"/>
<text text-anchor="middle" x="18" y="-207.32" font-family="Times,serif" font-size="14.00">2</text>
</g>
</g>
</svg>
