<?xml version="1.0" encoding="UTF-8" standalone="no"?>
<!DOCTYPE svg PUBLIC "-//W3C//DTD SVG 1.1//EN"
 "http://www.w3.org/Graphics/SVG/1.1/DTD/svg11.dtd">
<!-- Generated by graphviz version 10.0.1 (0)
 -->
<!-- Pages: 1 -->
<svg width="377pt" height="210pt"
 viewBox="0.00 0.00 377.00 210.00" xmlns="http://www.w3.org/2000/svg" xmlns:xlink="http://www.w3.org/1999/xlink">
<g id="graph0" class="graph" transform="scale(1 1) rotate(0) translate(4 206)">
<polygon fill="white" stroke="none" points="-4,4 -4,-206 373,-206 373,4 -4,4"/>
<!-- 1 -->
<g id="node1" class="node">
<title>1</title>
<ellipse fill="none" stroke="black" cx="18" cy="-88" rx="18" ry="18"/>
<text text-anchor="middle" x="18" y="-83.33" font-family="Times,serif" font-size="14.00">1</text>
</g>
<!-- 6 -->
<g id="node2" class="node">
<title>6</title>
<ellipse fill="none" stroke="black" cx="351" cy="-44" rx="18" ry="18"/>
<text text-anchor="middle" x="351" y="-39.33" font-family="Times,serif" font-size="14.00">6</text>
</g>
<!-- 1&#45;&gt;6 -->
<g id="edge1" class="edge">
<title>1&#45;&gt;6</title>
<path fill="none" stroke="green" d="M36.41,-86.27C82.2,-81.63 209.69,-68.09 315,-51 317.2,-50.64 319.48,-50.25 321.76,-49.83"/>
<polygon fill="green" stroke="green" points="322.32,-53.29 331.47,-47.96 320.99,-46.42 322.32,-53.29"/>
<text text-anchor="middle" x="184.5" y="-77.95" font-family="Times,serif" font-size="14.00">16, &#160;7.584</text>
</g>
<!-- 26 -->
<g id="node3" class="node">
<title>26</title>
<ellipse fill="none" stroke="black" cx="184.5" cy="-130" rx="23.85" ry="23.85"/>
<text text-anchor="middle" x="184.5" y="-125.33" font-family="Times,serif" font-size="14.00">26</text>
</g>
<!-- 1&#45;&gt;26 -->
<g id="edge2" class="edge">
<title>1&#45;&gt;26</title>
<path fill="none" stroke="green" d="M35.68,-92.26C62.39,-99.08 115.29,-112.58 150.02,-121.45"/>
<polygon fill="green" stroke="green" points="149.02,-124.81 159.57,-123.89 150.75,-118.03 149.02,-124.81"/>
<text text-anchor="middle" x="92.25" y="-119.95" font-family="Times,serif" font-size="14.00">27, &#160;&#45;8.872</text>
</g>
<!-- 4 -->
<g id="node6" class="node">
<title>4</title>
<ellipse fill="none" stroke="black" cx="351" cy="-130" rx="18" ry="18"/>
<text text-anchor="middle" x="351" y="-125.33" font-family="Times,serif" font-size="14.00">4</text>
</g>
<!-- 26&#45;&gt;4 -->
<g id="edge4" class="edge">
<title>26&#45;&gt;4</title>
<path fill="none" stroke="green" d="M208.72,-130C238.4,-130 289.77,-130 321.71,-130"/>
<polygon fill="green" stroke="green" points="321.4,-133.5 331.4,-130 321.4,-126.5 321.4,-133.5"/>
<text text-anchor="middle" x="276.75" y="-133.95" font-family="Times,serif" font-size="14.00">28, &#160;&#45;6.929</text>
</g>
<!-- 3 -->
<g id="node4" class="node">
<title>3</title>
<ellipse fill="none" stroke="black" cx="18" cy="-18" rx="18" ry="18"/>
<text text-anchor="middle" x="18" y="-13.32" font-family="Times,serif" font-size="14.00">3</text>
</g>
<!-- 3&#45;&gt;6 -->
<g id="edge3" class="edge">
<title>3&#45;&gt;6</title>
<path fill="none" stroke="green" d="M36.26,-19.03C71.11,-21.13 152.35,-26.2 220.5,-31.75 255.28,-34.58 295.26,-38.46 321.48,-41.09"/>
<polygon fill="green" stroke="green" points="321.03,-44.56 331.33,-42.08 321.73,-37.59 321.03,-44.56"/>
<text text-anchor="middle" x="184.5" y="-35.95" font-family="Times,serif" font-size="14.00">17, &#160;0.126</text>
</g>
<!-- 2 -->
<g id="node5" class="node">
<title>2</title>
<ellipse fill="none" stroke="black" cx="18" cy="-142" rx="18" ry="18"/>
<text text-anchor="middle" x="18" y="-137.32" font-family="Times,serif" font-size="14.00">2</text>
</g>
<!-- 5 -->
<g id="node7" class="node">
<title>5</title>
<ellipse fill="none" stroke="black" cx="351" cy="-184" rx="18" ry="18"/>
<text text-anchor="middle" x="351" y="-179.32" font-family="Times,serif" font-size="14.00">5</text>
</g>
</g>
</svg>
