<?xml version="1.0" encoding="UTF-8" standalone="no"?>
<!DOCTYPE svg PUBLIC "-//W3C//DTD SVG 1.1//EN"
 "http://www.w3.org/Graphics/SVG/1.1/DTD/svg11.dtd">
<!-- Generated by graphviz version 10.0.1 (0)
 -->
<!-- Pages: 1 -->
<svg width="377pt" height="217pt"
 viewBox="0.00 0.00 377.00 217.00" xmlns="http://www.w3.org/2000/svg" xmlns:xlink="http://www.w3.org/1999/xlink">
<g id="graph0" class="graph" transform="scale(1 1) rotate(0) translate(4 213)">
<polygon fill="white" stroke="none" points="-4,4 -4,-213 373,-213 373,4 -4,4"/>
<!-- 1 -->
<g id="node1" class="node">
<title>1</title>
<ellipse fill="none" stroke="black" cx="18" cy="-124" rx="18" ry="18"/>
<text text-anchor="middle" x="18" y="-119.33" font-family="Times,serif" font-size="14.00">1</text>
</g>
<!-- 6 -->
<g id="node2" class="node">
<title>6</title>
<ellipse fill="none" stroke="black" cx="351" cy="-57" rx="18" ry="18"/>
<text text-anchor="middle" x="351" y="-52.33" font-family="Times,serif" font-size="14.00">6</text>
</g>
<!-- 1&#45;&gt;6 -->
<g id="edge1" class="edge">
<title>1&#45;&gt;6</title>
<path fill="none" stroke="green" d="M35.87,-120.59C89.32,-109.77 255.33,-76.16 321.94,-62.68"/>
<polygon fill="green" stroke="green" points="322.57,-66.12 331.68,-60.71 321.19,-59.26 322.57,-66.12"/>
<text text-anchor="middle" x="184.5" y="-100.95" font-family="Times,serif" font-size="14.00">16, &#160;7.584</text>
</g>
<!-- 4 -->
<g id="node3" class="node">
<title>4</title>
<ellipse fill="none" stroke="black" cx="351" cy="-137" rx="18" ry="18"/>
<text text-anchor="middle" x="351" y="-132.32" font-family="Times,serif" font-size="14.00">4</text>
</g>
<!-- 1&#45;&gt;4 -->
<g id="edge2" class="edge">
<title>1&#45;&gt;4</title>
<path fill="none" stroke="red" d="M36.33,-124.68C90.18,-126.8 254.95,-133.27 321.59,-135.88"/>
<polygon fill="red" stroke="red" points="321.2,-139.37 331.33,-136.27 321.47,-132.38 321.2,-139.37"/>
<text text-anchor="middle" x="184.5" y="-134.95" font-family="Times,serif" font-size="14.00">11, &#160;0.158</text>
</g>
<!-- 26 -->
<g id="node4" class="node">
<title>26</title>
<ellipse fill="none" stroke="black" cx="184.5" cy="-183" rx="23.85" ry="23.85"/>
<text text-anchor="middle" x="184.5" y="-178.32" font-family="Times,serif" font-size="14.00">26</text>
</g>
<!-- 1&#45;&gt;26 -->
<g id="edge3" class="edge">
<title>1&#45;&gt;26</title>
<path fill="none" stroke="green" d="M34.97,-130.57C40.92,-132.97 47.75,-135.66 54,-138 86.63,-150.19 124.27,-163.15 150.53,-172.01"/>
<polygon fill="green" stroke="green" points="149.36,-175.31 159.96,-175.18 151.59,-168.68 149.36,-175.31"/>
<text text-anchor="middle" x="92.25" y="-167.95" font-family="Times,serif" font-size="14.00">27, &#160;&#45;8.872</text>
</g>
<!-- 26&#45;&gt;4 -->
<g id="edge5" class="edge">
<title>26&#45;&gt;4</title>
<path fill="none" stroke="green" d="M207.69,-176.8C237.37,-168.5 289.99,-153.78 322.26,-144.76"/>
<polygon fill="green" stroke="green" points="323,-148.18 331.69,-142.12 321.11,-141.44 323,-148.18"/>
<text text-anchor="middle" x="276.75" y="-171.95" font-family="Times,serif" font-size="14.00">28, &#160;&#45;6.929</text>
</g>
<!-- 3 -->
<g id="node5" class="node">
<title>3</title>
<ellipse fill="none" stroke="black" cx="18" cy="-18" rx="18" ry="18"/>
<text text-anchor="middle" x="18" y="-13.32" font-family="Times,serif" font-size="14.00">3</text>
</g>
<!-- 3&#45;&gt;6 -->
<g id="edge4" class="edge">
<title>3&#45;&gt;6</title>
<path fill="none" stroke="green" d="M36.32,-18.46C71.28,-19.54 152.71,-22.86 220.5,-31.75 255.95,-36.4 296.32,-44.76 322.42,-50.59"/>
<polygon fill="green" stroke="green" points="321.34,-53.93 331.87,-52.73 322.89,-47.11 321.34,-53.93"/>
<text text-anchor="middle" x="184.5" y="-35.95" font-family="Times,serif" font-size="14.00">17, &#160;0.126</text>
</g>
<!-- 2 -->
<g id="node6" class="node">
<title>2</title>
<ellipse fill="none" stroke="black" cx="18" cy="-178" rx="18" ry="18"/>
<text text-anchor="middle" x="18" y="-173.32" font-family="Times,serif" font-size="14.00">2</text>
</g>
<!-- 5 -->
<g id="node7" class="node">
<title>5</title>
<ellipse fill="none" stroke="black" cx="351" cy="-191" rx="18" ry="18"/>
<text text-anchor="middle" x="351" y="-186.32" font-family="Times,serif" font-size="14.00">5</text>
</g>
</g>
</svg>
