<?xml version="1.0" encoding="UTF-8" standalone="no"?>
<!DOCTYPE svg PUBLIC "-//W3C//DTD SVG 1.1//EN"
 "http://www.w3.org/Graphics/SVG/1.1/DTD/svg11.dtd">
<!-- Generated by graphviz version 10.0.1 (0)
 -->
<!-- Pages: 1 -->
<svg width="1066pt" height="293pt"
 viewBox="0.00 0.00 1065.50 292.73" xmlns="http://www.w3.org/2000/svg" xmlns:xlink="http://www.w3.org/1999/xlink">
<g id="graph0" class="graph" transform="scale(1 1) rotate(0) translate(4 288.73)">
<polygon fill="white" stroke="none" points="-4,4 -4,-288.73 1061.5,-288.73 1061.5,4 -4,4"/>
<!-- 1 -->
<g id="node1" class="node">
<title>1</title>
<ellipse fill="none" stroke="green" cx="18" cy="-139.48" rx="18" ry="18"/>
<text text-anchor="middle" x="18" y="-134.8" font-family="Times,serif" font-size="14.00">1</text>
</g>
<!-- 2 -->
<g id="node2" class="node">
<title>2</title>
<ellipse fill="none" stroke="green" cx="1039.5" cy="-174.48" rx="18" ry="18"/>
<text text-anchor="middle" x="1039.5" y="-169.8" font-family="Times,serif" font-size="14.00">2</text>
</g>
<!-- 1&#45;&gt;2 -->
<g id="edge1" class="edge">
<title>1&#45;&gt;2</title>
<path fill="none" stroke="green" d="M24.46,-156.49C29.89,-170.98 39.51,-191.45 54,-204.48 109.07,-253.99 134.2,-267.48 208.25,-267.48 208.25,-267.48 208.25,-267.48 847,-267.48 920.44,-267.48 942.45,-255.29 1003.5,-214.48 1010.2,-210 1016.4,-203.92 1021.67,-197.85"/>
<polygon fill="green" stroke="green" points="1024.17,-200.33 1027.71,-190.34 1018.71,-195.94 1024.17,-200.33"/>
<text text-anchor="middle" x="526.5" y="-271.43" font-family="Times,serif" font-size="14.00">3, &#160;0.004</text>
</g>
<!-- 178 -->
<g id="node3" class="node">
<title>178</title>
<ellipse fill="none" stroke="green" cx="425.25" cy="-81.48" rx="30.16" ry="30.16"/>
<text text-anchor="middle" x="425.25" y="-76.8" font-family="Times,serif" font-size="14.00">178</text>
</g>
<!-- 1&#45;&gt;178 -->
<g id="edge2" class="edge">
<title>1&#45;&gt;178</title>
<path fill="none" stroke="green" d="M34.77,-132.28C40.7,-129.81 47.56,-127.23 54,-125.48 170.89,-93.59 314.78,-84.81 383.7,-82.39"/>
<polygon fill="green" stroke="green" points="383.49,-85.9 393.37,-82.08 383.27,-78.91 383.49,-85.9"/>
<text text-anchor="middle" x="209.25" y="-105.43" font-family="Times,serif" font-size="14.00">179, &#160;&#45;0.895</text>
</g>
<!-- 1196 -->
<g id="node4" class="node">
<title>1196</title>
<ellipse fill="none" stroke="green" cx="209.25" cy="-203.48" rx="36.48" ry="36.48"/>
<text text-anchor="middle" x="209.25" y="-198.8" font-family="Times,serif" font-size="14.00">1196</text>
</g>
<!-- 1&#45;&gt;1196 -->
<g id="edge3" class="edge">
<title>1&#45;&gt;1196</title>
<path fill="none" stroke="green" d="M34.94,-146.12C40.89,-148.52 47.72,-151.21 54,-153.48 90.43,-166.65 132.26,-180.11 163.16,-189.74"/>
<polygon fill="green" stroke="green" points="161.99,-193.04 172.58,-192.66 164.06,-186.35 161.99,-193.04"/>
<text text-anchor="middle" x="101.25" y="-187.43" font-family="Times,serif" font-size="14.00">1197, &#160;&#45;0.638</text>
</g>
<!-- 1999 -->
<g id="node5" class="node">
<title>1999</title>
<ellipse fill="none" stroke="green" cx="627.75" cy="-138.48" rx="36.48" ry="36.48"/>
<text text-anchor="middle" x="627.75" y="-133.8" font-family="Times,serif" font-size="14.00">1999</text>
</g>
<!-- 1&#45;&gt;1999 -->
<g id="edge4" class="edge">
<title>1&#45;&gt;1999</title>
<path fill="none" stroke="green" d="M36.21,-139.45C116.3,-139.32 453.95,-138.76 579.49,-138.55"/>
<polygon fill="green" stroke="green" points="579.45,-142.05 589.44,-138.54 579.44,-135.05 579.45,-142.05"/>
<text text-anchor="middle" x="315" y="-142.43" font-family="Times,serif" font-size="14.00">2010, &#160;1.293</text>
</g>
<!-- 3428 -->
<g id="node6" class="node">
<title>3428</title>
<ellipse fill="none" stroke="green" cx="846" cy="-36.48" rx="36.48" ry="36.48"/>
<text text-anchor="middle" x="846" y="-31.8" font-family="Times,serif" font-size="14.00">3428</text>
</g>
<!-- 1&#45;&gt;3428 -->
<g id="edge5" class="edge">
<title>1&#45;&gt;3428</title>
<path fill="none" stroke="green" d="M29.75,-125.84C56.31,-93.82 128.7,-16.48 208.25,-16.48 208.25,-16.48 208.25,-16.48 628.75,-16.48 687.42,-16.48 754.65,-23.87 798.37,-29.66"/>
<polygon fill="green" stroke="green" points="797.63,-33.09 808.01,-30.97 798.57,-26.16 797.63,-33.09"/>
<text text-anchor="middle" x="425.25" y="-20.43" font-family="Times,serif" font-size="14.00">3431, &#160;&#45;1.627</text>
</g>
<!-- 178&#45;&gt;1999 -->
<g id="edge8" class="edge">
<title>178&#45;&gt;1999</title>
<path fill="none" stroke="green" d="M455.49,-85.09C483.44,-89.04 526.54,-96.43 562.5,-108.23 569.82,-110.63 577.39,-113.66 584.66,-116.87"/>
<polygon fill="green" stroke="green" points="583.11,-120.01 593.65,-121.02 586.04,-113.65 583.11,-120.01"/>
<text text-anchor="middle" x="526.5" y="-112.43" font-family="Times,serif" font-size="14.00">2000, &#160;1.0</text>
</g>
<!-- 178&#45;&gt;3428 -->
<g id="edge9" class="edge">
<title>178&#45;&gt;3428</title>
<path fill="none" stroke="green" d="M455.7,-78.31C527.33,-70.61 711.2,-50.86 798.13,-41.51"/>
<polygon fill="green" stroke="green" points="798.41,-45 807.97,-40.46 797.66,-38.04 798.41,-45"/>
<text text-anchor="middle" x="627.75" y="-68.43" font-family="Times,serif" font-size="14.00">3429, &#160;1.08</text>
</g>
<!-- 1196&#45;&gt;2 -->
<g id="edge6" class="edge">
<title>1196&#45;&gt;2</title>
<path fill="none" stroke="green" d="M245.78,-207.76C288.19,-212.5 361.29,-219.48 424.25,-219.48 424.25,-219.48 424.25,-219.48 847,-219.48 907.09,-219.48 975.05,-198.22 1011.67,-184.92"/>
<polygon fill="green" stroke="green" points="1012.84,-188.22 1020.99,-181.45 1010.4,-181.66 1012.84,-188.22"/>
<text text-anchor="middle" x="627.75" y="-223.43" font-family="Times,serif" font-size="14.00">1198, &#160;&#45;0.425</text>
</g>
<!-- 1196&#45;&gt;178 -->
<g id="edge7" class="edge">
<title>1196&#45;&gt;178</title>
<path fill="none" stroke="green" d="M244.9,-194.7C286.03,-184.1 350.3,-166.89 360,-160.48 376.98,-149.26 391.68,-132.16 402.72,-116.73"/>
<polygon fill="green" stroke="green" points="405.48,-118.89 408.25,-108.66 399.71,-114.93 405.48,-118.89"/>
<text text-anchor="middle" x="315" y="-191.43" font-family="Times,serif" font-size="14.00">1203, &#160;0.768</text>
</g>
<!-- 1999&#45;&gt;2 -->
<g id="edge11" class="edge">
<title>1999&#45;&gt;2</title>
<path fill="none" stroke="green" d="M663.62,-146.41C673.11,-148.33 683.41,-150.19 693,-151.48 809.82,-167.11 950.35,-172.29 1009.75,-173.86"/>
<polygon fill="green" stroke="green" points="1009.57,-177.35 1019.65,-174.1 1009.74,-170.35 1009.57,-177.35"/>
<text text-anchor="middle" x="846" y="-172.43" font-family="Times,serif" font-size="14.00">2009, &#160;0.247</text>
</g>
<!-- 34 -->
<g id="node7" class="node">
<title>34</title>
<ellipse fill="none" stroke="green" cx="846" cy="-114.48" rx="23.85" ry="23.85"/>
<text text-anchor="middle" x="846" y="-109.8" font-family="Times,serif" font-size="14.00">34</text>
</g>
<!-- 1999&#45;&gt;34 -->
<g id="edge10" class="edge">
<title>1999&#45;&gt;34</title>
<path fill="none" stroke="green" d="M664.46,-134.51C704.99,-130.02 770.64,-122.73 810.61,-118.29"/>
<polygon fill="green" stroke="green" points="810.84,-121.79 820.39,-117.21 810.07,-114.83 810.84,-121.79"/>
<text text-anchor="middle" x="738" y="-134.43" font-family="Times,serif" font-size="14.00">2001, &#160;0.708</text>
</g>
<!-- 3428&#45;&gt;2 -->
<g id="edge13" class="edge">
<title>3428&#45;&gt;2</title>
<path fill="none" stroke="green" d="M882.23,-42.18C916.96,-49.46 969.63,-65.17 1003.5,-97.23 1017.27,-110.26 1026.04,-129.72 1031.36,-145.85"/>
<polygon fill="green" stroke="green" points="1028,-146.83 1034.21,-155.42 1034.71,-144.83 1028,-146.83"/>
<text text-anchor="middle" x="956.25" y="-101.43" font-family="Times,serif" font-size="14.00">3430, &#160;&#45;1.143</text>
</g>
<!-- 34&#45;&gt;2 -->
<g id="edge12" class="edge">
<title>34&#45;&gt;2</title>
<path fill="none" stroke="green" d="M870.23,-114.87C901.91,-116.25 959.71,-121.79 1003.5,-143.23 1008.94,-145.89 1014.17,-149.64 1018.86,-153.63"/>
<polygon fill="green" stroke="green" points="1016.31,-156.03 1026,-160.31 1021.09,-150.92 1016.31,-156.03"/>
<text text-anchor="middle" x="956.25" y="-146.43" font-family="Times,serif" font-size="14.00">36, &#160;&#45;1.752</text>
</g>
</g>
</svg>
