<?xml version="1.0" encoding="UTF-8" standalone="no"?>
<!DOCTYPE svg PUBLIC "-//W3C//DTD SVG 1.1//EN"
 "http://www.w3.org/Graphics/SVG/1.1/DTD/svg11.dtd">
<!-- Generated by graphviz version 10.0.1 (0)
 -->
<!-- Pages: 1 -->
<svg width="2581pt" height="1452pt"
 viewBox="0.00 0.00 2581.32 1452.25" xmlns="http://www.w3.org/2000/svg" xmlns:xlink="http://www.w3.org/1999/xlink">
<g id="graph0" class="graph" transform="scale(1 1) rotate(0) translate(4 1448.25)">
<polygon fill="white" stroke="none" points="-4,4 -4,-1448.25 2577.32,-1448.25 2577.32,4 -4,4"/>
<!-- 1 -->
<g id="node1" class="node">
<title>1</title>
<ellipse fill="none" stroke="green" cx="18" cy="-1108" rx="18" ry="18"/>
<text text-anchor="middle" x="18" y="-1103.33" font-family="Times,serif" font-size="14.00">1</text>
</g>
<!-- 312 -->
<g id="node2" class="node">
<title>312</title>
<ellipse fill="none" stroke="green" cx="608.45" cy="-982" rx="30.16" ry="30.16"/>
<text text-anchor="middle" x="608.45" y="-977.33" font-family="Times,serif" font-size="14.00">312</text>
</g>
<!-- 1&#45;&gt;312 -->
<g id="edge1" class="edge">
<title>1&#45;&gt;312</title>
<path fill="none" stroke="green" d="M35.98,-1104.79C92.44,-1094.07 279.06,-1058.47 432.95,-1027 483.04,-1016.76 496.16,-1016.56 545.45,-1003 553.04,-1000.91 561.05,-998.42 568.71,-995.89"/>
<polygon fill="green" stroke="green" points="569.8,-999.22 578.15,-992.7 567.55,-992.59 569.8,-999.22"/>
<text text-anchor="middle" x="277.7" y="-1070.95" font-family="Times,serif" font-size="14.00">329, &#160;&#45;1.689</text>
</g>
<!-- 172 -->
<g id="node3" class="node">
<title>172</title>
<ellipse fill="none" stroke="green" cx="1265.45" cy="-876" rx="30.16" ry="30.16"/>
<text text-anchor="middle" x="1265.45" y="-871.33" font-family="Times,serif" font-size="14.00">172</text>
</g>
<!-- 1&#45;&gt;172 -->
<g id="edge2" class="edge">
<title>1&#45;&gt;172</title>
<path fill="none" stroke="green" d="M35.81,-1110.79C64.97,-1115.37 126.84,-1124 179.48,-1124 179.48,-1124 179.48,-1124 609.45,-1124 727.58,-1124 765.22,-1144.15 873.95,-1098 944.04,-1068.25 936.45,-1021.25 1004.45,-987 1085.14,-946.36 1123.99,-985.78 1202.45,-941 1216.48,-932.99 1229.31,-920.82 1239.61,-909.17"/>
<polygon fill="green" stroke="green" points="1242.23,-911.49 1246,-901.59 1236.88,-906.98 1242.23,-911.49"/>
<text text-anchor="middle" x="608.45" y="-1127.95" font-family="Times,serif" font-size="14.00">187, &#160;1.547</text>
</g>
<!-- 184 -->
<g id="node4" class="node">
<title>184</title>
<ellipse fill="none" stroke="green" cx="1701.95" cy="-949" rx="30.16" ry="30.16"/>
<text text-anchor="middle" x="1701.95" y="-944.33" font-family="Times,serif" font-size="14.00">184</text>
</g>
<!-- 1&#45;&gt;184 -->
<g id="edge3" class="edge">
<title>1&#45;&gt;184</title>
<path fill="none" stroke="green" d="M23.53,-1125.49C28.65,-1142.51 38.37,-1168.32 54,-1186 97.19,-1234.85 114.28,-1262 179.48,-1262 179.48,-1262 179.48,-1262 1050.45,-1262 1187.81,-1262 1539.29,-1167.52 1638.95,-1073 1663.2,-1050 1679.39,-1015.46 1689.12,-988.68"/>
<polygon fill="green" stroke="green" points="1692.33,-990.12 1692.29,-979.53 1685.71,-987.83 1692.33,-990.12"/>
<text text-anchor="middle" x="826.7" y="-1265.95" font-family="Times,serif" font-size="14.00">190, &#160;0.201</text>
</g>
<!-- 3761 -->
<g id="node5" class="node">
<title>3761</title>
<ellipse fill="none" stroke="green" cx="1922.45" cy="-713" rx="36.48" ry="36.48"/>
<text text-anchor="middle" x="1922.45" y="-708.33" font-family="Times,serif" font-size="14.00">3761</text>
</g>
<!-- 1&#45;&gt;3761 -->
<g id="edge4" class="edge">
<title>1&#45;&gt;3761</title>
<path fill="none" stroke="green" d="M20.24,-1126.2C22.81,-1152.12 30.6,-1200.14 54,-1233 93.36,-1288.28 111.62,-1320 179.48,-1320 179.48,-1320 179.48,-1320 1158.45,-1320 1447.53,-1320 1528.91,-1232.8 1746.95,-1043 1804.59,-992.83 1822.35,-979.8 1859.45,-913 1886.54,-864.24 1903.43,-802.08 1912.61,-760.11"/>
<polygon fill="green" stroke="green" points="1915.98,-761.08 1914.63,-750.58 1909.14,-759.63 1915.98,-761.08"/>
<text text-anchor="middle" x="939.2" y="-1323.95" font-family="Times,serif" font-size="14.00">3762, &#160;0.524</text>
</g>
<!-- 4432 -->
<g id="node6" class="node">
<title>4432</title>
<ellipse fill="none" stroke="green" cx="826.7" cy="-635" rx="36.48" ry="36.48"/>
<text text-anchor="middle" x="826.7" y="-630.33" font-family="Times,serif" font-size="14.00">4432</text>
</g>
<!-- 1&#45;&gt;4432 -->
<g id="edge5" class="edge">
<title>1&#45;&gt;4432</title>
<path fill="none" stroke="green" d="M21.69,-1090.22C25.65,-1068.99 34.78,-1033.31 54,-1009 83.52,-971.67 103.44,-975.9 144,-951 327.99,-838.05 374.35,-810.17 563.45,-706 610.81,-679.91 619.61,-665.34 671.45,-650 706.34,-639.68 747.41,-636.08 778.4,-634.97"/>
<polygon fill="green" stroke="green" points="778.33,-638.48 788.23,-634.71 778.14,-631.48 778.33,-638.48"/>
<text text-anchor="middle" x="385.7" y="-836.95" font-family="Times,serif" font-size="14.00">4433, &#160;&#45;0.489</text>
</g>
<!-- 380 -->
<g id="node7" class="node">
<title>380</title>
<ellipse fill="none" stroke="green" cx="2134.43" cy="-625" rx="30.16" ry="30.16"/>
<text text-anchor="middle" x="2134.43" y="-620.33" font-family="Times,serif" font-size="14.00">380</text>
</g>
<!-- 1&#45;&gt;380 -->
<g id="edge6" class="edge">
<title>1&#45;&gt;380</title>
<path fill="none" stroke="green" d="M20.08,-1126.31C25,-1191.45 51.01,-1408 179.48,-1408 179.48,-1408 179.48,-1408 1266.45,-1408 1410.81,-1408 1446.35,-1389 1590.7,-1389 1590.7,-1389 1590.7,-1389 1923.45,-1389 1982.33,-1389 2059.1,-1301.47 2079.95,-1258 2130.33,-1153 2133.98,-790.46 2133.72,-666.75"/>
<polygon fill="green" stroke="green" points="2137.22,-667.04 2133.69,-657.05 2130.22,-667.06 2137.22,-667.04"/>
<text text-anchor="middle" x="1049.45" y="-1411.95" font-family="Times,serif" font-size="14.00">407, &#160;0.751</text>
</g>
<!-- 661 -->
<g id="node8" class="node">
<title>661</title>
<ellipse fill="none" stroke="green" cx="608.45" cy="-218" rx="30.16" ry="30.16"/>
<text text-anchor="middle" x="608.45" y="-213.32" font-family="Times,serif" font-size="14.00">661</text>
</g>
<!-- 1&#45;&gt;661 -->
<g id="edge7" class="edge">
<title>1&#45;&gt;661</title>
<path fill="none" stroke="green" d="M19.47,-1089.75C21.68,-1009.01 31.85,-686.05 54,-647 97.74,-569.9 146.17,-585.36 216.95,-532 353.63,-428.98 510.88,-298.84 576.34,-244.12"/>
<polygon fill="green" stroke="green" points="578.38,-246.98 583.8,-237.88 573.88,-241.62 578.38,-246.98"/>
<text text-anchor="middle" x="277.7" y="-520.95" font-family="Times,serif" font-size="14.00">779, &#160;0.853</text>
</g>
<!-- 7464 -->
<g id="node9" class="node">
<title>7464</title>
<ellipse fill="none" stroke="green" cx="608.45" cy="-476" rx="36.48" ry="36.48"/>
<text text-anchor="middle" x="608.45" y="-471.32" font-family="Times,serif" font-size="14.00">7464</text>
</g>
<!-- 1&#45;&gt;7464 -->
<g id="edge8" class="edge">
<title>1&#45;&gt;7464</title>
<path fill="none" stroke="green" d="M19.46,-1089.58C21.48,-1014.41 30.58,-733.4 54,-702 105.68,-632.72 151.2,-652.1 234.95,-630.75 369.71,-596.39 430.84,-670.76 545.45,-592 569.39,-575.55 584.84,-546.82 594.34,-522.06"/>
<polygon fill="green" stroke="green" points="597.57,-523.41 597.66,-512.81 590.99,-521.04 597.57,-523.41"/>
<text text-anchor="middle" x="277.7" y="-634.95" font-family="Times,serif" font-size="14.00">7465, &#160;1.0</text>
</g>
<!-- 8126 -->
<g id="node10" class="node">
<title>8126</title>
<ellipse fill="none" stroke="green" cx="180.48" cy="-996" rx="36.48" ry="36.48"/>
<text text-anchor="middle" x="180.48" y="-991.33" font-family="Times,serif" font-size="14.00">8126</text>
</g>
<!-- 1&#45;&gt;8126 -->
<g id="edge9" class="edge">
<title>1&#45;&gt;8126</title>
<path fill="none" stroke="green" d="M26.06,-1091.36C31.99,-1079.06 41.51,-1062.62 54,-1051.75 77.05,-1031.69 108.48,-1017.74 134.11,-1008.81"/>
<polygon fill="green" stroke="green" points="134.88,-1012.25 143.27,-1005.77 132.67,-1005.6 134.88,-1012.25"/>
<text text-anchor="middle" x="90" y="-1055.95" font-family="Times,serif" font-size="14.00">8127, &#160;1.0</text>
</g>
<!-- 9004 -->
<g id="node11" class="node">
<title>9004</title>
<ellipse fill="none" stroke="green" cx="277.7" cy="-1188" rx="36.48" ry="36.48"/>
<text text-anchor="middle" x="277.7" y="-1183.33" font-family="Times,serif" font-size="14.00">9004</text>
</g>
<!-- 1&#45;&gt;9004 -->
<g id="edge10" class="edge">
<title>1&#45;&gt;9004</title>
<path fill="none" stroke="green" d="M30.87,-1120.76C37.19,-1126.83 45.41,-1133.7 54,-1138 110.49,-1166.32 183.03,-1178.76 229.7,-1184.12"/>
<polygon fill="green" stroke="green" points="229.16,-1187.58 239.47,-1185.17 229.91,-1180.62 229.16,-1187.58"/>
<text text-anchor="middle" x="90" y="-1168.95" font-family="Times,serif" font-size="14.00">9005, &#160;1.0</text>
</g>
<!-- 312&#45;&gt;3761 -->
<g id="edge25" class="edge">
<title>312&#45;&gt;3761</title>
<path fill="none" stroke="green" d="M635.33,-996.76C667.88,-1014.63 726.02,-1044.31 779.45,-1060 1015.92,-1129.44 1082.62,-1120.62 1328.45,-1138 1416.52,-1144.22 1441.58,-1146.31 1526.45,-1122 1636.7,-1090.43 1670.08,-1073.09 1746.95,-988 1813.51,-914.34 1870.85,-812.36 1900.31,-755.56"/>
<polygon fill="green" stroke="green" points="1903.33,-757.34 1904.79,-746.84 1897.11,-754.14 1903.33,-757.34"/>
<text text-anchor="middle" x="1265.45" y="-1140.95" font-family="Times,serif" font-size="14.00">3782, &#160;0.853</text>
</g>
<!-- 312&#45;&gt;380 -->
<g id="edge20" class="edge">
<title>312&#45;&gt;380</title>
<path fill="none" stroke="green" d="M627.99,-1005.41C639.57,-1019.12 655.31,-1036.2 671.45,-1049 752.56,-1113.3 784.67,-1111.64 873.95,-1164 1021.92,-1250.78 1053.51,-1294.56 1220.45,-1334 1333.15,-1360.63 1364.65,-1351 1480.45,-1351 1480.45,-1351 1480.45,-1351 1923.45,-1351 2035.97,-1351 2037.82,-1256.33 2079.95,-1152 2115.47,-1064.05 2128.47,-775.7 2132.18,-666.98"/>
<polygon fill="green" stroke="green" points="2135.68,-667.16 2132.51,-657.05 2128.68,-666.92 2135.68,-667.16"/>
<text text-anchor="middle" x="1373.45" y="-1356.95" font-family="Times,serif" font-size="14.00">390, &#160;&#45;1.389</text>
</g>
<!-- 2277 -->
<g id="node13" class="node">
<title>2277</title>
<ellipse fill="none" stroke="green" cx="1049.45" cy="-611" rx="36.48" ry="36.48"/>
<text text-anchor="middle" x="1049.45" y="-606.33" font-family="Times,serif" font-size="14.00">2277</text>
</g>
<!-- 312&#45;&gt;2277 -->
<g id="edge21" class="edge">
<title>312&#45;&gt;2277</title>
<path fill="none" stroke="green" d="M629.12,-959.58C640.97,-946.45 656.59,-929.8 671.45,-916 789.24,-806.62 941.03,-690.74 1010.59,-638.9"/>
<polygon fill="green" stroke="green" points="1012.3,-641.99 1018.24,-633.21 1008.13,-636.37 1012.3,-641.99"/>
<text text-anchor="middle" x="826.7" y="-822.95" font-family="Times,serif" font-size="14.00">2278, &#160;&#45;0.365</text>
</g>
<!-- 1599 -->
<g id="node17" class="node">
<title>1599</title>
<ellipse fill="none" stroke="green" cx="2134.43" cy="-345" rx="36.48" ry="36.48"/>
<text text-anchor="middle" x="2134.43" y="-340.32" font-family="Times,serif" font-size="14.00">1599</text>
</g>
<!-- 312&#45;&gt;1599 -->
<g id="edge22" class="edge">
<title>312&#45;&gt;1599</title>
<path fill="none" stroke="green" d="M638.95,-979.6C756.03,-969.96 1182.53,-933.52 1202.45,-913 1234.63,-879.88 1198.07,-746.38 1220.45,-706 1273.85,-609.68 1333.84,-627.49 1418.45,-557 1476.94,-508.28 1476.01,-474.3 1544.45,-441 1729.92,-350.76 1983.1,-342.82 2086.53,-343.74"/>
<polygon fill="green" stroke="green" points="2086.25,-347.24 2096.29,-343.87 2086.34,-340.24 2086.25,-347.24"/>
<text text-anchor="middle" x="1373.45" y="-615.95" font-family="Times,serif" font-size="14.00">1755, &#160;1.887</text>
</g>
<!-- 4582 -->
<g id="node18" class="node">
<title>4582</title>
<ellipse fill="none" stroke="green" cx="1049.45" cy="-1032" rx="36.48" ry="36.48"/>
<text text-anchor="middle" x="1049.45" y="-1027.33" font-family="Times,serif" font-size="14.00">4582</text>
</g>
<!-- 312&#45;&gt;4582 -->
<g id="edge23" class="edge">
<title>312&#45;&gt;4582</title>
<path fill="none" stroke="green" d="M638.97,-980.87C688.01,-979.44 789.27,-978.38 873.95,-989.75 918.56,-995.74 968.35,-1008.41 1003.3,-1018.32"/>
<polygon fill="green" stroke="green" points="1002.06,-1021.61 1012.64,-1021.01 1004,-1014.88 1002.06,-1021.61"/>
<text text-anchor="middle" x="826.7" y="-993.95" font-family="Times,serif" font-size="14.00">4583, &#160;1.0</text>
</g>
<!-- 7630 -->
<g id="node19" class="node">
<title>7630</title>
<ellipse fill="none" stroke="green" cx="1049.45" cy="-1198" rx="36.48" ry="36.48"/>
<text text-anchor="middle" x="1049.45" y="-1193.33" font-family="Times,serif" font-size="14.00">7630</text>
</g>
<!-- 312&#45;&gt;7630 -->
<g id="edge24" class="edge">
<title>312&#45;&gt;7630</title>
<path fill="none" stroke="green" d="M635.93,-995.03C709.39,-1031.17 916.29,-1132.97 1006.04,-1177.13"/>
<polygon fill="green" stroke="green" points="1004.26,-1180.15 1014.77,-1181.43 1007.35,-1173.87 1004.26,-1180.15"/>
<text text-anchor="middle" x="826.7" y="-1115.95" font-family="Times,serif" font-size="14.00">7631, &#160;1.272</text>
</g>
<!-- 172&#45;&gt;184 -->
<g id="edge57" class="edge">
<title>172&#45;&gt;184</title>
<path fill="none" stroke="green" d="M1295.25,-883.08C1340.04,-894.07 1422.68,-914.26 1436.45,-917 1484.11,-926.48 1496.25,-927.9 1544.45,-934 1583.59,-938.95 1628.42,-943.09 1660.04,-945.76"/>
<polygon fill="green" stroke="green" points="1659.71,-949.25 1669.97,-946.59 1660.29,-942.27 1659.71,-949.25"/>
<text text-anchor="middle" x="1481.45" y="-935.95" font-family="Times,serif" font-size="14.00">185, &#160;&#45;0.725</text>
</g>
<!-- 172&#45;&gt;3761 -->
<g id="edge61" class="edge">
<title>172&#45;&gt;3761</title>
<path fill="none" stroke="green" d="M1286.44,-854.07C1300.67,-838.98 1318.89,-820.83 1328.45,-816 1381.86,-789.04 1800.75,-738.54 1859.45,-727 1864.66,-725.98 1870.1,-724.84 1875.5,-723.68"/>
<polygon fill="green" stroke="green" points="1875.95,-727.16 1884.96,-721.59 1874.45,-720.33 1875.95,-727.16"/>
<text text-anchor="middle" x="1591.7" y="-776.95" font-family="Times,serif" font-size="14.00">3774, &#160;0.457</text>
</g>
<!-- 172&#45;&gt;380 -->
<g id="edge58" class="edge">
<title>172&#45;&gt;380</title>
<path fill="none" stroke="green" d="M1283.93,-900.15C1350.72,-989.24 1599.15,-1291.83 1859.45,-1243 1980.28,-1220.33 2029.22,-1187.98 2079.95,-1076 2112.83,-1003.44 2127.13,-764.43 2131.69,-666.95"/>
<polygon fill="green" stroke="green" points="2135.18,-667.17 2132.14,-657.02 2128.19,-666.86 2135.18,-667.17"/>
<text text-anchor="middle" x="1701.95" y="-1246.95" font-family="Times,serif" font-size="14.00">400, &#160;0.243</text>
</g>
<!-- 4388 -->
<g id="node16" class="node">
<title>4388</title>
<ellipse fill="none" stroke="green" cx="1481.45" cy="-1021" rx="36.48" ry="36.48"/>
<text text-anchor="middle" x="1481.45" y="-1016.33" font-family="Times,serif" font-size="14.00">4388</text>
</g>
<!-- 172&#45;&gt;4388 -->
<g id="edge60" class="edge">
<title>172&#45;&gt;4388</title>
<path fill="none" stroke="green" d="M1291.69,-891.74C1302.67,-898.09 1315.89,-905.06 1328.45,-910 1366.85,-925.1 1386.48,-906.68 1418.45,-932.75 1432.7,-944.37 1426.36,-954.63 1436.45,-970 1440.03,-975.45 1444.14,-980.94 1448.37,-986.2"/>
<polygon fill="green" stroke="green" points="1445.48,-988.2 1454.57,-993.62 1450.85,-983.71 1445.48,-988.2"/>
<text text-anchor="middle" x="1373.45" y="-936.95" font-family="Times,serif" font-size="14.00">4389, &#160;1.259</text>
</g>
<!-- 172&#45;&gt;1599 -->
<g id="edge59" class="edge">
<title>172&#45;&gt;1599</title>
<path fill="none" stroke="green" d="M1290.66,-859.06C1301.69,-852.23 1315.21,-845.03 1328.45,-841 1652.94,-742.22 1874.84,-978.14 2079.95,-708 2079.95,-708 2111.99,-490.51 2126.47,-392.23"/>
<polygon fill="green" stroke="green" points="2129.89,-393.03 2127.89,-382.63 2122.97,-392.01 2129.89,-393.03"/>
<text text-anchor="middle" x="1701.95" y="-842.95" font-family="Times,serif" font-size="14.00">1768, &#160;0.845</text>
</g>
<!-- 66 -->
<g id="node22" class="node">
<title>66</title>
<ellipse fill="none" stroke="green" cx="1701.95" cy="-516" rx="23.85" ry="23.85"/>
<text text-anchor="middle" x="1701.95" y="-511.32" font-family="Times,serif" font-size="14.00">66</text>
</g>
<!-- 172&#45;&gt;66 -->
<g id="edge56" class="edge">
<title>172&#45;&gt;66</title>
<path fill="none" stroke="green" d="M1279.84,-849.42C1290.59,-830.6 1307.36,-806.09 1328.45,-791 1362.52,-766.62 1391.49,-795.06 1418.45,-763 1458.34,-715.58 1398.7,-673.89 1436.45,-624.75 1443.98,-614.96 1599.52,-554.72 1668.5,-528.35"/>
<polygon fill="green" stroke="green" points="1669.66,-531.65 1677.76,-524.81 1667.17,-525.11 1669.66,-531.65"/>
<text text-anchor="middle" x="1481.45" y="-628.95" font-family="Times,serif" font-size="14.00">174, &#160;&#45;1.037</text>
</g>
<!-- 184&#45;&gt;3761 -->
<g id="edge71" class="edge">
<title>184&#45;&gt;3761</title>
<path fill="none" stroke="green" d="M1717.21,-922.77C1726.69,-904.48 1738.84,-879.28 1746.95,-856 1758.56,-822.71 1740.12,-803.77 1764.95,-778.75 1795.39,-748.09 1820.03,-773.67 1859.45,-756 1867.87,-752.23 1876.34,-747.28 1884.21,-742.09"/>
<polygon fill="green" stroke="green" points="1885.97,-745.12 1892.21,-736.56 1881.99,-739.37 1885.97,-745.12"/>
<text text-anchor="middle" x="1812.2" y="-782.95" font-family="Times,serif" font-size="14.00">3793, &#160;0.632</text>
</g>
<!-- 3761&#45;&gt;380 -->
<g id="edge73" class="edge">
<title>3761&#45;&gt;380</title>
<path fill="none" stroke="green" d="M1956.26,-699.25C1994.01,-683.43 2055.88,-657.5 2095.61,-640.85"/>
<polygon fill="green" stroke="green" points="2096.93,-644.09 2104.8,-637 2094.22,-637.64 2096.93,-644.09"/>
<text text-anchor="middle" x="2032.7" y="-690.95" font-family="Times,serif" font-size="14.00">3795, &#160;&#45;0.361</text>
</g>
<!-- 3761&#45;&gt;1599 -->
<g id="edge74" class="edge">
<title>3761&#45;&gt;1599</title>
<path fill="none" stroke="green" d="M1941.36,-681.62C1979.2,-615.31 2067.31,-460.88 2109.75,-386.5"/>
<polygon fill="green" stroke="green" points="2112.76,-388.29 2114.67,-377.87 2106.68,-384.82 2112.76,-388.29"/>
<text text-anchor="middle" x="2032.7" y="-608.95" font-family="Times,serif" font-size="14.00">3778, &#160;0.913</text>
</g>
<!-- 3 -->
<g id="node20" class="node">
<title>3</title>
<ellipse fill="none" stroke="green" cx="2536.84" cy="-625" rx="18" ry="18"/>
<text text-anchor="middle" x="2536.84" y="-620.33" font-family="Times,serif" font-size="14.00">3</text>
</g>
<!-- 3761&#45;&gt;3 -->
<g id="edge72" class="edge">
<title>3761&#45;&gt;3</title>
<path fill="none" stroke="green" d="M1959.25,-712.86C1991.01,-712.49 2038.63,-711.36 2079.95,-708 2209.48,-697.47 2241.79,-692.02 2369.86,-670 2420.25,-661.34 2433.4,-660.73 2482.36,-646 2491.39,-643.28 2501.05,-639.71 2509.64,-636.28"/>
<polygon fill="green" stroke="green" points="2510.85,-639.56 2518.77,-632.52 2508.19,-633.09 2510.85,-639.56"/>
<text text-anchor="middle" x="2233.91" y="-701.95" font-family="Times,serif" font-size="14.00">3763, &#160;1.988</text>
</g>
<!-- 4432&#45;&gt;172 -->
<g id="edge40" class="edge">
<title>4432&#45;&gt;172</title>
<path fill="none" stroke="green" d="M855.08,-658.67C862.33,-666.34 869.4,-675.38 873.95,-685 898.91,-737.72 851.22,-773.25 891.95,-815 914.97,-838.59 1131.86,-862.78 1223.69,-872.05"/>
<polygon fill="green" stroke="green" points="1223.22,-875.52 1233.52,-873.03 1223.91,-868.56 1223.22,-875.52"/>
<text text-anchor="middle" x="1049.45" y="-860.95" font-family="Times,serif" font-size="14.00">4483, &#160;0.199</text>
</g>
<!-- 4432&#45;&gt;3761 -->
<g id="edge44" class="edge">
<title>4432&#45;&gt;3761</title>
<path fill="none" stroke="green" d="M850.64,-663.16C862.07,-675.91 876.69,-690.45 891.95,-701 979.88,-761.77 1007.81,-775.21 1112.45,-797 1151.61,-805.15 1162.45,-797.19 1202.45,-797 1250.46,-796.78 1267.23,-816.88 1310.45,-796 1321.91,-790.47 1317.6,-780.39 1328.45,-773.75 1405.16,-726.8 1438.56,-751.03 1526.45,-732 1534.46,-730.27 1536.33,-729.06 1544.45,-728 1662.44,-712.67 1802.79,-711.54 1874.37,-712.18"/>
<polygon fill="green" stroke="green" points="1874.12,-715.68 1884.16,-712.29 1874.19,-708.68 1874.12,-715.68"/>
<text text-anchor="middle" x="1373.45" y="-777.95" font-family="Times,serif" font-size="14.00">4457, &#160;0.577</text>
</g>
<!-- 4432&#45;&gt;380 -->
<g id="edge41" class="edge">
<title>4432&#45;&gt;380</title>
<path fill="none" stroke="green" d="M862.59,-643.31C872.08,-645.37 882.38,-647.44 891.95,-649 989.25,-664.85 1014.02,-667.66 1112.45,-673 1152.4,-675.17 1162.98,-679.49 1202.45,-673 1302.45,-656.56 1342.13,-666.66 1418.45,-600 1432,-588.17 1421.17,-573.23 1436.45,-563.75 1492.37,-529.08 1952.86,-596.97 2093.07,-618.65"/>
<polygon fill="green" stroke="green" points="2092.21,-622.06 2102.63,-620.13 2093.28,-615.14 2092.21,-622.06"/>
<text text-anchor="middle" x="1481.45" y="-567.95" font-family="Times,serif" font-size="14.00">4444, &#160;0.527</text>
</g>
<!-- 4432&#45;&gt;2277 -->
<g id="edge39" class="edge">
<title>4432&#45;&gt;2277</title>
<path fill="none" stroke="green" d="M863.17,-631.14C900.63,-627.07 959.9,-620.63 1001.28,-616.13"/>
<polygon fill="green" stroke="green" points="1001.64,-619.61 1011.2,-615.05 1000.88,-612.65 1001.64,-619.61"/>
<text text-anchor="middle" x="939.2" y="-631.95" font-family="Times,serif" font-size="14.00">4434, &#160;&#45;0.544</text>
</g>
<!-- 4432&#45;&gt;4388 -->
<g id="edge43" class="edge">
<title>4432&#45;&gt;4388</title>
<path fill="none" stroke="green" d="M844.11,-667.52C854.02,-688.35 866.2,-716.22 873.95,-742 887.09,-785.66 861.79,-808.8 891.95,-843 901.31,-853.61 1298.9,-968.76 1435.18,-1007.99"/>
<polygon fill="green" stroke="green" points="1434.01,-1011.3 1444.58,-1010.7 1435.94,-1004.57 1434.01,-1011.3"/>
<text text-anchor="middle" x="1157.45" y="-942.95" font-family="Times,serif" font-size="14.00">4445, &#160;0.309</text>
</g>
<!-- 4432&#45;&gt;1599 -->
<g id="edge42" class="edge">
<title>4432&#45;&gt;1599</title>
<path fill="none" stroke="green" d="M851.78,-607.93C897.83,-557.61 1003.54,-448.97 1112.45,-385 1149.06,-363.5 1164.19,-371.39 1202.45,-353 1261.82,-324.47 1265.42,-294.11 1328.45,-275 1554.4,-206.51 1626.97,-218.89 1859.45,-260 1918.16,-270.38 1928.57,-288.16 1985.45,-306 2019.25,-316.6 2057.97,-326.73 2087.33,-334.01"/>
<polygon fill="green" stroke="green" points="2086.47,-337.41 2097.02,-336.4 2088.14,-330.61 2086.47,-337.41"/>
<text text-anchor="middle" x="1481.45" y="-249.95" font-family="Times,serif" font-size="14.00">4530, &#160;0.149</text>
</g>
<!-- 8912 -->
<g id="node27" class="node">
<title>8912</title>
<ellipse fill="none" stroke="green" cx="2333.38" cy="-625" rx="36.48" ry="36.48"/>
<text text-anchor="middle" x="2333.38" y="-620.33" font-family="Times,serif" font-size="14.00">8912</text>
</g>
<!-- 380&#45;&gt;8912 -->
<g id="edge77" class="edge">
<title>380&#45;&gt;8912</title>
<path fill="none" stroke="green" d="M2164.92,-625C2196.82,-625 2248.12,-625 2285.55,-625"/>
<polygon fill="green" stroke="green" points="2285.17,-628.5 2295.17,-625 2285.17,-621.5 2285.17,-628.5"/>
<text text-anchor="middle" x="2233.91" y="-628.95" font-family="Times,serif" font-size="14.00">8913, &#160;1.0</text>
</g>
<!-- 8951 -->
<g id="node28" class="node">
<title>8951</title>
<ellipse fill="none" stroke="green" cx="2333.38" cy="-168" rx="36.48" ry="36.48"/>
<text text-anchor="middle" x="2333.38" y="-163.32" font-family="Times,serif" font-size="14.00">8951</text>
</g>
<!-- 380&#45;&gt;8951 -->
<g id="edge78" class="edge">
<title>380&#45;&gt;8951</title>
<path fill="none" stroke="green" d="M2147.31,-597.44C2180.31,-520.87 2273.32,-305.06 2313.5,-211.82"/>
<polygon fill="green" stroke="green" points="2316.68,-213.29 2317.42,-202.72 2310.25,-210.52 2316.68,-213.29"/>
<text text-anchor="middle" x="2233.91" y="-493.95" font-family="Times,serif" font-size="14.00">8952, &#160;1.0</text>
</g>
<!-- 661&#45;&gt;184 -->
<g id="edge26" class="edge">
<title>661&#45;&gt;184</title>
<path fill="none" stroke="green" d="M637.37,-228.04C647.98,-231.7 660.21,-235.74 671.45,-239 955.66,-321.41 1063.51,-262.95 1310.45,-426 1361.66,-459.81 1389.58,-457.86 1418.45,-512 1464.62,-598.56 1390.92,-645.1 1436.45,-732 1450.08,-758 1600.41,-873.26 1668.17,-924.41"/>
<polygon fill="green" stroke="green" points="1665.86,-927.05 1675.95,-930.27 1670.07,-921.46 1665.86,-927.05"/>
<text text-anchor="middle" x="1157.45" y="-366.95" font-family="Times,serif" font-size="14.00">663, &#160;1.139</text>
</g>
<!-- 661&#45;&gt;4432 -->
<g id="edge29" class="edge">
<title>661&#45;&gt;4432</title>
<path fill="none" stroke="green" d="M623.05,-244.47C651.8,-300.4 720.92,-434.68 779.45,-547 787.22,-561.9 795.77,-578.2 803.38,-592.67"/>
<polygon fill="green" stroke="green" points="800.28,-594.29 808.03,-601.51 806.47,-591.03 800.28,-594.29"/>
<text text-anchor="middle" x="716.45" y="-515.95" font-family="Times,serif" font-size="14.00">4475, &#160;0.698</text>
</g>
<!-- 661&#45;&gt;380 -->
<g id="edge27" class="edge">
<title>661&#45;&gt;380</title>
<path fill="none" stroke="green" d="M638.62,-213.07C689.75,-204.67 798.97,-187.84 891.95,-181 1057.51,-168.82 1496.45,-89.86 1638.95,-175 1653.3,-183.57 1647.38,-194.31 1656.95,-208 1698.63,-267.63 1704.57,-290.42 1764.95,-331 1887.91,-413.63 1977.94,-332.57 2079.95,-440 2116.91,-478.92 2128.55,-541.77 2132.09,-583.24"/>
<polygon fill="green" stroke="green" points="2128.58,-583.36 2132.79,-593.08 2135.57,-582.86 2128.58,-583.36"/>
<text text-anchor="middle" x="1373.45" y="-142.95" font-family="Times,serif" font-size="14.00">673, &#160;1.907</text>
</g>
<!-- 661&#45;&gt;1599 -->
<g id="edge30" class="edge">
<title>661&#45;&gt;1599</title>
<path fill="none" stroke="green" d="M626.43,-193.43C637.55,-179.29 653.37,-162.5 671.45,-153 804.14,-83.34 855.26,-114.18 1004.45,-100 1285.25,-73.32 1366.49,-40.04 1638.95,-113 1846.14,-168.48 1892.28,-205.16 2079.95,-309 2084.91,-311.74 2089.99,-314.8 2094.96,-317.95"/>
<polygon fill="green" stroke="green" points="2092.76,-320.69 2103.04,-323.23 2096.58,-314.83 2092.76,-320.69"/>
<text text-anchor="middle" x="1373.45" y="-75.95" font-family="Times,serif" font-size="14.00">1738, &#160;0.828</text>
</g>
<!-- 661&#45;&gt;3 -->
<g id="edge28" class="edge">
<title>661&#45;&gt;3</title>
<path fill="none" stroke="green" d="M618.28,-189.23C627.42,-164.66 644.26,-130.59 671.45,-113 719.06,-82.22 240.6,-45 1372.45,-45 1372.45,-45 1372.45,-45 2135.43,-45 2239,-45 2222.5,-140.97 2296.91,-213 2376.6,-290.14 2426.64,-284.09 2482.36,-380 2522.9,-449.78 2532.77,-546.96 2535.13,-595.27"/>
<polygon fill="green" stroke="green" points="2531.63,-595.37 2535.53,-605.22 2538.63,-595.08 2531.63,-595.37"/>
<text text-anchor="middle" x="1591.7" y="-48.95" font-family="Times,serif" font-size="14.00">724, &#160;1.875</text>
</g>
<!-- 8918 -->
<g id="node21" class="node">
<title>8918</title>
<ellipse fill="none" stroke="green" cx="939.2" cy="-218" rx="36.48" ry="36.48"/>
<text text-anchor="middle" x="939.2" y="-213.32" font-family="Times,serif" font-size="14.00">8918</text>
</g>
<!-- 661&#45;&gt;8918 -->
<g id="edge31" class="edge">
<title>661&#45;&gt;8918</title>
<path fill="none" stroke="green" d="M638.92,-218C695.98,-218 822,-218 890.91,-218"/>
<polygon fill="green" stroke="green" points="890.76,-221.5 900.76,-218 890.76,-214.5 890.76,-221.5"/>
<text text-anchor="middle" x="716.45" y="-221.95" font-family="Times,serif" font-size="14.00">8919, &#160;1.0</text>
</g>
<!-- 7464&#45;&gt;184 -->
<g id="edge34" class="edge">
<title>7464&#45;&gt;184</title>
<path fill="none" stroke="green" d="M645.39,-476.7C713.13,-478.75 863.93,-486.75 986.45,-518 1086.11,-543.41 1356.38,-602 1418.45,-684 1444.72,-718.7 1408.35,-845.77 1436.45,-879 1440.16,-883.38 1588.87,-921 1661.64,-939.21"/>
<polygon fill="green" stroke="green" points="1660.62,-942.56 1671.17,-941.59 1662.31,-935.77 1660.62,-942.56"/>
<text text-anchor="middle" x="1157.45" y="-579.95" font-family="Times,serif" font-size="14.00">7479, &#160;0.389</text>
</g>
<!-- 7464&#45;&gt;4432 -->
<g id="edge35" class="edge">
<title>7464&#45;&gt;4432</title>
<path fill="none" stroke="green" d="M633.12,-503.35C644.15,-515.3 657.82,-529.05 671.45,-540 706.97,-568.52 751.67,-595.18 783.79,-612.95"/>
<polygon fill="green" stroke="green" points="781.97,-615.94 792.42,-617.67 785.33,-609.8 781.97,-615.94"/>
<text text-anchor="middle" x="716.45" y="-603.95" font-family="Times,serif" font-size="14.00">7477, &#160;0.028</text>
</g>
<!-- 7464&#45;&gt;380 -->
<g id="edge36" class="edge">
<title>7464&#45;&gt;380</title>
<path fill="none" stroke="green" d="M630.94,-446.88C641.73,-434.28 655.82,-420.5 671.45,-412 846.96,-316.57 913.62,-344.43 1112.45,-325 1331.37,-303.61 1903.22,-403.06 2079.95,-534 2097.55,-547.04 2110.38,-567.74 2119.05,-586.11"/>
<polygon fill="green" stroke="green" points="2115.82,-587.47 2123.07,-595.2 2122.22,-584.63 2115.82,-587.47"/>
<text text-anchor="middle" x="1373.45" y="-343.95" font-family="Times,serif" font-size="14.00">7478, &#160;0.057</text>
</g>
<!-- 7464&#45;&gt;2277 -->
<g id="edge37" class="edge">
<title>7464&#45;&gt;2277</title>
<path fill="none" stroke="green" d="M644.52,-484C653.31,-485.98 662.72,-488.09 671.45,-490 811.26,-520.65 858.4,-493.06 986.45,-557 996.8,-562.16 1006.8,-569.47 1015.65,-577.04"/>
<polygon fill="green" stroke="green" points="1013.18,-579.52 1022.95,-583.62 1017.86,-574.32 1013.18,-579.52"/>
<text text-anchor="middle" x="826.7" y="-520.95" font-family="Times,serif" font-size="14.00">7511, &#160;0.74</text>
</g>
<!-- 7940 -->
<g id="node14" class="node">
<title>7940</title>
<ellipse fill="none" stroke="green" cx="2536.84" cy="-73" rx="36.48" ry="36.48"/>
<text text-anchor="middle" x="2536.84" y="-68.33" font-family="Times,serif" font-size="14.00">7940</text>
</g>
<!-- 7464&#45;&gt;7940 -->
<g id="edge38" class="edge">
<title>7464&#45;&gt;7940</title>
<path fill="none" stroke="green" d="M620.71,-441.28C630.4,-416.75 646.78,-384.98 671.45,-366 710.76,-335.77 730.99,-348.48 779.45,-338 863.09,-319.91 2212.12,-85.55 2296.91,-74 2378.67,-62.86 2400.07,-58.88 2482.36,-65 2484.57,-65.16 2486.83,-65.37 2489.11,-65.6"/>
<polygon fill="green" stroke="green" points="2488.69,-69.07 2499.04,-66.78 2489.52,-62.12 2488.69,-69.07"/>
<text text-anchor="middle" x="1591.7" y="-205.95" font-family="Times,serif" font-size="14.00">8068, &#160;0.453</text>
</g>
<!-- 7464&#45;&gt;66 -->
<g id="edge33" class="edge">
<title>7464&#45;&gt;66</title>
<path fill="none" stroke="green" d="M641.05,-459.12C682.31,-438.69 757.33,-407 825.7,-407 825.7,-407 825.7,-407 1158.45,-407 1226.54,-407 1243.42,-414.12 1310.45,-426 1380.15,-438.36 1585.78,-487.93 1667.21,-507.75"/>
<polygon fill="green" stroke="green" points="1666.27,-511.13 1676.82,-510.1 1667.93,-504.33 1666.27,-511.13"/>
<text text-anchor="middle" x="1157.45" y="-410.95" font-family="Times,serif" font-size="14.00">7466, &#160;1.621</text>
</g>
<!-- 7843 -->
<g id="node15" class="node">
<title>7843</title>
<ellipse fill="none" stroke="green" cx="385.7" cy="-982" rx="36.48" ry="36.48"/>
<text text-anchor="middle" x="385.7" y="-977.33" font-family="Times,serif" font-size="14.00">7843</text>
</g>
<!-- 8126&#45;&gt;7843 -->
<g id="edge16" class="edge">
<title>8126&#45;&gt;7843</title>
<path fill="none" stroke="green" d="M217.34,-993.53C250.76,-991.23 300.8,-987.78 337.46,-985.25"/>
<polygon fill="green" stroke="green" points="337.61,-988.75 347.35,-984.57 337.13,-981.77 337.61,-988.75"/>
<text text-anchor="middle" x="277.7" y="-996.95" font-family="Times,serif" font-size="14.00">8128, &#160;1.0</text>
</g>
<!-- 9004&#45;&gt;4388 -->
<g id="edge17" class="edge">
<title>9004&#45;&gt;4388</title>
<path fill="none" stroke="green" d="M314.38,-1185.81C496.18,-1174.47 1314.88,-1121.24 1418.45,-1076 1429.35,-1071.24 1439.66,-1063.83 1448.64,-1055.97"/>
<polygon fill="green" stroke="green" points="1450.77,-1058.77 1455.71,-1049.4 1446,-1053.64 1450.77,-1058.77"/>
<text text-anchor="middle" x="826.7" y="-1156.95" font-family="Times,serif" font-size="14.00">9006, &#160;0.676</text>
</g>
<!-- 2 -->
<g id="node12" class="node">
<title>2</title>
<ellipse fill="none" stroke="green" cx="18" cy="-218" rx="18" ry="18"/>
<text text-anchor="middle" x="18" y="-213.32" font-family="Times,serif" font-size="14.00">2</text>
</g>
<!-- 2&#45;&gt;312 -->
<g id="edge11" class="edge">
<title>2&#45;&gt;312</title>
<path fill="none" stroke="green" d="M19.01,-236.14C19.36,-295.35 22.96,-482.03 54,-532 104.41,-613.15 146.93,-610.87 234.95,-648 318.2,-683.11 359.8,-640.98 432.95,-694 520.48,-757.44 572.6,-879.47 594.8,-942.37"/>
<polygon fill="green" stroke="green" points="591.42,-943.29 597.99,-951.61 598.04,-941.01 591.42,-943.29"/>
<text text-anchor="middle" x="277.7" y="-668.95" font-family="Times,serif" font-size="14.00">313, &#160;1.0</text>
</g>
<!-- 2&#45;&gt;380 -->
<g id="edge12" class="edge">
<title>2&#45;&gt;380</title>
<path fill="none" stroke="green" d="M26.28,-201.81C45.3,-162.27 100.51,-64 179.48,-64 179.48,-64 179.48,-64 609.45,-64 638.13,-64 1611.66,-133.19 1638.95,-142 1692.49,-159.27 1714.97,-161.72 1746.95,-208 1771.39,-243.35 1735.56,-271.65 1764.95,-303 1777.31,-316.18 2067.39,-371.01 2079.95,-384 2107.11,-412.07 2122.7,-522.32 2129.43,-583.51"/>
<polygon fill="green" stroke="green" points="2125.93,-583.62 2130.47,-593.19 2132.89,-582.88 2125.93,-583.62"/>
<text text-anchor="middle" x="1049.45" y="-101.95" font-family="Times,serif" font-size="14.00">401, &#160;0.999</text>
</g>
<!-- 2&#45;&gt;661 -->
<g id="edge13" class="edge">
<title>2&#45;&gt;661</title>
<path fill="none" stroke="green" d="M36.29,-218C116.04,-218 449.4,-218 566.54,-218"/>
<polygon fill="green" stroke="green" points="566.31,-221.5 576.31,-218 566.31,-214.5 566.31,-221.5"/>
<text text-anchor="middle" x="277.7" y="-221.95" font-family="Times,serif" font-size="14.00">662, &#160;&#45;1.758</text>
</g>
<!-- 2&#45;&gt;2277 -->
<g id="edge14" class="edge">
<title>2&#45;&gt;2277</title>
<path fill="none" stroke="green" d="M33.3,-228.31C94,-271.53 337.51,-439.63 563.45,-521 644.32,-550.12 896.55,-588.91 1001.7,-604.3"/>
<polygon fill="green" stroke="green" points="1000.99,-607.73 1011.39,-605.71 1002,-600.8 1000.99,-607.73"/>
<text text-anchor="middle" x="498.2" y="-518.95" font-family="Times,serif" font-size="14.00">2330, &#160;0.646</text>
</g>
<!-- 2&#45;&gt;7940 -->
<g id="edge15" class="edge">
<title>2&#45;&gt;7940</title>
<path fill="none" stroke="green" d="M19.24,-199.7C20.5,-170.91 26.59,-114.45 54,-77 92.65,-24.2 114.05,0 179.48,0 179.48,0 179.48,0 2334.38,0 2392.78,0 2455.3,-27.45 2494.94,-48.68"/>
<polygon fill="green" stroke="green" points="2493.22,-51.73 2503.67,-53.47 2496.59,-45.59 2493.22,-51.73"/>
<text text-anchor="middle" x="1265.45" y="-3.95" font-family="Times,serif" font-size="14.00">7966, &#160;0.169</text>
</g>
<!-- 2277&#45;&gt;172 -->
<g id="edge45" class="edge">
<title>2277&#45;&gt;172</title>
<path fill="none" stroke="green" d="M1064.74,-644.4C1075.95,-668.73 1092.88,-701.88 1112.45,-728 1113.09,-728.85 1191.05,-804.66 1235.06,-847.43"/>
<polygon fill="green" stroke="green" points="1232.42,-849.75 1242.03,-854.21 1237.29,-844.73 1232.42,-849.75"/>
<text text-anchor="middle" x="1157.45" y="-819.95" font-family="Times,serif" font-size="14.00">2279, &#160;1.0</text>
</g>
<!-- 2277&#45;&gt;3 -->
<g id="edge46" class="edge">
<title>2277&#45;&gt;3</title>
<path fill="none" stroke="green" d="M1085.67,-603.7C1138.02,-591.68 1237.99,-564.11 1310.45,-516 1376.96,-471.85 1365.11,-423.8 1436.45,-388 1604.69,-303.58 2109.49,-217.97 2278.91,-300 2410.79,-363.85 2495.47,-531.88 2524.57,-597.86"/>
<polygon fill="green" stroke="green" points="2521.28,-599.06 2528.46,-606.85 2527.7,-596.29 2521.28,-599.06"/>
<text text-anchor="middle" x="1812.2" y="-299.95" font-family="Times,serif" font-size="14.00">2355, &#160;0.575</text>
</g>
<!-- 2277&#45;&gt;66 -->
<g id="edge47" class="edge">
<title>2277&#45;&gt;66</title>
<path fill="none" stroke="green" d="M1085.26,-618.42C1139.34,-627.82 1244.21,-637.3 1310.45,-587 1328.35,-573.41 1310.37,-553.08 1328.45,-539.75 1381.41,-500.71 1584.69,-508.66 1666.53,-513.62"/>
<polygon fill="green" stroke="green" points="1666.2,-517.1 1676.4,-514.24 1666.64,-510.12 1666.2,-517.1"/>
<text text-anchor="middle" x="1373.45" y="-543.95" font-family="Times,serif" font-size="14.00">2374, &#160;1.041</text>
</g>
<!-- 7299 -->
<g id="node23" class="node">
<title>7299</title>
<ellipse fill="none" stroke="green" cx="1265.45" cy="-471" rx="36.48" ry="36.48"/>
<text text-anchor="middle" x="1265.45" y="-466.32" font-family="Times,serif" font-size="14.00">7299</text>
</g>
<!-- 2277&#45;&gt;7299 -->
<g id="edge48" class="edge">
<title>2277&#45;&gt;7299</title>
<path fill="none" stroke="green" d="M1057.66,-575.22C1065.66,-545.49 1081.74,-504.79 1112.45,-483.75 1143,-462.83 1185.53,-460.95 1217.83,-463.57"/>
<polygon fill="green" stroke="green" points="1217.43,-467.04 1227.72,-464.55 1218.12,-460.08 1217.43,-467.04"/>
<text text-anchor="middle" x="1157.45" y="-487.95" font-family="Times,serif" font-size="14.00">7300, &#160;1.425</text>
</g>
<!-- 7774 -->
<g id="node24" class="node">
<title>7774</title>
<ellipse fill="none" stroke="green" cx="1265.45" cy="-751" rx="36.48" ry="36.48"/>
<text text-anchor="middle" x="1265.45" y="-746.33" font-family="Times,serif" font-size="14.00">7774</text>
</g>
<!-- 2277&#45;&gt;7774 -->
<g id="edge49" class="edge">
<title>2277&#45;&gt;7774</title>
<path fill="none" stroke="green" d="M1080.66,-630.76C1118.42,-655.46 1183.14,-697.81 1224.84,-725.09"/>
<polygon fill="green" stroke="green" points="1222.85,-727.96 1233.13,-730.51 1226.68,-722.11 1222.85,-727.96"/>
<text text-anchor="middle" x="1157.45" y="-713.95" font-family="Times,serif" font-size="14.00">7775, &#160;1.0</text>
</g>
<!-- 7843&#45;&gt;312 -->
<g id="edge18" class="edge">
<title>7843&#45;&gt;312</title>
<path fill="none" stroke="green" d="M422.66,-982C462.11,-982 525.3,-982 566.59,-982"/>
<polygon fill="green" stroke="green" points="566.36,-985.5 576.36,-982 566.36,-978.5 566.36,-985.5"/>
<text text-anchor="middle" x="498.2" y="-985.95" font-family="Times,serif" font-size="14.00">7845, &#160;&#45;1.689</text>
</g>
<!-- 7843&#45;&gt;4432 -->
<g id="edge19" class="edge">
<title>7843&#45;&gt;4432</title>
<path fill="none" stroke="green" d="M408.4,-953.38C452.39,-897.09 557.62,-770.92 671.45,-696 705.13,-673.84 748.1,-657.67 780.13,-647.57"/>
<polygon fill="green" stroke="green" points="780.99,-650.97 789.53,-644.7 778.94,-644.28 780.99,-650.97"/>
<text text-anchor="middle" x="608.45" y="-784.95" font-family="Times,serif" font-size="14.00">7902, &#160;0.799</text>
</g>
<!-- 4388&#45;&gt;184 -->
<g id="edge67" class="edge">
<title>4388&#45;&gt;184</title>
<path fill="none" stroke="green" d="M1516.59,-1009.75C1556.06,-996.74 1620.89,-975.38 1662.21,-961.77"/>
<polygon fill="green" stroke="green" points="1663.11,-965.16 1671.51,-958.7 1660.92,-958.51 1663.11,-965.16"/>
<text text-anchor="middle" x="1591.7" y="-1003.95" font-family="Times,serif" font-size="14.00">4390, &#160;&#45;0.725</text>
</g>
<!-- 4388&#45;&gt;380 -->
<g id="edge68" class="edge">
<title>4388&#45;&gt;380</title>
<path fill="none" stroke="green" d="M1506.21,-1048.11C1563.71,-1110.3 1716.26,-1254.81 1859.45,-1214 1998.76,-1174.3 2028.34,-1109.34 2079.95,-974 2120.23,-868.37 2130.23,-733.8 2132.67,-666.82"/>
<polygon fill="green" stroke="green" points="2136.17,-667.12 2132.99,-657.01 2129.17,-666.9 2136.17,-667.12"/>
<text text-anchor="middle" x="1812.2" y="-1225.95" font-family="Times,serif" font-size="14.00">4581, &#160;1.996</text>
</g>
<!-- 1599&#45;&gt;7940 -->
<g id="edge80" class="edge">
<title>1599&#45;&gt;7940</title>
<path fill="none" stroke="green" d="M2147.81,-310.87C2169.19,-257.31 2218.41,-154.6 2296.91,-105.75 2355.61,-69.22 2438,-66.19 2489.09,-68.64"/>
<polygon fill="green" stroke="green" points="2488.74,-72.13 2498.92,-69.21 2489.14,-65.14 2488.74,-72.13"/>
<text text-anchor="middle" x="2333.38" y="-109.95" font-family="Times,serif" font-size="14.00">7941, &#160;1.0</text>
</g>
<!-- 4582&#45;&gt;184 -->
<g id="edge50" class="edge">
<title>4582&#45;&gt;184</title>
<path fill="none" stroke="green" d="M1083.29,-1046.28C1161.71,-1078.34 1365.36,-1149.38 1526.45,-1099 1591.05,-1078.8 1646.57,-1019.64 1676.74,-981.94"/>
<polygon fill="green" stroke="green" points="1679.15,-984.53 1682.57,-974.5 1673.64,-980.21 1679.15,-984.53"/>
<text text-anchor="middle" x="1373.45" y="-1120.95" font-family="Times,serif" font-size="14.00">4584, &#160;0.907</text>
</g>
<!-- 4582&#45;&gt;4388 -->
<g id="edge51" class="edge">
<title>4582&#45;&gt;4388</title>
<path fill="none" stroke="green" d="M1085.79,-1025.47C1120.06,-1019.49 1173.62,-1011.07 1220.45,-1007.75 1295.06,-1002.46 1381.86,-1009.54 1433.91,-1015.22"/>
<polygon fill="green" stroke="green" points="1433.27,-1018.67 1443.6,-1016.3 1434.05,-1011.71 1433.27,-1018.67"/>
<text text-anchor="middle" x="1265.45" y="-1011.95" font-family="Times,serif" font-size="14.00">4611, &#160;0.454</text>
</g>
<!-- 4582&#45;&gt;66 -->
<g id="edge52" class="edge">
<title>4582&#45;&gt;66</title>
<path fill="none" stroke="green" d="M1085.92,-1037.32C1190.58,-1052.65 1492.86,-1094.04 1526.45,-1066 1560.79,-1037.34 1529.54,-1009.16 1544.45,-967 1573.66,-884.4 1610.87,-876.99 1638.95,-794 1655.82,-744.16 1646,-728.46 1656.95,-677 1666.45,-632.38 1680.91,-581.75 1690.63,-549.38"/>
<polygon fill="green" stroke="green" points="1693.87,-550.76 1693.42,-540.18 1687.17,-548.73 1693.87,-550.76"/>
<text text-anchor="middle" x="1373.45" y="-1078.95" font-family="Times,serif" font-size="14.00">5717, &#160;0.817</text>
</g>
<!-- 7630&#45;&gt;172 -->
<g id="edge54" class="edge">
<title>7630&#45;&gt;172</title>
<path fill="none" stroke="green" d="M1072.15,-1168.84C1102.39,-1127.83 1158.45,-1050.47 1202.45,-982 1217.15,-959.14 1232.58,-932.76 1244.37,-912.04"/>
<polygon fill="green" stroke="green" points="1247.39,-913.81 1249.27,-903.39 1241.3,-910.37 1247.39,-913.81"/>
<text text-anchor="middle" x="1157.45" y="-1115.95" font-family="Times,serif" font-size="14.00">7895, &#160;0.693</text>
</g>
<!-- 7630&#45;&gt;3 -->
<g id="edge53" class="edge">
<title>7630&#45;&gt;3</title>
<path fill="none" stroke="green" d="M1078.75,-1219.91C1127.17,-1256.33 1230.23,-1329.25 1328.45,-1369 1439.11,-1413.78 1471.33,-1427 1590.7,-1427 1590.7,-1427 1590.7,-1427 2334.38,-1427 2496.9,-1427 2529.53,-799.73 2534.9,-654.68"/>
<polygon fill="green" stroke="green" points="2538.39,-654.89 2535.25,-644.77 2531.4,-654.64 2538.39,-654.89"/>
<text text-anchor="middle" x="1812.2" y="-1430.95" font-family="Times,serif" font-size="14.00">7632, &#160;0.749</text>
</g>
<!-- 7943 -->
<g id="node25" class="node">
<title>7943</title>
<ellipse fill="none" stroke="green" cx="1812.2" cy="-1177" rx="36.48" ry="36.48"/>
<text text-anchor="middle" x="1812.2" y="-1172.33" font-family="Times,serif" font-size="14.00">7943</text>
</g>
<!-- 7630&#45;&gt;7943 -->
<g id="edge55" class="edge">
<title>7630&#45;&gt;7943</title>
<path fill="none" stroke="green" d="M1086.38,-1197.01C1210.99,-1193.57 1624.63,-1182.15 1764.51,-1178.29"/>
<polygon fill="green" stroke="green" points="1764.23,-1181.8 1774.13,-1178.02 1764.04,-1174.8 1764.23,-1181.8"/>
<text text-anchor="middle" x="1373.45" y="-1194.95" font-family="Times,serif" font-size="14.00">8094, &#160;0.286</text>
</g>
<!-- 8918&#45;&gt;66 -->
<g id="edge32" class="edge">
<title>8918&#45;&gt;66</title>
<path fill="none" stroke="green" d="M975.65,-213.39C1059.32,-204.32 1272.99,-191.9 1418.45,-278 1500.62,-326.63 1466.53,-396.83 1544.45,-452 1580.21,-477.31 1598.73,-462.66 1638.95,-480 1650.1,-484.8 1661.75,-491.17 1671.9,-497.21"/>
<polygon fill="green" stroke="green" points="1669.83,-500.05 1680.19,-502.29 1673.49,-494.08 1669.83,-500.05"/>
<text text-anchor="middle" x="1265.45" y="-236.95" font-family="Times,serif" font-size="14.00">8920, &#160;0.449</text>
</g>
<!-- 66&#45;&gt;3761 -->
<g id="edge70" class="edge">
<title>66&#45;&gt;3761</title>
<path fill="none" stroke="green" d="M1722.4,-528.82C1753.17,-549.58 1814.24,-592.67 1859.45,-636.75 1871.35,-648.35 1883.17,-662.15 1893.24,-674.81"/>
<polygon fill="green" stroke="green" points="1890.4,-676.86 1899.31,-682.58 1895.92,-672.55 1890.4,-676.86"/>
<text text-anchor="middle" x="1812.2" y="-640.95" font-family="Times,serif" font-size="14.00">3770, &#160;&#45;0.657</text>
</g>
<!-- 66&#45;&gt;380 -->
<g id="edge69" class="edge">
<title>66&#45;&gt;380</title>
<path fill="none" stroke="green" d="M1726.14,-514.42C1787.59,-511.23 1958.25,-508.99 2079.95,-571 2090.36,-576.3 2099.96,-584.39 2108.07,-592.71"/>
<polygon fill="green" stroke="green" points="2105.31,-594.87 2114.64,-599.89 2110.47,-590.15 2105.31,-594.87"/>
<text text-anchor="middle" x="1922.45" y="-535.95" font-family="Times,serif" font-size="14.00">389, &#160;0.267</text>
</g>
<!-- 7299&#45;&gt;3761 -->
<g id="edge62" class="edge">
<title>7299&#45;&gt;3761</title>
<path fill="none" stroke="green" d="M1301.68,-463.64C1383.58,-448.23 1591.67,-419.05 1746.95,-483 1801.84,-505.61 1821.77,-509.13 1859.45,-555 1886.01,-587.32 1902.17,-632.38 1911.31,-666.11"/>
<polygon fill="green" stroke="green" points="1907.88,-666.81 1913.77,-675.62 1914.65,-665.06 1907.88,-666.81"/>
<text text-anchor="middle" x="1591.7" y="-456.95" font-family="Times,serif" font-size="14.00">7301, &#160;&#45;0.017</text>
</g>
<!-- 7774&#45;&gt;4388 -->
<g id="edge64" class="edge">
<title>7774&#45;&gt;4388</title>
<path fill="none" stroke="green" d="M1297.02,-770.09C1332,-793.6 1388.31,-836.86 1418.45,-888.75 1437.03,-920.73 1419.87,-936.94 1436.45,-970 1439.41,-975.89 1443.2,-981.66 1447.31,-987.08"/>
<polygon fill="green" stroke="green" points="1444.45,-989.11 1453.48,-994.65 1449.87,-984.69 1444.45,-989.11"/>
<text text-anchor="middle" x="1373.45" y="-892.95" font-family="Times,serif" font-size="14.00">7842, &#160;0.535</text>
</g>
<!-- 4077 -->
<g id="node26" class="node">
<title>4077</title>
<ellipse fill="none" stroke="green" cx="1481.45" cy="-687" rx="36.48" ry="36.48"/>
<text text-anchor="middle" x="1481.45" y="-682.33" font-family="Times,serif" font-size="14.00">4077</text>
</g>
<!-- 7774&#45;&gt;4077 -->
<g id="edge63" class="edge">
<title>7774&#45;&gt;4077</title>
<path fill="none" stroke="green" d="M1293.35,-726.77C1303.65,-718.79 1315.94,-710.7 1328.45,-705.75 1361.89,-692.53 1402.41,-688.04 1433.21,-686.75"/>
<polygon fill="green" stroke="green" points="1433.1,-690.26 1442.98,-686.45 1432.88,-683.26 1433.1,-690.26"/>
<text text-anchor="middle" x="1373.45" y="-709.95" font-family="Times,serif" font-size="14.00">7776, &#160;1.0</text>
</g>
<!-- 7943&#45;&gt;380 -->
<g id="edge75" class="edge">
<title>7943&#45;&gt;380</title>
<path fill="none" stroke="green" d="M1842.2,-1155.93C1898.24,-1113.49 2021.07,-1011.73 2079.95,-895 2117.55,-820.47 2128.74,-721.94 2132.05,-666.86"/>
<polygon fill="green" stroke="green" points="2135.54,-667.15 2132.58,-656.98 2128.55,-666.78 2135.54,-667.15"/>
<text text-anchor="middle" x="1922.45" y="-1129.95" font-family="Times,serif" font-size="14.00">7945, &#160;0.157</text>
</g>
<!-- 7943&#45;&gt;1599 -->
<g id="edge76" class="edge">
<title>7943&#45;&gt;1599</title>
<path fill="none" stroke="green" d="M1842.83,-1156.78C1849.22,-1151.09 1855.29,-1144.4 1859.45,-1137 1883.13,-1094.86 1857.7,-1073.86 1877.45,-1029.75 1908.82,-959.7 1925.49,-942.91 1985.45,-895 2021.95,-865.84 2053.85,-887.73 2079.95,-849 2096.32,-824.71 2094.82,-615.12 2097.95,-586 2105.23,-518.46 2117.34,-440.8 2125.35,-392.31"/>
<polygon fill="green" stroke="green" points="2128.76,-393.16 2126.95,-382.72 2121.86,-392.01 2128.76,-393.16"/>
<text text-anchor="middle" x="1922.45" y="-1033.95" font-family="Times,serif" font-size="14.00">7967, &#160;0.024</text>
</g>
<!-- 4077&#45;&gt;3761 -->
<g id="edge65" class="edge">
<title>4077&#45;&gt;3761</title>
<path fill="none" stroke="green" d="M1518.21,-685.61C1553.47,-684.31 1608.92,-682.47 1656.95,-681.75 1696.95,-681.15 1707.07,-678.71 1746.95,-681.75 1797.39,-685.59 1809.75,-689.59 1859.45,-699 1864.67,-699.99 1870.11,-701.1 1875.51,-702.25"/>
<polygon fill="green" stroke="green" points="1874.46,-705.6 1884.98,-704.32 1875.96,-698.77 1874.46,-705.6"/>
<text text-anchor="middle" x="1701.95" y="-685.95" font-family="Times,serif" font-size="14.00">4384, &#160;0.086</text>
</g>
<!-- 4077&#45;&gt;7943 -->
<g id="edge66" class="edge">
<title>4077&#45;&gt;7943</title>
<path fill="none" stroke="green" d="M1517.9,-692.51C1576.54,-703.68 1692.63,-734.92 1746.95,-813 1782.04,-863.42 1800.58,-1042.01 1807.7,-1128.86"/>
<polygon fill="green" stroke="green" points="1804.2,-1129.04 1808.49,-1138.73 1811.18,-1128.48 1804.2,-1129.04"/>
<text text-anchor="middle" x="1591.7" y="-732.95" font-family="Times,serif" font-size="14.00">7944, &#160;1.0</text>
</g>
<!-- 8912&#45;&gt;3 -->
<g id="edge81" class="edge">
<title>8912&#45;&gt;3</title>
<path fill="none" stroke="green" d="M2369.94,-625C2409.11,-625 2471.33,-625 2507.4,-625"/>
<polygon fill="green" stroke="green" points="2507.05,-628.5 2517.05,-625 2507.05,-621.5 2507.05,-628.5"/>
<text text-anchor="middle" x="2435.11" y="-628.95" font-family="Times,serif" font-size="14.00">8914, &#160;&#45;0.039</text>
</g>
<!-- 8951&#45;&gt;7940 -->
<g id="edge79" class="edge">
<title>8951&#45;&gt;7940</title>
<path fill="none" stroke="green" d="M2368.58,-157.13C2399.22,-146.8 2444.98,-129.91 2482.36,-110 2487.46,-107.28 2492.66,-104.17 2497.72,-100.94"/>
<polygon fill="green" stroke="green" points="2499.55,-103.92 2505.93,-95.46 2495.67,-98.09 2499.55,-103.92"/>
<text text-anchor="middle" x="2435.11" y="-154.95" font-family="Times,serif" font-size="14.00">8953, &#160;0.264</text>
</g>
</g>
</svg>
