<?xml version="1.0" encoding="UTF-8" standalone="no"?>
<!DOCTYPE svg PUBLIC "-//W3C//DTD SVG 1.1//EN"
 "http://www.w3.org/Graphics/SVG/1.1/DTD/svg11.dtd">
<!-- Generated by graphviz version 10.0.1 (0)
 -->
<!-- Pages: 1 -->
<svg width="353pt" height="172pt"
 viewBox="0.00 0.00 352.70 171.85" xmlns="http://www.w3.org/2000/svg" xmlns:xlink="http://www.w3.org/1999/xlink">
<g id="graph0" class="graph" transform="scale(1 1) rotate(0) translate(4 167.85)">
<polygon fill="white" stroke="none" points="-4,4 -4,-167.85 348.7,-167.85 348.7,4 -4,4"/>
<!-- 1 -->
<g id="node1" class="node">
<title>1</title>
<ellipse fill="none" stroke="black" cx="18" cy="-72" rx="18" ry="18"/>
<text text-anchor="middle" x="18" y="-67.33" font-family="Times,serif" font-size="14.00">1</text>
</g>
<!-- 13 -->
<g id="node2" class="node">
<title>13</title>
<ellipse fill="none" stroke="black" cx="172.35" cy="-45" rx="23.85" ry="23.85"/>
<text text-anchor="middle" x="172.35" y="-40.33" font-family="Times,serif" font-size="14.00">13</text>
</g>
<!-- 1&#45;&gt;13 -->
<g id="edge1" class="edge">
<title>1&#45;&gt;13</title>
<path fill="none" stroke="green" d="M36.18,-68.96C60.61,-64.63 105.89,-56.6 137.27,-51.04"/>
<polygon fill="green" stroke="green" points="137.82,-54.5 147.06,-49.31 136.6,-47.6 137.82,-54.5"/>
<text text-anchor="middle" x="92.25" y="-69.95" font-family="Times,serif" font-size="14.00">14, &#160;3.975</text>
</g>
<!-- 4 -->
<g id="node6" class="node">
<title>4</title>
<ellipse fill="none" stroke="black" cx="326.7" cy="-86" rx="18" ry="18"/>
<text text-anchor="middle" x="326.7" y="-81.33" font-family="Times,serif" font-size="14.00">4</text>
</g>
<!-- 13&#45;&gt;4 -->
<g id="edge4" class="edge">
<title>13&#45;&gt;4</title>
<path fill="none" stroke="green" d="M194.22,-55.21C200.54,-58.02 207.56,-60.88 214.2,-63 241.81,-71.82 274.38,-78.08 297.16,-81.82"/>
<polygon fill="green" stroke="green" points="296.49,-85.26 306.92,-83.36 297.58,-78.35 296.49,-85.26"/>
<text text-anchor="middle" x="252.45" y="-84.95" font-family="Times,serif" font-size="14.00">15, &#160;8.502</text>
</g>
<!-- 6 -->
<g id="node7" class="node">
<title>6</title>
<ellipse fill="none" stroke="black" cx="326.7" cy="-32" rx="18" ry="18"/>
<text text-anchor="middle" x="326.7" y="-27.32" font-family="Times,serif" font-size="14.00">6</text>
</g>
<!-- 13&#45;&gt;6 -->
<g id="edge5" class="edge">
<title>13&#45;&gt;6</title>
<path fill="none" stroke="green" d="M196.49,-43.03C223.44,-40.73 267.97,-36.93 297.07,-34.44"/>
<polygon fill="green" stroke="green" points="297.33,-37.93 307,-33.6 296.73,-30.96 297.33,-37.93"/>
<text text-anchor="middle" x="252.45" y="-45.95" font-family="Times,serif" font-size="14.00">35, &#160;0.686</text>
</g>
<!-- 2 -->
<g id="node3" class="node">
<title>2</title>
<ellipse fill="none" stroke="black" cx="18" cy="-18" rx="18" ry="18"/>
<text text-anchor="middle" x="18" y="-13.32" font-family="Times,serif" font-size="14.00">2</text>
</g>
<!-- 2&#45;&gt;13 -->
<g id="edge2" class="edge">
<title>2&#45;&gt;13</title>
<path fill="none" stroke="green" d="M36.17,-19.1C58.22,-20.73 97.56,-24.45 130.5,-31.75 133.14,-32.34 135.85,-33.02 138.57,-33.77"/>
<polygon fill="green" stroke="green" points="137.48,-37.1 148.07,-36.63 139.5,-30.39 137.48,-37.1"/>
<text text-anchor="middle" x="92.25" y="-35.95" font-family="Times,serif" font-size="14.00">19, &#160;&#45;3.283</text>
</g>
<!-- 3 -->
<g id="node4" class="node">
<title>3</title>
<ellipse fill="none" stroke="black" cx="18" cy="-140" rx="18" ry="18"/>
<text text-anchor="middle" x="18" y="-135.32" font-family="Times,serif" font-size="14.00">3</text>
</g>
<!-- 20 -->
<g id="node5" class="node">
<title>20</title>
<ellipse fill="none" stroke="black" cx="172.35" cy="-140" rx="23.85" ry="23.85"/>
<text text-anchor="middle" x="172.35" y="-135.32" font-family="Times,serif" font-size="14.00">20</text>
</g>
<!-- 3&#45;&gt;20 -->
<g id="edge3" class="edge">
<title>3&#45;&gt;20</title>
<path fill="none" stroke="green" d="M36.48,-140C60.87,-140 105.65,-140 136.89,-140"/>
<polygon fill="green" stroke="green" points="136.62,-143.5 146.62,-140 136.62,-136.5 136.62,-143.5"/>
<text text-anchor="middle" x="92.25" y="-143.95" font-family="Times,serif" font-size="14.00">21, &#160;&#45;2.518</text>
</g>
<!-- 5 -->
<g id="node8" class="node">
<title>5</title>
<ellipse fill="none" stroke="black" cx="326.7" cy="-140" rx="18" ry="18"/>
<text text-anchor="middle" x="326.7" y="-135.32" font-family="Times,serif" font-size="14.00">5</text>
</g>
<!-- 20&#45;&gt;5 -->
<g id="edge6" class="edge">
<title>20&#45;&gt;5</title>
<path fill="none" stroke="green" d="M196.49,-140C223.44,-140 267.97,-140 297.07,-140"/>
<polygon fill="green" stroke="green" points="296.99,-143.5 306.99,-140 296.99,-136.5 296.99,-143.5"/>
<text text-anchor="middle" x="252.45" y="-143.95" font-family="Times,serif" font-size="14.00">22, &#160;&#45;3.317</text>
</g>
</g>
</svg>
