<?xml version="1.0" encoding="UTF-8" standalone="no"?>
<!DOCTYPE svg PUBLIC "-//W3C//DTD SVG 1.1//EN"
 "http://www.w3.org/Graphics/SVG/1.1/DTD/svg11.dtd">
<!-- Generated by graphviz version 10.0.1 (0)
 -->
<!-- Pages: 1 -->
<svg width="413pt" height="252pt"
 viewBox="0.00 0.00 413.00 252.00" xmlns="http://www.w3.org/2000/svg" xmlns:xlink="http://www.w3.org/1999/xlink">
<g id="graph0" class="graph" transform="scale(1 1) rotate(0) translate(4 248)">
<polygon fill="white" stroke="none" points="-4,4 -4,-248 409,-248 409,4 -4,4"/>
<!-- 1 -->
<g id="node1" class="node">
<title>1</title>
<ellipse fill="none" stroke="black" cx="27" cy="-173" rx="27" ry="18"/>
<text text-anchor="middle" x="27" y="-168.32" font-family="Times,serif" font-size="14.00">1</text>
</g>
<!-- 6 -->
<g id="node2" class="node">
<title>6</title>
<ellipse fill="none" stroke="black" cx="378" cy="-151" rx="27" ry="18"/>
<text text-anchor="middle" x="378" y="-146.32" font-family="Times,serif" font-size="14.00">6</text>
</g>
<!-- 1&#45;&gt;6 -->
<g id="edge1" class="edge">
<title>1&#45;&gt;6</title>
<path fill="none" stroke="red" d="M54.2,-172.98C107.09,-172.67 230.29,-170.64 333,-159 335.51,-158.72 338.09,-158.37 340.68,-158"/>
<polygon fill="red" stroke="red" points="341.16,-161.46 350.46,-156.4 340.03,-154.56 341.16,-161.46"/>
<text text-anchor="middle" x="200.25" y="-173.95" font-family="Times,serif" font-size="14.00">13, &#160;7.817</text>
</g>
<!-- 5 -->
<g id="node3" class="node">
<title>5</title>
<ellipse fill="none" stroke="black" cx="378" cy="-226" rx="27" ry="18"/>
<text text-anchor="middle" x="378" y="-221.32" font-family="Times,serif" font-size="14.00">5</text>
</g>
<!-- 1&#45;&gt;5 -->
<g id="edge2" class="edge">
<title>1&#45;&gt;5</title>
<path fill="none" stroke="green" d="M51.57,-180.71C58.13,-182.65 65.3,-184.58 72,-186 167.36,-206.21 281.78,-217.93 339.61,-223"/>
<polygon fill="green" stroke="green" points="339.29,-226.49 349.55,-223.85 339.89,-219.51 339.29,-226.49"/>
<text text-anchor="middle" x="200.25" y="-215.95" font-family="Times,serif" font-size="14.00">21, &#160;&#45;7.429</text>
</g>
<!-- 23 -->
<g id="node4" class="node">
<title>23</title>
<ellipse fill="none" stroke="black" cx="200.25" cy="-119" rx="27" ry="18"/>
<text text-anchor="middle" x="200.25" y="-114.33" font-family="Times,serif" font-size="14.00">23</text>
</g>
<!-- 1&#45;&gt;23 -->
<g id="edge3" class="edge">
<title>1&#45;&gt;23</title>
<path fill="none" stroke="green" d="M44.09,-158.96C52,-152.77 61.98,-145.95 72,-141.75 100.71,-129.7 135.68,-124.03 161.69,-121.36"/>
<polygon fill="green" stroke="green" points="161.81,-124.87 171.45,-120.48 161.17,-117.9 161.81,-124.87"/>
<text text-anchor="middle" x="108" y="-144.95" font-family="Times,serif" font-size="14.00">24, &#160;1.28</text>
</g>
<!-- 23&#45;&gt;6 -->
<g id="edge8" class="edge">
<title>23&#45;&gt;6</title>
<path fill="none" stroke="green" d="M226.56,-123.09C253.12,-127.45 296.07,-134.68 333,-141.75 335.49,-142.23 338.06,-142.73 340.64,-143.25"/>
<polygon fill="green" stroke="green" points="339.92,-146.67 350.42,-145.26 341.33,-139.82 339.92,-146.67"/>
<text text-anchor="middle" x="294.75" y="-144.95" font-family="Times,serif" font-size="14.00">25, &#160;&#45;8.867</text>
</g>
<!-- 2 -->
<g id="node5" class="node">
<title>2</title>
<ellipse fill="none" stroke="black" cx="27" cy="-18" rx="27" ry="18"/>
<text text-anchor="middle" x="27" y="-13.32" font-family="Times,serif" font-size="14.00">2</text>
</g>
<!-- 2&#45;&gt;23 -->
<g id="edge5" class="edge">
<title>2&#45;&gt;23</title>
<path fill="none" stroke="green" d="M50.64,-26.98C74.65,-36.93 113.28,-54.18 144,-73.75 150.29,-77.76 162.88,-87.99 174.45,-97.72"/>
<polygon fill="green" stroke="green" points="171.93,-100.17 181.82,-103.97 176.45,-94.83 171.93,-100.17"/>
<text text-anchor="middle" x="108" y="-77.95" font-family="Times,serif" font-size="14.00">43, &#160;9.601</text>
</g>
<!-- 4 -->
<g id="node6" class="node">
<title>4</title>
<ellipse fill="none" stroke="black" cx="378" cy="-33" rx="27" ry="18"/>
<text text-anchor="middle" x="378" y="-28.32" font-family="Times,serif" font-size="14.00">4</text>
</g>
<!-- 2&#45;&gt;4 -->
<g id="edge4" class="edge">
<title>2&#45;&gt;4</title>
<path fill="none" stroke="green" d="M54.25,-19.06C94.09,-20.68 172.18,-23.88 238.5,-26.75 272.69,-28.23 311.63,-30 339.49,-31.27"/>
<polygon fill="green" stroke="green" points="339.05,-34.75 349.2,-31.72 339.37,-27.76 339.05,-34.75"/>
<text text-anchor="middle" x="200.25" y="-30.95" font-family="Times,serif" font-size="14.00">7, &#160;9.645</text>
</g>
<!-- 3 -->
<g id="node7" class="node">
<title>3</title>
<ellipse fill="none" stroke="black" cx="27" cy="-94" rx="27" ry="18"/>
<text text-anchor="middle" x="27" y="-89.33" font-family="Times,serif" font-size="14.00">3</text>
</g>
<!-- 3&#45;&gt;23 -->
<g id="edge7" class="edge">
<title>3&#45;&gt;23</title>
<path fill="none" stroke="green" d="M54.48,-94C78.14,-94.42 113.64,-96.08 144,-101.75 150.98,-103.05 158.32,-104.95 165.29,-107.02"/>
<polygon fill="green" stroke="green" points="164.14,-110.33 174.73,-110 166.25,-103.65 164.14,-110.33"/>
<text text-anchor="middle" x="108" y="-105.95" font-family="Times,serif" font-size="14.00">56, &#160;0.797</text>
</g>
<!-- 3&#45;&gt;4 -->
<g id="edge6" class="edge">
<title>3&#45;&gt;4</title>
<path fill="none" stroke="green" d="M53.84,-90.5C106.57,-83.19 230.27,-65.22 333,-44 335.77,-43.43 338.62,-42.8 341.49,-42.14"/>
<polygon fill="green" stroke="green" points="342.03,-45.61 350.94,-39.88 340.4,-38.81 342.03,-45.61"/>
<text text-anchor="middle" x="200.25" y="-78.95" font-family="Times,serif" font-size="14.00">22, &#160;0.93</text>
</g>
</g>
</svg>
