<?xml version="1.0" encoding="UTF-8" standalone="no"?>
<!DOCTYPE svg PUBLIC "-//W3C//DTD SVG 1.1//EN"
 "http://www.w3.org/Graphics/SVG/1.1/DTD/svg11.dtd">
<!-- Generated by graphviz version 10.0.1 (0)
 -->
<!-- Pages: 1 -->
<svg width="359pt" height="115pt"
 viewBox="0.00 0.00 359.00 115.41" xmlns="http://www.w3.org/2000/svg" xmlns:xlink="http://www.w3.org/1999/xlink">
<g id="graph0" class="graph" transform="scale(1 1) rotate(0) translate(4 111.41)">
<polygon fill="white" stroke="none" points="-4,4 -4,-111.41 355,-111.41 355,4 -4,4"/>
<!-- 1 -->
<g id="node1" class="node">
<title>1</title>
<ellipse fill="none" stroke="green" cx="18" cy="-63.16" rx="18" ry="18"/>
<text text-anchor="middle" x="18" y="-58.49" font-family="Times,serif" font-size="14.00">1</text>
</g>
<!-- 2 -->
<g id="node2" class="node">
<title>2</title>
<ellipse fill="none" stroke="green" cx="333" cy="-63.16" rx="18" ry="18"/>
<text text-anchor="middle" x="333" y="-58.49" font-family="Times,serif" font-size="14.00">2</text>
</g>
<!-- 1&#45;&gt;2 -->
<g id="edge1" class="edge">
<title>1&#45;&gt;2</title>
<path fill="none" stroke="red" d="M34.69,-70.35C40.61,-72.69 47.49,-74.99 54,-76.16 160.3,-95.27 190.7,-95.27 297,-76.16 299.85,-75.65 302.76,-74.92 305.64,-74.07"/>
<polygon fill="red" stroke="red" points="306.59,-77.45 314.88,-70.85 304.28,-70.84 306.59,-77.45"/>
<text text-anchor="middle" x="166.5" y="-94.11" font-family="Times,serif" font-size="14.00">3, &#160;0.173</text>
</g>
<!-- 169 -->
<g id="node3" class="node">
<title>169</title>
<ellipse fill="none" stroke="red" cx="166.5" cy="-30.16" rx="30.16" ry="30.16"/>
<text text-anchor="middle" x="166.5" y="-25.49" font-family="Times,serif" font-size="14.00">169</text>
</g>
<!-- 1&#45;&gt;169 -->
<g id="edge2" class="edge">
<title>1&#45;&gt;169</title>
<path fill="none" stroke="green" d="M36.09,-59.31C57.88,-54.41 96.24,-45.77 125.55,-39.16"/>
<polygon fill="green" stroke="green" points="126.23,-42.6 135.21,-36.99 124.69,-35.77 126.23,-42.6"/>
<text text-anchor="middle" x="85.5" y="-59.11" font-family="Times,serif" font-size="14.00">170, &#160;1.0</text>
</g>
<!-- 169&#45;&gt;2 -->
<g id="edge3" class="edge">
<title>169&#45;&gt;2</title>
<path fill="none" stroke="red" d="M196.53,-35.99C226.82,-42.06 273.99,-51.53 303.92,-57.53"/>
<polygon fill="red" stroke="red" points="302.87,-60.89 313.37,-59.43 304.25,-54.03 302.87,-60.89"/>
<text text-anchor="middle" x="256.5" y="-59.11" font-family="Times,serif" font-size="14.00">171, &#160;0.029</text>
</g>
</g>
</svg>
