<?xml version="1.0" encoding="UTF-8" standalone="no"?>
<!DOCTYPE svg PUBLIC "-//W3C//DTD SVG 1.1//EN"
 "http://www.w3.org/Graphics/SVG/1.1/DTD/svg11.dtd">
<!-- Generated by graphviz version 10.0.1 (0)
 -->
<!-- Pages: 1 -->
<svg width="350pt" height="107pt"
 viewBox="0.00 0.00 350.00 107.10" xmlns="http://www.w3.org/2000/svg" xmlns:xlink="http://www.w3.org/1999/xlink">
<g id="graph0" class="graph" transform="scale(1 1) rotate(0) translate(4 103.1)">
<polygon fill="white" stroke="none" points="-4,4 -4,-103.1 346,-103.1 346,4 -4,4"/>
<!-- 1 -->
<g id="node1" class="node">
<title>1</title>
<ellipse fill="none" stroke="green" cx="18" cy="-53.85" rx="18" ry="18"/>
<text text-anchor="middle" x="18" y="-49.18" font-family="Times,serif" font-size="14.00">1</text>
</g>
<!-- 2 -->
<g id="node2" class="node">
<title>2</title>
<ellipse fill="none" stroke="green" cx="324" cy="-53.85" rx="18" ry="18"/>
<text text-anchor="middle" x="324" y="-49.18" font-family="Times,serif" font-size="14.00">2</text>
</g>
<!-- 1&#45;&gt;2 -->
<g id="edge1" class="edge">
<title>1&#45;&gt;2</title>
<path fill="none" stroke="red" d="M34.64,-61.58C40.56,-64.11 47.45,-66.59 54,-67.85 156.12,-87.52 185.88,-87.52 288,-67.85 290.87,-67.3 293.8,-66.51 296.69,-65.59"/>
<polygon fill="red" stroke="red" points="297.81,-68.91 305.94,-62.12 295.35,-62.36 297.81,-68.91"/>
<text text-anchor="middle" x="171" y="-85.8" font-family="Times,serif" font-size="14.00">3, &#160;0.07</text>
</g>
<!-- 43 -->
<g id="node3" class="node">
<title>43</title>
<ellipse fill="none" stroke="green" cx="171" cy="-23.85" rx="23.85" ry="23.85"/>
<text text-anchor="middle" x="171" y="-19.18" font-family="Times,serif" font-size="14.00">43</text>
</g>
<!-- 1&#45;&gt;43 -->
<g id="edge2" class="edge">
<title>1&#45;&gt;43</title>
<path fill="none" stroke="green" d="M36.03,-50.47C60.17,-45.67 104.87,-36.79 135.96,-30.61"/>
<polygon fill="green" stroke="green" points="136.53,-34.07 145.66,-28.69 135.17,-27.2 136.53,-34.07"/>
<text text-anchor="middle" x="90" y="-50.8" font-family="Times,serif" font-size="14.00">44, &#160;0.902</text>
</g>
<!-- 43&#45;&gt;2 -->
<g id="edge3" class="edge">
<title>43&#45;&gt;2</title>
<path fill="none" stroke="green" d="M194.61,-28.34C221.36,-33.66 265.92,-42.51 294.88,-48.26"/>
<polygon fill="green" stroke="green" points="293.9,-51.64 304.39,-50.15 295.26,-44.77 293.9,-51.64"/>
<text text-anchor="middle" x="252" y="-50.8" font-family="Times,serif" font-size="14.00">45, &#160;0.019</text>
</g>
</g>
</svg>
