<?xml version="1.0" encoding="UTF-8" standalone="no"?>
<!DOCTYPE svg PUBLIC "-//W3C//DTD SVG 1.1//EN"
 "http://www.w3.org/Graphics/SVG/1.1/DTD/svg11.dtd">
<!-- Generated by graphviz version 10.0.1 (0)
 -->
<!-- Pages: 1 -->
<svg width="490pt" height="206pt"
 viewBox="0.00 0.00 490.40 206.00" xmlns="http://www.w3.org/2000/svg" xmlns:xlink="http://www.w3.org/1999/xlink">
<g id="graph0" class="graph" transform="scale(1 1) rotate(0) translate(4 202)">
<polygon fill="white" stroke="none" points="-4,4 -4,-202 486.4,-202 486.4,4 -4,4"/>
<!-- 3 -->
<g id="node1" class="node">
<title>3</title>
<ellipse fill="none" stroke="black" cx="18" cy="-72" rx="18" ry="18"/>
<text text-anchor="middle" x="18" y="-67.33" font-family="Times,serif" font-size="14.00">3</text>
</g>
<!-- 4 -->
<g id="node2" class="node">
<title>4</title>
<ellipse fill="none" stroke="black" cx="464.4" cy="-126" rx="18" ry="18"/>
<text text-anchor="middle" x="464.4" y="-121.33" font-family="Times,serif" font-size="14.00">4</text>
</g>
<!-- 3&#45;&gt;4 -->
<g id="edge1" class="edge">
<title>3&#45;&gt;4</title>
<path fill="none" stroke="green" d="M33.37,-82.29C39.47,-86.21 46.82,-90.36 54,-93 84.44,-104.21 93.77,-101.32 126,-105 240.05,-118.02 376.78,-123.4 434.95,-125.22"/>
<polygon fill="green" stroke="green" points="434.53,-128.71 444.63,-125.51 434.74,-121.71 434.53,-128.71"/>
<text text-anchor="middle" x="229.95" y="-120.95" font-family="Times,serif" font-size="14.00">18, &#160;&#45;5.054</text>
</g>
<!-- 39 -->
<g id="node3" class="node">
<title>39</title>
<ellipse fill="none" stroke="black" cx="149.85" cy="-72" rx="23.85" ry="23.85"/>
<text text-anchor="middle" x="149.85" y="-67.33" font-family="Times,serif" font-size="14.00">39</text>
</g>
<!-- 3&#45;&gt;39 -->
<g id="edge2" class="edge">
<title>3&#45;&gt;39</title>
<path fill="none" stroke="green" d="M36.24,-72C56.13,-72 89.34,-72 114.55,-72"/>
<polygon fill="green" stroke="green" points="114.32,-75.5 124.32,-72 114.32,-68.5 114.32,-75.5"/>
<text text-anchor="middle" x="81" y="-75.95" font-family="Times,serif" font-size="14.00">40, &#160;1.0</text>
</g>
<!-- 5 -->
<g id="node4" class="node">
<title>5</title>
<ellipse fill="none" stroke="black" cx="464.4" cy="-18" rx="18" ry="18"/>
<text text-anchor="middle" x="464.4" y="-13.32" font-family="Times,serif" font-size="14.00">5</text>
</g>
<!-- 3&#45;&gt;5 -->
<g id="edge3" class="edge">
<title>3&#45;&gt;5</title>
<path fill="none" stroke="green" d="M35.02,-65.75C55.68,-57.99 92.92,-45.04 126,-39 238.92,-18.37 376.24,-17.01 434.77,-17.51"/>
<polygon fill="green" stroke="green" points="434.47,-21.01 444.51,-17.62 434.55,-14.01 434.47,-21.01"/>
<text text-anchor="middle" x="229.95" y="-33.95" font-family="Times,serif" font-size="14.00">12, &#160;0.658</text>
</g>
<!-- 23 -->
<g id="node7" class="node">
<title>23</title>
<ellipse fill="none" stroke="black" cx="310.05" cy="-72" rx="23.85" ry="23.85"/>
<text text-anchor="middle" x="310.05" y="-67.33" font-family="Times,serif" font-size="14.00">23</text>
</g>
<!-- 39&#45;&gt;23 -->
<g id="edge4" class="edge">
<title>39&#45;&gt;23</title>
<path fill="none" stroke="green" d="M174.19,-72C200.67,-72 244.12,-72 274.52,-72"/>
<polygon fill="green" stroke="green" points="274.36,-75.5 284.36,-72 274.36,-68.5 274.36,-75.5"/>
<text text-anchor="middle" x="229.95" y="-75.95" font-family="Times,serif" font-size="14.00">41, &#160;3.383</text>
</g>
<!-- 1 -->
<g id="node5" class="node">
<title>1</title>
<ellipse fill="none" stroke="black" cx="18" cy="-126" rx="18" ry="18"/>
<text text-anchor="middle" x="18" y="-121.33" font-family="Times,serif" font-size="14.00">1</text>
</g>
<!-- 2 -->
<g id="node6" class="node">
<title>2</title>
<ellipse fill="none" stroke="black" cx="18" cy="-180" rx="18" ry="18"/>
<text text-anchor="middle" x="18" y="-175.32" font-family="Times,serif" font-size="14.00">2</text>
</g>
<!-- 6 -->
<g id="node8" class="node">
<title>6</title>
<ellipse fill="none" stroke="black" cx="464.4" cy="-72" rx="18" ry="18"/>
<text text-anchor="middle" x="464.4" y="-67.33" font-family="Times,serif" font-size="14.00">6</text>
</g>
<!-- 23&#45;&gt;6 -->
<g id="edge5" class="edge">
<title>23&#45;&gt;6</title>
<path fill="none" stroke="green" d="M334.19,-72C361.14,-72 405.67,-72 434.77,-72"/>
<polygon fill="green" stroke="green" points="434.69,-75.5 444.69,-72 434.69,-68.5 434.69,-75.5"/>
<text text-anchor="middle" x="390.15" y="-75.95" font-family="Times,serif" font-size="14.00">25, &#160;&#45;4.923</text>
</g>
</g>
</svg>
