<?xml version="1.0" encoding="UTF-8" standalone="no"?>
<!DOCTYPE svg PUBLIC "-//W3C//DTD SVG 1.1//EN"
 "http://www.w3.org/Graphics/SVG/1.1/DTD/svg11.dtd">
<!-- Generated by graphviz version 10.0.1 (0)
 -->
<!-- Pages: 1 -->
<svg width="917pt" height="398pt"
 viewBox="0.00 0.00 917.00 398.00" xmlns="http://www.w3.org/2000/svg" xmlns:xlink="http://www.w3.org/1999/xlink">
<g id="graph0" class="graph" transform="scale(1 1) rotate(0) translate(4 394)">
<polygon fill="white" stroke="none" points="-4,4 -4,-394 913,-394 913,4 -4,4"/>
<!-- 2 -->
<g id="node1" class="node">
<title>2</title>
<ellipse fill="none" stroke="black" cx="27" cy="-264" rx="27" ry="18"/>
<text text-anchor="middle" x="27" y="-259.32" font-family="Times,serif" font-size="14.00">2</text>
</g>
<!-- 6 -->
<g id="node2" class="node">
<title>6</title>
<ellipse fill="none" stroke="black" cx="882" cy="-284" rx="27" ry="18"/>
<text text-anchor="middle" x="882" y="-279.32" font-family="Times,serif" font-size="14.00">6</text>
</g>
<!-- 2&#45;&gt;6 -->
<g id="edge1" class="edge">
<title>2&#45;&gt;6</title>
<path fill="none" stroke="red" d="M49.72,-274.21C79.99,-287.49 136.93,-309 188,-309 188,-309 188,-309 712,-309 758.3,-309 810.97,-299.71 845.03,-292.45"/>
<polygon fill="red" stroke="red" points="845.76,-295.87 854.78,-290.31 844.26,-289.04 845.76,-295.87"/>
<text text-anchor="middle" x="434.25" y="-312.95" font-family="Times,serif" font-size="14.00">19, &#160;&#45;1.81</text>
</g>
<!-- 29 -->
<g id="node3" class="node">
<title>29</title>
<ellipse fill="none" stroke="black" cx="711" cy="-211" rx="27" ry="18"/>
<text text-anchor="middle" x="711" y="-206.32" font-family="Times,serif" font-size="14.00">29</text>
</g>
<!-- 2&#45;&gt;29 -->
<g id="edge2" class="edge">
<title>2&#45;&gt;29</title>
<path fill="none" stroke="red" d="M54.33,-264C86.04,-264 140.92,-264 188,-264 188,-264 188,-264 527.5,-264 582.22,-264 642.63,-241.76 678.4,-226.09"/>
<polygon fill="red" stroke="red" points="679.61,-229.38 687.29,-222.09 676.74,-223 679.61,-229.38"/>
<text text-anchor="middle" x="342" y="-267.95" font-family="Times,serif" font-size="14.00">30, &#160;1.0</text>
</g>
<!-- 32 -->
<g id="node4" class="node">
<title>32</title>
<ellipse fill="none" stroke="black" cx="189" cy="-146" rx="27" ry="18"/>
<text text-anchor="middle" x="189" y="-141.32" font-family="Times,serif" font-size="14.00">32</text>
</g>
<!-- 2&#45;&gt;32 -->
<g id="edge3" class="edge">
<title>2&#45;&gt;32</title>
<path fill="none" stroke="green" d="M46.04,-250.69C74.16,-229.96 128.59,-189.82 161.27,-165.71"/>
<polygon fill="green" stroke="green" points="163.08,-168.73 169.05,-159.98 158.92,-163.1 163.08,-168.73"/>
<text text-anchor="middle" x="108" y="-232.95" font-family="Times,serif" font-size="14.00">33, &#160;4.225</text>
</g>
<!-- 29&#45;&gt;6 -->
<g id="edge14" class="edge">
<title>29&#45;&gt;6</title>
<path fill="none" stroke="green" d="M734.09,-220.54C763.24,-233.13 814.76,-255.39 848.39,-269.92"/>
<polygon fill="green" stroke="green" points="846.67,-272.99 857.24,-273.74 849.45,-266.56 846.67,-272.99"/>
<text text-anchor="middle" x="801" y="-267.95" font-family="Times,serif" font-size="14.00">31, &#160;&#45;7.34</text>
</g>
<!-- 32&#45;&gt;29 -->
<g id="edge4" class="edge">
<title>32&#45;&gt;29</title>
<path fill="none" stroke="red" d="M216.05,-149.02C221.95,-149.68 228.19,-150.38 234,-151 379.9,-166.62 417.21,-163.44 562.5,-184 600.62,-189.39 643.91,-197.57 673.69,-203.51"/>
<polygon fill="red" stroke="red" points="672.81,-206.9 683.3,-205.44 674.19,-200.04 672.81,-206.9"/>
<text text-anchor="middle" x="434.25" y="-175.95" font-family="Times,serif" font-size="14.00">34, &#160;&#45;5.444</text>
</g>
<!-- 5 -->
<g id="node7" class="node">
<title>5</title>
<ellipse fill="none" stroke="black" cx="882" cy="-46" rx="27" ry="18"/>
<text text-anchor="middle" x="882" y="-41.33" font-family="Times,serif" font-size="14.00">5</text>
</g>
<!-- 32&#45;&gt;5 -->
<g id="edge5" class="edge">
<title>32&#45;&gt;5</title>
<path fill="none" stroke="red" d="M197.77,-128.68C216.42,-90 267.7,0 341,0 341,0 341,0 712,0 760.9,0 815.06,-18.15 848.57,-31.65"/>
<polygon fill="red" stroke="red" points="847.13,-34.84 857.7,-35.44 849.81,-28.38 847.13,-34.84"/>
<text text-anchor="middle" x="526.5" y="-3.95" font-family="Times,serif" font-size="14.00">38, &#160;0.341</text>
</g>
<!-- 40 -->
<g id="node8" class="node">
<title>40</title>
<ellipse fill="none" stroke="black" cx="526.5" cy="-100" rx="27" ry="18"/>
<text text-anchor="middle" x="526.5" y="-95.33" font-family="Times,serif" font-size="14.00">40</text>
</g>
<!-- 32&#45;&gt;40 -->
<g id="edge6" class="edge">
<title>32&#45;&gt;40</title>
<path fill="none" stroke="red" d="M206.27,-131.89C227.51,-114.5 266.65,-85.87 306,-74.75 369.87,-56.7 447.68,-74.59 491.41,-88.08"/>
<polygon fill="red" stroke="red" points="490.25,-91.38 500.84,-91.1 492.38,-84.71 490.25,-91.38"/>
<text text-anchor="middle" x="342" y="-78.95" font-family="Times,serif" font-size="14.00">41, &#160;1.0</text>
</g>
<!-- 45 -->
<g id="node9" class="node">
<title>45</title>
<ellipse fill="none" stroke="black" cx="526.5" cy="-211" rx="27" ry="18"/>
<text text-anchor="middle" x="526.5" y="-206.32" font-family="Times,serif" font-size="14.00">45</text>
</g>
<!-- 32&#45;&gt;45 -->
<g id="edge7" class="edge">
<title>32&#45;&gt;45</title>
<path fill="none" stroke="green" d="M205.44,-160.82C213.35,-167.52 223.52,-174.86 234,-179 320.2,-213.07 431.21,-214.87 488.16,-213.06"/>
<polygon fill="green" stroke="green" points="488.09,-216.57 497.95,-212.69 487.82,-209.57 488.09,-216.57"/>
<text text-anchor="middle" x="342" y="-212.95" font-family="Times,serif" font-size="14.00">46, &#160;7.794</text>
</g>
<!-- 53 -->
<g id="node10" class="node">
<title>53</title>
<ellipse fill="none" stroke="black" cx="342" cy="-119" rx="27" ry="18"/>
<text text-anchor="middle" x="342" y="-114.33" font-family="Times,serif" font-size="14.00">53</text>
</g>
<!-- 32&#45;&gt;53 -->
<g id="edge8" class="edge">
<title>32&#45;&gt;53</title>
<path fill="none" stroke="green" d="M214.06,-138.67C220.5,-136.88 227.48,-135.1 234,-133.75 256.98,-128.99 283.06,-125.36 303.72,-122.89"/>
<polygon fill="green" stroke="green" points="303.85,-126.4 313.38,-121.78 303.05,-119.45 303.85,-126.4"/>
<text text-anchor="middle" x="261" y="-137.95" font-family="Times,serif" font-size="14.00">54, &#160;1.0</text>
</g>
<!-- 1 -->
<g id="node5" class="node">
<title>1</title>
<ellipse fill="none" stroke="black" cx="27" cy="-318" rx="27" ry="18"/>
<text text-anchor="middle" x="27" y="-313.32" font-family="Times,serif" font-size="14.00">1</text>
</g>
<!-- 3 -->
<g id="node6" class="node">
<title>3</title>
<ellipse fill="none" stroke="black" cx="27" cy="-372" rx="27" ry="18"/>
<text text-anchor="middle" x="27" y="-367.32" font-family="Times,serif" font-size="14.00">3</text>
</g>
<!-- 40&#45;&gt;29 -->
<g id="edge11" class="edge">
<title>40&#45;&gt;29</title>
<path fill="none" stroke="green" d="M552.7,-105.57C587.9,-113.5 648.44,-127.74 657,-133.75 674.86,-146.29 688.55,-166.9 697.55,-183.68"/>
<polygon fill="green" stroke="green" points="694.21,-184.84 701.85,-192.18 700.45,-181.67 694.21,-184.84"/>
<text text-anchor="middle" x="618.75" y="-137.95" font-family="Times,serif" font-size="14.00">44, &#160;&#45;8.892</text>
</g>
<!-- 40&#45;&gt;5 -->
<g id="edge10" class="edge">
<title>40&#45;&gt;5</title>
<path fill="none" stroke="red" d="M553.74,-100.16C607.81,-99.86 735.09,-95.84 837,-67 841.36,-65.76 845.83,-64.13 850.16,-62.31"/>
<polygon fill="red" stroke="red" points="851.53,-65.53 859.15,-58.18 848.61,-59.17 851.53,-65.53"/>
<text text-anchor="middle" x="711" y="-98.95" font-family="Times,serif" font-size="14.00">42, &#160;0.341</text>
</g>
<!-- 49 -->
<g id="node11" class="node">
<title>49</title>
<ellipse fill="none" stroke="black" cx="711" cy="-46" rx="27" ry="18"/>
<text text-anchor="middle" x="711" y="-41.33" font-family="Times,serif" font-size="14.00">49</text>
</g>
<!-- 40&#45;&gt;49 -->
<g id="edge12" class="edge">
<title>40&#45;&gt;49</title>
<path fill="none" stroke="green" d="M545.81,-86.98C555.66,-80.57 568.27,-73.26 580.5,-68.75 610.4,-57.72 646.21,-51.96 672.58,-48.99"/>
<polygon fill="green" stroke="green" points="672.89,-52.48 682.47,-47.97 672.17,-45.52 672.89,-52.48"/>
<text text-anchor="middle" x="618.75" y="-72.95" font-family="Times,serif" font-size="14.00">50, &#160;9.722</text>
</g>
<!-- 45&#45;&gt;29 -->
<g id="edge13" class="edge">
<title>45&#45;&gt;29</title>
<path fill="none" stroke="green" d="M553.65,-211C584.73,-211 636.84,-211 672.28,-211"/>
<polygon fill="green" stroke="green" points="672.09,-214.5 682.09,-211 672.09,-207.5 672.09,-214.5"/>
<text text-anchor="middle" x="618.75" y="-214.95" font-family="Times,serif" font-size="14.00">47, &#160;5.871</text>
</g>
<!-- 53&#45;&gt;40 -->
<g id="edge9" class="edge">
<title>53&#45;&gt;40</title>
<path fill="none" stroke="green" d="M369.15,-116.28C400.32,-113.03 452.63,-107.59 488.08,-103.9"/>
<polygon fill="green" stroke="green" points="488.31,-107.39 497.9,-102.87 487.59,-100.43 488.31,-107.39"/>
<text text-anchor="middle" x="434.25" y="-117.95" font-family="Times,serif" font-size="14.00">55, &#160;&#45;7.204</text>
</g>
<!-- 49&#45;&gt;5 -->
<g id="edge15" class="edge">
<title>49&#45;&gt;5</title>
<path fill="none" stroke="green" d="M738.41,-46C766.6,-46 811.52,-46 843.4,-46"/>
<polygon fill="green" stroke="green" points="842.99,-49.5 852.99,-46 842.99,-42.5 842.99,-49.5"/>
<text text-anchor="middle" x="801" y="-49.95" font-family="Times,serif" font-size="14.00">51, &#160;0.341</text>
</g>
<!-- 4 -->
<g id="node12" class="node">
<title>4</title>
<ellipse fill="none" stroke="black" cx="882" cy="-338" rx="27" ry="18"/>
<text text-anchor="middle" x="882" y="-333.32" font-family="Times,serif" font-size="14.00">4</text>
</g>
</g>
</svg>
