<?xml version="1.0" encoding="UTF-8" standalone="no"?>
<!DOCTYPE svg PUBLIC "-//W3C//DTD SVG 1.1//EN"
 "http://www.w3.org/Graphics/SVG/1.1/DTD/svg11.dtd">
<!-- Generated by graphviz version 10.0.1 (0)
 -->
<!-- Pages: 1 -->
<svg width="1786pt" height="1201pt"
 viewBox="0.00 0.00 1786.45 1201.21" xmlns="http://www.w3.org/2000/svg" xmlns:xlink="http://www.w3.org/1999/xlink">
<g id="graph0" class="graph" transform="scale(1 1) rotate(0) translate(4 1197.21)">
<polygon fill="white" stroke="none" points="-4,4 -4,-1197.21 1782.45,-1197.21 1782.45,4 -4,4"/>
<!-- 1 -->
<g id="node1" class="node">
<title>1</title>
<polygon fill="none" stroke="green" points="36,-708.96 9,-690.96 36,-672.96 63,-690.96 36,-708.96"/>
<text text-anchor="middle" x="36" y="-686.29" font-family="Times,serif" font-size="14.00">1</text>
</g>
<!-- 1&#45;&gt;1 -->
<g id="edge4" class="edge">
<title>1&#45;&gt;1</title>
<path fill="none" stroke="green" d="M23.58,-700.91C14.2,-712.89 18.34,-726.96 36,-726.96 48.69,-726.96 54.4,-719.69 53.12,-711.16"/>
<polygon fill="green" stroke="green" points="56.4,-709.91 49.05,-702.29 50.04,-712.84 56.4,-709.91"/>
<text text-anchor="middle" x="36" y="-730.91" font-family="Times,serif" font-size="14.00">14, &#160;0.964</text>
</g>
<!-- 3 -->
<g id="node2" class="node">
<title>3</title>
<polygon fill="none" stroke="green" points="1778.45,-621.96 1724.45,-621.96 1724.45,-585.96 1778.45,-585.96 1778.45,-621.96"/>
<text text-anchor="middle" x="1751.45" y="-599.29" font-family="Times,serif" font-size="14.00">3</text>
</g>
<!-- 1&#45;&gt;3 -->
<g id="edge1" class="edge">
<title>1&#45;&gt;3</title>
<path fill="none" stroke="green" d="M37.46,-673.36C39.84,-587.67 51.76,-216.57 81,-174.96 122.62,-115.74 156.6,-106.96 228.98,-106.96 228.98,-106.96 228.98,-106.96 778.2,-106.96 1049.37,-106.96 1144.57,-80.89 1377.95,-218.96 1453.57,-263.7 1655.36,-367.49 1706.45,-438.96 1735.68,-479.84 1745.49,-538.93 1748.79,-574.19"/>
<polygon fill="green" stroke="green" points="1745.29,-574.4 1749.58,-584.09 1752.27,-573.84 1745.29,-574.4"/>
<text text-anchor="middle" x="887.45" y="-110.91" font-family="Times,serif" font-size="14.00">6, &#160;0.259</text>
</g>
<!-- 4 -->
<g id="node3" class="node">
<title>4</title>
<polygon fill="none" stroke="green" points="1778.45,-219.96 1724.45,-219.96 1724.45,-183.96 1778.45,-183.96 1778.45,-219.96"/>
<text text-anchor="middle" x="1751.45" y="-197.29" font-family="Times,serif" font-size="14.00">4</text>
</g>
<!-- 1&#45;&gt;4 -->
<g id="edge2" class="edge">
<title>1&#45;&gt;4</title>
<path fill="none" stroke="green" d="M37.44,-673.34C39.89,-581.25 52.6,-157.48 81,-106.96 120.65,-36.44 148.08,-0.96 228.98,-0.96 228.98,-0.96 228.98,-0.96 1554.45,-0.96 1624.2,-0.96 1656.79,9.01 1706.45,-39.96 1742.06,-75.08 1749.7,-135.91 1750.87,-172.2"/>
<polygon fill="green" stroke="green" points="1747.37,-172.04 1751.03,-181.98 1754.37,-171.93 1747.37,-172.04"/>
<text text-anchor="middle" x="887.45" y="-4.91" font-family="Times,serif" font-size="14.00">7, &#160;&#45;1.012</text>
</g>
<!-- 5 -->
<g id="node4" class="node">
<title>5</title>
<polygon fill="none" stroke="green" points="1778.45,-992.96 1724.45,-992.96 1724.45,-956.96 1778.45,-956.96 1778.45,-992.96"/>
<text text-anchor="middle" x="1751.45" y="-970.29" font-family="Times,serif" font-size="14.00">5</text>
</g>
<!-- 1&#45;&gt;5 -->
<g id="edge3" class="edge">
<title>1&#45;&gt;5</title>
<path fill="none" stroke="green" d="M42.78,-704.95C49.77,-720.33 62.89,-744.85 81,-759.96 95.56,-772.11 378.66,-883.97 396.95,-888.96 533.45,-926.2 573.71,-904.86 711.95,-934.96 972.52,-991.7 1023.97,-1065.25 1287.95,-1102.96 1473.1,-1129.41 1563.51,-1179.57 1706.45,-1058.96 1723.44,-1044.63 1734.74,-1022.06 1741.64,-1003.92"/>
<polygon fill="green" stroke="green" points="1744.85,-1005.34 1744.87,-994.74 1738.25,-1003.01 1744.85,-1005.34"/>
<text text-anchor="middle" x="887.45" y="-1004.91" font-family="Times,serif" font-size="14.00">8, &#160;1.93</text>
</g>
<!-- 16 -->
<g id="node5" class="node">
<title>16</title>
<ellipse fill="none" stroke="red" cx="1332.95" cy="-810.96" rx="23.85" ry="23.85"/>
<text text-anchor="middle" x="1332.95" y="-806.29" font-family="Times,serif" font-size="14.00">16</text>
</g>
<!-- 1&#45;&gt;16 -->
<g id="edge5" class="edge">
<title>1&#45;&gt;16</title>
<path fill="none" stroke="green" d="M36.67,-709.02C37.12,-741.05 42.9,-807.82 81,-843.96 185.57,-943.14 253.91,-899.35 396.95,-916.96 633.2,-946.05 695.38,-946.21 932.45,-924.96 1084.28,-911.35 1132.24,-929.31 1269.95,-863.96 1284.09,-857.26 1297.57,-846.47 1308.33,-836.37"/>
<polygon fill="green" stroke="green" points="1310.57,-839.07 1315.25,-829.57 1305.66,-834.08 1310.57,-839.07"/>
<text text-anchor="middle" x="666.95" y="-944.91" font-family="Times,serif" font-size="14.00">34, &#160;1.269</text>
</g>
<!-- 687 -->
<g id="node6" class="node">
<title>687</title>
<ellipse fill="none" stroke="green" cx="666.95" cy="-552.96" rx="30.16" ry="30.16"/>
<text text-anchor="middle" x="666.95" y="-548.29" font-family="Times,serif" font-size="14.00">687</text>
</g>
<!-- 1&#45;&gt;687 -->
<g id="edge6" class="edge">
<title>1&#45;&gt;687</title>
<path fill="none" stroke="green" d="M62.44,-690.05C169.86,-686.13 581.75,-670.07 603.95,-653.96 621.39,-641.31 611.19,-627.62 621.95,-608.96 626.88,-600.42 633.01,-591.76 639.12,-583.89"/>
<polygon fill="green" stroke="green" points="641.72,-586.24 645.25,-576.25 636.26,-581.86 641.72,-586.24"/>
<text text-anchor="middle" x="331.7" y="-684.91" font-family="Times,serif" font-size="14.00">693, &#160;&#45;1.515</text>
</g>
<!-- 869 -->
<g id="node7" class="node">
<title>869</title>
<ellipse fill="none" stroke="green" cx="887.45" cy="-707.96" rx="30.16" ry="30.16"/>
<text text-anchor="middle" x="887.45" y="-703.29" font-family="Times,serif" font-size="14.00">869</text>
</g>
<!-- 1&#45;&gt;869 -->
<g id="edge7" class="edge">
<title>1&#45;&gt;869</title>
<path fill="none" stroke="green" d="M48.18,-701.41C56.64,-708.85 68.85,-718.62 81,-724.96 165.02,-768.85 190.76,-774.57 284.45,-788.96 445.98,-813.77 680.23,-768.53 824.45,-731.96 832.53,-729.91 840.98,-727.11 848.95,-724.15"/>
<polygon fill="green" stroke="green" points="850,-727.5 858.04,-720.6 847.45,-720.98 850,-727.5"/>
<text text-anchor="middle" x="444.2" y="-800.91" font-family="Times,serif" font-size="14.00">882, &#160;&#45;0.085</text>
</g>
<!-- 1861 -->
<g id="node8" class="node">
<title>1861</title>
<ellipse fill="none" stroke="green" cx="887.45" cy="-344.96" rx="36.48" ry="36.48"/>
<text text-anchor="middle" x="887.45" y="-340.29" font-family="Times,serif" font-size="14.00">1861</text>
</g>
<!-- 1&#45;&gt;1861 -->
<g id="edge8" class="edge">
<title>1&#45;&gt;1861</title>
<path fill="none" stroke="green" d="M37.24,-673.46C38.54,-590.77 46.08,-241.83 81,-209.96 194.15,-106.69 690.18,-273.95 842.08,-328.61"/>
<polygon fill="green" stroke="green" points="840.81,-331.88 851.41,-331.98 843.19,-325.29 840.81,-331.88"/>
<text text-anchor="middle" x="444.2" y="-223.91" font-family="Times,serif" font-size="14.00">1862, &#160;1.94</text>
</g>
<!-- 16&#45;&gt;3 -->
<g id="edge60" class="edge">
<title>16&#45;&gt;3</title>
<path fill="none" stroke="red" d="M1353.82,-798.71C1365.74,-791.71 1381.37,-783.12 1395.95,-776.96 1436.42,-759.87 1457.92,-777.49 1490.45,-747.96 1505.87,-733.97 1492.42,-718 1508.45,-704.71 1577.69,-647.32 1630.68,-711.41 1706.45,-662.96 1718.44,-655.3 1728.33,-643.13 1735.67,-631.84"/>
<polygon fill="red" stroke="red" points="1738.5,-633.93 1740.68,-623.56 1732.51,-630.31 1738.5,-633.93"/>
<text text-anchor="middle" x="1553.45" y="-708.91" font-family="Times,serif" font-size="14.00">18, &#160;1.575</text>
</g>
<!-- 16&#45;&gt;5 -->
<g id="edge61" class="edge">
<title>16&#45;&gt;5</title>
<path fill="none" stroke="green" d="M1355.47,-819.43C1422.59,-845.86 1628.67,-927.01 1713.44,-960.39"/>
<polygon fill="green" stroke="green" points="1712.11,-963.62 1722.69,-964.03 1714.67,-957.11 1712.11,-963.62"/>
<text text-anchor="middle" x="1553.45" y="-918.91" font-family="Times,serif" font-size="14.00">38, &#160;1.689</text>
</g>
<!-- 3432 -->
<g id="node16" class="node">
<title>3432</title>
<ellipse fill="none" stroke="green" cx="1553.45" cy="-766.96" rx="36.48" ry="36.48"/>
<text text-anchor="middle" x="1553.45" y="-762.29" font-family="Times,serif" font-size="14.00">3432</text>
</g>
<!-- 16&#45;&gt;3432 -->
<g id="edge62" class="edge">
<title>16&#45;&gt;3432</title>
<path fill="none" stroke="green" d="M1356.51,-806.42C1391.7,-799.33 1460.35,-785.51 1506.32,-776.25"/>
<polygon fill="green" stroke="green" points="1506.88,-779.71 1516,-774.3 1505.5,-772.85 1506.88,-779.71"/>
<text text-anchor="middle" x="1443.2" y="-801.91" font-family="Times,serif" font-size="14.00">3433, &#160;1.008</text>
</g>
<!-- 687&#45;&gt;3 -->
<g id="edge35" class="edge">
<title>687&#45;&gt;3</title>
<path fill="none" stroke="green" d="M697.21,-550.76C748.48,-547.02 857.89,-539.58 950.45,-536.96 992.44,-535.77 1003,-534.97 1044.95,-536.96 1053.4,-537.36 1567.52,-586.48 1712.67,-600.35"/>
<polygon fill="green" stroke="green" points="1712.22,-603.82 1722.51,-601.29 1712.89,-596.85 1712.22,-603.82"/>
<text text-anchor="middle" x="1222.7" y="-562.91" font-family="Times,serif" font-size="14.00">691, &#160;&#45;0.374</text>
</g>
<!-- 687&#45;&gt;4 -->
<g id="edge30" class="edge">
<title>687&#45;&gt;4</title>
<path fill="none" stroke="green" d="M672.44,-522.88C684.74,-452.85 726.14,-279.91 842.45,-213.96 994.01,-128.03 1560.66,-181.53 1712.71,-197.76"/>
<polygon fill="green" stroke="green" points="1712.31,-201.24 1722.63,-198.83 1713.06,-194.28 1712.31,-201.24"/>
<text text-anchor="middle" x="1222.7" y="-171.91" font-family="Times,serif" font-size="14.00">727, &#160;1.168</text>
</g>
<!-- 687&#45;&gt;5 -->
<g id="edge29" class="edge">
<title>687&#45;&gt;5</title>
<path fill="none" stroke="green" d="M688.72,-574.17C697.21,-584 706.33,-596.31 711.95,-608.96 731.17,-652.24 707.07,-672.51 729.95,-713.96 762.43,-772.78 785.64,-779.09 842.45,-814.96 1140.34,-1003.05 1264.56,-969.24 1616.45,-985.96 1656.41,-987.86 1666.75,-990.85 1706.45,-985.96 1708.62,-985.69 1710.84,-985.36 1713.06,-984.97"/>
<polygon fill="green" stroke="green" points="1713.57,-988.44 1722.65,-982.97 1712.14,-981.58 1713.57,-988.44"/>
<text text-anchor="middle" x="1222.7" y="-975.91" font-family="Times,serif" font-size="14.00">690, &#160;0.056</text>
</g>
<!-- 687&#45;&gt;16 -->
<g id="edge28" class="edge">
<title>687&#45;&gt;16</title>
<path fill="none" stroke="green" d="M686.48,-576.3C694.38,-586.32 703.67,-598.17 711.95,-608.96 726.62,-628.06 821.78,-769.61 842.45,-781.96 991.67,-871.11 1214.25,-836.5 1298.24,-818.84"/>
<polygon fill="green" stroke="green" points="1298.87,-822.28 1307.9,-816.74 1297.39,-815.44 1298.87,-822.28"/>
<text text-anchor="middle" x="997.7" y="-842.91" font-family="Times,serif" font-size="14.00">689, &#160;1.606</text>
</g>
<!-- 687&#45;&gt;869 -->
<g id="edge31" class="edge">
<title>687&#45;&gt;869</title>
<path fill="none" stroke="green" d="M692.45,-569.4C703.53,-576.24 717.01,-583.78 729.95,-588.96 770.05,-605.03 789.23,-586.7 824.45,-611.71 844.88,-626.21 860.22,-649.77 870.53,-669.94"/>
<polygon fill="green" stroke="green" points="867.3,-671.28 874.81,-678.76 873.59,-668.23 867.3,-671.28"/>
<text text-anchor="middle" x="777.2" y="-615.91" font-family="Times,serif" font-size="14.00">1366, &#160;&#45;1.369</text>
</g>
<!-- 687&#45;&gt;1861 -->
<g id="edge33" class="edge">
<title>687&#45;&gt;1861</title>
<path fill="none" stroke="green" d="M673.95,-523.35C681.65,-493.03 698.03,-446.76 729.95,-420.71 763.43,-393.4 785.97,-417.59 824.45,-397.96 834.58,-392.8 844.45,-385.66 853.22,-378.3"/>
<polygon fill="green" stroke="green" points="855.28,-381.16 860.47,-371.93 850.65,-375.9 855.28,-381.16"/>
<text text-anchor="middle" x="777.2" y="-424.91" font-family="Times,serif" font-size="14.00">1973, &#160;&#45;1.916</text>
</g>
<!-- 1682 -->
<g id="node12" class="node">
<title>1682</title>
<ellipse fill="none" stroke="green" cx="1110.2" cy="-458.96" rx="36.48" ry="36.48"/>
<text text-anchor="middle" x="1110.2" y="-454.29" font-family="Times,serif" font-size="14.00">1682</text>
</g>
<!-- 687&#45;&gt;1682 -->
<g id="edge32" class="edge">
<title>687&#45;&gt;1682</title>
<path fill="none" stroke="green" d="M696.64,-546.39C707.12,-544.02 719.07,-541.34 729.95,-538.96 850.08,-512.73 991.94,-483.19 1063.3,-468.43"/>
<polygon fill="green" stroke="green" points="1063.57,-471.94 1072.65,-466.49 1062.15,-465.09 1063.57,-471.94"/>
<text text-anchor="middle" x="887.45" y="-518.91" font-family="Times,serif" font-size="14.00">1743, &#160;0.518</text>
</g>
<!-- 2381 -->
<g id="node13" class="node">
<title>2381</title>
<ellipse fill="none" stroke="green" cx="1553.45" cy="-485.96" rx="36.48" ry="36.48"/>
<text text-anchor="middle" x="1553.45" y="-481.29" font-family="Times,serif" font-size="14.00">2381</text>
</g>
<!-- 687&#45;&gt;2381 -->
<g id="edge34" class="edge">
<title>687&#45;&gt;2381</title>
<path fill="none" stroke="green" d="M682.56,-527.03C693.48,-510 709.93,-488.61 729.95,-475.96 794.27,-435.35 987.41,-405.58 1062.95,-396.71 1104.67,-391.82 1115.71,-392.05 1157.45,-396.71 1286.12,-411.07 1434.07,-450.95 1506.98,-472.21"/>
<polygon fill="green" stroke="green" points="1505.99,-475.57 1516.57,-475.03 1507.96,-468.85 1505.99,-475.57"/>
<text text-anchor="middle" x="1110.2" y="-400.91" font-family="Times,serif" font-size="14.00">2392, &#160;1.839</text>
</g>
<!-- 869&#45;&gt;1 -->
<g id="edge41" class="edge">
<title>869&#45;&gt;1</title>
<path fill="none" stroke="green" d="M857.08,-709.69C751.68,-715.48 382.76,-732.02 81,-699.96 76.72,-699.51 72.23,-698.83 67.83,-698.05"/>
<polygon fill="green" stroke="green" points="68.56,-694.62 58.07,-696.1 67.2,-701.49 68.56,-694.62"/>
<text text-anchor="middle" x="444.2" y="-723.91" font-family="Times,serif" font-size="14.00">1370, &#160;1.994</text>
</g>
<!-- 869&#45;&gt;3 -->
<g id="edge38" class="edge">
<title>869&#45;&gt;3</title>
<path fill="none" stroke="green" d="M917.87,-711.51C1024.98,-723.83 1393.01,-760.98 1490.45,-701.96 1502.48,-694.68 1497.04,-684.16 1508.45,-675.96 1582.84,-622.55 1619.09,-646.41 1706.45,-618.96 1708.68,-618.26 1710.96,-617.53 1713.26,-616.78"/>
<polygon fill="green" stroke="green" points="1714.18,-620.17 1722.56,-613.69 1711.97,-613.52 1714.18,-620.17"/>
<text text-anchor="middle" x="1332.95" y="-738.91" font-family="Times,serif" font-size="14.00">881, &#160;1.994</text>
</g>
<!-- 869&#45;&gt;4 -->
<g id="edge40" class="edge">
<title>869&#45;&gt;4</title>
<path fill="none" stroke="green" d="M893.67,-678.08C901.55,-638.15 919.03,-566.14 950.45,-511.96 987.46,-448.16 1001.35,-430.52 1062.95,-389.96 1310.21,-227.16 1422.23,-300.75 1706.45,-217.96 1708.71,-217.3 1711.02,-216.59 1713.34,-215.84"/>
<polygon fill="green" stroke="green" points="1714.34,-219.2 1722.68,-212.66 1712.09,-212.57 1714.34,-219.2"/>
<text text-anchor="middle" x="1332.95" y="-291.91" font-family="Times,serif" font-size="14.00">922, &#160;&#45;1.992</text>
</g>
<!-- 869&#45;&gt;5 -->
<g id="edge39" class="edge">
<title>869&#45;&gt;5</title>
<path fill="none" stroke="green" d="M898.94,-736.16C908.97,-759.74 926.18,-792.82 950.45,-813.96 984.72,-843.8 1008.01,-826.51 1044.95,-852.96 1116.53,-904.21 1096.7,-962.63 1175.45,-1001.96 1386.82,-1107.53 1492.12,-1126.37 1706.45,-1026.96 1717.64,-1021.77 1727.01,-1012.19 1734.19,-1002.65"/>
<polygon fill="green" stroke="green" points="1736.99,-1004.76 1739.77,-994.53 1731.22,-1000.79 1736.99,-1004.76"/>
<text text-anchor="middle" x="1332.95" y="-1085.91" font-family="Times,serif" font-size="14.00">896, &#160;2.0</text>
</g>
<!-- 869&#45;&gt;16 -->
<g id="edge36" class="edge">
<title>869&#45;&gt;16</title>
<path fill="none" stroke="green" d="M909.26,-729.02C920.51,-739.12 935.19,-750.43 950.45,-756.96 1012.81,-783.67 1215.8,-801.95 1297.46,-808.4"/>
<polygon fill="green" stroke="green" points="1297.07,-811.88 1307.31,-809.16 1297.61,-804.9 1297.07,-811.88"/>
<text text-anchor="middle" x="1110.2" y="-798.91" font-family="Times,serif" font-size="14.00">871, &#160;&#45;1.907</text>
</g>
<!-- 869&#45;&gt;869 -->
<g id="edge37" class="edge">
<title>869&#45;&gt;869</title>
<path fill="none" stroke="green" d="M867.77,-731.25C864.1,-744.2 870.66,-756.13 887.45,-756.13 899.13,-756.13 905.86,-750.36 907.64,-742.5"/>
<polygon fill="green" stroke="green" points="911.15,-742.6 907.2,-732.77 904.16,-742.91 911.15,-742.6"/>
<text text-anchor="middle" x="887.45" y="-760.08" font-family="Times,serif" font-size="14.00">886, &#160;1.189</text>
</g>
<!-- 869&#45;&gt;1682 -->
<g id="edge42" class="edge">
<title>869&#45;&gt;1682</title>
<path fill="none" stroke="green" d="M897.98,-679.38C908.02,-652.22 925.8,-611.23 950.45,-581.71 983.91,-541.64 1003.8,-544.08 1044.95,-511.96 1054.1,-504.82 1063.83,-496.95 1072.87,-489.51"/>
<polygon fill="green" stroke="green" points="1075,-492.29 1080.47,-483.21 1070.54,-486.89 1075,-492.29"/>
<text text-anchor="middle" x="997.7" y="-585.91" font-family="Times,serif" font-size="14.00">1683, &#160;&#45;1.391</text>
</g>
<!-- 869&#45;&gt;2381 -->
<g id="edge43" class="edge">
<title>869&#45;&gt;2381</title>
<path fill="none" stroke="green" d="M916.96,-700.02C993.81,-678.48 1203.89,-618.64 1269.95,-589.96 1329.12,-564.28 1335.6,-540.71 1395.95,-517.96 1431.55,-504.55 1473.92,-496.32 1505.6,-491.58"/>
<polygon fill="green" stroke="green" points="1505.85,-495.08 1515.25,-490.19 1504.86,-488.15 1505.85,-495.08"/>
<text text-anchor="middle" x="1222.7" y="-626.91" font-family="Times,serif" font-size="14.00">2410, &#160;1.614</text>
</g>
<!-- 3369 -->
<g id="node15" class="node">
<title>3369</title>
<ellipse fill="none" stroke="green" cx="1332.95" cy="-670.96" rx="36.48" ry="36.48"/>
<text text-anchor="middle" x="1332.95" y="-666.29" font-family="Times,serif" font-size="14.00">3369</text>
</g>
<!-- 869&#45;&gt;3369 -->
<g id="edge44" class="edge">
<title>869&#45;&gt;3369</title>
<path fill="none" stroke="green" d="M917.9,-705.51C993.14,-699.23 1193.02,-682.55 1284.74,-674.9"/>
<polygon fill="green" stroke="green" points="1284.98,-678.39 1294.65,-674.07 1284.4,-671.42 1284.98,-678.39"/>
<text text-anchor="middle" x="1110.2" y="-697.91" font-family="Times,serif" font-size="14.00">3379, &#160;1.346</text>
</g>
<!-- 869&#45;&gt;3432 -->
<g id="edge45" class="edge">
<title>869&#45;&gt;3432</title>
<path fill="none" stroke="green" d="M903.91,-733.62C914.97,-749.94 931.27,-770.32 950.45,-782.96 1014.09,-824.9 1211.88,-839.25 1287.95,-843.96 1378.46,-849.57 1409.13,-859.08 1490.45,-818.96 1496.57,-815.95 1506.96,-807.74 1517.5,-798.72"/>
<polygon fill="green" stroke="green" points="1519.53,-801.59 1524.77,-792.38 1514.93,-796.31 1519.53,-801.59"/>
<text text-anchor="middle" x="1222.7" y="-846.91" font-family="Times,serif" font-size="14.00">3451, &#160;1.786</text>
</g>
<!-- 1861&#45;&gt;4 -->
<g id="edge47" class="edge">
<title>1861&#45;&gt;4</title>
<path fill="none" stroke="green" d="M922.4,-333.12C990.67,-309.86 1149.85,-258.42 1287.95,-234.71 1444.16,-207.9 1633.67,-202.96 1712.85,-202.11"/>
<polygon fill="green" stroke="green" points="1712.68,-205.61 1722.64,-202.02 1712.61,-198.61 1712.68,-205.61"/>
<text text-anchor="middle" x="1332.95" y="-238.91" font-family="Times,serif" font-size="14.00">1893, &#160;1.017</text>
</g>
<!-- 1861&#45;&gt;16 -->
<g id="edge46" class="edge">
<title>1861&#45;&gt;16</title>
<path fill="none" stroke="green" d="M903.24,-378.07C912.83,-400.72 924.9,-431.67 932.45,-459.96 945.69,-509.52 916.64,-535.39 950.45,-573.96 979.33,-606.9 1004.58,-584.97 1044.95,-601.96 1097.72,-624.17 1110.3,-632.24 1157.45,-664.71 1213.93,-703.61 1274.01,-756.96 1306.86,-787.3"/>
<polygon fill="green" stroke="green" points="1304.18,-789.59 1313.89,-793.83 1308.94,-784.46 1304.18,-789.59"/>
<text text-anchor="middle" x="1110.2" y="-668.91" font-family="Times,serif" font-size="14.00">1863, &#160;1.857</text>
</g>
<!-- 2 -->
<g id="node9" class="node">
<title>2</title>
<polygon fill="none" stroke="green" points="36,-934.96 9,-916.96 36,-898.96 63,-916.96 36,-934.96"/>
<text text-anchor="middle" x="36" y="-912.29" font-family="Times,serif" font-size="14.00">2</text>
</g>
<!-- 2&#45;&gt;3 -->
<g id="edge9" class="edge">
<title>2&#45;&gt;3</title>
<path fill="none" stroke="green" d="M55.89,-922.04C163.41,-950.94 694.5,-1093.41 729.95,-1097.96 911.5,-1121.28 1041.37,-1196.06 1377.95,-1081.96 1552.48,-1022.8 1614.27,-988.53 1706.45,-828.96 1742.75,-766.14 1749.66,-678.7 1750.64,-633.56"/>
<polygon fill="green" stroke="green" points="1754.13,-633.81 1750.76,-623.77 1747.14,-633.73 1754.13,-633.81"/>
<text text-anchor="middle" x="887.45" y="-1137.91" font-family="Times,serif" font-size="14.00">9, &#160;0.867</text>
</g>
<!-- 2&#45;&gt;4 -->
<g id="edge10" class="edge">
<title>2&#45;&gt;4</title>
<path fill="none" stroke="green" d="M40,-901.2C45.44,-872.04 56.92,-807.69 63,-752.96 69.91,-690.77 56.79,-529.66 81,-471.96 133.43,-347.04 169.66,-316.91 284.45,-244.96 562.16,-70.91 668.96,-53.96 996.7,-53.96 996.7,-53.96 996.7,-53.96 1554.45,-53.96 1633.37,-53.96 1700.63,-131.32 1731.83,-174.18"/>
<polygon fill="green" stroke="green" points="1728.94,-176.15 1737.58,-182.28 1734.65,-172.1 1728.94,-176.15"/>
<text text-anchor="middle" x="887.45" y="-60.91" font-family="Times,serif" font-size="14.00">10, &#160;&#45;1.766</text>
</g>
<!-- 2&#45;&gt;5 -->
<g id="edge11" class="edge">
<title>2&#45;&gt;5</title>
<path fill="none" stroke="green" d="M36.17,-935.28C35.49,-972.19 39,-1056.37 81,-1107.96 126.69,-1164.09 156.6,-1175.96 228.98,-1175.96 228.98,-1175.96 228.98,-1175.96 1554.45,-1175.96 1623.15,-1175.96 1656.28,-1194.88 1706.45,-1147.96 1727.14,-1128.62 1740.71,-1048.73 1746.79,-1004.6"/>
<polygon fill="green" stroke="green" points="1750.22,-1005.31 1748.07,-994.94 1743.28,-1004.39 1750.22,-1005.31"/>
<text text-anchor="middle" x="887.45" y="-1179.91" font-family="Times,serif" font-size="14.00">11, &#160;&#45;0.116</text>
</g>
<!-- 2&#45;&gt;16 -->
<g id="edge12" class="edge">
<title>2&#45;&gt;16</title>
<path fill="none" stroke="red" d="M40.65,-932.29C46.04,-951.4 58.07,-983.52 81,-999.96 135.15,-1038.79 162.35,-1023.96 228.98,-1023.96 228.98,-1023.96 228.98,-1023.96 998.7,-1023.96 1059.37,-1023.96 1222.71,-1031.02 1269.95,-992.96 1314.29,-957.24 1327.07,-888.33 1330.66,-846.31"/>
<polygon fill="red" stroke="red" points="1334.14,-846.7 1331.36,-836.48 1327.16,-846.2 1334.14,-846.7"/>
<text text-anchor="middle" x="666.95" y="-1027.91" font-family="Times,serif" font-size="14.00">17, &#160;0.639</text>
</g>
<!-- 2&#45;&gt;687 -->
<g id="edge13" class="edge">
<title>2&#45;&gt;687</title>
<path fill="none" stroke="green" d="M54.2,-910.73C144.99,-877.69 565.86,-722.69 603.95,-674.96 622.92,-651.2 608.29,-636.12 621.95,-608.96 626.39,-600.15 632.33,-591.39 638.41,-583.51"/>
<polygon fill="green" stroke="green" points="641.01,-585.86 644.58,-575.88 635.57,-581.46 641.01,-585.86"/>
<text text-anchor="middle" x="331.7" y="-827.91" font-family="Times,serif" font-size="14.00">688, &#160;1.681</text>
</g>
<!-- 2&#45;&gt;869 -->
<g id="edge14" class="edge">
<title>2&#45;&gt;869</title>
<path fill="none" stroke="green" d="M59.63,-914.4C87.13,-911.17 134.87,-905.15 175.5,-897.96 466.14,-846.53 557.59,-883.05 824.45,-756.96 835.73,-751.63 846.82,-743.91 856.44,-736.16"/>
<polygon fill="green" stroke="green" points="858.61,-738.9 864,-729.78 854.1,-733.55 858.61,-738.9"/>
<text text-anchor="middle" x="444.2" y="-872.91" font-family="Times,serif" font-size="14.00">870, &#160;1.867</text>
</g>
<!-- 2&#45;&gt;1861 -->
<g id="edge15" class="edge">
<title>2&#45;&gt;1861</title>
<path fill="none" stroke="green" d="M40.01,-901.42C54.58,-827.83 120.1,-515.32 193.5,-453.96 386.3,-292.79 718.49,-320.62 840.11,-337.48"/>
<polygon fill="green" stroke="green" points="839.32,-340.9 849.72,-338.86 840.31,-333.97 839.32,-340.9"/>
<text text-anchor="middle" x="444.2" y="-357.91" font-family="Times,serif" font-size="14.00">1875, &#160;&#45;1.732</text>
</g>
<!-- 2038 -->
<g id="node10" class="node">
<title>2038</title>
<ellipse fill="none" stroke="green" cx="229.98" cy="-498.96" rx="36.48" ry="36.48"/>
<text text-anchor="middle" x="229.98" y="-494.29" font-family="Times,serif" font-size="14.00">2038</text>
</g>
<!-- 2&#45;&gt;2038 -->
<g id="edge16" class="edge">
<title>2&#45;&gt;2038</title>
<path fill="none" stroke="green" d="M40.64,-901.7C46.2,-881.34 58.59,-845.25 81,-822.71 113.77,-789.76 147.05,-814.7 175.5,-777.96 202.96,-742.5 218.39,-616.61 225.03,-546.67"/>
<polygon fill="green" stroke="green" points="228.48,-547.32 225.92,-537.04 221.51,-546.68 228.48,-547.32"/>
<text text-anchor="middle" x="128.25" y="-826.91" font-family="Times,serif" font-size="14.00">2039, &#160;&#45;1.956</text>
</g>
<!-- 3511 -->
<g id="node11" class="node">
<title>3511</title>
<ellipse fill="none" stroke="green" cx="229.98" cy="-1097.96" rx="36.48" ry="36.48"/>
<text text-anchor="middle" x="229.98" y="-1093.29" font-family="Times,serif" font-size="14.00">3511</text>
</g>
<!-- 2&#45;&gt;3511 -->
<g id="edge17" class="edge">
<title>2&#45;&gt;3511</title>
<path fill="none" stroke="green" d="M38.77,-933.68C42.32,-959.34 52.61,-1008.52 81,-1037.96 108.11,-1066.08 150.2,-1081.42 182.57,-1089.53"/>
<polygon fill="green" stroke="green" points="181.57,-1092.89 192.1,-1091.76 183.16,-1086.08 181.57,-1092.89"/>
<text text-anchor="middle" x="128.25" y="-1090.91" font-family="Times,serif" font-size="14.00">3512, &#160;1.821</text>
</g>
<!-- 2038&#45;&gt;869 -->
<g id="edge20" class="edge">
<title>2038&#45;&gt;869</title>
<path fill="none" stroke="green" d="M257.37,-523.79C265.6,-530.66 275.02,-537.67 284.45,-542.96 477.21,-651.06 744.87,-691.64 845.79,-703.68"/>
<polygon fill="green" stroke="green" points="845.13,-707.12 855.47,-704.8 845.94,-700.17 845.13,-707.12"/>
<text text-anchor="middle" x="556.7" y="-663.91" font-family="Times,serif" font-size="14.00">2053, &#160;0.492</text>
</g>
<!-- 2038&#45;&gt;1861 -->
<g id="edge18" class="edge">
<title>2038&#45;&gt;1861</title>
<path fill="none" stroke="green" d="M266.17,-492.52C377,-472.08 717.73,-407.94 824.45,-372.96 831.01,-370.81 837.8,-368.19 844.38,-365.42"/>
<polygon fill="green" stroke="green" points="845.34,-368.82 853.09,-361.59 842.53,-362.41 845.34,-368.82"/>
<text text-anchor="middle" x="556.7" y="-449.91" font-family="Times,serif" font-size="14.00">2040, &#160;1.994</text>
</g>
<!-- 2038&#45;&gt;2038 -->
<g id="edge19" class="edge">
<title>2038&#45;&gt;2038</title>
<path fill="none" stroke="green" d="M211,-530.58C210.04,-543.04 216.37,-553.44 229.98,-553.44 239.12,-553.44 244.98,-548.74 247.55,-541.89"/>
<polygon fill="green" stroke="green" points="251,-542.44 248.77,-532.09 244.06,-541.58 251,-542.44"/>
<text text-anchor="middle" x="229.98" y="-557.39" font-family="Times,serif" font-size="14.00">2049, &#160;1.014</text>
</g>
<!-- 2038&#45;&gt;1682 -->
<g id="edge21" class="edge">
<title>2038&#45;&gt;1682</title>
<path fill="none" stroke="green" d="M253.34,-470.6C282.37,-436.06 336.52,-378.99 396.95,-351.96 578.93,-270.58 643.45,-311.54 842.45,-299.96 882.39,-297.64 895.11,-285.64 932.45,-299.96 965.96,-312.82 1035.51,-381.58 1076.67,-424.36"/>
<polygon fill="green" stroke="green" points="1074.02,-426.65 1083.46,-431.45 1079.07,-421.81 1074.02,-426.65"/>
<text text-anchor="middle" x="666.95" y="-305.91" font-family="Times,serif" font-size="14.00">2063, &#160;0.124</text>
</g>
<!-- 2038&#45;&gt;2381 -->
<g id="edge22" class="edge">
<title>2038&#45;&gt;2381</title>
<path fill="none" stroke="green" d="M239.75,-463.31C248.16,-433.5 262.8,-390.72 284.45,-357.96 333.53,-283.73 354.22,-235.96 443.2,-235.96 443.2,-235.96 443.2,-235.96 998.7,-235.96 1116.18,-235.96 1390.62,-368.04 1490.45,-429.96 1500.44,-436.15 1510.31,-444.03 1519.14,-451.91"/>
<polygon fill="green" stroke="green" points="1516.77,-454.48 1526.48,-458.7 1521.52,-449.34 1516.77,-454.48"/>
<text text-anchor="middle" x="887.45" y="-239.91" font-family="Times,serif" font-size="14.00">2414, &#160;0.074</text>
</g>
<!-- 2598 -->
<g id="node14" class="node">
<title>2598</title>
<ellipse fill="none" stroke="red" cx="444.2" cy="-531.96" rx="36.48" ry="36.48"/>
<text text-anchor="middle" x="444.2" y="-527.29" font-family="Times,serif" font-size="14.00">2598</text>
</g>
<!-- 2038&#45;&gt;2598 -->
<g id="edge23" class="edge">
<title>2038&#45;&gt;2598</title>
<path fill="none" stroke="green" d="M266.5,-504.49C302.19,-510.03 357.37,-518.61 396.56,-524.71"/>
<polygon fill="green" stroke="green" points="396.01,-528.16 406.42,-526.24 397.08,-521.25 396.01,-528.16"/>
<text text-anchor="middle" x="331.7" y="-525.91" font-family="Times,serif" font-size="14.00">2599, &#160;&#45;1.426</text>
</g>
<!-- 3511&#45;&gt;16 -->
<g id="edge24" class="edge">
<title>3511&#45;&gt;16</title>
<path fill="none" stroke="green" d="M266.94,-1097.88C441.16,-1097.17 1192.14,-1090.26 1269.95,-1023.96 1321.84,-979.75 1331.62,-894.85 1332.71,-846.66"/>
<polygon fill="green" stroke="green" points="1336.21,-846.8 1332.81,-836.76 1329.21,-846.73 1336.21,-846.8"/>
<text text-anchor="middle" x="777.2" y="-1091.91" font-family="Times,serif" font-size="14.00">3513, &#160;0.994</text>
</g>
<!-- 1682&#45;&gt;3 -->
<g id="edge57" class="edge">
<title>1682&#45;&gt;3</title>
<path fill="none" stroke="green" d="M1146.8,-454C1227.47,-443.54 1430.25,-421.75 1598.45,-440.96 1647.4,-446.55 1670.23,-432.57 1706.45,-465.96 1736.95,-494.07 1746.41,-543.24 1749.29,-574.67"/>
<polygon fill="green" stroke="green" points="1745.77,-574.53 1749.99,-584.25 1752.75,-574.02 1745.77,-574.53"/>
<text text-anchor="middle" x="1443.2" y="-438.91" font-family="Times,serif" font-size="14.00">1686, &#160;&#45;1.642</text>
</g>
<!-- 1682&#45;&gt;4 -->
<g id="edge55" class="edge">
<title>1682&#45;&gt;4</title>
<path fill="none" stroke="red" d="M1141.95,-440.56C1192.84,-411.05 1298.63,-353.63 1395.95,-325.71 1462.77,-306.55 1649.46,-327.75 1706.45,-287.96 1725.56,-274.62 1736.89,-250.43 1743.25,-231.09"/>
<polygon fill="red" stroke="red" points="1746.59,-232.14 1746.09,-221.56 1739.89,-230.14 1746.59,-232.14"/>
<text text-anchor="middle" x="1443.2" y="-329.91" font-family="Times,serif" font-size="14.00">1685, &#160;0.608</text>
</g>
<!-- 1682&#45;&gt;5 -->
<g id="edge54" class="edge">
<title>1682&#45;&gt;5</title>
<path fill="none" stroke="green" d="M1121.36,-494.12C1132.74,-531.87 1152.62,-593.28 1175.45,-643.96 1217.35,-736.95 1211.74,-776.19 1287.95,-843.96 1413.18,-955.32 1626.52,-972.58 1712.69,-974.85"/>
<polygon fill="green" stroke="green" points="1712.4,-978.34 1722.47,-975.05 1712.54,-971.34 1712.4,-978.34"/>
<text text-anchor="middle" x="1443.2" y="-947.91" font-family="Times,serif" font-size="14.00">1701, &#160;0.438</text>
</g>
<!-- 1682&#45;&gt;16 -->
<g id="edge53" class="edge">
<title>1682&#45;&gt;16</title>
<path fill="none" stroke="green" d="M1137.63,-483.65C1148.62,-492.77 1161.96,-502.46 1175.45,-508.96 1214.38,-527.7 1241.93,-498.84 1269.95,-531.71 1303.54,-571.11 1267.09,-716.59 1287.95,-763.96 1292.03,-773.23 1298.73,-781.82 1305.69,-789.05"/>
<polygon fill="green" stroke="green" points="1303.11,-791.42 1312.74,-795.83 1307.96,-786.38 1303.11,-791.42"/>
<text text-anchor="middle" x="1222.7" y="-535.91" font-family="Times,serif" font-size="14.00">1684, &#160;&#45;1.523</text>
</g>
<!-- 1682&#45;&gt;687 -->
<g id="edge58" class="edge">
<title>1682&#45;&gt;687</title>
<path fill="none" stroke="red" d="M1073.4,-458.05C1021.81,-457.44 923.81,-458.95 842.45,-475.71 790.44,-486.43 777.98,-493.3 729.95,-515.96 720.73,-520.31 711.1,-525.64 702.27,-530.88"/>
<polygon fill="red" stroke="red" points="700.71,-527.73 693.98,-535.91 704.34,-533.71 700.71,-527.73"/>
<text text-anchor="middle" x="887.45" y="-479.91" font-family="Times,serif" font-size="14.00">2133, &#160;1.0</text>
</g>
<!-- 1682&#45;&gt;2381 -->
<g id="edge56" class="edge">
<title>1682&#45;&gt;2381</title>
<path fill="none" stroke="green" d="M1146.94,-461.15C1226.17,-466 1416.56,-477.65 1505.37,-483.08"/>
<polygon fill="green" stroke="green" points="1504.99,-486.56 1515.18,-483.68 1505.41,-479.58 1504.99,-486.56"/>
<text text-anchor="middle" x="1332.95" y="-479.91" font-family="Times,serif" font-size="14.00">2382, &#160;1.995</text>
</g>
<!-- 1682&#45;&gt;3369 -->
<g id="edge59" class="edge">
<title>1682&#45;&gt;3369</title>
<path fill="none" stroke="green" d="M1146.42,-464.34C1190.32,-471.34 1260.73,-483.61 1269.95,-491.71 1307.64,-524.81 1322.43,-581.98 1328.23,-622.86"/>
<polygon fill="green" stroke="green" points="1324.74,-623.21 1329.48,-632.69 1331.69,-622.33 1324.74,-623.21"/>
<text text-anchor="middle" x="1222.7" y="-495.91" font-family="Times,serif" font-size="14.00">3370, &#160;&#45;0.826</text>
</g>
<!-- 2381&#45;&gt;3 -->
<g id="edge65" class="edge">
<title>2381&#45;&gt;3</title>
<path fill="none" stroke="green" d="M1588.87,-475.8C1622.04,-468.22 1672.13,-462.81 1706.45,-486.71 1734.74,-506.41 1744.87,-546.68 1748.48,-574.49"/>
<polygon fill="green" stroke="green" points="1744.99,-574.82 1749.53,-584.4 1751.95,-574.08 1744.99,-574.82"/>
<text text-anchor="middle" x="1661.45" y="-490.91" font-family="Times,serif" font-size="14.00">2406, &#160;&#45;1.99</text>
</g>
<!-- 2381&#45;&gt;4 -->
<g id="edge63" class="edge">
<title>2381&#45;&gt;4</title>
<path fill="none" stroke="green" d="M1581.41,-462.21C1614.67,-431.67 1671.15,-375.67 1706.45,-317.96 1723.26,-290.49 1735.45,-255.53 1742.67,-231.21"/>
<polygon fill="green" stroke="green" points="1746.02,-232.23 1745.41,-221.66 1739.29,-230.31 1746.02,-232.23"/>
<text text-anchor="middle" x="1661.45" y="-430.91" font-family="Times,serif" font-size="14.00">2383, &#160;0.677</text>
</g>
<!-- 2381&#45;&gt;5 -->
<g id="edge64" class="edge">
<title>2381&#45;&gt;5</title>
<path fill="none" stroke="green" d="M1580.33,-511.31C1615.19,-547.12 1676.31,-616.18 1706.45,-687.71 1743.72,-776.13 1749.9,-891.71 1750.61,-945.3"/>
<polygon fill="green" stroke="green" points="1747.11,-945.16 1750.68,-955.14 1754.11,-945.11 1747.11,-945.16"/>
<text text-anchor="middle" x="1661.45" y="-691.91" font-family="Times,serif" font-size="14.00">2400, &#160;0.68</text>
</g>
<!-- 2598&#45;&gt;4 -->
<g id="edge27" class="edge">
<title>2598&#45;&gt;4</title>
<path fill="none" stroke="green" d="M461.94,-499.94C474.1,-477.67 491.5,-447.66 509.45,-422.96 616.91,-275.21 665.54,-227.56 842.45,-181.96 1167.83,-98.09 1263.41,-150.51 1598.45,-175.96 1646.48,-179.61 1659.51,-174.17 1706.45,-184.96 1708.76,-185.49 1711.11,-186.12 1713.46,-186.82"/>
<polygon fill="green" stroke="green" points="1712.28,-190.11 1722.88,-189.98 1714.51,-183.48 1712.28,-190.11"/>
<text text-anchor="middle" x="1110.2" y="-144.91" font-family="Times,serif" font-size="14.00">2687, &#160;&#45;0.826</text>
</g>
<!-- 2598&#45;&gt;687 -->
<g id="edge26" class="edge">
<title>2598&#45;&gt;687</title>
<path fill="none" stroke="green" d="M480.67,-535.34C520.13,-539.09 583.79,-545.15 625.25,-549.09"/>
<polygon fill="green" stroke="green" points="624.78,-552.56 635.07,-550.02 625.45,-545.59 624.78,-552.56"/>
<text text-anchor="middle" x="556.7" y="-550.91" font-family="Times,serif" font-size="14.00">2618, &#160;&#45;1.481</text>
</g>
<!-- 2598&#45;&gt;869 -->
<g id="edge25" class="edge">
<title>2598&#45;&gt;869</title>
<path fill="none" stroke="green" d="M476.02,-550.64C486.44,-556.58 498.27,-562.9 509.45,-567.96 644.7,-629.13 687.06,-622.78 824.45,-678.96 832.64,-682.31 841.3,-686.16 849.47,-689.94"/>
<polygon fill="green" stroke="green" points="847.95,-693.09 858.48,-694.17 850.92,-686.75 847.95,-693.09"/>
<text text-anchor="middle" x="666.95" y="-642.91" font-family="Times,serif" font-size="14.00">2600, &#160;1.057</text>
</g>
<!-- 3369&#45;&gt;3 -->
<g id="edge51" class="edge">
<title>3369&#45;&gt;3</title>
<path fill="none" stroke="green" d="M1367.47,-658.1C1402.17,-645.42 1458.25,-626.66 1508.45,-617.71 1579.87,-604.98 1664.84,-603.16 1712.73,-603.33"/>
<polygon fill="green" stroke="green" points="1712.53,-606.83 1722.56,-603.4 1712.58,-599.83 1712.53,-606.83"/>
<text text-anchor="middle" x="1553.45" y="-621.91" font-family="Times,serif" font-size="14.00">3381, &#160;1.019</text>
</g>
<!-- 3369&#45;&gt;5 -->
<g id="edge50" class="edge">
<title>3369&#45;&gt;5</title>
<path fill="none" stroke="green" d="M1366.23,-686.59C1400.57,-704.51 1454.76,-736.69 1490.45,-776.96 1502.06,-790.05 1496.21,-799.47 1508.45,-811.96 1517.2,-820.89 1696.89,-910.91 1706.45,-918.96 1716.03,-927.03 1724.91,-937.47 1732.15,-947.15"/>
<polygon fill="green" stroke="green" points="1729.27,-949.14 1737.93,-955.23 1734.96,-945.06 1729.27,-949.14"/>
<text text-anchor="middle" x="1553.45" y="-864.91" font-family="Times,serif" font-size="14.00">3385, &#160;1.0</text>
</g>
<!-- 3369&#45;&gt;687 -->
<g id="edge48" class="edge">
<title>3369&#45;&gt;687</title>
<path fill="none" stroke="green" d="M1296.56,-667.64C1244.98,-662.58 1146.24,-652 1062.95,-637.96 931.91,-615.87 778.49,-579.92 707.59,-562.73"/>
<polygon fill="green" stroke="green" points="708.54,-559.36 698,-560.39 706.89,-566.16 708.54,-559.36"/>
<text text-anchor="middle" x="997.7" y="-638.91" font-family="Times,serif" font-size="14.00">3371, &#160;1.0</text>
</g>
<!-- 3369&#45;&gt;2381 -->
<g id="edge49" class="edge">
<title>3369&#45;&gt;2381</title>
<path fill="none" stroke="green" d="M1359.64,-645.39C1366.21,-637.94 1372.85,-629.49 1377.95,-620.96 1389.71,-601.32 1381.02,-590.06 1395.95,-572.71 1404.33,-562.99 1467.1,-529.67 1510.56,-507.27"/>
<polygon fill="green" stroke="green" points="1511.95,-510.49 1519.25,-502.8 1508.76,-504.26 1511.95,-510.49"/>
<text text-anchor="middle" x="1443.2" y="-576.91" font-family="Times,serif" font-size="14.00">3372, &#160;0.998</text>
</g>
<!-- 3369&#45;&gt;3432 -->
<g id="edge52" class="edge">
<title>3369&#45;&gt;3432</title>
<path fill="none" stroke="green" d="M1369.06,-663.83C1402.98,-658.95 1454.37,-657.05 1490.45,-680.71 1505.16,-690.36 1498.64,-701.36 1508.45,-715.96 1512.09,-721.37 1516.23,-726.84 1520.48,-732.09"/>
<polygon fill="green" stroke="green" points="1517.59,-734.09 1526.7,-739.51 1522.95,-729.59 1517.59,-734.09"/>
<text text-anchor="middle" x="1443.2" y="-684.91" font-family="Times,serif" font-size="14.00">3456, &#160;1.256</text>
</g>
<!-- 3432&#45;&gt;3 -->
<g id="edge66" class="edge">
<title>3432&#45;&gt;3</title>
<path fill="none" stroke="green" d="M1588.53,-755.55C1630.58,-741.23 1697.63,-717.51 1706.45,-708.96 1727.47,-688.61 1738.89,-656.7 1744.79,-633.39"/>
<polygon fill="green" stroke="green" points="1748.14,-634.42 1746.98,-623.89 1741.32,-632.85 1748.14,-634.42"/>
<text text-anchor="middle" x="1661.45" y="-749.91" font-family="Times,serif" font-size="14.00">3434, &#160;1.759</text>
</g>
<!-- 3432&#45;&gt;5 -->
<g id="edge67" class="edge">
<title>3432&#45;&gt;5</title>
<path fill="none" stroke="green" d="M1590.19,-766.82C1624.6,-768.66 1675.81,-776.92 1706.45,-807.71 1743.15,-844.58 1750.33,-908.15 1751.14,-945.39"/>
<polygon fill="green" stroke="green" points="1747.63,-945 1751.19,-954.98 1754.63,-944.96 1747.63,-945"/>
<text text-anchor="middle" x="1661.45" y="-811.91" font-family="Times,serif" font-size="14.00">3439, &#160;0.998</text>
</g>
</g>
</svg>
